<?xml version="1.0" encoding="UTF-8" standalone="no"?>
<!-- Created with Inkscape (http://www.inkscape.org/) -->

<svg
   xmlns:dc="http://purl.org/dc/elements/1.1/"
   xmlns:cc="http://creativecommons.org/ns#"
   xmlns:rdf="http://www.w3.org/1999/02/22-rdf-syntax-ns#"
   xmlns:svg="http://www.w3.org/2000/svg"
   xmlns="http://www.w3.org/2000/svg"
   xmlns:sodipodi="http://sodipodi.sourceforge.net/DTD/sodipodi-0.dtd"
   xmlns:inkscape="http://www.inkscape.org/namespaces/inkscape"
   version="1.1"
   width="600"
   height="550"
   id="svg5227"
   sodipodi:docname="alpha.svg"
   inkscape:version="0.92.2 5c3e80d, 2017-08-06">
  
  <defs
     id="defs5229" />
  <metadata
     id="metadata5232">
    <rdf:RDF>
      <cc:Work
         rdf:about="">
        <dc:format>image/svg+xml</dc:format>
        <dc:type
           rdf:resource="http://purl.org/dc/dcmitype/StillImage" />
        <dc:title />
      </cc:Work>
    </rdf:RDF>
  </metadata>
  <path
     d="M 419.33,30 H 179.56 l -1.14,0.15 c -16.19,1.74 -38.56,13.40 -46.04,37.93 -20.38,5.62 -96.99,27.01 -96.99,27.01 l -0.94,0.34 C 21.23,100.53 0,117.57 0,148.77 c 0,5.57 0.65,11.61 2.19,18.14 l 91.50,341.44 2.48,3.38 c 10.32,13.80 35.53,34.93 64.29,26.76 0,0 128.92,-35.48 139.59,-38.42 10.61,2.94 139.75,38.48 139.75,38.48 28.55,8.11 53.71,-13.01 64.08,-26.81 l 2.48,-3.34 91.35,-340.83 c 1.55,-6.73 2.24,-12.91 2.24,-18.58 0,-31.45 -21.17,-48.44 -34.33,-53.53 l -0.94,-0.34 c 0,0 -76.60,-21.38 -96.99,-27.01 C 460.25,43.56 437.82,31.90 421.68,30.15 L 420.53,30 h -1.19 z"
     inkscape:connector-curvature="0"
     id="path314"
     style="fill:#ffffff;fill-opacity:1;fill-rule:nonzero;stroke:none" />
  <path
     d="m 180.71,51.72 c 0,0 -29.35,3.18 -29.35,33.59 L 42.21,115.72 c 0,0 -27.26,10.51 -18.89,46.19 l 90.25,336.76 c 0,0 18.89,25.21 40.91,18.88 l 145.57,-40.02 145.53,40.02 c 22.02,6.32 40.91,-18.88 40.91,-18.88 l 90.20,-336.76 c 8.42,-35.68 -18.84,-46.19 -18.84,-46.19 L 448.74,85.32 c 0,-30.40 -29.40,-33.59 -29.40,-33.59 z"
     inkscape:connector-curvature="0"
     id="path316"
     style="fill:#000000;fill-opacity:1;fill-rule:nonzero;stroke:none" />
  <path
     d="m 181.65,64.34 c -1.33,0.24 -5.57,1.18 -9.51,3.84 -5.62,3.72 -8.21,9.16 -8.21,17.13 v 9.56 c 0,0 -115.78,32.30 -117.46,32.75 -3.04,1.39 -12.12,6.87 -12.12,21.37 0,2.94 0.40,6.23 1.25,9.97 0.15,0.54 88.00,328.48 89.46,333.76 3.82,4.38 15.24,15.79 26.01,12.75 l 149.00,-41.01 148.96,41.01 c 10.76,3.03 22.13,-8.36 26.01,-12.75 1.45,-5.28 89.31,-333.21 89.46,-333.76 0.84,-3.73 1.25,-7.02 1.25,-9.97 0,-14.49 -9.12,-19.98 -12.12,-21.37 C 551.96,127.19 436.12,94.89 436.12,94.89 v -9.56 c 0,-7.97 -2.59,-13.40 -8.16,-17.13 -3.94,-2.65 -8.17,-3.59 -9.56,-3.84 z"
     inkscape:connector-curvature="0"
     id="path318"
     style="fill:#ffffff;fill-opacity:1;fill-rule:nonzero;stroke:none" />
  <path
     d="m 438.73,111.54 v 323.85 c 0,0 -2.84,20.97 -19.59,20.97 H 328.18 L 449.89,489.961 c 0,0 7.01,3.49 10.46,-4.18 l 89.55,-332.27 c 0,0 3.49,-10.46 -4.92,-13.25 z M 55.06,140.94 c -8.42,2.78 -4.88,13.25 -4.88,13.25 l 89.51,332.27 c 3.53,7.66 10.51,4.18 10.51,4.18 l 121.70,-33.54 h -90.90 c -16.84,0 -19.58,-21.03 -19.58,-21.03 V 112.24 Z M 183.09,80.09 h 234.29 c 4.88,0 5.57,6.27 5.57,6.27 v 348.32 c 0,5.58 -5.57,6.97 -5.57,6.97 H 183.09 c -4.92,0 -4.92,-6.97 -4.92,-6.97 V 86.36 c 0,-4.18 4.92,-6.27 4.92,-6.27"
     inkscape:connector-curvature="0"
     id="path320"
     style="fill:#000000;fill-opacity:1;fill-rule:nonzero;stroke:none" />
  <g
     id="text4394"
     style="font-style:normal;font-variant:normal;font-weight:100;font-stretch:normal;font-size:314.64px;line-height:125%;font-family:GoudyMedieval;-inkscape-font-specification:'GoudyMedieval Thin';text-align:start;letter-spacing:0px;word-spacing:0px;writing-mode:lr-tb;text-anchor:start;fill:#ffffff;fill-opacity:1;stroke:none"
     transform="translate(0,30)">
    <path
       d="m 372.10,128.92 c -2.93,2.09 -7.76,3.62 -14.47,4.56 -6.71,0.94 -10.22,2.09 -10.53,3.46 -0.31,1.36 -0.47,3.51 -0.47,6.45 -1.5e-4,9.43 2.41,26.89 7.23,52.38 4.82,25.48 7.97,39.90 9.44,43.26 1.88,13.84 4.92,31.46 9.12,52.85 4.19,21.39 7.91,33.19 11.16,35.39 3.25,2.20 8.33,3.30 15.26,3.30 6.92,1e-5 9.96,3.66 9.12,11.00 -4.19,0.84 -7.45,1.26 -9.75,1.26 -2.09,0 -6.296,-0.47 -12.58,-1.41 -6.29,-0.94 -16.25,-1.41 -29.89,-1.41 -12.58,0 -20.81,0.52 -24.69,1.56 -3.87,1.04 -6.03,1.36 -6.45,0.94 -2.09,-2.09 -3.14,-3.88 -3.13,-5.34 -1.3e-4,-2.09 4.03,-4.04 12.11,-5.82 8.07,-1.78 12.95,-4.14 14.62,-7.08 -2.72,-18.66 -5.50,-37.49 -8.33,-56.47 -2.83,-18.98 -5.19,-28.89 -7.08,-29.73 -1.88,-0.83 -17.20,0.78 -45.93,4.87 -28.73,4.09 -44.25,7.60 -46.57,10.53 -2.93,10.28 -5.86,21.50 -8.80,33.66 -2.93,12.16 -4.40,23.28 -4.40,33.35 -3e-5,2.93 0.20,6.03 0.62,9.28 0.41,3.25 2.72,4.87 6.92,4.87 4.82,-0.42 9.64,-0.84 14.47,-1.26 2.09,0.63 3.14,1.99 3.14,4.09 -6e-5,2.09 -6e-5,3.77 0,5.03 l -60.09,4.09 c -0.62,-4.82 -0.941,-7.87 -0.94,-9.13 1e-5,-1.04 0.57,-1.46 1.72,-1.25 1.15,0.20 2.67,0.52 4.56,0.94 2.09,10e-6 4.14,-0.73 6.13,-2.20 1.99,-1.46 5.76,-12.63 11.32,-33.51 5.55,-20.87 9.80,-36.65 12.74,-47.35 -3e-5,-0.42 -0.15,0.20 -0.47,1.88 -0.31,1.68 -0.47,2.62 -0.47,2.82 l 30.84,-114.84 c -6.08,-2.09 -12.17,-4.30 -18.25,-6.60 -29.78,-1.46 -44.67,-5.76 -44.67,-12.89 16.77,1.04 34.29,2.03 52.54,2.98 18.25,0.94 31.46,1.41 39.64,1.41 12.37,2.2e-4 26.63,-0.94 42.79,-2.83 16.15,-1.88 25.80,-2.83 28.94,-2.83 7.76,2.2e-4 12.27,1.88 13.52,5.66 z m -123.96,95.02 c 0.62,0.63 3.98,0.95 10.06,0.95 10.28,1.2e-4 22.18,-0.47 35.71,-1.41 13.52,-0.94 25.85,-2.04 36.97,-3.30 -1.3e-4,-10.48 -2.83,-26.16 -8.49,-47.03 -5.66,-20.87 -9.02,-31.77 -10.07,-32.72 -1.04,-0.94 -2.62,-1.41 -4.71,-1.41 -2.09,2e-4 -3.98,2e-4 -5.66,0 -4.82,2e-4 -10.07,0.053 -15.73,0.15 -5.66,0.10 -11.01,0.26 -16.04,0.46 -5.03,18.67 -10.01,37.34 -14.94,56.00 -4.92,18.66 -7.28,28.10 -7.07,28.31 z"
       inkscape:connector-curvature="0"
       id="path2989" />
  </g>
</svg>