<?xml version="1.0" encoding="UTF-8" standalone="no"?>
<!-- Generator: Adobe Illustrator 16.0.3, SVG Export Plug-In . SVG Version: 6.00 Build 0)  -->

<svg
   xmlns:dc="http://purl.org/dc/elements/1.1/"
   xmlns:cc="http://creativecommons.org/ns#"
   xmlns:rdf="http://www.w3.org/1999/02/22-rdf-syntax-ns#"
   xmlns:svg="http://www.w3.org/2000/svg"
   xmlns="http://www.w3.org/2000/svg"
   xmlns:sodipodi="http://sodipodi.sourceforge.net/DTD/sodipodi-0.dtd"
   xmlns:inkscape="http://www.inkscape.org/namespaces/inkscape"
   version="1.1"
   id="svg4140"
   sodipodi:docname="AHK_C.svg"
   inkscape:version="0.91 r13725"
   x="0px"
   y="0px"
   width="300px"
   height="300px"
   viewBox="0 0 300 300"
   enable-background="new 0 0 300 300"
   xml:space="preserve"
   inkscape:export-filename="C:\Users\Brenton\Downloads\Backup\MTG\Pictures\Symbols\Expansion Symbols\B - Expert Level Sets\B24 - Amonkhet Block\B241 - Amonkhet\AHK_C.png"
   inkscape:export-xdpi="94.408569"
   inkscape:export-ydpi="94.408569"><metadata
     id="metadata18"><rdf:RDF><cc:Work
         rdf:about=""><dc:format>image/svg+xml</dc:format><dc:type
           rdf:resource="http://purl.org/dc/dcmitype/StillImage" /><dc:title></dc:title></cc:Work></rdf:RDF></metadata><defs
     id="defs16" /><path
     fill="#FFFFFF"
     d="M52.959,149.208c-0.061,0.002-46.495,54.343-46.495,54.343l144.305,87.854l141.686-87.361  c0,0-40.476-51.803-44.112-56.016c-4.764,2.795-94.594,56.523-98.3,58.712C148.141,205.709,55.289,150.494,52.959,149.208z"
     id="path3" /><path
     fill="#FFFFFF"
     d="M149.889,8.211c0,0-94.751,109.447-95.889,110.978c3.422,2.246,96.57,60.378,96.57,60.378  s90.535-55.646,96.454-59.431C245.939,118.922,149.889,8.211,149.889,8.211z"
     id="path5" /><sodipodi:namedview
     inkscape:cy="150"
     inkscape:cx="150"
     inkscape:zoom="0.78666667"
     showgrid="false"
     guidetolerance="10"
     gridtolerance="10"
     objecttolerance="10"
     borderopacity="1"
     pagecolor="#ffffff"
     bordercolor="#666666"
     id="namedview4142"
     inkscape:current-layer="svg4140"
     inkscape:window-maximized="0"
     inkscape:window-y="104"
     inkscape:window-x="104"
     inkscape:window-height="403"
     inkscape:window-width="943"
     inkscape:pageopacity="0"
     inkscape:pageshadow="2" /><path
     d="M149.945,16c0,0-86.138,99.497-87.172,100.889c3.111,2.042,87.791,54.889,87.791,54.889s82.305-50.587,87.686-54.027  C237.264,116.646,149.945,16,149.945,16z"
     id="path8" /><path
     fill="#FFFFFF"
     d="M143,42.562c0,1.501,0,9.148,0,55.215c0,30.372,0,54.41,0,55.723c-1.728-1.036-57.749-36.48-58.701-37.107  C85.132,115.307,142.787,42.546,143,42.562z"
     id="path10" /><path
     d="M54.459,156.572c-0.056,0.002-0.097,0.014-0.127,0.033c-0.742,0.492-39.414,44.824-39.414,44.824l134.822,83.504  L284,202.787c0,0-34.069-43.457-37.375-47.287c-4.331,2.541-93.268,55.931-96.637,57.92  C148.26,212.482,56.577,157.741,54.459,156.572z"
     id="path12" /><path
     fill="#FFFFFF"
     d="M57.186,175l85.811,51.5l0.002,19.75C143,257.112,143,264.938,143,266.063  c-1.003-0.6-108.033-66.395-108.033-66.395L57.186,175z"
     id="path14" /></svg>