<?xml version="1.0" encoding="UTF-8" standalone="no"?>
<!-- Generator: Adobe Illustrator 16.0.3, SVG Export Plug-In . SVG Version: 6.00 Build 0)  -->

<svg
   xmlns:dc="http://purl.org/dc/elements/1.1/"
   xmlns:cc="http://creativecommons.org/ns#"
   xmlns:rdf="http://www.w3.org/1999/02/22-rdf-syntax-ns#"
   xmlns:svg="http://www.w3.org/2000/svg"
   xmlns="http://www.w3.org/2000/svg"
   xmlns:sodipodi="http://sodipodi.sourceforge.net/DTD/sodipodi-0.dtd"
   xmlns:inkscape="http://www.inkscape.org/namespaces/inkscape"
   version="1.1"
   id="svg4140"
   sodipodi:docname="AHK_R.svg"
   inkscape:version="0.91 r13725"
   x="0px"
   y="0px"
   width="300px"
   height="300px"
   viewBox="0 0 300 300"
   enable-background="new 0 0 300 300"
   xml:space="preserve"
   inkscape:export-filename="C:\Users\Brenton\Downloads\Backup\MTG\Pictures\Symbols\Expansion Symbols\B - Expert Level Sets\B24 - Amonkhet Block\B241 - Amonkhet\AHK_R.png"
   inkscape:export-xdpi="94.408569"
   inkscape:export-ydpi="94.408569"><metadata
     id="metadata48"><rdf:RDF><cc:Work
         rdf:about=""><dc:format>image/svg+xml</dc:format><dc:type
           rdf:resource="http://purl.org/dc/dcmitype/StillImage" /><dc:title></dc:title></cc:Work></rdf:RDF></metadata><defs
     id="defs46" /><path
     d="M149.958,206.74c-3.706-2.188-93.536-55.917-98.3-58.712c-3.637,4.213-44.112,56.016-44.112,56.016l141.686,87.361  l144.305-87.854c0,0-46.435-54.341-46.495-54.343C244.711,150.494,151.859,205.709,149.958,206.74z"
     id="path3" /><path
     d="M52.976,120.136c5.919,3.785,96.454,59.431,96.454,59.431s93.148-58.132,96.57-60.378  c-1.138-1.53-95.889-110.978-95.889-110.978S54.061,118.922,52.976,120.136z"
     id="path5" /><sodipodi:namedview
     inkscape:cy="150"
     inkscape:cx="150"
     inkscape:zoom="0.78666667"
     showgrid="false"
     guidetolerance="10"
     gridtolerance="10"
     objecttolerance="10"
     borderopacity="1"
     pagecolor="#ffffff"
     bordercolor="#666666"
     id="namedview4142"
     inkscape:current-layer="svg4140"
     inkscape:window-maximized="0"
     inkscape:window-y="78"
     inkscape:window-x="78"
     inkscape:window-height="403"
     inkscape:window-width="943"
     inkscape:pageopacity="0"
     inkscape:pageshadow="2" /><linearGradient
     id="SVGID_1_"
     gradientUnits="userSpaceOnUse"
     x1="225.3154"
     y1="137.5195"
     x2="94.0804"
     y2="61.751"><stop
       offset="0.2"
       style="stop-color:#8F743F"
       id="stop9" /><stop
       offset="0.5"
       style="stop-color:#EBD491"
       id="stop11" /><stop
       offset="0.5796"
       style="stop-color:#E7D08D"
       id="stop13" /><stop
       offset="0.6621"
       style="stop-color:#DBC383"
       id="stop15" /><stop
       offset="0.746"
       style="stop-color:#C7AF71"
       id="stop17" /><stop
       offset="0.8302"
       style="stop-color:#AC9259"
       id="stop19" /><stop
       offset="0.9"
       style="stop-color:#8F743F"
       id="stop21" /></linearGradient><path
     fill="url(#SVGID_1_)"
     d="M61.75,117.75c5.381,3.44,87.686,54.027,87.686,54.027s84.68-52.847,87.791-54.889  C236.192,115.497,150.055,16,150.055,16S62.736,116.646,61.75,117.75z"
     id="path23" /><linearGradient
     id="SVGID_2_"
     gradientUnits="userSpaceOnUse"
     x1="254.9277"
     y1="253.6582"
     x2="53.7037"
     y2="137.4815"><stop
       offset="0.2"
       style="stop-color:#8F743F"
       id="stop26" /><stop
       offset="0.5"
       style="stop-color:#EBD491"
       id="stop28" /><stop
       offset="0.5796"
       style="stop-color:#E7D08D"
       id="stop30" /><stop
       offset="0.6621"
       style="stop-color:#DBC383"
       id="stop32" /><stop
       offset="0.746"
       style="stop-color:#C7AF71"
       id="stop34" /><stop
       offset="0.8302"
       style="stop-color:#AC9259"
       id="stop36" /><stop
       offset="0.9"
       style="stop-color:#8F743F"
       id="stop38" /></linearGradient><path
     fill="url(#SVGID_2_)"
     d="M150.012,213.42c-3.369-1.989-92.306-55.379-96.637-57.92C50.069,159.33,16,202.787,16,202.787  l134.26,82.146l134.822-83.504c0,0-38.672-44.332-39.414-44.824c-0.029-0.02-0.071-0.031-0.127-0.033  C243.423,157.741,151.74,212.482,150.012,213.42z"
     id="path40" /><path
     d="M265.033,199.668c0,0-107.03,65.795-108.033,66.395c0-1.124,0-8.95,0.002-19.813l0.002-19.75l85.811-51.5L265.033,199.668z"
     id="path42" /><path
     d="M215.701,116.393c-0.953,0.627-56.973,36.071-58.701,37.107c0-1.313,0-25.351,0-55.723c0-46.067,0-53.714,0-55.215  C157.213,42.546,214.867,115.307,215.701,116.393z"
     id="path44" /></svg>