<?xml version="1.0" encoding="UTF-8" standalone="no"?>
<!-- Created with Inkscape (http://www.inkscape.org/) -->

<svg
   xmlns:dc="http://purl.org/dc/elements/1.1/"
   xmlns:cc="http://creativecommons.org/ns#"
   xmlns:rdf="http://www.w3.org/1999/02/22-rdf-syntax-ns#"
   xmlns:svg="http://www.w3.org/2000/svg"
   xmlns="http://www.w3.org/2000/svg"
   xmlns:sodipodi="http://sodipodi.sourceforge.net/DTD/sodipodi-0.dtd"
   xmlns:inkscape="http://www.inkscape.org/namespaces/inkscape"
   version="1.1"
   width="744"
   height="744"
   id="svg4231"
   sodipodi:docname="apocalypse rare.svg"
   inkscape:version="0.92.2 5c3e80d, 2017-08-06">
  <sodipodi:namedview
     pagecolor="#ffffff"
     bordercolor="#666666"
     borderopacity="1"
     objecttolerance="10"
     gridtolerance="10"
     guidetolerance="10"
     inkscape:pageopacity="0"
     inkscape:pageshadow="2"
     inkscape:window-width="1012"
     inkscape:window-height="746"
     id="namedview13"
     showgrid="false"
     inkscape:zoom="0.3172043"
     inkscape:cx="372"
     inkscape:cy="372"
     inkscape:window-x="0"
     inkscape:window-y="0"
     inkscape:window-maximized="0"
     inkscape:current-layer="svg4231" />
  <defs
     id="defs4233">
    <radialGradient
       cx="0"
       cy="0"
       r="1"
       fx="0"
       fy="0"
       id="radialGradient294"
       gradientUnits="userSpaceOnUse"
       gradientTransform="matrix(15.684006,0,0,-15.684006,748,483.97656)"
       spreadMethod="pad">
      <stop
         id="stop296"
         style="stop-color:#d7bd74;stop-opacity:1"
         offset="0" />
      <stop
         id="stop298"
         style="stop-color:#b39a54;stop-opacity:1"
         offset="0.69101" />
      <stop
         id="stop300"
         style="stop-color:#8d742f;stop-opacity:1"
         offset="1" />
    </radialGradient>
  </defs>
  <metadata
     id="metadata4236">
    <rdf:RDF>
      <cc:Work
         rdf:about="">
        <dc:format>image/svg+xml</dc:format>
        <dc:type
           rdf:resource="http://purl.org/dc/dcmitype/StillImage" />
        <dc:title />
      </cc:Work>
    </rdf:RDF>
  </metadata>
  <path
     d="M 369.82306,4.0744 C 347.14967,4.5952 273.1217,18.601 202.64634,76.07497 143.05197,124.69534 72,217.5465 72,384.22102 c 0,163.10332 54.70257,252.55068 100.55155,298.82746 51.22438,51.65217 102.59755,63.14697 108.34495,64.30017 14.15459,2.84579 28.55099,-3.4782 36.17698,-15.7542 3.4038,-5.59859 5.1522,-11.92259 5.1522,-18.17219 0,-7.47719 -2.4738,-15.04739 -7.3284,-21.29699 -5.37539,-6.90059 -12.42479,-16.40519 -20.27399,-27.75118 4.929,-6.0264 7.8492,-13.6524 7.8492,-21.72479 0,-0.87346 -0.0744,-1.8042 -0.1488,-2.6784 -0.372,-5.1708 -0.65026,-12.7968 -0.65026,-21.87359 0,-21.07379 1.7298,-50.05258 8.4258,-74.17677 h 56.52537 10.6764 56.59977 c 6.696,24.12419 8.5002,53.10298 8.5002,74.17677 0,9.07679 -0.35415,16.77719 -0.72466,21.87359 -0.0744,0.87494 -0.1488,1.8042 -0.1488,2.6784 0,8.07239 2.9202,15.69839 7.7748,21.72479 -7.7748,11.34599 -14.8242,20.85059 -20.19959,27.82558 -4.8546,6.1752 -7.254,13.7454 -7.254,21.29699 0,6.2496 1.674,12.4992 5.0778,18.09779 7.62599,12.3504 22.02239,18.59999 36.17698,15.7542 5.673,-1.1532 57.12057,-12.648 108.34495,-64.30017 C 617.35323,636.7717 672,547.32434 672,384.29542 672,216.3003 599.92503,123.24455 539.54946,74.62417 467.8279,17.02 393.00013,4 372.42854,4 h -1.7298 c -0.2976,0 -0.5952,0 -0.87494,0.0744"
     inkscape:connector-curvature="0"
     id="path288"
     style="fill:#ffffff;fill-opacity:1;fill-rule:nonzero;stroke:none" />
  <path
     d="M 366.62386,509.32456 H 285.9743 c -24.62639,51.01978 -18.09779,133.32474 -18.09779,133.32474 0,0 -57.60418,-77.37597 -57.60418,-167.90212 0,-90.52616 64.22577,-181.05232 64.22577,-181.05232 14.8242,-6.54719 64.15137,-8.22119 64.15137,-8.22119 0,0 -37.85098,-80.64956 -106.94995,-59.20377 -69.17336,21.35279 -90.52615,98.72875 -90.52615,98.72875 29.64838,-18.09779 93.79975,-21.42719 93.79975,-21.42719 0,0 -59.29677,69.17337 -59.29677,167.90212 0,98.74735 111.97195,241.94868 111.97195,241.94868 0,0 -181.07092,-36.17698 -181.07092,-329.20124 0,-290.42026 226.39909,-344.67643 264.04548,-345.62503 h 1.8042 c 34.59598,0 264.99407,52.67517 264.99407,345.69943 0,292.94986 -181.07091,329.20124 -181.07091,329.20124 0,0 111.97194,-143.20133 111.97194,-242.02308 0,-98.72875 -59.29677,-167.90212 -59.29677,-167.90212 0,0 64.15137,3.3294 93.79976,21.42719 0,0 -21.35279,-77.37596 -90.52616,-98.72875 -69.09897,-21.44579 -106.94995,59.20377 -106.94995,59.20377 0,0 49.32718,1.674 64.15137,8.22119 0,0 64.22577,90.60056 64.22577,181.12672 0,90.52615 -57.60417,167.82772 -57.60417,167.82772 0,0 6.52859,-82.30496 -18.0978,-133.32474 h -80.64956 z"
     inkscape:connector-curvature="0"
     id="path290"
     style="fill:#8d742f;fill-opacity:1;fill-rule:nonzero;stroke:none" />
  <g
     transform="matrix(18.599991,0,0,-18.599991,-13540.794,9373.2438)"
     id="g292">
    <path
       d="m 734.23,483.277 c 0,-11.566 5.243,-15.461 7.872,-16.687 v 0 c -1.727,2.461 -5.153,7.859 -5.153,12 v 0 c 0,3.922 1.653,6.976 2.621,8.426 v 0 c -1.105,-0.129 -2.789,-0.411 -3.722,-0.977 v 0 l -1.078,-0.66 0.335,1.219 c 0.051,0.179 1.27,4.437 5.204,5.656 v 0 c 0.464,0.141 0.929,0.215 1.382,0.215 v 0 c 3.211,0 4.899,-3.52 4.969,-3.664 v 0 l 0.32,-0.692 -0.757,-0.023 c -0.922,-0.031 -2.512,-0.156 -3.141,-0.356 v 0 c -0.52,-0.777 -3.277,-5.093 -3.277,-9.324 v 0 c 0,-2.918 1.179,-5.605 2.058,-7.207 v 0 c 0.032,1.582 0.239,3.863 1.063,5.567 v 0 l 0.136,0.281 h 0.317 4.336 0.57 4.336 0.317 l 0.132,-0.281 c 0.828,-1.704 1.035,-3.985 1.071,-5.571 v 0 c 0.879,1.602 2.054,4.293 2.054,7.211 v 0 c 0,4.231 -2.757,8.547 -3.277,9.324 v 0 c -0.629,0.2 -2.219,0.325 -3.141,0.356 v 0 l -0.757,0.023 0.32,0.692 c 0.07,0.144 1.758,3.664 4.969,3.664 v 0 c 0.453,0 0.918,-0.074 1.382,-0.215 v 0 c 3.934,-1.219 5.153,-5.477 5.2,-5.656 v 0 l 0.339,-1.219 -1.078,0.66 c -0.933,0.566 -2.617,0.848 -3.726,0.977 v 0 c 0.972,-1.45 2.625,-4.504 2.625,-8.426 v 0 c 0,-4.141 -3.426,-9.539 -5.156,-12 v 0 c 2.632,1.226 7.875,5.121 7.875,16.687 v 0 c 0,14.942 -11.489,18.086 -13.832,18.086 v 0 c -2.719,-0.066 -13.708,-3.504 -13.708,-18.086"
       inkscape:connector-curvature="0"
       id="path302"
       style="fill:url(#radialGradient294);fill-opacity:1;fill-rule:nonzero;stroke:none" />
  </g>
</svg>
