<?xml version="1.0" encoding="UTF-8" standalone="no"?>
<!-- Created with Inkscape (http://www.inkscape.org/) -->

<svg
   xmlns:dc="http://purl.org/dc/elements/1.1/"
   xmlns:cc="http://creativecommons.org/ns#"
   xmlns:rdf="http://www.w3.org/1999/02/22-rdf-syntax-ns#"
   xmlns:svg="http://www.w3.org/2000/svg"
   xmlns="http://www.w3.org/2000/svg"
   xmlns:sodipodi="http://sodipodi.sourceforge.net/DTD/sodipodi-0.dtd"
   xmlns:inkscape="http://www.inkscape.org/namespaces/inkscape"
   version="1.1"
   width="744"
   height="744"
   id="svg4111"
   sodipodi:docname="apocalypse.svg"
   inkscape:version="0.92.2 5c3e80d, 2017-08-06">
  <sodipodi:namedview
     pagecolor="#ffffff"
     bordercolor="#666666"
     borderopacity="1"
     objecttolerance="10"
     gridtolerance="10"
     guidetolerance="10"
     inkscape:pageopacity="0"
     inkscape:pageshadow="2"
     inkscape:window-width="923"
     inkscape:window-height="714"
     id="namedview7"
     showgrid="false"
     inkscape:zoom="0.3172043"
     inkscape:cx="372"
     inkscape:cy="372"
     inkscape:window-x="0"
     inkscape:window-y="0"
     inkscape:window-maximized="0"
     inkscape:current-layer="svg4111" />
  <defs
     id="defs4113" />
  <metadata
     id="metadata4116">
    <rdf:RDF>
      <cc:Work
         rdf:about="">
        <dc:format>image/svg+xml</dc:format>
        <dc:type
           rdf:resource="http://purl.org/dc/dcmitype/StillImage" />
        <dc:title />
      </cc:Work>
    </rdf:RDF>
  </metadata>
  <path
     d="M 367.82306,2.0744 C 345.14967,2.5952 271.1217,16.601 200.64634,74.07497 141.05197,122.69534 70,215.5465 70,382.22102 c 0,163.10332 54.70257,252.55068 100.55155,298.82746 51.22438,51.65217 102.59755,63.14697 108.34495,64.30017 14.15459,2.84579 28.55099,-3.4782 36.17698,-15.7542 3.4038,-5.59859 5.1522,-11.92259 5.1522,-18.17219 0,-7.47719 -2.4738,-15.04739 -7.3284,-21.29699 -5.37539,-6.90059 -12.42479,-16.40519 -20.27399,-27.75118 4.929,-6.0264 7.8492,-13.6524 7.8492,-21.72479 0,-0.87346 -0.0744,-1.8042 -0.1488,-2.6784 -0.372,-5.1708 -0.65026,-12.7968 -0.65026,-21.87359 0,-21.07379 1.7298,-50.05258 8.4258,-74.17677 h 56.52537 10.6764 56.59977 c 6.696,24.12419 8.5002,53.10298 8.5002,74.17677 0,9.07679 -0.35415,16.77719 -0.72466,21.87359 -0.0744,0.87494 -0.1488,1.8042 -0.1488,2.6784 0,8.07239 2.9202,15.69839 7.7748,21.72479 -7.7748,11.34599 -14.8242,20.85059 -20.19959,27.82558 -4.8546,6.1752 -7.254,13.7454 -7.254,21.29699 0,6.2496 1.674,12.4992 5.0778,18.09779 7.62599,12.3504 22.02239,18.59999 36.17698,15.7542 5.673,-1.1532 57.12057,-12.648 108.34495,-64.30017 C 615.35323,634.7717 670,545.32434 670,382.29542 670,214.3003 597.92503,121.24455 537.54946,72.62417 465.8279,15.02 391.00013,2 370.42854,2 h -1.7298 c -0.2976,0 -0.5952,0 -0.87494,0.0744"
     inkscape:connector-curvature="0"
     id="path268"
     style="fill:#ffffff;fill-opacity:1;fill-rule:nonzero;stroke:none" />
  <path
     d="M 364.62386,507.32456 H 283.9743 c -24.62639,51.01978 -18.09779,133.32474 -18.09779,133.32474 0,0 -57.60418,-77.37597 -57.60418,-167.90212 0,-90.52616 64.22577,-181.05232 64.22577,-181.05232 14.8242,-6.54719 64.15137,-8.22119 64.15137,-8.22119 0,0 -37.85098,-80.64956 -106.94995,-59.20377 -69.17336,21.35279 -90.52615,98.72875 -90.52615,98.72875 29.64838,-18.09779 93.79975,-21.42719 93.79975,-21.42719 0,0 -59.29677,69.17337 -59.29677,167.90212 0,98.74735 111.97195,241.94868 111.97195,241.94868 0,0 -181.07092,-36.17698 -181.07092,-329.20124 0,-290.42026 226.39909,-344.67643 264.04548,-345.62503 h 1.8042 c 34.59598,0 264.99407,52.67517 264.99407,345.69943 0,292.94986 -181.07091,329.20124 -181.07091,329.20124 0,0 111.97194,-143.20133 111.97194,-242.02308 0,-98.72875 -59.29677,-167.90212 -59.29677,-167.90212 0,0 64.15137,3.3294 93.79976,21.42719 0,0 -21.35279,-77.37596 -90.52616,-98.72875 -69.09897,-21.44579 -106.94995,59.20377 -106.94995,59.20377 0,0 49.32718,1.674 64.15137,8.22119 0,0 64.22577,90.60056 64.22577,181.12672 0,90.52615 -57.60417,167.82772 -57.60417,167.82772 0,0 6.52859,-82.30496 -18.0978,-133.32474 h -80.64956 z"
     inkscape:connector-curvature="0"
     id="path270"
     style="fill:#000000;fill-opacity:1;fill-rule:nonzero;stroke:none" />
</svg>
