<?xml version="1.0" encoding="UTF-8" standalone="no"?>
<!-- Created with Inkscape (http://www.inkscape.org/) -->

<svg
   xmlns:dc="http://purl.org/dc/elements/1.1/"
   xmlns:cc="http://creativecommons.org/ns#"
   xmlns:rdf="http://www.w3.org/1999/02/22-rdf-syntax-ns#"
   xmlns:svg="http://www.w3.org/2000/svg"
   xmlns="http://www.w3.org/2000/svg"
   xmlns:inkscape="http://www.inkscape.org/namespaces/inkscape"
   version="1.1"
   width="600"
   height="318"
   id="svg4241">
  <defs
     id="defs4243" />
  <metadata
     id="metadata4246">
    <rdf:RDF>
      <cc:Work
         rdf:about="">
        <dc:format>image/svg+xml</dc:format>
        <dc:type
           rdf:resource="http://purl.org/dc/dcmitype/StillImage" />
        <dc:title />
      </cc:Work>
    </rdf:RDF>
  </metadata>
  <path
     d="m 576.637,28.302 -10.172,12.369 c -2.916,3.424 -71.649,82.966 -162.406,82.966 -92.732,0 -144.803,-31.652 -147.000,-32.990 0,0 -2.243,-1.476 -3.461,-2.270 -2.307,0 -71.141,0 -71.141,0 l 0,-17.021 c 0,-6.276 -2.270,-11.750 -6.387,-15.507 -4.689,-4.246 -10.098,-4.827 -12.867,-4.827 l -12.729,0 -1.227,-1.624 C 143.870,42.333 136.550,38.576 128.077,38.576 c -18.461,0 -29.492,17.095 -29.492,33.646 0,3.895 1.006,8.003 1.984,11.501 l 1.44,5.16 -18.646,0 0,-8.981 C 81.710,78.462 78.609,75.758 78.609,75.758 70.458,68.576 55.892,65.373 43.236,75.250 c 0,0 -3.498,2.704 -5.372,4.144 l 0,6.710 -2.566,1.006 c -10.126,4.08 -18.175,10.495 -23.252,18.609 -2.630,4.218 -4.726,9.046 -6.064,14.058 -2.160,7.938 -2.556,15.793 -2.667,23.076 0,-0.036 -0.036,1.698 -0.036,1.698 0,9.480 1.412,17.270 4.366,24.341 0,0 2.529,5.335 2.529,5.335 l -2.455,5.076 c -3.350,8.113 -5.123,17.704 -5.123,28.310 0,11.898 2.593,22.929 7.716,32.815 l 1.116,2.196 -1.440,2.021 c -6.203,8.649 -9.553,18.064 -9.950,27.904 l 0,0 c -1e-7,0 -0.036,2.058 -0.036,2.058 0,13.809 5.732,24.553 17.021,31.873 13.190,8.547 28.624,10.855 37.818,11.464 -4.827,-6.738 -11.750,-17.778 -16.043,-31.513 l -0.867,-6.378 c 0,-5.52 2.132,-10.569 6.313,-15.036 0,0 0,0.101 0,0.101 0.646,-0.858 1.476,-1.726 2.455,-2.769 0.101,-0.073 5.907,-5.990 5.907,-5.990 3.101,-2.741 7.938,-6.96 11.215,-13.126 3.286,-6.166 4.467,-12.729 5.224,-18.313 l 0.867,-14.963 c -0.036,-7.790 -0.969,-14.963 -2.953,-21.636 -1.698,-5.584 -4.329,-10.818 -8.076,-16.043 0,0 0.175,0.101 0.212,0.138 -0.359,-0.397 -0.683,-0.72 -1.116,-1.255 l -1.587,-1.984 0.691,-2.778 1.476,-3.212 9.406,1.338 c 0,0 15.396,0 21.129,-0.036 l 0,-15.572 51.996,0 0,19.975 c 0,3.821 0.941,7.32 2.741,10.384 3.424,5.769 9.480,9.083 16.587,9.083 l 17.843,0 -2.556,17.086 c 0,6.276 1.476,11.575 4.403,15.692 3.96,5.621 10.163,8.723 17.483,8.723 7.393,0 13.670,-3.138 17.593,-8.796 2.852,-4.08 4.255,-9.156 4.255,-15.184 0,-4.790 -0.895,-10.236 -2.630,-15.720 l -0.212,-0.609 0.110,-20.160 c 0,-5.261 -2.455,-9.987 -7.32,-14.021 l -8.621,-7.218 14.787,0 1.043,0.655 c 57.406,37.753 128.003,49.716 177.147,53.113 14.898,1.006 27.913,0.969 39.775,-0.110 1.080,-0.036 90.720,-5.261 139.329,-87.692 C 597.876,71.715 600,17.346 600,0.066 L 600,0 c -5.298,6.452 -23.363,28.301 -23.363,28.301"
     inkscape:connector-curvature="0"
     id="path284"
     style="fill:#ffffff;fill-opacity:1;fill-rule:nonzero;stroke:none" />
  <path
     d="m 31.984,202.967 c 0,-8.400 2.196,-12.009 3.710,-13.633 2.566,3 5.335,14.243 5.335,26.076 0,6.886 -2.233,12.036 -3.821,14.169 -2.021,-3.101 -5.224,-12.156 -5.224,-26.612 m -0.508,-63.821 c 0,-4.218 0.793,-7.033 1.772,-9.230 0.285,1.984 0.498,4.430 0.498,8.187 0,4.541 -0.498,9.590 -1.255,13.698 -0.581,-3.175 -1.015,-7.246 -1.015,-12.655 m 117.978,-56.649 0,13.560 c -0.248,0.323 -0.248,0.323 -0.498,0.646 l -10.172,0 c 4.901,-3.498 7.606,-9.083 8.870,-14.206 l 1.8,0 z m -23.575,-9.766 c 0,-3.969 1.043,-5.741 1.947,-6.6 0.895,0.932 1.910,2.741 1.910,6.6 0,3.784 -0.978,5.769 -1.910,6.886 -0.978,-1.089 -1.947,-3 -1.947,-6.886"
     inkscape:connector-curvature="0"
     id="path286"
     style="fill:#ffffff;fill-opacity:1;fill-rule:nonzero;stroke:none" />
  <path
     d="m 35.224,182.198 c 0,0 -9.369,2.593 -9.369,20.769 0,18.138 5.187,33.710 10.920,33.710 5.704,0 10.347,-10.883 10.347,-21.267 0,-10.384 -2.593,-33.212 -11.898,-33.212 m -1.578,-62.778 c 0,0 -8.298,4.689 -8.298,19.726 0,15.036 3.101,25.421 7.790,25.421 4.652,0 6.738,-18.138 6.738,-26.464 0,-8.298 -1.043,-18.683 -6.230,-18.683 M 128.077,59.244 c 0,0 -8.289,1.043 -8.289,13.486 0,12.470 8.289,14.021 8.289,14.021 0,0 7.790,-2.086 7.790,-14.021 0,-11.935 -7.790,-13.486 -7.790,-13.486 m 28.015,51.378 0,17.630 7.790,4.689 0,-27.009 -7.790,4.689 z M 27.766,296.502 c 0,0 -14.566,-4.44 -13.809,-23.400 0.756,-18.793 15.535,-29.178 15.535,-29.178 0,0 -12.978,-11.390 -12.978,-36.304 0,-7.864 1.116,-15.867 4.181,-23.150 1.116,-2.704 2.492,-5.187 4.292,-7.532 0.830,-1.116 1.698,-2.455 1.476,-3.895 -0.248,-1.550 -1.763,-2.529 -2.704,-3.683 -1.403,-1.726 -2.381,-3.747 -3.276,-5.833 -2.667,-6.461 -3.360,-13.486 -3.249,-20.409 0.110,-6.563 0.470,-13.347 2.196,-19.689 0.941,-3.572 2.455,-7.144 4.440,-10.310 5.012,-7.975 13.236,-13.163 22.283,-15.295 0.248,-0.036 5.658,-1.006 5.658,-0.683 l 0,-10.892 c 9.341,-7.283 17.630,0 17.630,0 l 0,13.486 2.603,3.101 79.901,0 3.609,-4.652 0,-19.218 c 0,-2.344 -1.984,-2.593 -1.984,-2.593 l -10.966,0 c 0,0 -1.043,17.630 -14.021,17.630 -12.987,0 -16.080,-15.036 -16.080,-21.775 0,-6.747 4.144,-19.726 15.572,-19.726 11.390,0 13.661,12.480 13.661,12.480 l 21.424,0 c 0,0 5.372,-0.544 5.372,6.378 l 0,30.941 80.944,0 c 0,0 53.944,35.298 154.578,35.298 100.643,0 173.261,-88.200 173.261,-88.200 0,0 -6.563,42.729 -36.996,70.384 l 12.120,-0.360 c -28.384,30.978 -47.058,25.098 -47.058,25.098 6.24,6.203 15.212,4.827 15.212,4.827 -21.415,18.360 -53.252,18.000 -53.252,18.000 5.520,3.461 15.212,5.510 15.212,5.510 -23.935,10.744 -40.200,13.200 -50.473,12.876 -30.618,-0.941 -44.963,-13.560 -44.963,-13.560 4.144,9.701 11.750,16.264 11.750,16.264 C 274.366,175.957 219.877,134.207 219.877,134.207 l -48.996,0 -2.852,2.843 0,25.024 c 0,0 -0.286,1.984 1.8,1.984 l 27.950,0 c 0,0 5.012,0.147 5.012,5.335 l 0,22.643 c 0,0 8.796,23.870 -5.196,23.870 -14.021,0 -5.187,-24.876 -5.187,-24.876 l 0,-14.640 c 0,-2.233 -1.910,-1.947 -1.910,-1.947 l -30.073,0 c -5.806,0 -5.372,-5.658 -5.372,-5.658 l 0,-30.147 -3.101,-3.636 -76.800,0 0,15.572 -7.790,0 c -11.935,0 -13.993,-16.080 -13.993,-16.080 l -5.187,0 c 0.322,0 -0.396,8.04 -0.434,8.621 -0.433,4.680 -0.470,9.406 -1.873,13.947 -1.338,4.440 -4.366,8.113 -5.990,12.443 -0.969,2.556 0.434,3.535 2.381,4.827 1.375,0.941 2.593,2.307 3.683,3.535 3.600,4.144 6.092,9.193 7.643,14.427 1.726,5.806 2.372,11.898 2.372,17.916 0,4.255 -0.175,8.621 -0.72,12.876 -0.609,4.615 -1.513,9.443 -3.710,13.587 -2.021,3.821 -5.160,6.636 -8.363,9.452 -3.249,2.843 -6.092,6.203 -9.055,9.332 -18.064,19.153 -6.341,41.040 -6.341,41.040"
     inkscape:connector-curvature="0"
     id="path288"
     style="fill:#000000;fill-opacity:1;fill-rule:nonzero;stroke:none" />
  <path
     d="m 225.433,128.179 c 6.055,3.72 55.135,36.313 155.483,49.578 0,0 -4.329,-6.590 -2.095,-17.769 0,0 11.326,6.701 20.916,10.384 6.701,2.556 17.270,6.738 32.593,7.246 5.880,0.175 15.212,-0.904 28.089,-5.012 -4.218,-2.593 -12.692,-12.618 -12.692,-12.618 0,0 19.689,-0.793 19.726,-0.793 0.72,0 17.732,-0.184 33.996,-7.504 l -0.248,-0.535 c -5.769,-4.080 -4.403,-13.744 -4.403,-13.744 7.615,0.508 16.301,-1.218 16.301,-1.218 3.932,-0.793 9.775,-2.889 17.095,-7.975 -5.806,0.184 -11.649,0.360 -11.649,0.360 l 16.292,-14.815 c 11.289,-10.273 18.932,-22.864 24.230,-34.329 -18.027,16.190 -45.175,36.600 -78.960,50.520 l -0.581,0.249 c -22.532,9.193 -47.880,15.544 -75.470,15.544 -13.412,0 -25.883,-0.655 -37.643,-1.735 l -0.858,-0.073 C 295.855,137.485 255.794,115.635 247.209,110.475 l -45.609,0 0,7.827 10.707,0 c 0,0 6.378,5.732 13.126,9.876"
     inkscape:connector-curvature="0"
     id="path290"
     style="fill:#ffffff;fill-opacity:1;fill-rule:nonzero;stroke:none" />
</svg>