<?xml version="1.0" encoding="UTF-8" standalone="no"?>
<!-- Created with Inkscape (http://www.inkscape.org/) -->

<svg
   xmlns:dc="http://purl.org/dc/elements/1.1/"
   xmlns:cc="http://creativecommons.org/ns#"
   xmlns:rdf="http://www.w3.org/1999/02/22-rdf-syntax-ns#"
   xmlns:svg="http://www.w3.org/2000/svg"
   xmlns="http://www.w3.org/2000/svg"
   xmlns:inkscape="http://www.inkscape.org/namespaces/inkscape"
   version="1.1"
   width="600"
   height="317.9567"
   id="svg4377">
  <defs
     id="defs4379">
    <radialGradient
       cx="0"
       cy="0"
       r="1"
       fx="0"
       fy="0"
       id="radialGradient322"
       gradientUnits="userSpaceOnUse"
       gradientTransform="matrix(23.281937,0,0,-23.281937,218.70947,482.14063)"
       spreadMethod="pad">
      <stop
         id="stop324"
         style="stop-color:#d7bd74;stop-opacity:1"
         offset="0" />
      <stop
         id="stop326"
         style="stop-color:#b39a54;stop-opacity:1"
         offset="0.69101" />
      <stop
         id="stop328"
         style="stop-color:#8d742f;stop-opacity:1"
         offset="1" />
    </radialGradient>
  </defs>
  <metadata
     id="metadata4382">
    <rdf:RDF>
      <cc:Work
         rdf:about="">
        <dc:format>image/svg+xml</dc:format>
        <dc:type
           rdf:resource="http://purl.org/dc/dcmitype/StillImage" />
        <dc:title />
      </cc:Work>
    </rdf:RDF>
  </metadata>
  <path
     d="m 576.63799,28.30422 -10.17233,12.36925 c -2.91693,3.42462 -71.64936,82.96631 -162.40645,82.96631 -92.70479,0 -144.84027,-31.65237 -147.00027,-32.99083 0,0 -2.24308,-1.47693 -3.46155,-2.27078 -2.3077,0 -71.10475,0 -71.10475,0 l 0,-17.02157 c 0,-6.27693 -2.30769,-11.75079 -6.42462,-15.50772 -4.68924,-4.24616 -10.09848,-4.8277 -12.86772,-4.8277 l -12.72925,0 -1.2277,-1.62462 c -5.40924,-7.06155 -12.72925,-10.81848 -21.20311,-10.81848 -18.46158,0 -29.455443,17.09542 -29.455443,33.64622 0,3.89539 0.969233,8.00309 1.984623,11.50156 l 1.44,5.16001 -18.646189,0 0,-8.98156 c -1.652311,-1.44 -4.753855,-4.14462 -4.753855,-4.14462 -8.187708,-7.18155 -22.680042,-10.38464 -35.372373,-0.50806 0,0 -3.498468,2.70462 -5.372318,4.14462 l 0,6.71078 -2.566158,1.00616 c -10.09848,4.08 -18.175418,10.4954 -23.252351,18.60926 -2.630774,4.21847 -4.7261625,9.04617 -6.0646265,14.05849 -2.160004,7.93848 -2.5569278,15.79387 -2.6676972,23.07697 0,-0.0369 -0.036923,1.69846 -0.036923,1.69846 0,9.48002 1.3753872,17.2708 4.3292388,24.34158 0.036923,0 2.5938509,5.3354 2.5938509,5.3354 l -2.4830815,5.07693 c -3.3507754,8.11386 -5.1230864,17.70465 -5.1230864,28.31082 0,11.89849 2.593851,22.92928 7.6800139,32.81545 l 1.153848,2.19692 -1.4400021,2.04924 c -6.2400115,8.62155 -9.59078689,18.03696 -9.95078755,27.87697 l 0,0 C 0.03692315,272.55968 0,274.61815 0,274.61815 c 0,13.80926 5.6953951,24.55389 17.02157,31.8739 13.190793,8.54771 28.624668,10.85541 37.818531,11.46464 C 50.0124,311.21822 43.052387,300.1782 38.796995,286.44279 L 37.929301,280.092 c 0,-5.5477 2.095388,-10.59694 6.313858,-15.06464 0,0 -0.03692,0.10117 -0.03692,0.10117 0.683079,-0.85846 1.513849,-1.72616 2.492313,-2.76923 0.101169,-0.0738 5.907703,-5.99079 5.907703,-5.99079 3.101544,-2.74154 7.938476,-6.96001 11.215405,-13.12617 3.28616,-6.16617 4.467701,-12.72926 5.224625,-18.31388 l 0.867694,-14.96311 c 0,-7.79078 -0.969232,-14.9631 -2.990775,-21.63696 -1.624618,-5.58463 -4.292315,-10.81848 -8.076938,-16.04311 0,0 0.211939,0.10117 0.248862,0.1381 -0.360369,-0.39656 -0.720001,-0.72001 -1.116925,-1.25539 l -1.587695,-1.98462 0.69194,-2.77847 1.476926,-3.21231 9.406171,1.33846 c 0,0 15.396951,0 21.12927,-0.0369 l 0,-15.57234 51.997015,0 0,19.97542 c 0,3.82155 0.94154,7.32002 2.74154,10.38464 3.42462,5.76924 9.48002,9.08309 16.5508,9.08309 l 17.88004,0 -2.55693,17.08619 c 0,6.27693 1.47692,11.5754 4.40308,15.69233 3.96001,5.62155 10.1631,8.7231 17.48311,8.7231 7.39386,0 13.6708,-3.13847 17.6308,-8.79694 2.77847,-4.08001 4.21847,-9.15694 4.21847,-15.18465 0,-4.79077 -0.93231,-10.23694 -2.63077,-15.72002 l -0.21268,-0.60924 0.11077,-20.16003 c 0,-5.26155 -2.49231,-9.98771 -7.32001,-14.02157 l -8.65848,-7.21847 14.82464,0 1.00616,0.65575 c 57.44318,37.75392 128.04024,49.71702 177.18494,53.11395 14.89849,1.00615 27.9139,0.96923 39.73854,-0.11077 1.11692,-0.0369 90.72016,-5.26155 139.36641,-87.69247 C 597.87692,71.71587 600,17.34654 600,0.0665 L 600,0 c -5.33539,6.45232 -23.36312,28.30159 -23.36312,28.30159"
     inkscape:connector-curvature="0"
     id="path314"
     style="fill:#ffffff;fill-opacity:1;fill-rule:nonzero;stroke:none" />
  <path
     d="m 31.984674,202.96915 c 0,-8.40001 2.160004,-12.00925 3.710777,-13.63387 2.566158,3.00001 5.335394,14.24311 5.335394,26.07698 0,6.88616 -2.23385,12.03694 -3.858469,14.16925 -1.984619,-3.10154 -5.187702,-12.15694 -5.187702,-26.61235 M 31.440427,139.1475 c 0,-4.21847 0.830771,-7.03386 1.809234,-9.23079 0.248862,1.98462 0.498463,4.43078 0.498463,8.18771 0,4.54155 -0.535386,9.59079 -1.255387,13.69849 -0.58117,-3.17539 -1.05231,-7.24617 -1.05231,-12.65541 m 118.015603,-56.64934 0,13.56003 c -0.24886,0.32271 -0.28579,0.32271 -0.49846,0.64615 l -10.17233,0 c 4.90155,-3.49846 7.60617,-9.08309 8.87079,-14.20618 l 1.8,0 z M 125.8806,72.73199 c 0,-3.96924 1.00616,-5.74155 1.9477,-6.60001 0.89538,0.93231 1.91077,2.74154 1.91077,6.60001 0,3.78462 -0.97846,5.76924 -1.91077,6.88617 -0.97847,-1.08924 -1.9477,-3.00001 -1.9477,-6.88617"
     inkscape:connector-curvature="0"
     id="path316"
     style="fill:#ffffff;fill-opacity:1;fill-rule:nonzero;stroke:none" />
  <path
     d="m 128.00331,60.5012 c -1.19077,0.25846 -7.03386,2.02154 -7.03386,12.26771 0,11.20618 6.99694,12.72003 7.32002,12.75695 -0.24886,-0.0369 6.35078,-2.01231 6.35078,-12.75695 0,-9.7754 -5.44617,-11.90771 -6.63694,-12.26771 m 29.31698,67.07089 5.33539,3.21232 0,-22.68005 -5.33539,3.20309 0,16.26464 z M 33.969293,120.68593 c -1.449233,0.93231 -7.393859,5.76924 -7.393859,18.46157 0,15.72003 3.387698,24.19389 6.563089,24.19389 2.778466,0 5.483087,-14.45541 5.483087,-25.23697 0,-10.71694 -1.661542,-16.98465 -4.652317,-17.41849 m 1.440003,62.74165 c -1.227694,0.47114 -8.326169,3.7477 -8.326169,19.54157 0,18.27696 5.187702,32.48314 9.655402,32.48314 4.615393,0 9.166171,-9.95079 9.166171,-20.04003 0,-12.80311 -3.360006,-31.69853 -10.495404,-31.98468 m -5.196933,115.12637 -2.806159,-0.85847 c -0.147692,-0.0738 -15.433874,-4.97539 -14.67695,-24.62773 0.646155,-16.26465 11.289252,-26.28928 14.926182,-29.24313 -3.212314,-3.36001 -12.369254,-14.92619 -12.369254,-36.20315 0,-8.90771 1.41231,-16.83695 4.292316,-23.62158 1.227694,-2.99078 2.70462,-5.51078 4.403085,-7.81848 0.720001,-0.90461 1.440002,-1.98462 1.255387,-2.92616 -0.101908,-0.72 -0.756925,-1.36615 -1.40308,-2.02154 -0.36037,-0.35963 -0.720001,-0.72 -1.006156,-1.08 -1.30154,-1.65231 -2.418466,-3.60001 -3.461544,-6.16617 -2.381543,-5.76924 -3.461545,-12.39694 -3.360007,-20.8708 0.147693,-6.52617 0.507324,-13.44926 2.243081,-20.01235 1.006156,-3.79385 2.630775,-7.4677 4.57847,-10.60617 4.938471,-7.89232 13.126179,-13.5231 23.040043,-15.86772 0.07385,0 2.990775,-0.53539 4.716932,-0.72 l 0,-9.69233 0,-0.58191 0.470401,-0.36037 c 2.963082,-2.3077 6.129242,-3.49847 9.489248,-3.49847 5.621549,0 9.553864,3.3877 9.692326,3.53539 l 0.397293,0.36037 0,0.54499 0,13.05233 1.947695,2.33539 78.757068,0 3.27693,-4.18155 -0.2496,-18.46157 c 0,-1.08 -0.69194,-1.32923 -0.97846,-1.36615 l -9.70156,0 c -0.72,6.71078 -4.57847,17.66772 -15.10157,17.66772 -12.69233,0 -17.30772,-13.77233 -17.30772,-23.04004 0,-8.43694 5.33539,-20.95389 16.80003,-20.95389 10.27387,0 13.69849,9.34156 14.6031,12.48003 l 20.52004,0 c 3.13847,0 6.56309,1.98462 6.56309,7.60616 l 0,29.75083 79.68015,0 c 1.22769,0.53538 55.53241,35.2616 154.61567,35.2616 98.87095,0 171.60032,-86.8617 172.32032,-87.76631 l 2.85231,-3.42463 -0.68308,4.40309 c -0.0738,0.39729 -6.63693,41.21546 -35.04929,68.8709 l 8.9077,-0.25847 2.88001,-0.0665 -1.9477,2.16001 c -20.47388,22.32004 -36.05545,25.81851 -43.66162,25.89235 3.24001,1.76308 6.67386,2.08616 8.76002,2.08616 1.19077,0 1.9477,-0.11077 1.98462,-0.11077 l 4.21847,-0.64616 -3.24924,2.77847 c -16.72618,14.31695 -39.33238,17.41849 -49.25547,18.10157 4.98462,2.05847 10.60617,3.27693 10.68002,3.27693 l 3.67385,0.79385 -3.42462,1.51385 c -19.25542,8.65848 -35.80622,13.01541 -49.25548,13.01541 l -1.76308,0 c -21.78465,-0.68308 -35.37237,-7.1354 -41.64931,-10.99387 4.00617,6.92309 9.23079,11.46464 9.26771,11.53848 l 2.91693,2.49232 -3.82154,-0.36037 C 275.2986,177.29612 219.70157,135.60989 219.12004,135.17604 l -47.77855,0.25847 -2.08616,2.12308 0,24.51697 0.54425,0.75692 27.97851,0 c 2.12308,0.0738 6.20309,1.51385 6.20309,6.56309 l 0,22.64312 c 0.13883,0.22154 5.51078,14.93541 0.79384,21.74773 -1.55077,2.23385 -3.96923,3.35078 -7.21847,3.35078 -3.13847,0 -5.51078,-1.11693 -7.06155,-3.35078 -4.91078,-6.92309 0.49846,-22.50466 0.75692,-23.18773 l -0.0738,-14.20618 c 0,-0.75693 -0.24887,-0.75693 -0.50733,-0.75693 l -30.24928,0.0369 c -2.13232,0 -3.7477,-0.64615 -4.90155,-1.91077 -1.91077,-2.02154 -1.69847,-4.93847 -1.69847,-5.04924 l 0,-29.64005 -2.48308,-2.85232 -74.972444,0 0,14.35388 0,1.22769 -1.218464,0 -7.753861,0 c -11.003097,0 -14.316949,-12.33233 -15.03695,-16.11695 l -2.889237,0 c -0.03692,1.30154 -0.138831,3.53539 -0.498462,7.53232 l -0.258462,2.85231 c -0.248862,3.7477 -0.535386,7.60617 -1.652311,11.35387 -0.793847,2.56616 -2.095388,4.83693 -3.360006,7.07078 -0.969233,1.76308 -1.975388,3.53539 -2.70462,5.48309 -0.572309,1.51385 -0.138093,1.9477 1.947696,3.35077 1.513848,1.08001 2.852312,2.55693 3.895391,3.71078 3.535391,4.04308 6.166166,9.0554 7.901553,14.89849 1.615388,5.44616 2.409236,11.5754 2.409236,18.27695 0,5.01232 -0.212678,9.26771 -0.756925,13.01541 -0.609232,4.72616 -1.513849,9.70156 -3.784622,14.06772 -2.086158,3.85847 -5.150779,6.66463 -8.649247,9.72925 -2.307697,2.05846 -4.476931,4.40308 -6.563089,6.71078 l -2.418466,2.55693 c -17.196995,18.28619 -6.600052,38.7693 -6.129282,39.62777 l 1.366156,2.63077 z"
     inkscape:connector-curvature="0"
     id="path318"
     style="fill:#8d742f;fill-opacity:1;fill-rule:nonzero;stroke:none" />
  <g
     transform="matrix(9.2307863,0,0,-9.2307863,-1723.8493,4624.1191)"
     id="g320">
    <path
       d="m 199.113,493.121 c 0,-0.879 0.418,-2.183 1.567,-2.183 l 0,0 c 1.121,0 1.312,1.464 1.332,1.636 l 0,0 0.031,0.274 0.277,0 1.102,-0.004 c 0.18,-0.032 0.355,-0.184 0.355,-0.449 l 0,0 0.032,-2 0,-0.11 -0.067,-0.086 -0.355,-0.453 -0.09,-0.117 -0.152,0 -8.532,0 -0.14,0 -0.094,0.109 -0.211,0.254 -0.07,0.086 0,0.11 0,1.328 c -0.118,0.082 -0.41,0.261 -0.789,0.261 l 0,0 c -0.254,0 -0.497,-0.078 -0.77,-0.265 l 0,0 0,-0.957 0,-0.282 -0.277,-0.027 c -0.172,-0.019 -0.453,-0.066 -0.473,-0.07 l 0,0 c -0.996,-0.235 -1.812,-0.797 -2.305,-1.578 l 0,0 c -0.199,-0.325 -0.355,-0.692 -0.461,-1.067 l 0,0 c -0.179,-0.679 -0.218,-1.41 -0.226,-2.093 l 0,0 c -0.016,-0.876 0.09,-1.555 0.336,-2.141 l 0,0 c 0.101,-0.25 0.207,-0.438 0.328,-0.586 l 0,0 c 0.023,-0.035 0.055,-0.066 0.078,-0.09 l 0,0 c 0.106,-0.098 0.223,-0.219 0.25,-0.398 l 0,0 c 0.035,-0.243 -0.113,-0.45 -0.191,-0.547 l 0,0 c -0.176,-0.235 -0.321,-0.488 -0.442,-0.781 l 0,0 c -0.293,-0.696 -0.441,-1.516 -0.441,-2.442 l 0,0 c 0,-2.207 0.961,-3.398 1.254,-3.711 l 0,0 0.226,-0.238 -0.254,-0.211 c -0.336,-0.273 -1.437,-1.297 -1.503,-2.945 l 0,0 c -0.047,-1.235 0.55,-1.864 0.972,-2.149 l 0,0 c -0.281,0.817 -0.613,2.582 0.902,4.192 l 0,0 0.258,0.273 c 0.235,0.258 0.477,0.52 0.739,0.75 l 0,0 c 0.355,0.313 0.668,0.598 0.867,0.969 l 0,0 c 0.222,0.426 0.316,0.929 0.383,1.418 l 0,0 c 0.05,0.39 0.078,0.836 0.078,1.371 l 0,0 c 0,0.695 -0.086,1.332 -0.25,1.89 l 0,0 c -0.176,0.594 -0.446,1.098 -0.801,1.508 l 0,0 c -0.106,0.118 -0.227,0.254 -0.359,0.34 l 0,0 c -0.2,0.137 -0.477,0.324 -0.325,0.735 l 0,0 c 0.082,0.21 0.192,0.406 0.325,0.644 l 0,0 c 0.121,0.223 0.25,0.453 0.324,0.695 l 0,0 c 0.113,0.371 0.144,0.77 0.172,1.161 l 0,0 0.023,0.316 c 0.039,0.418 0.055,0.656 0.055,0.789 l 0,0 0.011,0.305 0.297,0 0.313,0 0.254,0 0.047,-0.25 c 0.07,-0.352 0.375,-1.493 1.328,-1.493 l 0,0 0.664,0 0,1.376 0,0.308 0.308,0 8.122,0 0.14,0 0.094,-0.105 0.269,-0.309 0.079,-0.09 0,-0.113 -0.004,-3.227 c 0,-0.035 -0.004,-0.211 0.101,-0.32 l 0,0 c 0.067,-0.07 0.164,-0.105 0.305,-0.105 l 0,0 3.281,0 c 0.18,0 0.36,-0.122 0.36,-0.391 l 0,0 0.007,-1.539 0,-0.059 -0.019,-0.054 c -0.113,-0.309 -0.504,-1.676 -0.117,-2.223 l 0,0 c 0.07,-0.102 0.199,-0.231 0.515,-0.231 l 0,0 c 0.242,0 0.414,0.075 0.524,0.235 l 0,0 c 0.351,0.504 0.015,1.742 -0.11,2.047 l 0,0 -0.031,0.066 0,0.063 0,2.453 c 0,0.371 -0.312,0.398 -0.367,0.402 l 0,0 -3.024,0 -0.152,0 -0.094,0.117 -0.062,0.082 -0.067,0.086 0,0.106 0,2.656 0,0.129 0.09,0.09 0.235,0.23 0.09,0.086 0.124,0.004 5.176,0.027 0.11,-0.004 0.078,-0.062 c 0.058,-0.047 5.894,-4.398 18.812,-5.785 l 0,0 c -0.211,0.23 -0.48,0.562 -0.715,0.965 l 0,0 -0.617,1.066 1.047,-0.644 c 0.645,-0.399 2.067,-1.075 4.352,-1.145 l 0,0 0.191,-0.004 c 1.301,0 2.895,0.399 4.738,1.18 l 0,0 c -0.207,0.058 -0.461,0.144 -0.699,0.242 l 0,0 -1.226,0.504 1.324,0.09 c 0.89,0.058 3.043,0.332 4.758,1.578 l 0,0 c -0.246,0.023 -0.539,0.094 -0.825,0.25 l 0,0 -1.046,0.566 1.191,0.012 c 0.727,0.008 2.219,0.336 4.215,2.398 l 0,0 -0.539,-0.015 -0.793,-0.024 0.566,0.555 c 2.313,2.25 3.258,5.328 3.574,6.648 l 0,0 c -1.828,-1.972 -9.086,-9.121 -18.461,-9.121 l 0,0 c -9.515,0 -15.269,2.918 -16.828,3.825 l 0,0 -8.554,0 -0.313,0 0,0.308 0,3.223 c 0,0.426 -0.219,0.515 -0.402,0.515 l 0,0 -2.223,0 -0.23,0 -0.067,0.227 c -0.094,0.336 -0.406,1.121 -1.285,1.121 l 0,0 c -1.027,0 -1.508,-1.168 -1.508,-1.957 m 1.481,-1.746 c -0.364,0.063 -1.047,0.496 -1.047,1.687 l 0,0 c 0,1.336 0.836,1.594 1.004,1.629 l 0,0 0.078,0.02 0.082,-0.023 c 0.156,-0.047 0.93,-0.352 0.93,-1.626 l 0,0 c 0,-1.058 -0.524,-1.488 -0.832,-1.648 l 0,0 -0.114,-0.059 -0.101,0.02 z m 3.617,-4.863 -0.578,0.347 -0.153,0.09 0,0.18 0,1.758 0,0.175 0.153,0.09 0.578,0.348 0.469,0.281 0,-0.547 0,-2.457 0,-0.547 -0.469,0.282 z m -14.891,-0.641 c 0,1.496 0.715,2.106 0.934,2.258 l 0,0 0.101,0.066 0.118,-0.015 c 0.519,-0.078 0.773,-0.797 0.773,-2.196 l 0,0 c 0,-0.031 -0.043,-3.043 -0.906,-3.043 l 0,0 c -0.75,0 -1.02,1.512 -1.02,2.93 m 0.059,-6.914 c 0,1.848 0.84,2.309 1.094,2.406 l 0,0 0.062,0.024 0.063,-0.004 c 1.418,-0.059 1.433,-3.735 1.433,-3.774 l 0,0 c 0,-1.171 -0.535,-2.48 -1.301,-2.48 l 0,0 c -0.847,0 -1.351,1.945 -1.351,3.828"
       inkscape:connector-curvature="0"
       id="path330"
       style="fill:url(#radialGradient322);fill-opacity:1;fill-rule:nonzero;stroke:none" />
  </g>
  <path
     d="m 225.39734,128.18132 c 6.05539,3.72001 55.17241,36.31392 155.52029,49.57856 0,0 -4.29232,-6.59078 -2.13232,-17.76927 0,0 11.3631,6.70155 20.99081,10.38464 6.62771,2.55693 17.23388,6.73847 32.52006,7.24617 5.91694,0.17575 15.24926,-0.90462 28.08929,-5.01232 -4.14463,-2.59385 -12.65541,-12.61849 -12.65541,-12.61849 l 19.72619,-0.79384 c 0.72,0 17.73234,-0.18462 33.99698,-7.50463 l -0.24886,-0.53539 c -5.76924,-4.08001 -4.44001,-13.74464 -4.44001,-13.74464 7.65233,0.50732 16.37542,-1.21846 16.37542,-1.21846 3.89539,-0.79385 9.73848,-2.88924 17.05849,-7.9754 -5.80616,0.18461 -11.64925,0.35963 -11.64925,0.35963 l 16.29234,-14.81541 c 11.28925,-10.27387 18.93234,-22.86466 24.23081,-34.3293 -18.06465,16.1908 -45.21239,36.60007 -78.96015,50.5201 l -0.61883,0.2496 c -22.49542,9.19386 -47.84316,15.54464 -75.43398,15.54464 -13.41233,0 -25.88313,-0.65575 -37.64315,-1.73539 l -0.85846,-0.0738 C 295.85593,137.486 255.7574,115.63673 247.17276,110.47672 l -45.57239,0 0,7.8277 10.67079,0 c 0,0 6.4154,5.73232 13.12618,9.87694"
     inkscape:connector-curvature="0"
     id="path332"
     style="fill:#8d742f;fill-opacity:1;fill-rule:nonzero;stroke:none" />
  <path
     d="m 433.52388,174.7691 -1.11693,0 c -14.46464,-0.46154 -24.48927,-4.32001 -31.11698,-6.84924 -9.81232,-3.78462 -20.91696,-10.34771 -21.02773,-10.42156 l -3.49847,-2.02154 -0.75692,3.93231 c -1.21847,6.38771 -0.53539,11.46464 0.39729,14.89849 C 292.50552,162.43677 244.57928,136.8398 227.7054,126.23363 l -0.79384,-0.49846 c -6.4154,-3.96924 -12.65541,-9.51694 -12.72926,-9.55387 l -0.83077,-0.75692 -1.08,0 -7.82771,0 0,-2.09539 41.97239,0 c 9.09232,5.33539 49.80009,27.08313 118.84637,33.42468 l 0.90462,0.11077 c 12.97848,1.15384 25.34774,1.72615 37.89238,1.72615 25.20927,0 50.95394,-5.29847 76.55091,-15.75695 28.4862,-11.75079 51.92317,-27.69236 68.87089,-41.46469 -4.86462,7.90155 -10.38463,14.67695 -16.5508,20.26157 l -16.29233,14.82465 -5.6954,5.1877 7.71694,-0.21268 0.0295,0 c -2.44616,1.04308 -4.54155,1.66154 -6.12925,1.98462 -0.0369,0 -6.41539,1.2277 -12.75694,1.2277 -0.97847,0 -1.91077,-0.0369 -2.81539,-0.0738 l -2.66733,-0.18462 -0.35963,2.63078 c -0.0369,0.39729 -1.05231,8.11386 2.74154,13.56002 -14.78772,5.6954 -29.10467,5.73232 -29.24313,5.73232 l -19.87388,0.79385 -5.80617,0.25846 3.79386,4.4677 c 0.64615,0.75693 4.90154,5.73232 8.89848,9.55386 -9.91387,2.77847 -16.76311,3.3877 -20.94466,3.3877"
     inkscape:connector-curvature="0"
     id="path334"
     style="fill:#ffffff;fill-opacity:1;fill-rule:nonzero;stroke:none" />
</svg>
