<?xml version="1.0" encoding="UTF-8" standalone="no"?>
<!-- Created with Inkscape (http://www.inkscape.org/) -->

<svg
   xmlns:dc="http://purl.org/dc/elements/1.1/"
   xmlns:cc="http://creativecommons.org/ns#"
   xmlns:rdf="http://www.w3.org/1999/02/22-rdf-syntax-ns#"
   xmlns:svg="http://www.w3.org/2000/svg"
   xmlns="http://www.w3.org/2000/svg"
   xmlns:xlink="http://www.w3.org/1999/xlink"
   xmlns:inkscape="http://www.inkscape.org/namespaces/inkscape"
   version="1.1"
   width="600"
   height="317.954"
   id="svg4302">
  <defs
     id="defs4304">
    <radialGradient
       cx="0"
       cy="0"
       r="1"
       fx="0"
       fy="0"
       id="radialGradient300"
       gradientUnits="userSpaceOnUse"
       gradientTransform="matrix(23.282,0,0,-23.282,134.584,482.136)"
       spreadMethod="pad">
      <stop
         id="stop302"
         style="stop-color:#b7d1e1;stop-opacity:1"
         offset="0" />
      <stop
         id="stop304"
         style="stop-color:#a0b6c2;stop-opacity:1"
         offset="0.662" />
      <stop
         id="stop306"
         style="stop-color:#626e77;stop-opacity:1"
         offset="1" />
    </radialGradient>
    <radialGradient
       cx="0"
       cy="0"
       r="1"
       fx="0"
       fy="0"
       id="radialGradient3001"
       xlink:href="#radialGradient300"
       gradientUnits="userSpaceOnUse"
       gradientTransform="matrix(23.282,0,0,-23.282,134.584,482.136)"
       spreadMethod="pad" />
    <radialGradient
       cx="0"
       cy="0"
       r="1"
       fx="0"
       fy="0"
       id="radialGradient3004"
       xlink:href="#radialGradient300"
       gradientUnits="userSpaceOnUse"
       gradientTransform="matrix(214.914,0,0,214.914,295.015,173.616)"
       spreadMethod="pad" />
  </defs>
  <metadata
     id="metadata4307">
    <rdf:RDF>
      <cc:Work
         rdf:about="">
        <dc:format>image/svg+xml</dc:format>
        <dc:type
           rdf:resource="http://purl.org/dc/dcmitype/StillImage" />
        <dc:title />
      </cc:Work>
    </rdf:RDF>
  </metadata>
  <path
     d="m 576.637,28.302 -10.172,12.369 c -2.916,3.424 -71.649,82.966 -162.406,82.966 -92.704,0 -144.840,-31.652 -147.000,-32.990 0,0 -2.243,-1.476 -3.461,-2.270 -2.344,0 -71.104,0 -71.104,0 l 0,-17.021 c 0,-6.276 -2.28,-11.750 -6.424,-15.507 -4.689,-4.246 -10.098,-4.827 -12.867,-4.827 l -12.729,0 -1.227,-1.624 C 143.870,42.333 136.513,38.576 128.077,38.576 c -18.461,0 -29.492,17.095 -29.492,33.646 0,3.895 0.969,8.003 1.984,11.501 l 1.44,5.16 -18.646,0 0,-8.981 C 81.710,78.462 78.609,75.758 78.609,75.758 70.458,68.576 55.929,65.373 43.264,75.250 c 0,0 -3.526,2.704 -5.400,4.144 l 0,6.710 -2.566,1.006 c -10.098,4.08 -18.138,10.495 -23.252,18.609 -2.603,4.218 -4.726,9.046 -6.064,14.058 -2.160,7.938 -2.556,15.793 -2.667,23.076 0,-0.036 -0.036,1.698 -0.036,1.698 0,9.480 1.412,17.270 4.366,24.341 0,0 2.556,5.335 2.556,5.335 l -2.483,5.076 c -3.350,8.113 -5.123,17.704 -5.123,28.310 0,11.898 2.603,22.929 7.716,32.815 l 1.153,2.196 -1.476,2.021 c -6.203,8.649 -9.553,18.064 -9.950,27.904 l 0,0 c -1e-7,0 -0.036,2.058 -0.036,2.058 0,13.809 5.732,24.553 16.984,31.873 13.227,8.547 28.661,10.855 37.892,11.464 -4.864,-6.738 -11.787,-17.778 -16.080,-31.513 l -0.867,-6.378 c 0,-5.52 2.132,-10.569 6.313,-15.036 0,0 0,0.101 0,0.101 0.646,-0.858 1.476,-1.726 2.492,-2.769 0.066,-0.073 5.870,-5.990 5.870,-5.990 3.101,-2.741 7.938,-6.96 11.215,-13.126 3.286,-6.166 4.467,-12.729 5.224,-18.313 l 0.867,-14.963 c -0.036,-7.790 -1.006,-14.963 -2.990,-21.636 -1.624,-5.584 -4.292,-10.818 -8.040,-16.043 0,0 0.175,0.101 0.212,0.138 -0.359,-0.397 -0.683,-0.72 -1.116,-1.255 l -1.587,-1.984 0.691,-2.778 1.476,-3.212 9.406,1.338 c 0,0 15.396,0 21.129,-0.036 l 0,-15.572 51.996,0 0,19.975 c 0,3.821 0.941,7.32 2.741,10.384 3.424,5.769 9.480,9.083 16.550,9.083 l 17.889,0 -2.566,17.086 c 0,6.276 1.476,11.575 4.403,15.692 3.96,5.621 10.163,8.723 17.483,8.723 7.393,0 13.633,-3.138 17.630,-8.796 2.778,-4.08 4.218,-9.156 4.218,-15.184 0,-4.790 -0.895,-10.236 -2.630,-15.720 l -0.212,-0.609 0.110,-20.160 c 0,-5.261 -2.455,-9.987 -7.32,-14.021 l -8.658,-7.218 14.824,0 1.006,0.655 c 57.443,37.753 128.040,49.716 177.184,53.113 14.898,1.006 27.913,0.969 39.775,-0.110 1.080,-0.036 90.720,-5.261 139.366,-87.692 C 597.876,71.715 600,17.346 600,0.066 L 600,0 c -5.335,6.452 -23.363,28.301 -23.363,28.301"
     inkscape:connector-curvature="0"
     id="path292"
     style="fill:#ffffff;fill-opacity:1;fill-rule:nonzero;stroke:none" />
  <path
     d="m 31.984,202.967 c 0,-8.400 2.196,-12.009 3.710,-13.633 2.566,3 5.335,14.243 5.335,26.076 0,6.886 -2.233,12.036 -3.821,14.169 -2.012,-3.101 -5.224,-12.156 -5.224,-26.612 M 31.439,139.145 c 0,-4.218 0.830,-7.033 1.809,-9.230 0.248,1.984 0.498,4.430 0.498,8.187 0,4.541 -0.498,9.590 -1.255,13.698 -0.581,-3.175 -1.052,-7.246 -1.052,-12.655 m 118.015,-56.649 0,13.560 c -0.248,0.323 -0.248,0.323 -0.498,0.646 l -10.172,0 c 4.901,-3.498 7.606,-9.083 8.870,-14.206 l 1.8,0 z m -23.575,-9.766 c 0,-3.969 1.006,-5.741 1.947,-6.6 0.895,0.932 1.910,2.741 1.910,6.6 0,3.784 -0.978,5.769 -1.910,6.886 -0.978,-1.089 -1.947,-3 -1.947,-6.886"
     inkscape:connector-curvature="0"
     id="path294"
     style="fill:#ffffff;fill-opacity:1;fill-rule:nonzero;stroke:none" />
  <path
     d="m 128.003,60.499 c -1.227,0.258 -7.033,2.058 -7.033,12.267 0,11.169 7.033,12.72 7.32,12.793 -0.248,-0.073 6.350,-2.049 6.350,-12.793 0,-9.812 -5.446,-11.907 -6.636,-12.267 m 29.316,67.070 5.298,3.212 0,-22.680 -5.298,3.166 0,16.301 z M 33.969,120.684 c -1.449,0.969 -7.393,5.806 -7.393,18.461 0,15.720 3.350,24.193 6.563,24.193 2.778,0 5.510,-14.455 5.510,-25.200 0,-10.606 -1.763,-17.021 -4.680,-17.455 m 1.440,62.741 c -1.190,0.471 -8.298,3.747 -8.298,19.541 0,18.276 5.196,32.455 9.627,32.455 4.615,0 9.166,-9.886 9.166,-20.012 0,-12.803 -3.360,-31.661 -10.495,-31.984 m -5.160,115.126 -2.806,-0.858 c -0.184,-0.036 -15.470,-4.975 -14.713,-24.627 0.646,-16.301 11.316,-26.326 14.889,-29.243 -3.138,-3.360 -12.332,-14.926 -12.332,-36.203 0,-8.944 1.449,-16.873 4.292,-23.621 1.190,-2.88 2.630,-5.446 4.403,-7.818 0.720,-0.904 1.403,-1.984 1.255,-2.963 -0.101,-0.646 -0.720,-1.292 -1.403,-1.984 -0.360,-0.360 -0.720,-0.72 -1.006,-1.116 -1.301,-1.587 -2.418,-3.563 -3.461,-6.129 -2.418,-5.806 -3.498,-12.433 -3.360,-20.870 0.147,-6.526 0.470,-13.486 2.243,-20.012 1.043,-3.793 2.593,-7.467 4.578,-10.643 4.938,-7.855 13.126,-13.486 23.040,-15.830 0.073,-0.029 2.953,-0.535 4.716,-0.72 l 0,-9.664 0,-0.609 0.470,-0.359 c 2.963,-2.344 6.166,-3.498 9.489,-3.498 5.621,0 9.553,3.387 9.692,3.535 l 0.433,0.359 0,0.572 0,13.024 1.947,2.335 78.720,0 3.276,-4.218 -0.285,-18.424 c 0,-1.08 -0.655,-1.329 -0.941,-1.366 l -9.701,0.036 c -0.683,6.673 -4.578,17.630 -15.101,17.630 -12.692,0 -17.307,-13.772 -17.307,-23.040 0,-8.436 5.335,-20.953 16.800,-20.953 10.273,0 13.735,9.341 14.603,12.480 l 20.483,0 c 1.329,0 6.6,0.360 6.6,7.606 l 0,29.750 79.680,0 c 1.227,0.535 55.569,35.224 154.615,35.224 98.870,0 171.600,-86.824 172.320,-87.692 l 2.815,-3.461 -0.646,4.403 c -0.073,0.433 -6.636,41.215 -35.012,68.870 l 8.870,-0.258 2.880,-0.036 -1.947,2.095 c -20.473,22.356 -36.055,25.855 -43.661,25.929 3.24,1.763 6.636,2.049 8.723,2.049 1.227,0 1.984,-0.073 2.021,-0.101 l 4.218,-0.618 -3.249,2.741 c -16.726,14.316 -39.332,17.455 -49.218,18.138 4.975,2.058 10.569,3.276 10.643,3.276 l 3.636,0.793 -3.387,1.513 c -19.218,8.658 -35.806,13.015 -49.255,13.015 l -1.763,0 c -21.784,-0.720 -35.335,-7.135 -41.612,-10.993 3.996,6.923 9.156,11.464 9.230,11.501 l 2.916,2.529 -3.821,-0.397 C 275.335,177.296 219.701,135.610 219.119,135.176 l -47.769,0.258 -2.095,2.123 0,24.516 0.572,0.756 27.913,0 c 2.196,0.073 6.24,1.550 6.24,6.563 l 0,22.680 c 0.175,0.184 5.510,14.926 0.793,21.710 -1.550,2.233 -3.969,3.387 -7.181,3.387 -3.138,0 -5.510,-1.153 -7.098,-3.350 -4.910,-6.960 0.535,-22.541 0.756,-23.224 l -0.073,-14.206 c 0,-0.72 -0.248,-0.72 -0.471,-0.72 l -30.286,0 c -2.095,0 -3.747,-0.646 -4.901,-1.910 -1.910,-2.021 -1.698,-4.938 -1.661,-5.049 l -0.036,-29.640 -2.455,-2.852 -75.000,0 0,14.316 0,1.227 -1.218,0 -7.790,0 c -10.966,0 -14.243,-12.295 -15.036,-16.043 l -2.852,0 c -0.036,1.190 -0.138,3.175 -0.424,6.600 l -0.073,0.858 -0.258,3.036 c -0.248,3.673 -0.535,7.495 -1.652,11.206 -0.793,2.566 -2.095,4.873 -3.360,7.070 -0.969,1.763 -1.975,3.535 -2.704,5.446 -0.572,1.624 -0.101,2.021 1.947,3.424 1.449,1.006 2.704,2.381 3.895,3.710 3.498,4.006 6.166,8.981 7.938,14.861 1.578,5.446 2.409,11.427 2.409,18.276 0,5.049 -0.248,9.193 -0.756,13.015 -0.609,4.763 -1.550,9.701 -3.821,14.030 -2.049,3.858 -5.150,6.701 -8.612,9.803 -2.418,2.095 -4.652,4.513 -6.858,6.923 l -2.123,2.344 c -17.233,18.249 -6.600,38.732 -6.166,39.627 l 1.403,2.593 z"
     inkscape:connector-curvature="0"
     id="path296"
     style="fill:#626e77;fill-opacity:1;fill-rule:nonzero;stroke:none" />
  <path
     d="m 114.120,72.222 c 0,8.113 3.858,20.150 14.464,20.150 l 0,0 c 10.384,0 12.110,-13.513 12.295,-15.064 l 0,0 0.249,-2.529 2.556,0 10.209,0 c 1.624,0.295 3.276,1.698 3.276,4.144 l 0,0 0.295,18.433 0,1.006 -0.618,0.793 -3.24,4.181 -0.867,1.08 -1.403,0 -78.720,0 -1.329,0 -0.867,-1.006 -1.910,-2.307 -0.683,-0.793 0,-1.043 0,-12.230 c -1.190,-0.821 -3.858,-2.409 -7.283,-2.409 l 0,0 c -2.344,0 -4.578,0.72 -7.144,2.446 l 0,0 0,8.833 0,2.529 -2.483,0.286 c -1.587,0.184 -4.218,0.646 -4.403,0.683 l 0,0 c -9.156,2.169 -16.726,7.356 -21.276,14.566 l 0,0 c -1.800,2.926 -3.240,6.313 -4.255,9.886 l 0,0 c -1.652,6.230 -2.012,12.941 -2.123,19.283 l 0,0 c -0.110,8.049 0.904,14.316 3.138,19.763 l 0,0 c 0.969,2.344 1.947,4.08 3.064,5.483 l 0,0 c 0.212,0.286 0.507,0.535 0.793,0.830 l 0,0 c 0.793,0.756 2.021,1.947 2.196,3.6 l 0,0 c 0.286,2.058 -0.793,3.793 -1.763,5.049 l 0,0 c -1.661,2.196 -3.000,4.541 -4.116,7.209 l 0,0 c -2.667,6.424 -3.996,13.993 -3.996,22.541 l 0,0 c 0,20.372 8.833,31.366 11.538,34.255 l 0,0 2.086,2.196 -2.381,1.947 c -3.092,2.52 -13.227,11.972 -13.846,27.184 l 0,0 c -0.424,11.501 5.123,17.270 9.018,19.910 l 0,0 c -2.556,-7.615 -5.621,-23.944 8.298,-38.732 l 0,0 2.160,-2.307 c 2.307,-2.520 4.541,-4.975 7.033,-7.172 l 0,0 c 3.424,-3.027 6.230,-5.593 8.003,-8.981 l 0,0 c 2.049,-3.923 2.916,-8.612 3.535,-13.052 l 0,0 c 0.461,-3.710 0.720,-7.716 0.720,-12.692 l 0,0 c 0,-6.452 -0.756,-12.184 -2.307,-17.409 l 0,0 c -1.624,-5.483 -4.116,-10.135 -7.320,-13.818 l 0,0 c -1.052,-1.190 -2.169,-2.409 -3.360,-3.203 l 0,0 c -1.938,-1.375 -4.430,-3.027 -2.990,-6.821 l 0,0 c 0.756,-2.012 1.809,-3.923 2.889,-5.833 l 0,0 c 1.190,-2.095 2.381,-4.218 3.064,-6.526 l 0,0 c 1.043,-3.396 1.292,-7.033 1.550,-10.606 l 0,0 0.249,-3.027 0.073,-0.830 c 0.249,-3.350 0.396,-5.298 0.433,-6.489 l 0,0 0.073,-2.741 2.769,0 2.852,0 2.344,0 0.470,2.270 c 0.830,4.153 3.747,13.809 12.221,13.809 l 0,0 6.203,0 0,-12.729 0,-2.843 2.843,0 74.963,0 1.301,0 0.867,0.969 2.446,2.852 0.692,0.793 0,1.08 0,29.889 c 0,0 -0.073,1.809 0.932,2.889 l 0,0 c 0.618,0.609 1.550,0.969 2.815,0.969 l 0,0 30.249,0 c 1.698,0 3.36,1.116 3.36,3.572 l 0,0 0.065,14.206 0.036,0.507 -0.212,0.470 c -1.375,3.821 -4.504,15.756 -1.116,20.584 l 0,0 c 0.683,0.941 1.873,2.160 4.790,2.160 l 0,0 c 2.990,0 4.218,-1.255 4.873,-2.196 l 0,0 c 3.203,-4.615 0.101,-16.080 -1.052,-18.895 l 0,0 -0.249,-0.572 0,-0.581 0,-22.680 c 0,-3.387 -2.953,-3.673 -3.424,-3.710 l 0,0 -27.913,0 -1.403,0 -0.867,-1.116 -0.572,-0.72 -0.581,-0.793 0,-0.978 0,-24.516 0,-1.190 0.793,-0.830 2.169,-2.123 0.793,-0.830 1.190,0 47.769,-0.212 1.015,0 0.756,0.572 c 0.535,0.396 54.406,40.596 173.612,53.400 l 0,0 c -1.947,-2.123 -4.393,-5.187 -6.563,-8.944 l 0,0 -5.621,-9.766 9.590,5.907 c 5.916,3.683 19.043,9.923 40.172,10.606 l 0,0 1.726,0 c 12.046,0 26.760,-3.646 43.772,-10.892 l 0,0 c -1.947,-0.535 -4.292,-1.329 -6.489,-2.270 l 0,0 -11.215,-4.615 12.12,-0.830 c 8.215,-0.535 28.089,-3.101 43.883,-14.566 l 0,0 c -2.233,-0.249 -4.975,-0.867 -7.578,-2.270 l 0,0 -9.729,-5.261 11.067,-0.110 c 6.701,-0.073 20.446,-3.101 38.907,-22.135 l 0,0 -4.938,0.101 -7.32,0.258 5.224,-5.123 c 21.240,-20.695 30.000,-48.969 32.953,-61.366 l 0,0 c -16.800,18.166 -83.796,84.156 -170.409,84.156 l 0,0 c -87.904,0 -141.018,-26.898 -155.372,-35.307 l 0,0 -78.923,0 -2.852,0 0,-2.806 0,-29.750 c 0,-3.203 -1.227,-4.753 -3.747,-4.753 l 0,0 -20.483,0 -2.16,0 -0.581,-2.058 C 139.043,61.404 136.153,54.121 128.077,54.121 l 0,0 c -9.516,0 -13.956,10.818 -13.956,18.101 m 13.560,16.116 c -0.969,-0.212 -9.516,-2.492 -9.516,-15.609 l 0,0 c 0,-12.332 7.716,-14.676 9.267,-15.000 l 0,0 0.72,-0.184 0.72,0.212 c 1.44,0.433 8.584,3.212 8.584,14.972 l 0,0 c 0,7.209 -2.704,12.618 -7.643,15.212 l 0,0 -1.089,0.609 -1.043,-0.212 z m 33.461,44.852 -5.298,-3.166 -1.375,-0.830 0,-1.624 0,-16.264 0,-1.615 1.375,-0.830 5.298,-3.212 4.329,-2.593 0,5.049 0,22.680 0,5.012 -4.329,-2.603 z m -137.418,5.953 c 0,-14.316 7.218,-19.864 8.658,-20.843 l 0,0 0.895,-0.609 1.052,0.175 c 4.827,0.655 7.172,7.283 7.172,20.270 l 0,0 c 0,0.286 -0.36,28.052 -8.363,28.052 l 0,0 c -6.923,0 -9.415,-13.956 -9.415,-27.046 m 0.544,63.821 c 0,-17.021 7.753,-21.313 10.135,-22.209 l 0,0 0.535,-0.221 0.618,0.036 c 13.052,0.581 13.190,34.504 13.190,34.836 l 0,0 c 0,10.809 -4.901,22.855 -11.972,22.855 l 0,0 c -7.855,0 -12.507,-17.953 -12.507,-35.298"
     inkscape:connector-curvature="0"
     id="path308"
     style="fill:url(#radialGradient3004);fill-opacity:1;fill-rule:nonzero;stroke:none" />
  <path
     d="m 225.397,128.179 c 6.092,3.72 55.200,36.313 155.520,49.578 0,0 -4.292,-6.590 -2.095,-17.769 0,0 11.326,6.701 20.953,10.384 6.664,2.556 17.233,6.738 32.556,7.246 5.880,0.175 15.212,-0.904 28.052,-5.012 -4.144,-2.593 -12.655,-12.618 -12.655,-12.618 0,0 19.726,-0.793 19.726,-0.793 0.72,0 17.741,-0.184 33.996,-7.504 l -0.248,-0.535 c -5.769,-4.080 -4.44,-13.744 -4.44,-13.744 7.652,0.508 16.375,-1.218 16.375,-1.218 3.895,-0.793 9.738,-2.889 17.049,-7.975 -5.796,0.184 -11.640,0.360 -11.640,0.360 l 16.292,-14.815 c 11.289,-10.273 18.932,-22.864 24.230,-34.329 -18.027,16.190 -45.212,36.600 -78.960,50.520 l -0.581,0.249 c -22.532,9.193 -47.880,15.544 -75.470,15.544 -13.412,0 -25.883,-0.655 -37.643,-1.735 l -0.858,-0.073 C 295.855,137.485 255.794,115.635 247.209,110.475 l -45.609,0 0,7.827 10.670,0 c 0,0 6.415,5.732 13.126,9.876"
     inkscape:connector-curvature="0"
     id="path310"
     style="fill:#626e77;fill-opacity:1;fill-rule:nonzero;stroke:none" />
  <path
     d="m 433.597,174.767 -1.190,0 c -14.427,-0.461 -24.452,-4.32 -31.116,-6.849 -9.812,-3.747 -20.916,-10.347 -21.027,-10.421 l -3.461,-2.049 -0.793,3.96 c -1.255,6.387 -0.572,11.464 0.396,14.861 -83.833,-11.796 -131.750,-37.430 -148.661,-48.036 l -0.830,-0.498 c -6.415,-3.932 -12.655,-9.516 -12.729,-9.553 l -0.793,-0.728 -1.116,0 -7.827,0 0,-2.16 41.972,0 c 9.055,5.335 49.726,27.083 118.883,33.498 l 0.867,0.073 c 12.904,1.153 25.273,1.726 37.892,1.726 25.209,0 50.990,-5.298 76.550,-15.756 28.486,-11.750 51.923,-27.692 68.870,-41.464 -4.864,7.901 -10.384,14.676 -16.550,20.261 l -16.292,14.824 -5.695,5.187 7.680,-0.248 0.101,0 c -2.483,1.08 -4.578,1.698 -6.203,2.021 0,0 -6.378,1.227 -12.720,1.227 -0.978,0 -1.92,0 -2.852,-0.073 l -2.630,-0.184 -0.360,2.630 c -0.073,0.397 -1.052,8.113 2.741,13.560 -14.750,5.695 -29.104,5.769 -29.243,5.769 -0.036,0 -19.836,0.756 -19.836,0.756 l -5.843,0.258 3.793,4.430 c 0.609,0.756 4.901,5.806 8.898,9.590 -9.913,2.778 -16.726,3.387 -20.870,3.387"
     inkscape:connector-curvature="0"
     id="path312"
     style="fill:#ffffff;fill-opacity:1;fill-rule:nonzero;stroke:none" />
</svg>
