<?xml version="1.0" encoding="UTF-8" standalone="no"?>
<!-- Created with Inkscape (http://www.inkscape.org/) -->

<svg
   xmlns:dc="http://purl.org/dc/elements/1.1/"
   xmlns:cc="http://creativecommons.org/ns#"
   xmlns:rdf="http://www.w3.org/1999/02/22-rdf-syntax-ns#"
   xmlns:svg="http://www.w3.org/2000/svg"
   xmlns="http://www.w3.org/2000/svg"
   xmlns:xlink="http://www.w3.org/1999/xlink"
   xmlns:inkscape="http://www.inkscape.org/namespaces/inkscape"
   version="1.1"
   width="600"
   height="317.95483"
   id="svg4302">
  <defs
     id="defs4304">
    <radialGradient
       cx="0"
       cy="0"
       r="1"
       fx="0"
       fy="0"
       id="radialGradient300"
       gradientUnits="userSpaceOnUse"
       gradientTransform="matrix(23.282425,0,0,-23.282425,134.58496,482.13672)"
       spreadMethod="pad">
      <stop
         id="stop302"
         style="stop-color:#b7d1e1;stop-opacity:1"
         offset="0" />
      <stop
         id="stop304"
         style="stop-color:#a0b6c2;stop-opacity:1"
         offset="0.66291797" />
      <stop
         id="stop306"
         style="stop-color:#626e77;stop-opacity:1"
         offset="1" />
    </radialGradient>
    <radialGradient
       cx="0"
       cy="0"
       r="1"
       fx="0"
       fy="0"
       id="radialGradient3001"
       xlink:href="#radialGradient300"
       gradientUnits="userSpaceOnUse"
       gradientTransform="matrix(23.282425,0,0,-23.282425,134.58496,482.13672)"
       spreadMethod="pad" />
    <radialGradient
       cx="0"
       cy="0"
       r="1"
       fx="0"
       fy="0"
       id="radialGradient3004"
       xlink:href="#radialGradient300"
       gradientUnits="userSpaceOnUse"
       gradientTransform="matrix(214.91482,0,0,214.91482,295.0152,173.61607)"
       spreadMethod="pad" />
  </defs>
  <metadata
     id="metadata4307">
    <rdf:RDF>
      <cc:Work
         rdf:about="">
        <dc:format>image/svg+xml</dc:format>
        <dc:type
           rdf:resource="http://purl.org/dc/dcmitype/StillImage" />
        <dc:title />
      </cc:Work>
    </rdf:RDF>
  </metadata>
  <path
     d="m 576.63728,28.3027 -10.17232,12.36924 c -2.91692,3.42462 -71.64927,82.96621 -162.40625,82.96621 -92.70467,0 -144.84009,-31.65233 -147.00009,-32.99079 0,0 -2.24308,-1.47693 -3.46154,-2.27077 -2.34462,0 -71.10466,0 -71.10466,0 l 0,-17.02155 c 0,-6.27693 -2.28,-11.75078 -6.42462,-15.5077 -4.68923,-4.24616 -10.09847,-4.8277 -12.8677,-4.8277 l -12.72924,0 -1.22769,-1.62462 C 143.87086,42.33348 136.51393,38.57656 128.077,38.57656 c -18.46155,0 -29.492324,17.09539 -29.492324,33.64617 0,3.89539 0.969231,8.00308 1.984614,11.50155 l 1.44,5.16 -18.646162,0 0,-8.98154 C 81.71082,78.46273 78.609279,75.75812 78.609279,75.75812 70.458505,68.57657 55.929265,65.3735 43.264642,75.25006 c 0,0 -3.526156,2.70461 -5.400003,4.14461 l 0,6.71078 -2.566156,1.00615 c -10.098467,4.08 -18.138472,10.49539 -23.252322,18.60924 -2.6030783,4.21847 -4.7261565,9.04616 -6.0646189,14.05847 -2.1600013,7.93847 -2.5569246,15.79386 -2.6676939,23.07694 0,-0.0369 -0.036923,1.69846 -0.036923,1.69846 0,9.48001 1.4123086,17.27078 4.3661565,24.34156 0,0 2.5569243,5.33538 2.5569243,5.33538 l -2.4830781,5.07693 c -3.3507713,8.11385 -5.12308,17.70463 -5.12308,28.31079 0,11.89847 2.6030785,22.92924 7.7169281,32.8154 l 1.153846,2.19693 -1.4769234,2.02154 c -6.2030808,8.64923 -9.55385208,18.06462 -9.9507754,27.90463 l 0,0 c -1e-7,0 -0.0369232,2.05846 -0.0369232,2.05846 0,13.80924 5.7323112,24.55386 16.984626,31.87387 13.2277,8.5477 28.661556,10.85539 37.892331,11.46462 -4.864619,-6.73847 -11.7877,-17.77847 -16.08001,-31.51387 l -0.867693,-6.37846 c 0,-5.52 2.132309,-10.56924 6.31385,-15.03693 0,0 0,0.1019 0,0.1019 0.646154,-0.85846 1.476924,-1.72615 2.492309,-2.76923 0.06646,-0.0738 5.870773,-5.99077 5.870773,-5.99077 3.101541,-2.74154 7.938467,-6.96 11.215392,-13.12616 3.286156,-6.16616 4.467695,-12.72924 5.224618,-18.31386 l 0.867693,-14.96309 c -0.03692,-7.79077 -1.006154,-14.96308 -2.990771,-21.63693 -1.624616,-5.58462 -4.29231,-10.81847 -8.040005,-16.04309 0,0 0.175754,0.10191 0.212677,0.13883 -0.359631,-0.39729 -0.683077,-0.72 -1.116924,-1.25538 l -1.587693,-1.98462 0.691939,-2.77846 1.476924,-3.21231 9.40616,1.33846 c 0,0 15.396932,0 21.129243,-0.0369 l 0,-15.57232 51.996951,0 0,19.9754 c 0,3.82154 0.94154,7.32 2.74154,10.38462 3.42462,5.76923 9.48001,9.08308 16.55078,9.08308 l 17.88925,0 -2.56616,17.08616 c 0,6.27693 1.47692,11.5754 4.40308,15.69232 3.96,5.62154 10.16308,8.72308 17.48309,8.72308 7.39385,0 13.63385,-3.13846 17.63078,-8.79693 2.77846,-4.08 4.21846,-9.15692 4.21846,-15.18462 0,-4.79077 -0.89538,-10.23693 -2.63077,-15.72001 l -0.21268,-0.60923 0.11077,-20.16001 c 0,-5.26154 -2.45538,-9.9877 -7.32,-14.02155 l -8.65847,-7.21847 14.82463,0 1.00615,0.65576 c 57.44311,37.75387 128.04008,49.71695 177.18473,53.11388 14.89847,1.00615 27.91386,0.96923 39.7754,-0.11077 1.08001,-0.0369 90.72006,-5.26154 139.36624,-87.69236 C 597.87692,71.71578 600,17.34651 600,0.0665 L 600,0 c -5.33539,6.45231 -23.36309,28.30156 -23.36309,28.30156"
     inkscape:connector-curvature="0"
     id="path292"
     style="fill:#ffffff;fill-opacity:1;fill-rule:nonzero;stroke:none" />
  <path
     d="m 31.984635,202.96743 c 0,-8.40001 2.196924,-12.00924 3.710772,-13.63386 2.566155,3 5.335387,14.24309 5.335387,26.07694 0,6.88616 -2.233847,12.03693 -3.82154,14.16924 -2.012309,-3.10154 -5.224619,-12.15693 -5.224619,-26.61232 M 31.43965,139.14585 c 0,-4.21847 0.83077,-7.03385 1.809232,-9.23078 0.248862,1.98462 0.498462,4.43078 0.498462,8.1877 0,4.54154 -0.498462,9.59078 -1.255386,13.69847 -0.581169,-3.17539 -1.052308,-7.24616 -1.052308,-12.65539 m 118.01546,-56.64927 0,13.56001 c -0.24886,0.32345 -0.24886,0.32345 -0.49846,0.64616 l -10.17232,0 c 4.90154,-3.49847 7.60616,-9.08309 8.87078,-14.20617 l 1.8,0 z m -23.5754,-9.76616 c 0,-3.96923 1.00615,-5.74154 1.94769,-6.6 0.89539,0.93231 1.91077,2.74154 1.91077,6.6 0,3.78462 -0.97846,5.76924 -1.91077,6.88616 -0.97846,-1.08923 -1.94769,-3 -1.94769,-6.88616"
     inkscape:connector-curvature="0"
     id="path294"
     style="fill:#ffffff;fill-opacity:1;fill-rule:nonzero;stroke:none" />
  <path
     d="m 128.00316,60.49965 c -1.2277,0.25846 -7.03385,2.05846 -7.03385,12.2677 0,11.16923 7.03385,12.72 7.32,12.79385 -0.24886,-0.0739 6.35077,-2.04923 6.35077,-12.79385 0,-9.81232 -5.44615,-11.9077 -6.63692,-12.2677 m 29.31694,67.07081 5.29846,3.21231 0,-22.68002 -5.29846,3.16616 0,16.30155 z M 33.969252,120.6843 c -1.449232,0.96923 -7.393851,5.80616 -7.393851,18.46155 0,15.72001 3.350771,24.19386 6.563081,24.19386 2.778463,0 5.510773,-14.45539 5.510773,-25.20002 0,-10.60616 -1.763078,-17.02154 -4.680003,-17.45539 m 1.440001,62.74158 c -1.19077,0.47113 -8.298467,3.74769 -8.298467,19.54155 0,18.27693 5.196926,32.4554 9.627698,32.4554 4.615388,0 9.16616,-9.88616 9.16616,-20.01232 0,-12.80308 -3.360002,-31.66156 -10.495391,-31.98463 m -5.160004,115.12622 -2.806155,-0.85846 c -0.184616,-0.0369 -15.470779,-4.97539 -14.713855,-24.62771 0.646154,-16.30155 11.31693,-26.32617 14.88924,-29.24309 -3.138464,-3.36001 -12.332316,-14.92617 -12.332316,-36.2031 0,-8.94462 1.449232,-16.87386 4.292311,-23.62156 1.19077,-2.88 2.63077,-5.44615 4.403079,-7.81846 0.720001,-0.90462 1.403078,-1.98462 1.255386,-2.96308 -0.101908,-0.64616 -0.720001,-1.29231 -1.403078,-1.98462 -0.36037,-0.36037 -0.720001,-0.72 -1.006155,-1.11692 -1.301539,-1.5877 -2.418463,-3.56308 -3.46154,-6.12924 -2.418463,-5.80615 -3.498464,-12.43385 -3.360002,-20.87078 0.147692,-6.52616 0.4704,-13.48616 2.243078,-20.01232 1.043078,-3.79385 2.593848,-7.4677 4.578464,-10.64308 4.938465,-7.85539 13.126162,-13.48616 23.040015,-15.83078 0.07385,-0.0295 2.953848,-0.53539 4.716926,-0.72 l 0,-9.66462 0,-0.60923 0.4704,-0.35963 c 2.963079,-2.34462 6.166157,-3.49847 9.489236,-3.49847 5.621542,0 9.553852,3.3877 9.692314,3.53539 l 0.433477,0.35963 0,0.57231 0,13.02462 1.947694,2.33539 78.720052,0 3.27692,-4.21847 -0.28578,-18.42462 c 0,-1.08 -0.65576,-1.32924 -0.94154,-1.36616 l -9.70155,0.0369 c -0.68307,6.67385 -4.57846,17.63078 -15.10154,17.63078 -12.69232,0 -17.30771,-13.77231 -17.30771,-23.04001 0,-8.43693 5.33539,-20.95386 16.80001,-20.95386 10.27386,0 13.7354,9.34155 14.60309,12.48001 l 20.48309,0 c 1.32923,0 6.6,0.36037 6.6,7.60616 l 0,29.75079 79.68005,0 c 1.22769,0.53538 55.56927,35.22463 154.61548,35.22463 98.87083,0 171.60011,-86.82467 172.32011,-87.69236 l 2.81538,-3.46154 -0.64615,4.40308 c -0.0738,0.43348 -6.63693,41.21541 -35.01233,68.87081 l 8.87077,-0.25846 2.88001,-0.0369 -1.9477,2.09538 c -20.47386,22.35694 -36.0554,25.8554 -43.66156,25.92925 3.24,1.76308 6.63692,2.04923 8.72308,2.04923 1.22769,0 1.98462,-0.0739 2.02154,-0.10117 l 4.21846,-0.61883 -3.24923,2.74154 c -16.72616,14.31693 -39.33233,17.4554 -49.21849,18.13847 4.97539,2.05847 10.56924,3.27693 10.64308,3.27693 l 3.63693,0.79385 -3.3877,1.51384 c -19.21847,8.65847 -35.80617,13.0154 -49.25541,13.0154 l -1.76308,0 c -21.78463,-0.72001 -35.33541,-7.13539 -41.61233,-10.99386 3.99692,6.92308 9.15693,11.46462 9.23077,11.50155 l 2.91693,2.52923 -3.82154,-0.39729 C 275.33518,177.29627 219.7013,135.61009 219.11977,135.17625 l -47.76926,0.25846 -2.09539,2.12308 0,24.51693 0.57231,0.75693 27.91386,0 c 2.19693,0.0738 6.24,1.55077 6.24,6.56308 l 0,22.68001 c 0.17576,0.18462 5.51078,14.92617 0.79385,21.71079 -1.55077,2.23384 -3.96923,3.38769 -7.18154,3.38769 -3.13846,0 -5.51077,-1.15385 -7.09847,-3.35077 -4.91077,-6.96001 0.53539,-22.54155 0.75693,-23.22463 l -0.0738,-14.20616 c 0,-0.72 -0.24886,-0.72 -0.47114,-0.72 l -30.28617,0 c -2.09539,0 -3.7477,-0.64616 -4.90154,-1.91077 -1.91077,-2.02154 -1.69847,-4.93847 -1.66154,-5.04924 l -0.0369,-29.64002 -2.45538,-2.85231 -75.000048,0 0,14.31694 0,1.22769 -1.218462,0 -7.790774,0 c -10.966161,0 -14.243086,-12.29539 -15.036932,-16.04309 l -2.85231,0 c -0.03692,1.19077 -0.138831,3.17539 -0.424615,6.60001 l -0.07385,0.85846 -0.258461,3.03692 c -0.248862,3.67385 -0.535385,7.49539 -1.652309,11.20616 -0.793847,2.56616 -2.095386,4.87385 -3.360002,7.07078 -0.969231,1.76308 -1.975386,3.53538 -2.704617,5.44615 -0.572308,1.62462 -0.101169,2.02154 1.947693,3.42462 1.449232,1.00616 2.704617,2.38154 3.895387,3.71077 3.498464,4.00616 6.166158,8.98155 7.938467,14.86155 1.578462,5.44616 2.409232,11.4277 2.409232,18.27694 0,5.04923 -0.248862,9.19385 -0.756923,13.01539 -0.609232,4.76308 -1.550771,9.70154 -3.821541,14.03078 -2.049232,3.85846 -5.150773,6.70154 -8.612313,9.80308 -2.418463,2.09539 -4.652311,4.51385 -6.858466,6.92308 l -2.123078,2.34462 c -17.233934,18.24924 -6.600081,38.73233 -6.166235,39.62771 l 1.403078,2.59385 z"
     inkscape:connector-curvature="0"
     id="path296"
     style="fill:#626e77;fill-opacity:1;fill-rule:nonzero;stroke:none" />
  <path
     d="m 114.12007,72.22266 c 0,8.11385 3.85846,20.15078 14.46462,20.15078 l 0,0 c 10.38463,0 12.11078,-13.51386 12.2954,-15.06463 l 0,0 0.24923,-2.52923 2.55692,0 10.20924,0 c 1.62462,0.29539 3.27692,1.69846 3.27692,4.14462 l 0,0 0.29539,18.43386 0,1.00615 -0.61846,0.79385 -3.24,4.18154 -0.8677,1.08 -1.40308,0 -78.720044,0 -1.329231,0 -0.867693,-1.00616 -1.910771,-2.30769 -0.683077,-0.79385 0,-1.04307 0,-12.23078 c -1.19077,-0.82154 -3.858464,-2.40923 -7.283081,-2.40923 l 0,0 c -2.344617,0 -4.578465,0.72 -7.14462,2.44615 l 0,0 0,8.83385 0,2.52924 -2.483079,0.28615 c -1.587693,0.18462 -4.218464,0.64616 -4.403079,0.68308 l 0,0 c -9.156929,2.16923 -16.726164,7.35693 -21.276936,14.56616 l 0,0 c -1.800002,2.92616 -3.240002,6.31385 -4.255388,9.88616 l 0,0 c -1.652308,6.23077 -2.012309,12.94155 -2.123078,19.28309 l 0,0 c -0.110769,8.04924 0.904616,14.31693 3.138464,19.76309 l 0,0 c 0.969231,2.34462 1.947693,4.08 3.064617,5.48308 l 0,0 c 0.212308,0.28615 0.507693,0.53538 0.793847,0.83077 l 0,0 c 0.793846,0.75692 2.021539,1.94769 2.196924,3.6 l 0,0 c 0.286154,2.05846 -0.793847,3.79385 -1.763078,5.04923 l 0,0 c -1.66154,2.19693 -3.000002,4.54155 -4.116926,7.20924 l 0,0 c -2.667694,6.42462 -3.996925,13.99385 -3.996925,22.54155 l 0,0 c 0,20.37232 8.833851,31.36618 11.538468,34.25541 l 0,0 2.086156,2.19692 -2.38154,1.9477 c -3.09231,2.52 -13.227701,11.97231 -13.846163,27.18463 l 0,0 c -0.424615,11.50154 5.12308,17.27078 9.018467,19.91078 l 0,0 c -2.556924,-7.61539 -5.621542,-23.94463 8.298467,-38.73233 l 0,0 2.160001,-2.30769 c 2.307694,-2.52001 4.541542,-4.97539 7.033851,-7.17232 l 0,0 c 3.424617,-3.02769 6.230773,-5.59385 8.003082,-8.98154 l 0,0 c 2.049232,-3.92308 2.916925,-8.61231 3.535386,-13.05232 l 0,0 c 0.461539,-3.71077 0.720001,-7.71692 0.720001,-12.69231 l 0,0 c 0,-6.45231 -0.756924,-12.18462 -2.307694,-17.40924 l 0,0 c -1.624616,-5.48308 -4.116925,-10.13539 -7.320004,-13.81847 l 0,0 c -1.052309,-1.19077 -2.169232,-2.40924 -3.360002,-3.20308 l 0,0 c -1.938463,-1.37539 -4.430772,-3.0277 -2.990771,-6.82155 l 0,0 c 0.756923,-2.0123 1.809231,-3.92307 2.889232,-5.83385 l 0,0 c 1.19077,-2.09538 2.38154,-4.21846 3.064617,-6.52615 l 0,0 c 1.043078,-3.39693 1.292309,-7.03385 1.550771,-10.60616 l 0,0 0.24923,-3.0277 0.07385,-0.83077 c 0.249231,-3.35077 0.396923,-5.29846 0.433846,-6.48923 l 0,0 0.07385,-2.74154 2.769233,0 2.852309,0 2.344617,0 0.47077,2.27077 c 0.830769,4.15385 3.747694,13.80924 12.221546,13.80924 l 0,0 6.20308,0 0,-12.72924 0,-2.84308 2.843079,0 74.963129,0 1.30154,0 0.86769,0.96923 2.44615,2.85231 0.69231,0.79385 0,1.08 0,29.88925 c 0,0 -0.0738,1.80923 0.93231,2.88923 l 0,0 c 0.61846,0.60923 1.55077,0.96923 2.81539,0.96923 l 0,0 30.24925,0 c 1.69846,0 3.36,1.11693 3.36,3.57231 l 0,0 0.065,14.20616 0.0369,0.5077 -0.21231,0.47077 c -1.37539,3.82154 -4.50462,15.75693 -1.11693,20.58462 l 0,0 c 0.68308,0.94154 1.87385,2.16001 4.79078,2.16001 l 0,0 c 2.99077,0 4.21846,-1.25539 4.87385,-2.19693 l 0,0 c 3.20308,-4.61539 0.10153,-16.08001 -1.05231,-18.89539 l 0,0 -0.24923,-0.57231 0,-0.58154 0,-22.68002 c 0,-3.38769 -2.95385,-3.67384 -3.42462,-3.71077 l 0,0 -27.91386,0 -1.40308,0 -0.86769,-1.11692 -0.57231,-0.72 -0.58154,-0.79385 0,-0.97846 0,-24.51694 0,-1.19077 0.79385,-0.83077 2.16923,-2.12308 0.79384,-0.83077 1.19077,0 47.76926,-0.2123 1.01539,0 0.75692,0.5723 c 0.53539,0.39693 54.40619,40.59695 173.61242,53.40004 l 0,0 c -1.9477,-2.12308 -4.39385,-5.1877 -6.56308,-8.94462 l 0,0 -5.62155,-9.76616 9.59078,5.90769 c 5.91693,3.68308 19.04309,9.92309 40.17233,10.60616 l 0,0 1.72616,0 c 12.04616,0 26.76001,-3.64615 43.77233,-10.89231 l 0,0 c -1.94769,-0.53539 -4.29231,-1.32923 -6.48923,-2.27077 l 0,0 -11.21539,-4.61539 12.12,-0.83077 c 8.21539,-0.53538 28.08925,-3.10154 43.88311,-14.56616 l 0,0 c -2.23385,-0.24923 -4.97539,-0.8677 -7.57847,-2.27077 l 0,0 -9.72924,-5.26155 11.0677,-0.11076 c 6.70155,-0.0739 20.44617,-3.10154 38.90772,-22.1354 l 0,0 -4.93847,0.10154 -7.32,0.25846 5.22462,-5.12308 c 21.24001,-20.6954 30.00002,-48.96926 32.95387,-61.36619 l 0,0 c -16.80002,18.16616 -83.79698,84.15697 -170.40934,84.15697 l 0,0 c -87.90467,0 -141.01855,-26.89848 -155.3724,-35.30771 l 0,0 -78.92313,0 -2.85231,0 0,-2.80616 0,-29.75079 c 0,-3.20308 -1.22769,-4.75385 -3.74769,-4.75385 l 0,0 -20.48309,0 -2.16,0 -0.58191,-2.05846 C 139.04316,61.40419 136.15393,54.12111 128.077,54.12111 l 0,0 c -9.51693,0 -13.95693,10.81847 -13.95693,18.10155 m 13.56001,16.11693 c -0.96923,-0.21231 -9.51693,-2.49231 -9.51693,-15.60924 l 0,0 c 0,-12.33232 7.71693,-14.67693 9.2677,-15.00001 l 0,0 0.72,-0.18462 0.72,0.21231 c 1.44,0.43385 8.58462,3.21231 8.58462,14.97232 l 0,0 c 0,7.20923 -2.70462,12.61847 -7.64308,15.21232 l 0,0 -1.08923,0.60923 -1.04308,-0.21231 z m 33.46156,44.85233 -5.29847,-3.16615 -1.37538,-0.83077 0,-1.62462 0,-16.26462 0,-1.61539 1.37538,-0.83077 5.29847,-3.21231 4.32923,-2.59385 0,5.04924 0,22.68001 0,5.01231 -4.32923,-2.60308 z m -137.418551,5.95385 c 0,-14.31693 7.218466,-19.86462 8.658466,-20.84309 l 0,0 0.895386,-0.60923 1.052308,0.17539 c 4.827695,0.65538 7.172312,7.28308 7.172312,20.27078 l 0,0 c 0,0.28615 -0.36,28.05233 -8.363082,28.05233 l 0,0 c -6.923081,0 -9.41539,-13.95694 -9.41539,-27.04618 m 0.544615,63.82158 c 0,-17.02155 7.753851,-21.31386 10.135391,-22.20924 l 0,0 0.535385,-0.22154 0.618462,0.0369 c 13.052316,0.58154 13.190777,34.50464 13.190777,34.83694 l 0,0 c 0,10.80924 -4.901541,22.8554 -11.972315,22.8554 l 0,0 c -7.855389,0 -12.5077,-17.95385 -12.5077,-35.29848"
     inkscape:connector-curvature="0"
     id="path308"
     style="fill:url(#radialGradient3004);fill-opacity:1;fill-rule:nonzero;stroke:none" />
  <path
     d="m 225.39706,128.17969 c 6.09231,3.72 55.20004,36.31387 155.5201,49.57849 0,0 -4.29231,-6.59077 -2.09539,-17.76924 0,0 11.32616,6.70154 20.95386,10.38462 6.66462,2.55692 17.23386,6.73847 32.55694,7.24616 5.88001,0.17501 15.21232,-0.90462 28.05233,-5.01231 -4.14462,-2.59385 -12.65539,-12.61847 -12.65539,-12.61847 0,0 19.72616,-0.79385 19.72616,-0.79385 0.72,0 17.74155,-0.18461 33.99695,-7.50462 l -0.24887,-0.53538 c -5.76923,-4.08001 -4.44,-13.74463 -4.44,-13.74463 7.65231,0.50806 16.3754,-1.21846 16.3754,-1.21846 3.89538,-0.79385 9.73846,-2.88923 17.04924,-7.97539 -5.79693,0.18462 -11.64001,0.36037 -11.64001,0.36037 l 16.29232,-14.81539 c 11.28924,-10.27386 18.93232,-22.86463 24.23078,-34.32926 -18.0277,16.19078 -45.21233,36.60003 -78.96005,50.52004 l -0.5819,0.2496 c -22.53233,9.19385 -47.88003,15.54462 -75.47082,15.54462 -13.41232,0 -25.88309,-0.65575 -37.6431,-1.73538 l -0.85846,-0.0738 C 295.85557,137.4851 255.794,115.63585 247.20938,110.47585 l -45.60926,0 0,7.8277 10.67078,0 c 0,0 6.41539,5.73231 13.12616,9.87693"
     inkscape:connector-curvature="0"
     id="path310"
     style="fill:#626e77;fill-opacity:1;fill-rule:nonzero;stroke:none" />
  <path
     d="m 433.59719,174.76741 -1.19077,0 c -14.4277,-0.46154 -24.45232,-4.32 -31.11694,-6.84924 -9.81232,-3.74769 -20.91694,-10.34769 -21.02771,-10.42154 l -3.46154,-2.04923 -0.79384,3.96 c -1.25539,6.3877 -0.57231,11.46462 0.39655,14.86155 -83.8339,-11.79693 -131.75085,-37.4308 -148.66163,-48.03696 l -0.83077,-0.49846 c -6.41539,-3.93231 -12.65539,-9.51693 -12.72924,-9.55385 l -0.79385,-0.72886 -1.11692,0 -7.8277,0 0,-2.16 41.97234,0 c 9.05539,5.33539 49.72618,27.08309 118.88315,33.49848 l 0.86769,0.0738 c 12.90462,1.15384 25.27386,1.72615 37.89233,1.72615 25.20925,0 50.9908,-5.29846 76.55082,-15.75693 28.48617,-11.75078 51.92311,-27.69233 68.87081,-41.46464 -4.86462,7.90154 -10.38462,14.67693 -16.55078,20.26155 l -16.29232,14.82462 -5.69539,5.1877 7.68001,-0.24886 0.10117,0 c -2.48308,1.08 -4.57847,1.69846 -6.20308,2.02154 0,0 -6.37847,1.22769 -12.72001,1.22769 -0.97846,0 -1.92,0 -2.85231,-0.0739 l -2.63077,-0.18461 -0.36037,2.63077 c -0.0738,0.39729 -1.05231,8.11385 2.74154,13.56001 -14.75078,5.69538 -29.10463,5.76923 -29.2431,5.76923 -0.0369,0 -19.83693,0.75692 -19.83693,0.75692 l -5.84308,0.25847 3.79385,4.43077 c 0.60923,0.75692 4.90154,5.80616 8.89846,9.59077 -9.91385,2.77847 -16.72616,3.3877 -20.87078,3.3877"
     inkscape:connector-curvature="0"
     id="path312"
     style="fill:#ffffff;fill-opacity:1;fill-rule:nonzero;stroke:none" />
</svg>
