<?xml version="1.0" encoding="UTF-8" standalone="no"?>
<!-- Created with Inkscape (http://www.inkscape.org/) -->

<svg
   xmlns:dc="http://purl.org/dc/elements/1.1/"
   xmlns:cc="http://creativecommons.org/ns#"
   xmlns:rdf="http://www.w3.org/1999/02/22-rdf-syntax-ns#"
   xmlns:svg="http://www.w3.org/2000/svg"
   xmlns="http://www.w3.org/2000/svg"
   xmlns:inkscape="http://www.inkscape.org/namespaces/inkscape"
   version="1.1"
   width="600"
   height="317.956"
   id="svg4377">
  <defs
     id="defs4379">
    <radialGradient
       cx="0"
       cy="0"
       r="1"
       fx="0"
       fy="0"
       id="radialGradient322"
       gradientUnits="userSpaceOnUse"
       gradientTransform="matrix(23.281,0,0,-23.281,218.709,482.140)"
       spreadMethod="pad">
      <stop
         id="stop324"
         style="stop-color:#d7bd74;stop-opacity:1"
         offset="0" />
      <stop
         id="stop326"
         style="stop-color:#b39a54;stop-opacity:1"
         offset="0.691" />
      <stop
         id="stop328"
         style="stop-color:#8d742f;stop-opacity:1"
         offset="1" />
    </radialGradient>
  </defs>
  <metadata
     id="metadata4382">
    <rdf:RDF>
      <cc:Work
         rdf:about="">
        <dc:format>image/svg+xml</dc:format>
        <dc:type
           rdf:resource="http://purl.org/dc/dcmitype/StillImage" />
        <dc:title />
      </cc:Work>
    </rdf:RDF>
  </metadata>
  <path
     d="m 576.637,28.304 -10.172,12.369 c -2.916,3.424 -71.649,82.966 -162.406,82.966 -92.704,0 -144.840,-31.652 -147.000,-32.990 0,0 -2.243,-1.476 -3.461,-2.270 -2.307,0 -71.104,0 -71.104,0 l 0,-17.021 c 0,-6.276 -2.307,-11.750 -6.424,-15.507 -4.689,-4.246 -10.098,-4.827 -12.867,-4.827 l -12.729,0 -1.227,-1.624 c -5.409,-7.061 -12.729,-10.818 -21.203,-10.818 -18.461,0 -29.455,17.095 -29.455,33.646 0,3.895 0.969,8.003 1.984,11.501 l 1.44,5.160 -18.646,0 0,-8.981 c -1.652,-1.44 -4.753,-4.144 -4.753,-4.144 -8.187,-7.181 -22.680,-10.384 -35.372,-0.508 0,0 -3.498,2.704 -5.372,4.144 l 0,6.710 -2.566,1.006 c -10.098,4.08 -18.175,10.495 -23.252,18.609 -2.630,4.218 -4.726,9.046 -6.064,14.058 -2.160,7.938 -2.556,15.793 -2.667,23.076 0,-0.036 -0.036,1.698 -0.036,1.698 0,9.480 1.375,17.270 4.329,24.341 0.036,0 2.593,5.335 2.593,5.335 l -2.483,5.076 c -3.350,8.113 -5.123,17.704 -5.123,28.310 0,11.898 2.593,22.929 7.680,32.815 l 1.153,2.196 -1.440,2.049 c -6.240,8.621 -9.590,18.036 -9.950,27.876 l 0,0 C 0.036,272.559 0,274.618 0,274.618 c 0,13.809 5.695,24.553 17.021,31.873 13.190,8.547 28.624,10.855 37.818,11.464 C 50.012,311.218 43.052,300.178 38.796,286.442 L 37.929,280.092 c 0,-5.547 2.095,-10.596 6.313,-15.064 0,0 -0.036,0.101 -0.036,0.101 0.683,-0.858 1.513,-1.726 2.492,-2.769 0.101,-0.073 5.907,-5.990 5.907,-5.990 3.101,-2.741 7.938,-6.960 11.215,-13.126 3.286,-6.166 4.467,-12.729 5.224,-18.313 l 0.867,-14.963 c 0,-7.790 -0.969,-14.963 -2.990,-21.636 -1.624,-5.584 -4.292,-10.818 -8.076,-16.043 0,0 0.211,0.101 0.248,0.138 -0.360,-0.396 -0.720,-0.720 -1.116,-1.255 l -1.587,-1.984 0.691,-2.778 1.476,-3.212 9.406,1.338 c 0,0 15.396,0 21.129,-0.036 l 0,-15.572 51.997,0 0,19.975 c 0,3.821 0.941,7.320 2.741,10.384 3.424,5.769 9.480,9.083 16.550,9.083 l 17.880,0 -2.556,17.086 c 0,6.276 1.476,11.575 4.403,15.692 3.960,5.621 10.163,8.723 17.483,8.723 7.393,0 13.670,-3.138 17.630,-8.796 2.778,-4.080 4.218,-9.156 4.218,-15.184 0,-4.790 -0.932,-10.236 -2.630,-15.720 l -0.212,-0.609 0.110,-20.160 c 0,-5.261 -2.492,-9.987 -7.320,-14.021 l -8.658,-7.218 14.824,0 1.006,0.655 c 57.443,37.753 128.040,49.717 177.184,53.113 14.898,1.006 27.913,0.969 39.738,-0.110 1.116,-0.036 90.720,-5.261 139.366,-87.692 C 597.876,71.715 600,17.346 600,0.066 L 600,0 c -5.335,6.452 -23.363,28.301 -23.363,28.301"
     inkscape:connector-curvature="0"
     id="path314"
     style="fill:#ffffff;fill-opacity:1;fill-rule:nonzero;stroke:none" />
  <path
     d="m 31.984,202.969 c 0,-8.400 2.160,-12.009 3.710,-13.633 2.566,3.000 5.335,14.243 5.335,26.076 0,6.886 -2.233,12.036 -3.858,14.169 -1.984,-3.101 -5.187,-12.156 -5.187,-26.612 M 31.440,139.147 c 0,-4.218 0.830,-7.033 1.809,-9.230 0.248,1.984 0.498,4.430 0.498,8.187 0,4.541 -0.535,9.590 -1.255,13.698 -0.581,-3.175 -1.052,-7.246 -1.052,-12.655 m 118.015,-56.649 0,13.560 c -0.248,0.322 -0.285,0.322 -0.498,0.646 l -10.172,0 c 4.901,-3.498 7.606,-9.083 8.870,-14.206 l 1.8,0 z M 125.880,72.731 c 0,-3.969 1.006,-5.741 1.947,-6.600 0.895,0.932 1.910,2.741 1.910,6.600 0,3.784 -0.978,5.769 -1.910,6.886 -0.978,-1.089 -1.947,-3.000 -1.947,-6.886"
     inkscape:connector-curvature="0"
     id="path316"
     style="fill:#ffffff;fill-opacity:1;fill-rule:nonzero;stroke:none" />
  <path
     d="m 128.003,60.501 c -1.190,0.258 -7.033,2.021 -7.033,12.267 0,11.206 6.996,12.720 7.320,12.756 -0.248,-0.036 6.350,-2.012 6.350,-12.756 0,-9.775 -5.446,-11.907 -6.636,-12.267 m 29.316,67.070 5.335,3.212 0,-22.680 -5.335,3.203 0,16.264 z M 33.969,120.685 c -1.449,0.932 -7.393,5.769 -7.393,18.461 0,15.720 3.387,24.193 6.563,24.193 2.778,0 5.483,-14.455 5.483,-25.236 0,-10.716 -1.661,-16.984 -4.652,-17.418 m 1.440,62.741 c -1.227,0.471 -8.326,3.747 -8.326,19.541 0,18.276 5.187,32.483 9.655,32.483 4.615,0 9.166,-9.950 9.166,-20.040 0,-12.803 -3.360,-31.698 -10.495,-31.984 m -5.196,115.126 -2.806,-0.858 c -0.147,-0.073 -15.433,-4.975 -14.676,-24.627 0.646,-16.264 11.289,-26.289 14.926,-29.243 -3.212,-3.360 -12.369,-14.926 -12.369,-36.203 0,-8.907 1.412,-16.836 4.292,-23.621 1.227,-2.990 2.704,-5.510 4.403,-7.818 0.720,-0.904 1.440,-1.984 1.255,-2.926 -0.101,-0.72 -0.756,-1.366 -1.403,-2.021 -0.360,-0.359 -0.720,-0.72 -1.006,-1.08 -1.301,-1.652 -2.418,-3.600 -3.461,-6.166 -2.381,-5.769 -3.461,-12.396 -3.360,-20.870 0.147,-6.526 0.507,-13.449 2.243,-20.012 1.006,-3.793 2.630,-7.467 4.578,-10.606 4.938,-7.892 13.126,-13.523 23.040,-15.867 0.073,0 2.990,-0.535 4.716,-0.72 l 0,-9.692 0,-0.581 0.470,-0.360 c 2.963,-2.307 6.129,-3.498 9.489,-3.498 5.621,0 9.553,3.387 9.692,3.535 l 0.397,0.360 0,0.544 0,13.052 1.947,2.335 78.757,0 3.276,-4.181 -0.249,-18.461 c 0,-1.08 -0.691,-1.329 -0.978,-1.366 l -9.701,0 c -0.72,6.710 -4.578,17.667 -15.101,17.667 -12.692,0 -17.307,-13.772 -17.307,-23.040 0,-8.436 5.335,-20.953 16.800,-20.953 10.273,0 13.698,9.341 14.603,12.480 l 20.520,0 c 3.138,0 6.563,1.984 6.563,7.606 l 0,29.750 79.680,0 c 1.227,0.535 55.532,35.261 154.615,35.261 98.870,0 171.600,-86.861 172.320,-87.766 l 2.852,-3.424 -0.683,4.403 c -0.073,0.397 -6.636,41.215 -35.049,68.870 l 8.907,-0.258 2.880,-0.066 -1.947,2.160 c -20.473,22.320 -36.055,25.818 -43.661,25.892 3.240,1.763 6.673,2.086 8.760,2.086 1.190,0 1.947,-0.110 1.984,-0.110 l 4.218,-0.646 -3.249,2.778 c -16.726,14.316 -39.332,17.418 -49.255,18.101 4.984,2.058 10.606,3.276 10.680,3.276 l 3.673,0.793 -3.424,1.513 c -19.255,8.658 -35.806,13.015 -49.255,13.015 l -1.763,0 c -21.784,-0.683 -35.372,-7.135 -41.649,-10.993 4.006,6.923 9.230,11.464 9.267,11.538 l 2.916,2.492 -3.821,-0.360 C 275.298,177.296 219.701,135.609 219.120,135.176 l -47.778,0.258 -2.086,2.123 0,24.516 0.544,0.756 27.978,0 c 2.123,0.073 6.203,1.513 6.203,6.563 l 0,22.643 c 0.138,0.221 5.510,14.935 0.793,21.747 -1.550,2.233 -3.969,3.350 -7.218,3.350 -3.138,0 -5.510,-1.116 -7.061,-3.350 -4.910,-6.923 0.498,-22.504 0.756,-23.187 l -0.073,-14.206 c 0,-0.756 -0.248,-0.756 -0.507,-0.756 l -30.249,0.036 c -2.132,0 -3.747,-0.646 -4.901,-1.910 -1.910,-2.021 -1.698,-4.938 -1.698,-5.049 l 0,-29.640 -2.483,-2.852 -74.972,0 0,14.353 0,1.227 -1.218,0 -7.753,0 c -11.003,0 -14.316,-12.332 -15.036,-16.116 l -2.889,0 c -0.036,1.301 -0.138,3.535 -0.498,7.532 l -0.258,2.852 c -0.248,3.747 -0.535,7.606 -1.652,11.353 -0.793,2.566 -2.095,4.836 -3.360,7.070 -0.969,1.763 -1.975,3.535 -2.704,5.483 -0.572,1.513 -0.138,1.947 1.947,3.350 1.513,1.080 2.852,2.556 3.895,3.710 3.535,4.043 6.166,9.055 7.901,14.898 1.615,5.446 2.409,11.575 2.409,18.276 0,5.012 -0.212,9.267 -0.756,13.015 -0.609,4.726 -1.513,9.701 -3.784,14.067 -2.086,3.858 -5.150,6.664 -8.649,9.729 -2.307,2.058 -4.476,4.403 -6.563,6.710 l -2.418,2.556 c -17.196,18.286 -6.600,38.769 -6.129,39.627 l 1.366,2.630 z"
     inkscape:connector-curvature="0"
     id="path318"
     style="fill:#8d742f;fill-opacity:1;fill-rule:nonzero;stroke:none" />
  <g
     transform="matrix(9.230,0,0,-9.230,-1723.849,4624.119)"
     id="g320">
    <path
       d="m 199.113,493.121 c 0,-0.879 0.418,-2.183 1.567,-2.183 l 0,0 c 1.121,0 1.312,1.464 1.332,1.636 l 0,0 0.031,0.274 0.277,0 1.102,-0.004 c 0.18,-0.032 0.355,-0.184 0.355,-0.449 l 0,0 0.032,-2 0,-0.11 -0.067,-0.086 -0.355,-0.453 -0.09,-0.117 -0.152,0 -8.532,0 -0.14,0 -0.094,0.109 -0.211,0.254 -0.07,0.086 0,0.11 0,1.328 c -0.118,0.082 -0.41,0.261 -0.789,0.261 l 0,0 c -0.254,0 -0.497,-0.078 -0.77,-0.265 l 0,0 0,-0.957 0,-0.282 -0.277,-0.027 c -0.172,-0.019 -0.453,-0.066 -0.473,-0.07 l 0,0 c -0.996,-0.235 -1.812,-0.797 -2.305,-1.578 l 0,0 c -0.199,-0.325 -0.355,-0.692 -0.461,-1.067 l 0,0 c -0.179,-0.679 -0.218,-1.41 -0.226,-2.093 l 0,0 c -0.016,-0.876 0.09,-1.555 0.336,-2.141 l 0,0 c 0.101,-0.25 0.207,-0.438 0.328,-0.586 l 0,0 c 0.023,-0.035 0.055,-0.066 0.078,-0.09 l 0,0 c 0.106,-0.098 0.223,-0.219 0.25,-0.398 l 0,0 c 0.035,-0.243 -0.113,-0.45 -0.191,-0.547 l 0,0 c -0.176,-0.235 -0.321,-0.488 -0.442,-0.781 l 0,0 c -0.293,-0.696 -0.441,-1.516 -0.441,-2.442 l 0,0 c 0,-2.207 0.961,-3.398 1.254,-3.711 l 0,0 0.226,-0.238 -0.254,-0.211 c -0.336,-0.273 -1.437,-1.297 -1.503,-2.945 l 0,0 c -0.047,-1.235 0.55,-1.864 0.972,-2.149 l 0,0 c -0.281,0.817 -0.613,2.582 0.902,4.192 l 0,0 0.258,0.273 c 0.235,0.258 0.477,0.52 0.739,0.75 l 0,0 c 0.355,0.313 0.668,0.598 0.867,0.969 l 0,0 c 0.222,0.426 0.316,0.929 0.383,1.418 l 0,0 c 0.05,0.39 0.078,0.836 0.078,1.371 l 0,0 c 0,0.695 -0.086,1.332 -0.25,1.89 l 0,0 c -0.176,0.594 -0.446,1.098 -0.801,1.508 l 0,0 c -0.106,0.118 -0.227,0.254 -0.359,0.34 l 0,0 c -0.2,0.137 -0.477,0.324 -0.325,0.735 l 0,0 c 0.082,0.21 0.192,0.406 0.325,0.644 l 0,0 c 0.121,0.223 0.25,0.453 0.324,0.695 l 0,0 c 0.113,0.371 0.144,0.77 0.172,1.161 l 0,0 0.023,0.316 c 0.039,0.418 0.055,0.656 0.055,0.789 l 0,0 0.011,0.305 0.297,0 0.313,0 0.254,0 0.047,-0.25 c 0.07,-0.352 0.375,-1.493 1.328,-1.493 l 0,0 0.664,0 0,1.376 0,0.308 0.308,0 8.122,0 0.14,0 0.094,-0.105 0.269,-0.309 0.079,-0.09 0,-0.113 -0.004,-3.227 c 0,-0.035 -0.004,-0.211 0.101,-0.32 l 0,0 c 0.067,-0.07 0.164,-0.105 0.305,-0.105 l 0,0 3.281,0 c 0.18,0 0.36,-0.122 0.36,-0.391 l 0,0 0.007,-1.539 0,-0.059 -0.019,-0.054 c -0.113,-0.309 -0.504,-1.676 -0.117,-2.223 l 0,0 c 0.07,-0.102 0.199,-0.231 0.515,-0.231 l 0,0 c 0.242,0 0.414,0.075 0.524,0.235 l 0,0 c 0.351,0.504 0.015,1.742 -0.11,2.047 l 0,0 -0.031,0.066 0,0.063 0,2.453 c 0,0.371 -0.312,0.398 -0.367,0.402 l 0,0 -3.024,0 -0.152,0 -0.094,0.117 -0.062,0.082 -0.067,0.086 0,0.106 0,2.656 0,0.129 0.09,0.09 0.235,0.23 0.09,0.086 0.124,0.004 5.176,0.027 0.11,-0.004 0.078,-0.062 c 0.058,-0.047 5.894,-4.398 18.812,-5.785 l 0,0 c -0.211,0.23 -0.48,0.562 -0.715,0.965 l 0,0 -0.617,1.066 1.047,-0.644 c 0.645,-0.399 2.067,-1.075 4.352,-1.145 l 0,0 0.191,-0.004 c 1.301,0 2.895,0.399 4.738,1.18 l 0,0 c -0.207,0.058 -0.461,0.144 -0.699,0.242 l 0,0 -1.226,0.504 1.324,0.09 c 0.89,0.058 3.043,0.332 4.758,1.578 l 0,0 c -0.246,0.023 -0.539,0.094 -0.825,0.25 l 0,0 -1.046,0.566 1.191,0.012 c 0.727,0.008 2.219,0.336 4.215,2.398 l 0,0 -0.539,-0.015 -0.793,-0.024 0.566,0.555 c 2.313,2.25 3.258,5.328 3.574,6.648 l 0,0 c -1.828,-1.972 -9.086,-9.121 -18.461,-9.121 l 0,0 c -9.515,0 -15.269,2.918 -16.828,3.825 l 0,0 -8.554,0 -0.313,0 0,0.308 0,3.223 c 0,0.426 -0.219,0.515 -0.402,0.515 l 0,0 -2.223,0 -0.23,0 -0.067,0.227 c -0.094,0.336 -0.406,1.121 -1.285,1.121 l 0,0 c -1.027,0 -1.508,-1.168 -1.508,-1.957 m 1.481,-1.746 c -0.364,0.063 -1.047,0.496 -1.047,1.687 l 0,0 c 0,1.336 0.836,1.594 1.004,1.629 l 0,0 0.078,0.02 0.082,-0.023 c 0.156,-0.047 0.93,-0.352 0.93,-1.626 l 0,0 c 0,-1.058 -0.524,-1.488 -0.832,-1.648 l 0,0 -0.114,-0.059 -0.101,0.02 z m 3.617,-4.863 -0.578,0.347 -0.153,0.09 0,0.18 0,1.758 0,0.175 0.153,0.09 0.578,0.348 0.469,0.281 0,-0.547 0,-2.457 0,-0.547 -0.469,0.282 z m -14.891,-0.641 c 0,1.496 0.715,2.106 0.934,2.258 l 0,0 0.101,0.066 0.118,-0.015 c 0.519,-0.078 0.773,-0.797 0.773,-2.196 l 0,0 c 0,-0.031 -0.043,-3.043 -0.906,-3.043 l 0,0 c -0.75,0 -1.02,1.512 -1.02,2.93 m 0.059,-6.914 c 0,1.848 0.84,2.309 1.094,2.406 l 0,0 0.062,0.024 0.063,-0.004 c 1.418,-0.059 1.433,-3.735 1.433,-3.774 l 0,0 c 0,-1.171 -0.535,-2.48 -1.301,-2.48 l 0,0 c -0.847,0 -1.351,1.945 -1.351,3.828"
       inkscape:connector-curvature="0"
       id="path330"
       style="fill:url(#radialGradient322);fill-opacity:1;fill-rule:nonzero;stroke:none" />
  </g>
  <path
     d="m 225.397,128.181 c 6.055,3.720 55.172,36.313 155.520,49.578 0,0 -4.292,-6.590 -2.132,-17.769 0,0 11.363,6.701 20.990,10.384 6.627,2.556 17.233,6.738 32.520,7.246 5.916,0.175 15.249,-0.904 28.089,-5.012 -4.144,-2.593 -12.655,-12.618 -12.655,-12.618 l 19.726,-0.793 c 0.72,0 17.732,-0.184 33.996,-7.504 l -0.248,-0.535 c -5.769,-4.080 -4.440,-13.744 -4.440,-13.744 7.652,0.507 16.375,-1.218 16.375,-1.218 3.895,-0.793 9.738,-2.889 17.058,-7.975 -5.806,0.184 -11.649,0.359 -11.649,0.359 l 16.292,-14.815 c 11.289,-10.273 18.932,-22.864 24.230,-34.329 -18.064,16.190 -45.212,36.600 -78.960,50.520 l -0.618,0.249 c -22.495,9.193 -47.843,15.544 -75.433,15.544 -13.412,0 -25.883,-0.655 -37.643,-1.735 l -0.858,-0.073 C 295.855,137.486 255.757,115.636 247.172,110.476 l -45.572,0 0,7.827 10.670,0 c 0,0 6.415,5.732 13.126,9.876"
     inkscape:connector-curvature="0"
     id="path332"
     style="fill:#8d742f;fill-opacity:1;fill-rule:nonzero;stroke:none" />
  <path
     d="m 433.523,174.769 -1.116,0 c -14.464,-0.461 -24.489,-4.320 -31.116,-6.849 -9.812,-3.784 -20.916,-10.347 -21.027,-10.421 l -3.498,-2.021 -0.756,3.932 c -1.218,6.387 -0.535,11.464 0.397,14.898 C 292.505,162.436 244.579,136.839 227.705,126.233 l -0.793,-0.498 c -6.415,-3.969 -12.655,-9.516 -12.729,-9.553 l -0.830,-0.756 -1.08,0 -7.827,0 0,-2.095 41.972,0 c 9.092,5.335 49.800,27.083 118.846,33.424 l 0.904,0.110 c 12.978,1.153 25.347,1.726 37.892,1.726 25.209,0 50.953,-5.298 76.550,-15.756 28.486,-11.750 51.923,-27.692 68.870,-41.464 -4.864,7.901 -10.384,14.676 -16.550,20.261 l -16.292,14.824 -5.695,5.187 7.716,-0.212 0.029,0 c -2.446,1.043 -4.541,1.661 -6.129,1.984 -0.036,0 -6.415,1.227 -12.756,1.227 -0.978,0 -1.910,-0.036 -2.815,-0.073 l -2.667,-0.184 -0.359,2.630 c -0.036,0.397 -1.052,8.113 2.741,13.560 -14.787,5.695 -29.104,5.732 -29.243,5.732 l -19.873,0.793 -5.806,0.258 3.793,4.467 c 0.646,0.756 4.901,5.732 8.898,9.553 -9.913,2.778 -16.763,3.387 -20.944,3.387"
     inkscape:connector-curvature="0"
     id="path334"
     style="fill:#ffffff;fill-opacity:1;fill-rule:nonzero;stroke:none" />
</svg>