<?xml version="1.0" encoding="UTF-8" standalone="no"?>
<!-- Created with Inkscape (http://www.inkscape.org/) -->

<svg
   xmlns:dc="http://purl.org/dc/elements/1.1/"
   xmlns:cc="http://creativecommons.org/ns#"
   xmlns:rdf="http://www.w3.org/1999/02/22-rdf-syntax-ns#"
   xmlns:svg="http://www.w3.org/2000/svg"
   xmlns="http://www.w3.org/2000/svg"
   xmlns:xlink="http://www.w3.org/1999/xlink"
   xmlns:inkscape="http://www.inkscape.org/namespaces/inkscape"
   version="1.1"
   width="600"
   height="608"
   id="svg2"
   xml:space="preserve"><metadata
     id="metadata8"><rdf:RDF><cc:Work
         rdf:about=""><dc:format>image/svg+xml</dc:format><dc:type
           rdf:resource="http://purl.org/dc/dcmitype/StillImage" /><dc:title /></cc:Work></rdf:RDF></metadata><defs
     id="defs6"><clipPath
       id="clipPath16"><path
         d="M 0,304 300,304 300,0 0,0 0,304 z"
         inkscape:connector-curvature="0"
         id="path18" /></clipPath><linearGradient
       x1="0"
       y1="0"
       x2="1"
       y2="0"
       id="linearGradient36"
       gradientUnits="userSpaceOnUse"
       gradientTransform="matrix(284.40094,0,0,-284.40094,7.7998047,154.91016)"
       spreadMethod="pad"><stop
         id="stop38"
         style="stop-color:#bf331c;stop-opacity:1"
         offset="0" /><stop
         id="stop40"
         style="stop-color:#f6971d;stop-opacity:1"
         offset="0.5" /><stop
         id="stop42"
         style="stop-color:#f6971d;stop-opacity:1"
         offset="0.5" /><stop
         id="stop44"
         style="stop-color:#bf331c;stop-opacity:1"
         offset="0.80000299" /><stop
         id="stop46"
         style="stop-color:#bf331c;stop-opacity:1"
         offset="1" /></linearGradient><clipPath
       id="clipPath54"><path
         d="M 0,304 300,304 300,0 0,0 0,304 z"
         inkscape:connector-curvature="0"
         id="path56" /></clipPath><linearGradient
       x1="0"
       y1="0"
       x2="1"
       y2="0"
       id="linearGradient3053"
       xlink:href="#linearGradient36"
       gradientUnits="userSpaceOnUse"
       gradientTransform="matrix(284.40094,0,0,-284.40094,7.7998047,154.91016)"
       spreadMethod="pad" /><linearGradient
       x1="0"
       y1="0"
       x2="1"
       y2="0"
       id="linearGradient3061"
       xlink:href="#linearGradient36"
       gradientUnits="userSpaceOnUse"
       gradientTransform="matrix(284.40094,0,0,-284.40094,7.7998047,154.91016)"
       spreadMethod="pad" /><linearGradient
       x1="0"
       y1="0"
       x2="1"
       y2="0"
       id="linearGradient3066"
       xlink:href="#linearGradient36"
       gradientUnits="userSpaceOnUse"
       gradientTransform="matrix(284.40094,0,0,-284.40094,7.7998047,154.91016)"
       spreadMethod="pad" /><linearGradient
       x1="0"
       y1="0"
       x2="1"
       y2="0"
       id="linearGradient3069"
       xlink:href="#linearGradient36"
       gradientUnits="userSpaceOnUse"
       gradientTransform="matrix(284.40094,0,0,-284.40094,343.79981,154.91016)"
       spreadMethod="pad" /></defs><g
     transform="matrix(2,0,0,-2,-672.0008,608)"
     id="g10"><path
       d="m 620.3994,304 -66.695,0 -6.462,0 -4.57,-4.568 -40.103,-40.101 -4.569,-4.569 0,-6.461 0,-48.093 0,-37.657 26.63,26.626 5.291,5.29 c 0.715,-3.202 1.079,-6.5 1.079,-9.858 0,-24.812 -20.187,-44.997 -45,-44.997 -24.814,0 -45,20.185 -45,44.997 0,3.355 0.365,6.653 1.082,9.856 l 5.287,-5.288 26.631,-26.626 0,37.657 0,48.093 0,6.461 -4.57,4.569 -40.102,40.101 -4.57,4.568 -6.462,0 -66.697,0 -15.599,0 0,-15.6 0,-52.795 0,-37.659 26.63,26.629 17.032,17.029 7.633,0 c -9.951,-17.225 -15.295,-36.899 -15.295,-56.997 0,-26.298 9.174,-51.961 25.834,-72.257 13.687,-16.676 31.889,-29.141 52.166,-35.907 l 0,-35.824 0,-6.74 4.908,-4.619 20.4,-19.198 10.692,-10.062 10.691,10.062 20.4,19.198 4.909,4.619 0,6.74 0,35.824 c 20.275,6.766 38.478,19.231 52.166,35.907 16.659,20.296 25.834,45.959 25.834,72.257 0,20.1 -5.339,39.773 -15.281,56.997 l 7.618,0 17.032,-17.029 26.631,-26.629 0,37.659 0,52.795 0,15.6 -15.601,0 z"
       inkscape:connector-curvature="0"
       id="path22"
       style="fill:#ffffff;fill-opacity:1;fill-rule:nonzero;stroke:none" /><path
       d="m 553.704,288.4 -40.104,-40.099 0,-48.093 20.817,20.815 c 7.642,-10.136 12.183,-22.74 12.183,-36.413 l 0,0 c 0,-33.468 -27.131,-60.596 -60.6,-60.596 l 0,0 c -33.47,0 -60.599,27.128 -60.599,60.596 l 0,0 c 0,13.673 4.548,26.269 12.19,36.404 l 0,0 20.809,-20.806 0,48.093 -40.103,40.099 -66.697,0 0,-52.794 21.601,21.597 28.199,0 9.299,-9.297 C 396.292,230.799 387.6,208.724 387.6,184.607 l 0,0 c 0,-47.344 33.447,-86.867 78,-96.26 l 0,0 0,-47.728 20.4,-19.198 20.401,19.198 0,47.728 c 44.551,9.393 77.999,48.916 77.999,96.26 l 0,0 c 0,24.117 -8.682,46.201 -23.085,63.312 l 0,0 9.284,9.284 28.201,0 21.599,-21.597 0,52.794 -66.695,0 z"
       inkscape:connector-curvature="0"
       id="path48"
       style="fill:url(#linearGradient3069);stroke:none" /><path
       d="m 513.5996,200.208 20.817,20.814 c 7.642,-10.135 12.183,-22.74 12.183,-36.413 0,-33.466 -27.131,-60.595 -60.6,-60.595 -33.469,0 -60.599,27.129 -60.599,60.595 0,13.673 4.549,26.27 12.19,36.405 l 20.81,-20.806 0,48.093 -40.104,40.099 -66.697,0 0,-52.795 21.601,21.598 28.2,0 9.299,-9.297 c -14.408,-17.107 -23.1,-39.181 -23.1,-63.299 0,-47.344 33.447,-86.867 78,-96.26 l 0,-47.728 20.4,-19.198 20.401,19.198 0,47.728 c 44.552,9.393 78,48.916 78,96.26 0,24.118 -8.683,46.201 -23.085,63.312 l 9.284,9.284 28.2,0 21.6,-21.598 0,52.795 -66.696,0 -40.104,-40.099 0,-48.093 z"
       inkscape:connector-curvature="0"
       id="path60"
       style="fill:none;stroke:#000000;stroke-width:10.5;stroke-linecap:butt;stroke-linejoin:miter;stroke-miterlimit:4;stroke-opacity:1;stroke-dasharray:none" /></g></svg>