<?xml version="1.0" encoding="UTF-8" standalone="no"?>
<!-- Created with Inkscape (http://www.inkscape.org/) -->

<svg
   xmlns:dc="http://purl.org/dc/elements/1.1/"
   xmlns:cc="http://creativecommons.org/ns#"
   xmlns:rdf="http://www.w3.org/1999/02/22-rdf-syntax-ns#"
   xmlns:svg="http://www.w3.org/2000/svg"
   xmlns="http://www.w3.org/2000/svg"
   xmlns:xlink="http://www.w3.org/1999/xlink"
   xmlns:inkscape="http://www.inkscape.org/namespaces/inkscape"
   version="1.1"
   width="600"
   height="608"
   id="svg2"
   xml:space="preserve"><metadata
     id="metadata8"><rdf:RDF><cc:Work
         rdf:about=""><dc:format>image/svg+xml</dc:format><dc:type
           rdf:resource="http://purl.org/dc/dcmitype/StillImage" /><dc:title /></cc:Work></rdf:RDF></metadata><defs
     id="defs6"><linearGradient
       x1="0"
       y1="0"
       x2="1"
       y2="0"
       id="linearGradient24"
       gradientUnits="userSpaceOnUse"
       gradientTransform="matrix(284.40039,0,0,-284.40039,7.7998047,153.45508)"
       spreadMethod="pad"><stop
         id="stop26"
         style="stop-color:#8f743f;stop-opacity:1"
         offset="0" /><stop
         id="stop28"
         style="stop-color:#ebd491;stop-opacity:1"
         offset="0.5" /><stop
         id="stop30"
         style="stop-color:#ebd491;stop-opacity:1"
         offset="0.5" /><stop
         id="stop32"
         style="stop-color:#8f743f;stop-opacity:1"
         offset="0.80000299" /><stop
         id="stop34"
         style="stop-color:#8f743f;stop-opacity:1"
         offset="1" /></linearGradient><clipPath
       id="clipPath42"><path
         d="M 0,304 300,304 300,0 0,0 0,304 z"
         inkscape:connector-curvature="0"
         id="path44" /></clipPath><linearGradient
       x1="0"
       y1="0"
       x2="1"
       y2="0"
       id="linearGradient3042"
       xlink:href="#linearGradient24"
       gradientUnits="userSpaceOnUse"
       gradientTransform="matrix(284.40039,0,0,-284.40039,7.7998047,153.45508)"
       spreadMethod="pad" /><linearGradient
       x1="0"
       y1="0"
       x2="1"
       y2="0"
       id="linearGradient3047"
       xlink:href="#linearGradient24"
       gradientUnits="userSpaceOnUse"
       gradientTransform="matrix(284.40039,0,0,-284.40039,7.7998047,153.45508)"
       spreadMethod="pad" /><linearGradient
       x1="0"
       y1="0"
       x2="1"
       y2="0"
       id="linearGradient3053"
       xlink:href="#linearGradient24"
       gradientUnits="userSpaceOnUse"
       gradientTransform="matrix(284.40039,0,0,-284.40039,7.7998047,153.45508)"
       spreadMethod="pad" /><linearGradient
       x1="0"
       y1="0"
       x2="1"
       y2="0"
       id="linearGradient3056"
       xlink:href="#linearGradient24"
       gradientUnits="userSpaceOnUse"
       gradientTransform="matrix(284.40039,0,0,-284.40039,7.79981,153.45508)"
       spreadMethod="pad" /></defs><g
     transform="matrix(2,0,0,-2,0,608)"
     id="g10"><path
       d="m 214.473,296.201 -44.674,-44.67 0,-70.152 27.236,27.231 c 3.791,-7.377 5.765,-15.536 5.765,-24 l 0,0 c 0,-29.114 -23.686,-52.798 -52.8,-52.798 l 0,0 c -29.115,0 -52.8,23.684 -52.8,52.798 l 0,0 c 0,8.458 1.976,16.613 5.773,23.994 l 0,0 27.227,-27.225 0,70.152 -44.672,44.67 -77.729,0 0,-79.425 32.632,32.628 21.738,0 2.125,-2.125 C 51.032,229.163 43.799,207.174 43.799,184.607 l 0,0 c 0,-47.777 32.439,-89.854 78.001,-102.389 l 0,0 0,-44.969 28.2,-26.539 28.2,26.539 0,44.969 c 45.562,12.535 78,54.612 78,102.389 l 0,0 c 0,22.574 -7.229,44.568 -20.481,62.685 l 0,0 2.112,2.112 21.738,0 32.631,-32.628 0,79.425 -77.727,0 z"
       inkscape:connector-curvature="0"
       id="path36"
       style="fill:url(#linearGradient3056);stroke:none" /><path
       d="m 300,304 -15.601,0 -66.695,0 -6.462,0 -4.569,-4.568 -40.104,-40.101 -4.569,-4.569 0,-6.461 0,-48.093 0,-37.657 26.631,26.626 5.291,5.29 c 0.715,-3.202 1.078,-6.5 1.078,-9.858 0,-24.812 -20.187,-44.997 -45,-44.997 -24.813,0 -45,20.185 -45,44.997 0,3.355 0.365,6.653 1.082,9.856 l 5.287,-5.287 26.631,-26.629 0,37.659 0,48.093 0,6.461 -4.569,4.569 -40.103,40.101 -4.569,4.568 -6.462,0 -66.697,0 -15.6,0 0,-15.6 0,-52.795 0,-37.659 26.631,26.629 17.031,17.029 7.633,0 C 41.345,224.379 36,204.705 36,184.607 36,158.309 45.175,132.646 61.834,112.35 75.521,95.674 93.724,83.209 114,76.443 l 0,-35.824 0,-6.74 4.908,-4.619 L 139.309,10.062 150,0 l 10.691,10.062 20.401,19.198 4.908,4.619 0,6.74 0,35.824 c 20.275,6.766 38.479,19.231 52.166,35.907 16.659,20.296 25.834,45.959 25.834,72.257 0,20.1 -5.339,39.773 -15.28,56.997 l 7.618,0 17.031,-17.029 26.631,-26.629 0,37.659 0,52.795 0,15.6 z m -15.601,-15.6 0,-52.795 -21.599,21.598 -28.2,0 -9.285,-9.284 c 14.403,-17.111 23.085,-39.194 23.085,-63.312 0,-47.344 -33.448,-86.867 -78,-96.26 l 0,-47.728 -20.4,-19.198 -20.4,19.198 0,47.728 c -44.553,9.393 -78,48.916 -78,96.26 0,24.118 8.692,46.192 23.099,63.299 l -9.299,9.297 -28.2,0 -21.6,-21.598 0,52.795 66.697,0 40.103,-40.099 0,-48.093 -20.808,20.806 C 93.949,210.879 89.4,198.282 89.4,184.609 c 0,-33.466 27.131,-60.595 60.6,-60.595 33.469,0 60.6,27.129 60.6,60.595 0,13.673 -4.541,26.278 -12.183,36.413 l -20.817,-20.814 0,48.093 40.104,40.099 66.695,0"
       inkscape:connector-curvature="0"
       id="path48"
       style="fill:#000000;fill-opacity:1;fill-rule:nonzero;stroke:none" /><path
       d="m 288,292.001 -3.601,0 -66.695,0 -1.491,0 -1.055,-1.055 -40.103,-40.099 -1.055,-1.055 0,-1.491 0,-48.093 0,-8.69 6.146,6.144 17.783,17.781 c 5.948,-9.191 9.071,-19.768 9.071,-30.834 0,-31.427 -25.57,-56.996 -57,-56.996 -31.43,0 -57,25.569 -57,56.996 0,11.056 3.127,21.631 9.08,30.827 l 17.774,-17.774 6.146,-6.144 0,8.69 0,48.093 0,1.491 -1.055,1.055 -40.101,40.099 -1.055,1.055 -1.492,0 -66.697,0 -3.6,0 0,-3.601 0,-52.795 0,-8.691 6.146,6.147 20.545,20.543 25.217,0 5.947,-5.946 C 55.738,229.74 48,207.482 48,184.607 48,161.077 56.207,138.119 71.109,119.962 85.183,102.815 104.585,90.646 126,85.471 l 0,-44.852 0,-1.555 1.133,-1.066 20.4,-19.199 2.467,-2.321 2.467,2.321 20.4,19.199 1.133,1.066 0,1.555 0,44.852 c 21.414,5.175 40.816,17.344 54.891,34.491 14.902,18.157 23.109,41.115 23.109,64.645 0,22.883 -7.734,45.146 -21.842,63.065 l 5.934,5.932 25.217,0 20.545,-20.543 6.146,-6.147 0,8.691 0,52.795 0,3.601 z m -3.601,-3.601 0,-52.795 -21.599,21.598 -28.2,0 -9.285,-9.284 c 14.403,-17.111 23.085,-39.194 23.085,-63.312 0,-47.344 -33.448,-86.867 -78,-96.26 l 0,-47.728 -20.4,-19.198 -20.4,19.198 0,47.728 c -44.553,9.393 -78,48.916 -78,96.26 0,24.118 8.692,46.192 23.099,63.299 l -9.299,9.297 -28.2,0 -21.6,-21.598 0,52.795 66.697,0 40.103,-40.099 0,-48.093 -20.808,20.806 C 93.949,210.879 89.4,198.282 89.4,184.609 c 0,-33.466 27.131,-60.595 60.6,-60.595 33.469,0 60.6,27.129 60.6,60.595 0,13.673 -4.541,26.278 -12.183,36.413 l -20.817,-20.814 0,48.093 40.104,40.099 66.695,0"
       inkscape:connector-curvature="0"
       id="path52"
       style="fill:#000000;fill-opacity:1;fill-rule:nonzero;stroke:none" /></g></svg>