<?xml version="1.0" encoding="UTF-8" standalone="no"?>
<!-- Created with Inkscape (http://www.inkscape.org/) -->

<svg
   xmlns:dc="http://purl.org/dc/elements/1.1/"
   xmlns:cc="http://creativecommons.org/ns#"
   xmlns:rdf="http://www.w3.org/1999/02/22-rdf-syntax-ns#"
   xmlns:svg="http://www.w3.org/2000/svg"
   xmlns="http://www.w3.org/2000/svg"
   xmlns:xlink="http://www.w3.org/1999/xlink"
   xmlns:sodipodi="http://sodipodi.sourceforge.net/DTD/sodipodi-0.dtd"
   xmlns:inkscape="http://www.inkscape.org/namespaces/inkscape"
   version="1.1"
   width="827"
   height="827"
   id="svg4035"
   sodipodi:docname="chronicles uncommon.svg"
   inkscape:version="0.92.2 5c3e80d, 2017-08-06">
  <sodipodi:namedview
     pagecolor="#ffffff"
     bordercolor="#666666"
     borderopacity="1"
     objecttolerance="10"
     gridtolerance="10"
     guidetolerance="10"
     inkscape:pageopacity="0"
     inkscape:pageshadow="2"
     inkscape:window-width="830"
     inkscape:window-height="651"
     id="namedview14"
     showgrid="false"
     inkscape:zoom="0.2853688"
     inkscape:cx="413.5"
     inkscape:cy="324.55283"
     inkscape:window-x="0"
     inkscape:window-y="0"
     inkscape:window-maximized="0"
     inkscape:current-layer="svg4035" />
  <defs
     id="defs4037">
    <radialGradient
       cx="0"
       cy="0"
       r="1"
       fx="0"
       fy="0"
       id="radialGradient240"
       gradientUnits="userSpaceOnUse"
       gradientTransform="matrix(14.49852,0,0,-14.49852,135.6416,481.73877)"
       spreadMethod="pad">
      <stop
         id="stop242"
         style="stop-color:#b7d1e1;stop-opacity:1"
         offset="0" />
      <stop
         id="stop244"
         style="stop-color:#a0b6c2;stop-opacity:1"
         offset="0.66291797" />
      <stop
         id="stop246"
         style="stop-color:#626e77;stop-opacity:1"
         offset="1" />
    </radialGradient>
    <radialGradient
       cx="0"
       cy="0"
       r="1"
       fx="0"
       fy="0"
       id="radialGradient2995"
       xlink:href="#radialGradient240"
       gradientUnits="userSpaceOnUse"
       gradientTransform="matrix(14.49852,0,0,-14.49852,135.6416,481.73877)"
       spreadMethod="pad" />
    <radialGradient
       cx="0"
       cy="0"
       r="1"
       fx="0"
       fy="0"
       id="radialGradient2998"
       xlink:href="#radialGradient240"
       gradientUnits="userSpaceOnUse"
       gradientTransform="matrix(299.64906,0,0,299.64906,426.02273,424.8045)"
       spreadMethod="pad" />
  </defs>
  <metadata
     id="metadata4040">
    <rdf:RDF>
      <cc:Work
         rdf:about="">
        <dc:format>image/svg+xml</dc:format>
        <dc:type
           rdf:resource="http://purl.org/dc/dcmitype/StillImage" />
        <dc:title />
      </cc:Work>
    </rdf:RDF>
  </metadata>
  <path
     d="m 147.30826,70.00021 v 0 c -3.78217,12.4212 -5.80759,25.4211 -5.80759,37.53229 0,27.36385 10.74713,51.99959 31.00135,71.28242 l 3.55482,3.32748 12.83455,62.14736 -4.69153,5.66291 C 146.19221,296.68203 126,351.76108 126,409.23757 c 0,128.59358 97.28222,236.54025 226.20647,250.98688 l 7.10964,0.80686 31.55937,46.192 0.24801,2.08743 3.47215,23.02366 c 0.33068,3.38948 0.41335,6.86163 0.41335,10.33378 0,29.69929 -9.21773,61.50667 -17.36075,83.95164 21.4736,-6.36561 50.05683,-16.55472 69.58768,-30.36065 20.50222,-14.44662 41.08711,-36.47825 54.97572,-58.92322 l 2.66611,-4.36085 4.69154,-1.86008 C 553.32252,713.36158 591.99153,687.91981 624.35693,655.55441 689.91444,589.9969 726,502.96579 726,410.51979 726,219.34484 570.43526,63.7801 379.34298,63.7801 c -44.16658,0 -88.08515,8.88705 -130.70167,26.39247 l -9.52774,3.96818 -6.13827,-6.30361 -13.08256,-12.9999 C 197.77844,48.75478 183.97251,21.22559 175.64348,0 c -9.3624,19.05549 -20.58489,44.33192 -28.33522,70.00103"
     inkscape:connector-curvature="0"
     id="path234"
     style="fill:#000000;fill-opacity:1;fill-rule:nonzero;stroke:none" />
  <path
     d="m 460.87651,658.05436 -19.3655,-32.3034 c 93.39671,-26.95051 161.78567,-113.09291 161.78567,-215.232 0,-123.75736 -100.27901,-224.03637 -223.9537,-224.03637 -41.16979,0 -79.69412,11.16048 -112.86556,30.44332 l -7.35765,-37.69764 c 35.94089,-18.72481 76.86266,-29.38927 120.22321,-29.38927 143.70156,0 260.59729,116.89573 260.59729,260.67996 0,115.22166 -75.16792,213.22724 -179.06376,247.5354 M 234.67004,467.85078 c -26.41314,-66.1982 -17.44342,-163.97644 94.20275,-208.45303 22.69298,-9.0524 67.25225,-18.33213 107.616,-16.38938 l 29.16193,73.1425 -9.38308,3.72016 c -31.31135,-55.71974 -83.78629,-59.91526 -126.89883,-42.71985 -47.80407,19.0555 -77.028,80.41749 -45.44797,159.69826 30.588,76.77999 97.28222,131.17701 159.42958,106.39661 26.97117,-10.72647 61.85801,-45.44797 70.57972,-113.34091 l 22.42431,46.89469 c -25.33843,46.10934 -59.2539,72.91516 -97.59223,88.16783 C 314.42617,614.52847 252.42348,512.32737 234.67004,467.85078 M 379.34298,94.86328 c -49.66415,0 -97.53023,11.38783 -140.72543,32.9441 0,0 -37.61497,-14.21928 -58.28253,-57.7245 0,0 -28.58324,63.03606 24.05704,96.22817 l 17.75344,85.33636 c -40.19841,40.36375 -65.06149,96.06283 -65.06149,157.59016 0,122.31064 98.33626,221.68028 220.31622,223.37502 l 42.38917,61.85801 c 12.66921,40.11574 1.19872,80.23148 1.19872,80.23148 34.32882,-12.66922 62.33336,-66.11553 62.33336,-66.11553 44.33192,-15.41801 84.92302,-40.75644 119.0865,-75.00259 59.64658,-59.64658 92.50801,-138.84468 92.50801,-223.065 0,-174.06221 -141.59347,-315.65568 -315.57301,-315.65568"
     inkscape:connector-curvature="0"
     id="path236"
     style="fill:#626e77;fill-opacity:1;fill-rule:nonzero;stroke:none" />
  <path
     d="m 208.83559,159.28358 2.97613,1.94275 0.72336,3.38948 17.69144,85.33637 0.8887,4.36085 -3.14147,3.14147 c -40.38441,40.61176 -62.58138,94.45076 -62.58138,151.78258 v 0 c 0,117.06107 95.11213,213.53725 212.1732,215.06665 v 0 l 4.27818,0.0827 2.33544,3.55482 42.47184,61.92002 0.72336,0.97137 0.33068,1.19872 c 7.97768,25.44177 6.9443,50.63553 4.67087,66.85957 v 0 c 24.4704,-18.00145 43.44322,-53.69433 43.67056,-54.08701 v 0 l 1.4674,-2.91413 3.0588,-1.05405 c 43.75323,-15.25266 82.75292,-39.86772 116.02769,-73.05983 v 0 C 654.71758,569.65873 686.6903,492.46538 686.6903,410.5185 v 0 c 0,-169.53602 -137.89398,-307.42999 -307.42999,-307.42999 v 0 c -48.03142,0 -94.14075,10.8298 -136.9226,32.13806 v 0 l -3.22414,1.5294 -3.38948,-1.19872 c -1.4674,-0.57869 -31.00134,-12.02852 -53.1363,-44.88995 v 0 c -3.86484,19.0555 -4.11285,49.47815 26.2478,68.61631 m 49.47814,59.2539 -7.33698,-37.69763 -1.21939,-6.0556 5.49757,-2.83145 c 38.58634,-20.17155 80.33482,-30.42266 124.00538,-30.42266 v 0 c 148.31042,0 269.00899,120.69857 269.00899,268.98833 v 0 c 0,116.25503 -74.27922,218.86948 -184.80934,255.3684 v 0 l -6.22094,2.08742 -3.38948,-5.64225 -19.44818,-32.3654 -5.58024,-9.21773 10.41645,-2.97613 C 530.96021,591.277 594.96766,506.10597 594.96766,410.5185 v 0 c 0,-119.00383 -96.70353,-215.70735 -215.70735,-215.70735 v 0 c -38.19366,0 -75.80862,10.08577 -108.58737,29.3066 v 0 l -10.08577,5.80759 z m -31.31135,252.3716 c -15.33533,-38.5037 -17.11275,-81.53356 -4.85688,-118.11515 v 0 c 15.27333,-45.19995 51.02821,-80.16947 103.66849,-101.06437 v 0 c 20.8329,-8.4117 60.94864,-17.27809 99.78299,-17.27809 v 0 c 3.80283,0 7.50233,0.0827 11.22249,0.22735 v 0 l 5.4149,0.24801 1.94275,5.00155 29.14126,73.1425 3.0588,7.68833 -7.75033,3.0588 -9.27974,3.72016 -6.69629,2.66612 -3.55482,-6.30361 c -22.11429,-39.16503 -53.1983,-47.39072 -75.4986,-47.39072 v 0 c -13.39258,0 -27.19852,2.83146 -41.16979,8.30836 v 0 c -22.3623,8.96972 -39.3097,27.5292 -47.70073,52.2476 v 0 c -9.52775,28.16989 -7.10964,61.58934 6.86163,96.70352 v 0 c 25.58644,64.19345 74.03121,107.30599 120.53322,107.30599 v 0 c 9.61042,0 19.13816,-1.86008 28.16989,-5.49757 v 0 c 26.30981,-10.49913 57.39382,-44.08391 65.39217,-106.7273 v 0 l 3.63749,-27.7772 12.02852,25.27643 22.44497,46.8327 1.86008,3.86483 -2.10809,3.72016 c -24.30505,44.22858 -57.55916,74.25855 -101.72574,91.86731 v 0 c -23.08567,9.19707 -45.53064,13.88861 -66.59089,13.88861 v 0 c -97.22021,0 -140.47742,-96.31084 -148.22775,-115.61435"
     inkscape:connector-curvature="0"
     id="path248"
     style="fill:url(#radialGradient2998);fill-opacity:1;fill-rule:nonzero;stroke:none" />
</svg>
