<?xml version="1.0" encoding="UTF-8" standalone="no"?>
<!-- Created with Inkscape (http://www.inkscape.org/) -->

<svg
   xmlns:dc="http://purl.org/dc/elements/1.1/"
   xmlns:cc="http://creativecommons.org/ns#"
   xmlns:rdf="http://www.w3.org/1999/02/22-rdf-syntax-ns#"
   xmlns:svg="http://www.w3.org/2000/svg"
   xmlns="http://www.w3.org/2000/svg"
   xmlns:sodipodi="http://sodipodi.sourceforge.net/DTD/sodipodi-0.dtd"
   xmlns:inkscape="http://www.inkscape.org/namespaces/inkscape"
   version="1.1"
   width="827"
   height="827"
   id="svg3981"
   sodipodi:docname="chronicles.svg"
   inkscape:version="0.92.2 5c3e80d, 2017-08-06">
  <sodipodi:namedview
     pagecolor="#ffffff"
     bordercolor="#666666"
     borderopacity="1"
     objecttolerance="10"
     gridtolerance="10"
     guidetolerance="10"
     inkscape:pageopacity="0"
     inkscape:pageshadow="2"
     inkscape:window-width="1084"
     inkscape:window-height="996"
     id="namedview21"
     showgrid="false"
     inkscape:zoom="0.2853688"
     inkscape:cx="413.5"
     inkscape:cy="413.5"
     inkscape:window-x="0"
     inkscape:window-y="0"
     inkscape:window-maximized="0"
     inkscape:current-layer="svg3981" />
  <defs
     id="defs3983" />
  <metadata
     id="metadata3986">
    <rdf:RDF>
      <cc:Work
         rdf:about="">
        <dc:format>image/svg+xml</dc:format>
        <dc:type
           rdf:resource="http://purl.org/dc/dcmitype/StillImage" />
        <dc:title />
      </cc:Work>
    </rdf:RDF>
  </metadata>
  <path
     d="m 147.24555,69.9979 v 0 c -3.72004,12.42079 -5.74539,25.42026 -5.74539,37.53105 0,27.36295 10.74678,51.99786 31.00032,71.28006 l 3.47203,3.32737 12.9168,62.1453 -4.67071,5.66273 C 146.19154,296.67222 126,351.74945 126,409.22405 c 0,128.58932 97.279,236.53242 226.21966,250.97857 l 7.02673,0.80684 31.641,46.19047 0.22651,2.08736 3.47203,23.0229 c 0.248,3.38937 0.41334,6.8614 0.41334,10.33344 0,29.6983 -9.19676,61.50463 -17.36018,83.94886 21.47289,-6.3654 50.05518,-16.55417 69.58538,-30.35965 20.52221,-14.44614 41.10642,-36.47704 54.99457,-58.92127 l 2.64536,-4.36071 4.69138,-1.86002 C 553.30756,713.33799 591.89262,687.89707 624.36029,655.53273 689.83296,589.97739 726,502.94917 726,410.50622 726,219.33759 570.41974,63.77799 379.25111,63.77799 c -44.08246,0 -88.06157,8.88676 -130.61468,26.39161 l -9.52743,3.96804 -6.13806,-6.3034 -13.1648,-12.99947 C 197.77524,48.75317 183.96977,21.22489 175.66168,0 166.29959,19.05487 155.07747,44.33046 147.24473,69.99872"
     inkscape:connector-curvature="0"
     id="path230"
     style="fill:#ffffff;fill-opacity:1;fill-rule:nonzero;stroke:none" />
  <path
     d="m 460.8861,658.0326 -19.4682,-32.30233 c 93.49696,-26.94961 161.863,-113.08916 161.863,-215.22488 0,-123.75327 -100.25503,-224.02897 -224.02897,-224.02897 -41.08575,0 -79.67081,11.16012 -112.77915,30.44232 l -7.41941,-37.69639 c 36.0017,-18.72419 76.94279,-29.3883 120.19856,-29.3883 143.77948,0 260.69201,116.89187 260.69201,260.67134 0,115.21785 -75.16544,213.22019 -179.05784,247.52721 M 234.66645,467.83531 c -26.3916,-66.19601 -17.50485,-163.97101 94.2203,-208.44614 22.60957,-9.05209 67.25002,-18.33152 107.52977,-16.38883 l 29.22297,73.14008 -9.3621,3.72004 c -31.41365,-55.7179 -83.88686,-59.91328 -126.9153,-42.71844 -47.78183,19.05486 -77.00479,80.41483 -45.44647,159.69298 30.58698,76.77745 97.279,131.17268 159.44497,106.39309 26.88761,-10.72611 61.75264,-45.44647 70.55673,-113.33717 l 22.44423,46.89315 C 511.00329,522.89188 477.1096,549.69682 438.66921,564.94898 314.35793,614.50815 252.43996,512.31044 234.66645,467.83531 M 379.25193,94.86015 c -49.55917,0 -97.44433,11.38745 -140.61744,32.94301 0,0 -37.63439,-14.21882 -58.30127,-57.7226 0,0 -28.58229,63.03398 24.05625,96.22499 l 17.77352,85.33354 c -40.27975,40.36242 -65.08,96.05966 -65.08,157.58496 0,122.30658 98.33301,221.67294 220.30892,223.36762 l 42.38777,61.85597 c 12.6068,40.11441 1.13751,80.22882 1.13751,80.22882 34.38968,-12.66879 62.39331,-66.11334 62.39331,-66.11334 44.24778,-15.41749 84.8582,-40.75509 119.08255,-75.00011 59.66528,-59.64461 92.52562,-138.84009 92.52562,-223.05762 0,-174.05645 -141.60946,-315.64524 -315.66591,-315.64524"
     inkscape:connector-curvature="0"
     id="path232"
     style="fill:#000000;fill-opacity:1;fill-rule:nonzero;stroke:none" />
</svg>
