<?xml version="1.0" encoding="UTF-8" standalone="no"?>
<svg
   xmlns="http://www.w3.org/2000/svg"
   version="1.1"
   id="Layer_1"
   x="0px"
   y="0px"
   width="66.559998"
   height="50.000393"
   viewBox="0 0 66.559994 50.000393"
>
<g
   id="g513"
   transform="rotate(-90,25.000197,25.000197)"><g
     transform="rotate(90,25.0795,25.0795)"
     id="g480"><g
       id="g192">
	<path
   style="fill:#ffffff"
   id="path3353"
   d="M 26.647,46.778 C 15.35,40.285 8.657,34.978 6.719,30.974 5.663,28.793 5.611,28.24 6.003,23.448 6.767,14.129 6.638,12.687 4.822,10.237 2.049,6.494 0.711,4.052 0.35,2.074 L 0,0.16 h 11.679 c 12.566,0 11.697,-0.158 15.833,2.89 1.621,1.194 1.626,1.212 0.864,3.036 -0.998,2.388 -0.523,4.426 1.409,6.052 2.077,1.748 4.913,1.748 6.99,0 1.933,-1.626 2.407,-3.664 1.409,-6.052 C 37.422,4.263 37.427,4.245 39.048,3.05 43.184,0.002 42.316,0.16 54.881,0.16 H 66.56 l -0.35,1.914 c -0.362,1.979 -1.7,4.42 -4.473,8.163 -1.815,2.45 -1.944,3.892 -1.181,13.211 0.393,4.792 0.34,5.345 -0.716,7.526 -1.395,2.882 -5.355,6.504 -11.765,10.761 -5.78,3.838 -14.868,8.424 -14.868,8.424 0,0 -3.332,-1.526 -6.56,-3.381 z" />
	<path
   id="path3355"
   d="M 31.24,30.811 V 16.048 L 30.092,15.7 c -2.938,-0.891 -4.976,-4.107 -4.976,-7.853 0,-2.414 1.602,-1.99 -1.957,-3.865 C 21.112,2.903 21.078,2.689 12.427,2.826 L 3.653,2.966 5.96,6.479 c 3.454,5.257 3.985,8.255 2.747,15.487 -0.903,5.271 -0.39,6.91 3.31,10.572 3.682,3.645 7.991,6.772 14.354,10.418 2.514,1.44 4.638,2.619 4.72,2.619 0.082,0 0.149,-6.644 0.149,-14.764 z m 13.972,8.758 c 2.773,-1.828 6.617,-4.81 8.543,-6.626 4.362,-4.115 4.903,-5.669 3.998,-11.486 C 56.684,14.58 57.64,10.454 61.405,5.7 c 0.81,-1.022 1.473,-2.113 1.473,-2.424 0,-0.391 -2.726,-0.564 -8.854,-0.564 -8.373,0 -8.812,0.303 -10.588,1.164 -2.96,1.436 -1.764,1.566 -1.866,2.934 -0.281,3.755 -0.735,5.168 -2.194,6.83 -0.831,0.947 -2.083,1.865 -2.782,2.04 l -1.27,0.319 v 14.836 14.837 l 2.424,-1.39 c 1.331,-0.764 4.691,-2.885 7.464,-4.713 z" />
</g></g></g>
</svg>