<?xml version="1.0" encoding="UTF-8" standalone="no"?>
<!-- Created with Inkscape (http://www.inkscape.org/) -->

<svg
   xmlns:dc="http://purl.org/dc/elements/1.1/"
   xmlns:cc="http://creativecommons.org/ns#"
   xmlns:rdf="http://www.w3.org/1999/02/22-rdf-syntax-ns#"
   xmlns:svg="http://www.w3.org/2000/svg"
   xmlns="http://www.w3.org/2000/svg"
   xmlns:xlink="http://www.w3.org/1999/xlink"
   xmlns:inkscape="http://www.inkscape.org/namespaces/inkscape"
   version="1.1"
   width="600"
   height="647.75616"
   id="svg6399">
  <defs
     id="defs6401">
    <linearGradient
       x1="0"
       y1="0"
       x2="1"
       y2="0"
       id="linearGradient748"
       gradientUnits="userSpaceOnUse"
       gradientTransform="matrix(33.133789,0,0,-33.133789,216.36719,34.720703)"
       spreadMethod="pad">
      <stop
         id="stop750"
         style="stop-color:#bb2c26;stop-opacity:1"
         offset="0" />
      <stop
         id="stop752"
         style="stop-color:#e07823;stop-opacity:1"
         offset="0.39999399" />
      <stop
         id="stop754"
         style="stop-color:#f7981d;stop-opacity:1"
         offset="0.5" />
      <stop
         id="stop756"
         style="stop-color:#e07823;stop-opacity:1"
         offset="0.60000598" />
      <stop
         id="stop758"
         style="stop-color:#bb2c26;stop-opacity:1"
         offset="1" />
    </linearGradient>
    <linearGradient
       x1="0"
       y1="0"
       x2="1"
       y2="0"
       id="linearGradient2998"
       xlink:href="#linearGradient748"
       gradientUnits="userSpaceOnUse"
       gradientTransform="matrix(526.04449,0,0,526.04449,36.979096,325.89908)"
       spreadMethod="pad" />
  </defs>
  <metadata
     id="metadata6404">
    <rdf:RDF>
      <cc:Work
         rdf:about="">
        <dc:format>image/svg+xml</dc:format>
        <dc:type
           rdf:resource="http://purl.org/dc/dcmitype/StillImage" />
        <dc:title />
      </cc:Work>
    </rdf:RDF>
  </metadata>
  <path
     d="m 593.64945,641.40559 -587.2988998,0 0,-142.2682 14.6856478,-7.81118 0,-287.94983 150.396912,-72.1105 0,-56.75805 L 300,6.3505502 428.55102,74.50783 l 0,56.75805 150.39691,72.1105 0,287.94983 14.70152,7.81118 0,142.2682 z"
     inkscape:connector-curvature="0"
     id="path744"
     style="fill:#000000;fill-opacity:1;fill-rule:nonzero;stroke:#ffffff;stroke-width:12.70110035;stroke-opacity:1" />
  <path
     d="m 202.13802,92.92443 0,294.90368 L 300,335.91236 l 97.86198,51.91575 0,-294.90368 L 300,41.08806 202.13802,92.92443 z m 230.57261,312.57409 115.53238,55.4403 0,-238.27265 -115.53238,-55.3768 0,238.20915 z M 51.741109,222.66617 l 0,238.27265 115.532391,-55.4403 0,-238.20915 -115.532391,55.3768 z m -14.765029,294.90369 0,93.1467 526.03196,0 0,-93.1467 L 300,377.84187 36.97608,517.56986 z"
     inkscape:connector-curvature="0"
     id="path760"
     style="fill:url(#linearGradient2998);fill-opacity:1;fill-rule:nonzero;stroke:none" />
</svg>
