<?xml version="1.0" encoding="utf-8"?><svg version="1.1" id="Layer_1" xmlns="http://www.w3.org/2000/svg" xmlns:xlink="http://www.w3.org/1999/xlink" x="0px" y="0px"
	 width="66.563px" height="50px"  >
<g>
	<path id="path3353_2_"   d="M26.647,46.619
		C15.35,40.126,8.657,34.819,6.719,30.815c-1.056-2.181-1.108-2.734-0.716-7.526c0.764-9.319,0.635-10.761-1.181-13.211
		C2.049,6.335,0.711,3.894,0.35,1.915L0,0.001h11.679c12.566,0,11.697-0.158,15.833,2.89c1.621,1.194,1.626,1.212,0.864,3.036
		c-0.998,2.388-0.523,4.426,1.409,6.052c2.077,1.748,4.913,1.748,6.99,0c1.933-1.626,2.407-3.664,1.41-6.052
		c-0.762-1.823-0.757-1.841,0.864-3.036c4.136-3.048,3.268-2.89,15.833-2.89h11.679l-0.35,1.914c-0.362,1.979-1.7,4.42-4.473,8.163
		c-1.815,2.45-1.944,3.892-1.181,13.211c0.393,4.792,0.34,5.345-0.716,7.526c-1.395,2.882-5.355,6.504-11.765,10.761
		C42.299,45.414,33.211,50,33.211,50S29.875,48.474,26.647,46.619L26.647,46.619z"/>
	
		<linearGradient id="path3355_4_" gradientUnits="userSpaceOnUse" x1="27.3594" y1="634.0942" x2="62.5525" y2="581.5946" gradientTransform="matrix(1 0 0 -1 -8.3599 624.7373)">
		<stop  offset="0" style="stop-color:#8b723c"/>
		<stop  offset="0.4" style="stop-color:#d2bb7b"/>
		<stop  offset="0.5" style="stop-color:#ebd491"/>
		<stop  offset="0.6" style="stop-color:#d2bb7b"/>
		<stop  offset="1" style="stop-color:#8b723c"/>
	</linearGradient>
	
		<path id="path3355_2_"   fill="url(#path3355_4_)" d="
		M31.24,30.652V15.889l-1.148-0.348c-2.938-0.891-4.976-4.107-4.976-7.853c0-2.414,1.602-1.99-1.957-3.865
		c-2.047-1.079-2.081-1.293-10.732-1.156l-8.774,0.14L5.96,6.32c3.454,5.257,3.985,8.255,2.747,15.486
		c-0.903,5.271-0.39,6.91,3.31,10.572c3.682,3.645,7.991,6.772,14.354,10.418c2.514,1.44,4.638,2.619,4.72,2.619
		S31.24,38.772,31.24,30.652z M45.212,39.41c2.773-1.828,6.617-4.81,8.543-6.626c4.362-4.115,4.903-5.669,3.998-11.486
		c-1.07-6.876-0.113-11.003,3.651-15.757c0.81-1.022,1.473-2.113,1.473-2.424c0-0.391-2.726-0.564-8.854-0.564
		c-8.373,0-8.812,0.303-10.588,1.164c-2.96,1.436-1.764,1.566-1.866,2.934c-0.281,3.755-0.735,5.168-2.194,6.83
		c-0.831,0.947-2.083,1.865-2.782,2.04l-1.27,0.319v14.836v14.837l2.424-1.39C39.079,43.359,42.439,41.238,45.212,39.41
		L45.212,39.41z"/>
</g>
</svg>
