<?xml version="1.0" encoding="UTF-8" standalone="no"?>
<!-- Generator: Adobe Illustrator 15.0.2, SVG Export Plug-In . SVG Version: 6.00 Build 0)  -->

<svg
   xmlns:dc="http://purl.org/dc/elements/1.1/"
   xmlns:cc="http://creativecommons.org/ns#"
   xmlns:rdf="http://www.w3.org/1999/02/22-rdf-syntax-ns#"
   xmlns:svg="http://www.w3.org/2000/svg"
   xmlns="http://www.w3.org/2000/svg"
   xmlns:xlink="http://www.w3.org/1999/xlink"
   xmlns:sodipodi="http://sodipodi.sourceforge.net/DTD/sodipodi-0.dtd"
   xmlns:inkscape="http://www.inkscape.org/namespaces/inkscape"
   version="1.1"
   id="Layer_1"
   x="0px"
   y="0px"
   width="220px"
   height="300px"
   viewBox="0 0 220 300"
   enable-background="new 0 0 220 300"
   xml:space="preserve"
   inkscape:version="0.48.4 r9939"
   sodipodi:docname="cns-m.svg"><metadata
   id="metadata7579"><rdf:RDF><cc:Work
       rdf:about=""><dc:format>image/svg+xml</dc:format><dc:type
         rdf:resource="http://purl.org/dc/dcmitype/StillImage" /></cc:Work></rdf:RDF></metadata><defs
   id="defs7577"><linearGradient
   inkscape:collect="always"
   xlink:href="#SVGID_3_"
   id="linearGradient8129"
   gradientUnits="userSpaceOnUse"
   gradientTransform="matrix(5.797,-2.511727e-4,-2.511727e-4,-5.797,2110.4346,2791.4724)"
   x1="-360.2754"
   y1="455.6465"
   x2="-322.5885"
   y2="455.6465" />
	
	
	
<linearGradient
   inkscape:collect="always"
   xlink:href="#SVGID_3_"
   id="linearGradient8149"
   gradientUnits="userSpaceOnUse"
   gradientTransform="matrix(5.797,-2.511727e-4,-2.511727e-4,-5.797,2110.4346,2791.4724)"
   x1="-360.2754"
   y1="455.6465"
   x2="-322.5885"
   y2="455.6465" />
		<defs
   id="defs7546">
			<path
   id="SVGID_1_"
   d="m 54.181,249.905 57.53,33.237 52.12,-39.899 c -1.841,-6.994 -4.38,-22.122 -4.748,-44.169 L 94.485,233.6 49.451,205.331 c 0.387,15.312 1.528,30.661 4.73,44.574 M 29.962,66.99 15.864,167.622 l 79.173,49.745 95,-50.739 L 204.171,65.959 124.924,16.214 29.962,66.99 z"
   inkscape:connector-curvature="0" />
		</defs>
		<clipPath
   id="SVGID_2_">
			<use
   xlink:href="#SVGID_1_"
   overflow="visible"
   id="use7550"
   style="overflow:visible"
   x="0"
   y="0"
   width="220"
   height="300" />
		</clipPath>
		
			<linearGradient
   id="SVGID_3_"
   gradientUnits="userSpaceOnUse"
   x1="-360.27539"
   y1="455.64651"
   x2="-322.5885"
   y2="455.64651"
   gradientTransform="matrix(5.797,-2.511727e-4,-2.511727e-4,-5.797,2110.4346,2791.4724)">
			<stop
   offset="0"
   style="stop-color:#bb2c26;stop-opacity:1;"
   id="stop7553" />
			
			
			<stop
   offset="0.40000001"
   style="stop-color:#e07823;stop-opacity:1;"
   id="stop7559" />
			<stop
   offset="0.5"
   style="stop-color:#f7981d;stop-opacity:1;"
   id="stop7561" />
			<stop
   offset="0.60000002"
   style="stop-color:#e07823;stop-opacity:1;"
   id="stop7563" />
			
			
			<stop
   offset="1"
   style="stop-color:#bb2c26;stop-opacity:1;"
   id="stop7569" />
		</linearGradient>
		
	</defs><sodipodi:namedview
   pagecolor="#ffffff"
   bordercolor="#666666"
   borderopacity="1"
   objecttolerance="10"
   gridtolerance="10"
   guidetolerance="10"
   inkscape:pageopacity="0"
   inkscape:pageshadow="2"
   inkscape:window-width="1920"
   inkscape:window-height="1060"
   id="namedview7575"
   showgrid="false"
   inkscape:zoom="1"
   inkscape:cx="88.132727"
   inkscape:cy="178.68085"
   inkscape:window-x="-8"
   inkscape:window-y="-8"
   inkscape:window-maximized="1"
   inkscape:current-layer="Layer_1" />
<g
   id="g9901"><path
     style="fill:#ffffff"
     d="M 219.337,58.892 125.515,0 17.042,57.954 0.663,174.688 35.244,196.386 c 0,20.207 1.325,41.077 6.037,59.813 l 0.718,2.907 70.779,40.894 67.469,-51.678 -1.656,-4.785 c -0.185,-0.294 -5.705,-17.778 -5.411,-51.972 l 29.777,-15.938 16.38,-116.735 z"
     id="path7542"
     inkscape:connector-curvature="0" /><use
     xlink:href="#SVGID_1_"
     overflow="visible"
     id="use9897"
     style="overflow:visible;fill:#800000;stroke:#000000;stroke-width:14.05;stroke-miterlimit:4;stroke-dasharray:none"
     x="0"
     y="0"
     width="220"
     height="300" /><polygon
     style="fill:url(#linearGradient8149)"
     id="polygon7571"
     points="-3.901,5.742 233.876,5.724 233.876,294.59 -3.883,294.663 "
     clip-path="url(#SVGID_2_)" /><path
     style="fill:#000000"
     d="M 118.852,44.132 C 79.432,44.113 42.9,76.154 37.397,115.484 c -2.779,19.747 2.466,38.39 14.649,52.451 12.036,13.84 29.52,21.532 49.101,21.495 39.421,0 75.935,-31.967 81.418,-71.296 2.761,-19.766 -2.429,-38.39 -14.612,-52.451 C 155.844,51.751 138.434,44.114 118.852,44.132 m 44.721,71.37 c -4.27,30.183 -32.243,54.752 -62.426,54.733 -13.95,0.036 -26.207,-5.282 -34.599,-14.889 -8.502,-9.828 -12.128,-23.079 -10.122,-37.268 4.233,-30.182 32.207,-54.751 62.425,-54.77 13.914,0 26.171,5.355 34.6,14.962 8.466,9.792 12.073,23.006 10.122,37.232"
     id="path7573"
     inkscape:connector-curvature="0" /></g>

			
		</svg>