<?xml version="1.0" encoding="UTF-8" standalone="no"?>
<!-- Created with Inkscape (http://www.inkscape.org/) -->

<svg
   xmlns:dc="http://purl.org/dc/elements/1.1/"
   xmlns:cc="http://creativecommons.org/ns#"
   xmlns:rdf="http://www.w3.org/1999/02/22-rdf-syntax-ns#"
   xmlns:svg="http://www.w3.org/2000/svg"
   xmlns="http://www.w3.org/2000/svg"
   xmlns:xlink="http://www.w3.org/1999/xlink"
   xmlns:sodipodi="http://sodipodi.sourceforge.net/DTD/sodipodi-0.dtd"
   xmlns:inkscape="http://www.inkscape.org/namespaces/inkscape"
   version="1.1"
   width="600"
   height="320.00342"
   viewBox="0 0 600 320.00342"
   id="Layer_1"
   xml:space="preserve"
   sodipodi:docname="core set 2014 mythic.svg"
   inkscape:version="0.92.2 5c3e80d, 2017-08-06"><sodipodi:namedview
     pagecolor="#ffffff"
     bordercolor="#666666"
     borderopacity="1"
     objecttolerance="10"
     gridtolerance="10"
     guidetolerance="10"
     inkscape:pageopacity="0"
     inkscape:pageshadow="2"
     inkscape:window-width="1065"
     inkscape:window-height="589"
     id="namedview20"
     showgrid="false"
     inkscape:zoom="0.54"
     inkscape:cx="391"
     inkscape:cy="90.777454"
     inkscape:window-x="1020"
     inkscape:window-y="96"
     inkscape:window-maximized="0"
     inkscape:current-layer="Layer_1" /><metadata
     id="metadata22"><rdf:RDF><cc:Work
         rdf:about=""><dc:format>image/svg+xml</dc:format><dc:type
           rdf:resource="http://purl.org/dc/dcmitype/StillImage" /><dc:title /></cc:Work></rdf:RDF></metadata><defs
     id="defs20"><linearGradient
       x1="3.8369"
       y1="45.069302"
       x2="89.913101"
       y2="4.9313002"
       id="linearGradient3817-1-8"
       xlink:href="#SVGID_2_-2-8-6"
       gradientUnits="userSpaceOnUse"
       gradientTransform="matrix(6.3894193,0,0,6.3894193,0.50040599,0.48410249)" /><linearGradient
       x1="5.9902"
       y1="44.064499"
       x2="87.759697"
       y2="5.9347"
       id="SVGID_2_-2-8-6"
       gradientUnits="userSpaceOnUse"><stop
         id="stop8-6-1-9"
         style="stop-color:#bd3627;stop-opacity:1"
         offset="0" /><stop
         id="stop10-0-2-8"
         style="stop-color:#f49620;stop-opacity:1"
         offset="1" /></linearGradient><clipPath
       id="clipPath4012"><path
         d="m 162.78125,-506.0625 c -25.35707,47.09811 -39.875,101.73378 -39.875,160 0,58.26622 14.51793,112.90189 39.875,160 l 520.25,0 c 25.35707,-47.09811 39.875,-101.73378 39.875,-160 0,-58.26622 -14.49308,-112.90189 -39.84375,-160 l -520.28125,0 z"
         inkscape:connector-curvature="0"
         id="path4014"
         style="color:#000000;fill:url(#linearGradient4016);fill-opacity:1;fill-rule:nonzero;stroke:none;stroke-width:1;marker:none;visibility:visible;display:inline;overflow:visible;enable-background:accumulate" /></clipPath><linearGradient
       x1="3.8369"
       y1="45.069302"
       x2="89.913101"
       y2="4.9313002"
       id="linearGradient3027"
       xlink:href="#SVGID_2_-2-8-6"
       gradientUnits="userSpaceOnUse"
       gradientTransform="matrix(6.3894193,0,0,6.3894193,239.199,0.48410807)" /><linearGradient
       x1="3.8369"
       y1="45.069302"
       x2="89.913101"
       y2="4.9313002"
       id="SVGID_2_"
       gradientUnits="userSpaceOnUse"><stop
         id="stop8"
         style="stop-color:#8f743f;stop-opacity:1"
         offset="0" /><stop
         id="stop10"
         style="stop-color:#ebd491;stop-opacity:1"
         offset="0.78789997" /></linearGradient><linearGradient
       x1="3.8369"
       y1="45.069302"
       x2="89.913101"
       y2="4.9313002"
       id="linearGradient3802"
       xlink:href="#SVGID_2_-2-8-6"
       gradientUnits="userSpaceOnUse"
       gradientTransform="matrix(6.1867328,0,0,5.4791721,11.999996,21.133515)" /></defs><path
     d="M 41.866024,12 C 16.508953,55.009767 1.9999981,104.90438 1.9999981,158.11282 c 0,53.20844 14.5089549,103.10305 39.8660259,146.11282 H 562.13399 C 587.49106,261.21587 602,211.32126 602,158.11282 602,104.90438 587.49106,55.009767 562.14039,12 Z"
     inkscape:connector-curvature="0"
     id="path3800"
     style="fill:#ffffff;fill-opacity:1;stroke-width:0.95561254" /><path
     d="M 50.537155,21.133515 C 26.025319,61.454744 11.999996,108.23044 11.999996,158.11282 c 0,49.88239 14.025323,96.65807 38.537159,136.97931 H 553.46286 C 577.97469,254.77089 592,207.99521 592,158.11282 592,108.23044 577.97469,61.454744 553.46905,21.133515 Z"
     inkscape:connector-curvature="0"
     id="path12"
     style="fill:url(#linearGradient3802);fill-opacity:1;stroke-width:0.95561254" /><path
     d="m 537.95452,46.704712 c 16.68498,33.687777 26.04828,71.478398 26.04828,111.413958 0,40.66027 -9.72171,79.09378 -26.98269,113.23743 H 66.979891 C 49.718907,237.20661 40.003604,198.77309 40.003604,158.11282 c 0,-39.92971 9.363299,-77.726176 26.048278,-111.413953 H 537.95452 M 550.21065,29.352356 H 537.95452 66.051882 53.795751 L 48.739697,39.551031 C 30.3331,76.698751 21.001801,116.5934 21.001801,158.11282 c 0,42.25582 9.670503,82.80506 28.729906,120.50801 l 5.094455,10.08178 h 12.153729 470.040219 12.15373 l 5.09445,-10.08178 c 19.07221,-37.70295 28.73631,-78.25219 28.73631,-120.50801 0,-41.51942 -9.3313,-81.414069 -27.7379,-118.567633 z"
     inkscape:connector-curvature="0"
     id="path14"
     style="stroke-width:0.95561254" /><path
     d="m 44.003646,234.82205 c 12.524934,-8.96548 20.915423,-21.06947 27.949099,-38.90108 6.534469,-16.53997 10.969717,-32.49549 19.200204,-47.7146 2.080023,-3.84569 7.129681,-6.87899 12.601741,-4.4769 3.85924,1.69491 7.69288,3.63529 11.91692,5.40033 4.44165,1.85855 5.36326,5.37696 3.33444,9.71359 -5.86246,12.5014 -13.13934,24.46512 -17.83059,37.3172 -4.665653,12.7878 -5.337661,27.703 11.16172,31.66557 v 11.87021 c -30.784333,-3.40151 -49.22293,0.62537 -60.903054,9.73696 z M 89.668134,82.625087 c 16.083376,1.829341 27.910696,3.571005 22.163436,17.188711 -3.12963,7.428382 -6.51527,14.377502 -10.00331,21.162982 -1.98402,3.85738 -1.54241,8.14141 3.33444,11.10458 3.27044,1.99298 10.33611,5.23668 14.00335,6.54001 4.91525,1.75335 7.94889,-0.0701 9.4977,-3.34306 1.13921,-2.40794 3.71204,-7.09524 4.99846,-9.43889 2.41922,-4.39507 6.65607,-3.44826 9.6641,0.45588 19.117,24.8684 37.1972,59.5848 48.49972,101.06915 3.12963,11.48447 3.00163,20.85322 -0.83201,26.63345 5.51686,3.74633 11.69932,6.35882 18.50259,7.91346 8.01929,-13.75798 21.94584,-24.61124 40.83244,-33.0215 -3.87204,-14.13202 -8.84489,-28.05949 -15.33456,-41.70059 -6.53447,-19.21092 -2.57923,-29.23425 4.00004,-36.83796 1.79842,-2.07481 1.83682,-4.82757 0,-7.47514 -3.52004,-5.06719 -7.36008,-9.09991 -11.33452,-12.15658 -2.79683,-2.15663 -6.46407,-2.60665 -9.4977,0.14611 -1.79202,1.63062 -3.35364,3.47164 -5.49766,4.87433 -21.67063,-23.4365 -40.16683,-48.550372 -47.0021,-66.206649 L 98.99943,67.248174 c -4.499245,4.336628 -8.000082,9.590853 -9.331296,15.376913 z m 162.075336,6.335458 c 3.92324,3.091741 4.00644,6.452337 1.43361,10.181142 -5.00485,7.270573 -9.8433,13.080013 -15.34096,17.416643 -2.86723,2.26183 -2.42563,6.08414 -0.66561,9.13498 3.85924,6.66859 9.8177,10.86495 15.83377,13.69954 4.97285,-4.54119 9.9521,-6.09583 12.83214,-1.0637 10.61771,18.5271 18.55379,37.31136 28.1667,54.63449 8.40329,15.14898 6.22726,25.58144 -3.16804,32.57733 -6.56007,4.886 -12.88974,8.93041 -18.00339,13.69953 4.30085,4.07947 8.84489,7.98945 13.67055,11.7124 22.05463,-16.42892 55.49499,-15.54056 96.16742,-3.65282 1.57442,-4.40676 3.69284,-8.66741 6.32967,-12.78779 -14.25295,-11.67734 -29.12031,-14.50608 -34.32997,-25.86781 -2.75843,-6.00816 -4.12804,-18.16475 -7.48808,-25.90872 -11.01451,-25.39442 -21.35062,-44.41246 -38.51561,-76.68001 -7.69928,-14.476864 -5.96486,-28.550456 -2.00322,-36.382102 -5.74726,-2.238443 -10.20811,-4.932771 -13.49774,-8.024512 -7.66728,6.960813 -38.17001,7.112769 -54.04218,0 -3.68644,5.774381 -7.39848,10.25712 -11.12332,14.383347 9.93291,3.839841 17.86899,8.293358 23.74426,12.928062 z m 110.26037,8.7317 h 27.8339 v 90.706835 l 27.41789,-25.03204 V 63.2856 c -15.64177,9.25771 -34.57317,16.984155 -55.25179,23.904058 z m 139.52789,-41.145369 28.0195,14.126182 c -6.29127,17.615366 -2.02882,38.375072 -2.56643,72.214802 l 15.29617,-0.005 5.27365,-4.26065 5.54886,6.54586 c 0,0 -6.64967,12.16243 -11.00812,18.3693 -8.60169,-2.04557 -9.7345,-1.64231 -15.65456,-1.18059 -1.35042,10.25712 2.02882,40.66027 2.02882,40.66027 0,0 -14.34895,-1.47866 -32.05794,7.35825 1.33121,-10.44414 3.47523,-37.26462 2.00322,-48.38673 -10.00971,0.42666 -34.23397,1.72998 -57.11421,4.44768 l -12.05133,-7.94854 c 0.67841,0.78317 68.62793,-56.75606 72.28237,-101.939989 z m -2.43203,86.890374 c 0,0 1.01122,-20.39151 0,-36.52236 0,0 -17.46578,25.21322 -30.25312,36.70938 4.05765,1.29748 30.25312,-0.18702 30.25312,-0.18702 z"
     inkscape:connector-curvature="0"
     id="path16"
     style="stroke-width:0.95561254" /></svg>