<?xml version="1.0" encoding="UTF-8" standalone="no"?>
<!-- Created with Inkscape (http://www.inkscape.org/) -->

<svg
   xmlns:dc="http://purl.org/dc/elements/1.1/"
   xmlns:cc="http://creativecommons.org/ns#"
   xmlns:rdf="http://www.w3.org/1999/02/22-rdf-syntax-ns#"
   xmlns:svg="http://www.w3.org/2000/svg"
   xmlns="http://www.w3.org/2000/svg"
   xmlns:sodipodi="http://sodipodi.sourceforge.net/DTD/sodipodi-0.dtd"
   xmlns:inkscape="http://www.inkscape.org/namespaces/inkscape"
   version="1.1"
   width="726"
   height="726"
   id="svg4429"
   sodipodi:docname="darksteel uncommon.svg"
   inkscape:version="0.92.2 5c3e80d, 2017-08-06">
  <sodipodi:namedview
     pagecolor="#ffffff"
     bordercolor="#666666"
     borderopacity="1"
     objecttolerance="10"
     gridtolerance="10"
     guidetolerance="10"
     inkscape:pageopacity="0"
     inkscape:pageshadow="2"
     inkscape:window-width="1067"
     inkscape:window-height="904"
     id="namedview28"
     showgrid="false"
     inkscape:zoom="0.32506887"
     inkscape:cx="363"
     inkscape:cy="363"
     inkscape:window-x="0"
     inkscape:window-y="0"
     inkscape:window-maximized="0"
     inkscape:current-layer="svg4429" />
  <defs
     id="defs4431">
    <linearGradient
       x1="0"
       y1="0"
       x2="1"
       y2="0"
       id="linearGradient298"
       gradientUnits="userSpaceOnUse"
       gradientTransform="matrix(0,35.832031,35.832031,0,401,465.80518)"
       spreadMethod="pad">
      <stop
         id="stop300"
         style="stop-color:#626e77;stop-opacity:1"
         offset="0" />
      <stop
         id="stop302"
         style="stop-color:#a0b6c2;stop-opacity:1"
         offset="0.30000299" />
      <stop
         id="stop304"
         style="stop-color:#b7d1e1;stop-opacity:1"
         offset="0.5" />
      <stop
         id="stop306"
         style="stop-color:#a0b6c2;stop-opacity:1"
         offset="0.69999701" />
      <stop
         id="stop308"
         style="stop-color:#626e77;stop-opacity:1"
         offset="1" />
    </linearGradient>
  </defs>
  <metadata
     id="metadata4434">
    <rdf:RDF>
      <cc:Work
         rdf:about="">
        <dc:format>image/svg+xml</dc:format>
        <dc:type
           rdf:resource="http://purl.org/dc/dcmitype/StillImage" />
        <dc:title />
      </cc:Work>
    </rdf:RDF>
  </metadata>
  <path
     d="m 283.10906,481.15872 c 0,0 1.9781,-0.85367 3.19399,-1.27034 2.3955,7.29537 6.36984,19.34543 6.36984,19.34543 h 149.93612 c 0,0 4.04693,-12.05006 6.44242,-19.34543 1.21663,0.48927 6.24281,2.54068 7.31352,2.97622 3.90175,2.75845 9.41864,6.80538 9.41864,6.80538 13.53817,9.70901 18.58323,16.29662 20.14393,18.71026 0,0 2.46808,3.75657 3.17584,4.89987 -12.24968,12.1771 -32.32101,30.61514 -56.05818,47.3473 -14.89924,-13.68335 -35.87796,-24.59011 -64.17019,-24.59011 h -2.19587 c -28.41926,0 -49.47057,10.90676 -64.36981,24.59011 -23.73717,-16.73216 -43.8085,-35.1702 -56.00374,-47.3473 0.72591,-1.14403 3.19399,-4.97246 3.19399,-4.97246 1.48811,-2.34105 6.53317,-8.92866 20.07133,-18.63767 0,0 5.5169,-3.97434 9.34606,-6.73279 0.99739,-0.50813 4.19211,-1.77847 4.19211,-1.77847 M 128.34566,3.0762812 c 0,0 24.11826,72.9536698 25.09824,76.0024798 -5.17209,8.58385 -12.39487,20.41613 -12.39487,20.41613 -1.28921,2.123279 -26.65893,44.734029 -45.732155,108.523119 -1.19774,-1.5607 -6.2428,-7.78535 -6.2428,-7.78535 0,0 -6.442422,50.95868 -9.128278,72.6633 -0.07259,0.1989 -0.290363,1.54256 -0.290363,1.54256 l 0.07259,0.0726 c -0.508135,3.97434 -1.851064,14.4637 -1.851064,14.4637 -2.26846,18.22027 -3.393616,36.36794 -3.393616,54.02563 -1.144028,-0.92626 -6.805378,-5.68023 -6.805378,-5.68023 0,0 5.462451,42.04817 9.001248,69.75968 0.07259,1.77847 0.217773,4.39174 0.217773,4.39174 0,0 0.345531,0.36295 0.418122,0.36295 0.998848,7.44055 2.758447,21.4687 2.758447,21.4687 10.217139,78.9787 30.851054,126.83413 31.685854,128.81223 l 4.11952,9.3642 8.29349,6.09762 c 3.26658,2.3229 71.88295,51.52126 151.06128,74.98621 3.1214,15.87921 9.3642,34.31726 23.68272,49.6339 11.3423,12.26783 31.90361,26.78597 65.07757,26.78597 h 7.29537 c 33.24655,0 53.80786,-14.51814 65.15016,-26.78597 14.31852,-15.31664 20.56132,-33.75469 23.68272,-49.56131 79.17833,-23.53754 147.7947,-72.7359 151.06128,-75.0588 l 8.2209,-6.02503 4.11952,-9.43679 c 0.90739,-1.9781 21.5413,-49.83353 31.75844,-128.81223 0,0 1.83292,-14.59073 2.97622,-22.88422 0,0 0.27294,-0.29036 0.27294,-0.29036 0,0 0.14518,-2.12328 0.14518,-3.26658 3.61139,-27.71151 9.00125,-69.46932 9.00125,-69.46932 0,0 -5.66208,4.6821 -6.80538,5.68023 0,-17.6577 -1.12516,-35.80537 -3.39362,-54.02564 0,0 -1.34292,-10.56195 -1.85106,-14.53629 l 0.0726,-0.0726 c 0,0 -0.21777,-0.97998 -0.21777,-1.12516 -2.68586,-21.34167 -9.14643,-73.15329 -9.14643,-73.15329 0,0 -5.02691,6.29724 -6.29724,7.85794 -19.07321,-63.78909 -44.38923,-106.39984 -45.73215,-108.523119 0,0 -7.22278,-11.83228 -12.39487,-20.41613 0.97998,-3.04881 25.15268,-76.0024798 25.15268,-76.0024798 H 128.34712 Z"
     inkscape:connector-curvature="0"
     id="path294"
     style="fill:#000000;fill-opacity:1;fill-rule:nonzero;stroke:none" />
  <g
     transform="matrix(18.147679,0,0,-18.147679,-6909.5418,9144.479)"
     id="g296">
    <path
       d="m 390.695,501.637 7.68,-23.168 h 5.25 l 7.68,23.168 z m 14.817,-21.957 c 0,0 0.453,-0.133 1.066,-0.434 v 0 l 8.067,10.074 c -0.911,4.692 -2.934,8.008 -2.934,8.008 v 0 z m -18.157,9.64 8.067,-10.074 c 0.613,0.305 1.066,0.434 1.066,0.434 v 0 l -6.199,17.648 c 0,0 -2.023,-3.316 -2.934,-8.008 m 20.27,-10.718 c 0.539,-0.391 1.227,-0.957 1.637,-1.586 v 0 l 5.718,5.226 c 0.063,0.848 0.098,1.746 0.098,2.692 v 0 c 0,0.953 -0.066,1.878 -0.176,2.773 v 0 z m -20.703,6.332 c 0,-0.946 0.035,-1.844 0.098,-2.692 v 0 l 5.718,-5.226 c 0.41,0.632 1.098,1.195 1.637,1.586 v 0 l -7.273,9.105 c -0.114,-0.891 -0.18,-1.82 -0.18,-2.773 m 22.812,-8.879 c 0.114,-0.336 0.196,-0.7 0.223,-1.09 v 0 c 0,0 -2.66,-3.016 -5.895,-4.766 v 0 c 0,0 -0.707,2.071 -2.996,2.071 v 0 h -0.132 c -2.293,0 -2.996,-2.071 -2.996,-2.071 v 0 c -3.239,1.754 -5.899,4.766 -5.899,4.766 v 0 c 0.031,0.39 0.113,0.758 0.227,1.09 v 0 l -5.047,4.23 c 0.527,-4.109 1.59,-6.531 1.59,-6.531 v 0 c 0,0 4.445,-3.234 9.027,-4.176 v 0 c 0,0 -0.274,-3.773 2.961,-3.773 v 0 h 0.406 c 3.235,0 2.961,3.769 2.961,3.769 v 0 c 4.582,0.946 9.027,4.18 9.027,4.18 v 0 c 0,0 1.059,2.422 1.59,6.531 v 0 z"
       inkscape:connector-curvature="0"
       id="path310"
       style="fill:url(#linearGradient298);fill-opacity:1;fill-rule:nonzero;stroke:none" />
  </g>
</svg>
