<?xml version="1.0" encoding="UTF-8" standalone="no"?>
<!-- Created with Inkscape (http://www.inkscape.org/) -->

<svg
   xmlns:dc="http://purl.org/dc/elements/1.1/"
   xmlns:cc="http://creativecommons.org/ns#"
   xmlns:rdf="http://www.w3.org/1999/02/22-rdf-syntax-ns#"
   xmlns:svg="http://www.w3.org/2000/svg"
   xmlns="http://www.w3.org/2000/svg"
   xmlns:xlink="http://www.w3.org/1999/xlink"
   xmlns:inkscape="http://www.inkscape.org/namespaces/inkscape"
   version="1.1"
   width="627.90625"
   height="484.28125"
   id="svg3039">
  <metadata
     id="metadata3045">
    <rdf:RDF>
      <cc:Work
         rdf:about="">
        <dc:format>image/svg+xml</dc:format>
        <dc:type
           rdf:resource="http://purl.org/dc/dcmitype/StillImage" />
        <dc:title />
      </cc:Work>
    </rdf:RDF>
  </metadata>
  <defs
     id="defs3043">
    <linearGradient
       id="linearGradient3007">
      <stop
         id="stop3019"
         style="stop-color:#bf331c;stop-opacity:1"
         offset="0" />
      <stop
         id="stop3033"
         style="stop-color:#f6971d;stop-opacity:1"
         offset="0.46751356" />
      <stop
         id="stop3031"
         style="stop-color:#bf331c;stop-opacity:1"
         offset="1" />
    </linearGradient>
    <linearGradient
       x1="68"
       y1="124.55032"
       x2="198"
       y2="48.050323"
       id="linearGradient3013"
       xlink:href="#linearGradient3007"
       gradientUnits="userSpaceOnUse" />
    <linearGradient
       x1="68"
       y1="124.55032"
       x2="198"
       y2="48.050323"
       id="linearGradient3863"
       xlink:href="#linearGradient3007"
       gradientUnits="userSpaceOnUse"
       gradientTransform="translate(294.1814,-263.16547)" />
    <clipPath
       id="clipPath3873">
      <path
         d="m 423.07207,-236.49847 13.31633,46.60801 28.592,-4.7 c -5.48333,-32.50834 -27.025,-57.57501 -27.025,-57.57501 46.60834,8.225 59.925,42.3 59.925,42.3 0,0 23.108,-5.483 43.083,2.742 -37.20833,26.63334 -46.608,57.575 -83.033,109.275009 l 7.05,-69.325009 -22.71666,17.625 -19.19134,68.933341 -19.58366,-68.150011 -22.32434,-18.40833 7.05,69.325009 c -40.73333,-62.666679 -57.57468,-94.783339 -83.033,-109.275009 14.49167,-6.26666 43.083,-2.742 43.083,-2.742 0,0 11.75,-32.11666 59.925,-42.3 -18.01667,17.625 -27.025,57.57501 -27.025,57.57501 l 28.592,4.7 z"
         inkscape:connector-curvature="0"
         id="path3875"
         style="fill:url(#linearGradient3877);fill-opacity:1;stroke:none" />
    </clipPath>
    <linearGradient
       x1="68"
       y1="124.55032"
       x2="198"
       y2="48.050323"
       id="linearGradient3877"
       xlink:href="#linearGradient3007"
       gradientUnits="userSpaceOnUse"
       gradientTransform="translate(294.1814,-263.16547)" />
    <linearGradient
       x1="68"
       y1="124.55032"
       x2="198"
       y2="48.050323"
       id="linearGradient3881"
       xlink:href="#linearGradient3007"
       gradientUnits="userSpaceOnUse"
       gradientTransform="translate(-4.28125,-5.9375055)" />
    <linearGradient
       x1="68"
       y1="124.55032"
       x2="198"
       y2="48.050323"
       id="linearGradient3761"
       xlink:href="#linearGradient3007"
       gradientUnits="userSpaceOnUse"
       gradientTransform="translate(435.01483,340.22228)" />
    <linearGradient
       x1="68"
       y1="124.55032"
       x2="198"
       y2="48.050323"
       id="linearGradient3761-1"
       xlink:href="#linearGradient3007-7"
       gradientUnits="userSpaceOnUse"
       gradientTransform="translate(435.01483,340.22228)" />
    <linearGradient
       id="linearGradient3007-7">
      <stop
         id="stop3019-4"
         style="stop-color:#bf331c;stop-opacity:1"
         offset="0" />
      <stop
         id="stop3033-0"
         style="stop-color:#f6971d;stop-opacity:1"
         offset="0.46751356" />
      <stop
         id="stop3031-9"
         style="stop-color:#bf331c;stop-opacity:1"
         offset="1" />
    </linearGradient>
    <linearGradient
       x1="68"
       y1="124.55032"
       x2="198"
       y2="48.050323"
       id="linearGradient3779"
       xlink:href="#linearGradient3007-7"
       gradientUnits="userSpaceOnUse"
       gradientTransform="translate(435.01483,340.22228)" />
    <clipPath
       id="clipPath3806">
      <path
         d="m 563.9055,366.88929 13.31633,46.60801 28.592,-4.7 c -5.48333,-32.50834 -27.025,-57.57501 -27.025,-57.57501 46.60834,8.225 59.925,42.3 59.925,42.3 0,0 23.108,-5.483 43.083,2.742 -37.20833,26.63334 -46.608,57.57499 -83.033,109.27501 l 7.05,-69.32501 -22.71666,17.62499 -19.19134,68.93336 -19.58367,-68.15003 -22.32434,-18.40832 7.05,69.32501 c -40.73333,-62.66669 -57.57468,-94.78334 -83.03299,-109.27501 14.49166,-6.26666 43.08299,-2.742 43.08299,-2.742 0,0 11.75,-32.11666 59.92501,-42.3 -18.01668,17.625 -27.02501,57.57501 -27.02501,57.57501 l 28.59201,4.7 z"
         inkscape:connector-curvature="0"
         id="path3808"
         style="fill:url(#linearGradient3810);fill-opacity:1;stroke:none" />
    </clipPath>
    <linearGradient
       x1="68"
       y1="124.55032"
       x2="198"
       y2="48.050323"
       id="linearGradient3810"
       xlink:href="#linearGradient3007"
       gradientUnits="userSpaceOnUse"
       gradientTransform="translate(435.01483,340.22228)" />
    <linearGradient
       x1="68"
       y1="124.55032"
       x2="198"
       y2="48.050323"
       id="linearGradient3812"
       xlink:href="#linearGradient3007"
       gradientUnits="userSpaceOnUse"
       gradientTransform="translate(-5.40625,-6.78126)" />
    <linearGradient
       x1="68"
       y1="124.55032"
       x2="198"
       y2="48.050323"
       id="linearGradient3848"
       xlink:href="#linearGradient3007-7"
       gradientUnits="userSpaceOnUse"
       gradientTransform="translate(435.01483,340.22228)" />
    <linearGradient
       x1="68"
       y1="124.55032"
       x2="198"
       y2="48.050323"
       id="linearGradient3018"
       xlink:href="#linearGradient3007-7"
       gradientUnits="userSpaceOnUse"
       gradientTransform="matrix(2.4411952,0,0,2.4411952,0.482781,-6.232314)" />
  </defs>
  <path
     d="M 278.81912,20.612226 C 161.21451,45.471746 132.49998,123.9053 132.49998,123.9053 c 0,0 -69.823284,-8.66114 -105.200254,6.637 62.148703,35.37699 103.333764,113.79523 202.771774,266.77686 l -17.24094,-169.20535 54.46917,44.93325 47.83216,166.38271 46.84044,-168.28989 55.4609,-43.02607 -17.24094,169.20535 C 489.11282,271.10931 512.05498,195.55947 602.88777,130.5423 c -48.76287,-20.07883 -105.12396,-6.637 -105.12396,-6.637 0,0 -32.53908,-83.214244 -146.31914,-103.293074 0,0 52.60268,61.23838 65.98856,140.597584 L 347.6303,172.65291 315.13189,58.832186 282.63348,172.65291 212.83056,161.20981 c 0,0 22.00632,-97.571524 65.98856,-140.597584 z"
     inkscape:connector-curvature="0"
     id="path3846"
     style="fill:none;stroke:#ffffff;stroke-width:24.41195107;stroke-miterlimit:100;stroke-opacity:1" />
  <path
     d="M 278.81912,20.612226 C 161.21451,45.471746 132.49998,123.9053 132.49998,123.9053 c 0,0 -69.823284,-8.66114 -105.200254,6.637 62.148703,35.37699 103.333764,113.79523 202.771774,266.77686 l -17.24094,-169.20535 54.46917,44.93325 47.83216,166.38271 46.84044,-168.28989 55.4609,-43.02607 -17.24094,169.20535 C 489.11282,271.10931 512.05498,195.55947 602.88777,130.5423 c -48.76287,-20.07883 -105.12396,-6.637 -105.12396,-6.637 0,0 -32.53908,-83.214244 -146.31914,-103.293074 0,0 52.60268,61.23838 65.98856,140.597584 L 347.6303,172.65291 315.13189,58.832186 282.63348,172.65291 212.83056,161.20981 c 0,0 22.00632,-97.571524 65.98856,-140.597584 z"
     inkscape:connector-curvature="0"
     id="path3850"
     style="fill:url(#linearGradient3018);fill-opacity:1;stroke:#000000;stroke-width:10.98537827;stroke-miterlimit:100;stroke-opacity:1" />
</svg>
