<?xml version="1.0" encoding="UTF-8" standalone="no"?>
<!-- Created with Inkscape (http://www.inkscape.org/) -->

<svg
   xmlns:dc="http://purl.org/dc/elements/1.1/"
   xmlns:cc="http://creativecommons.org/ns#"
   xmlns:rdf="http://www.w3.org/1999/02/22-rdf-syntax-ns#"
   xmlns:svg="http://www.w3.org/2000/svg"
   xmlns="http://www.w3.org/2000/svg"
   xmlns:sodipodi="http://sodipodi.sourceforge.net/DTD/sodipodi-0.dtd"
   xmlns:inkscape="http://www.inkscape.org/namespaces/inkscape"
   version="1.1"
   width="726"
   height="726"
   id="svg4374"
   sodipodi:docname="darksteel.svg"
   inkscape:version="0.92.2 5c3e80d, 2017-08-06">
  <sodipodi:namedview
     pagecolor="#ffffff"
     bordercolor="#666666"
     borderopacity="1"
     objecttolerance="10"
     gridtolerance="10"
     guidetolerance="10"
     inkscape:pageopacity="0"
     inkscape:pageshadow="2"
     inkscape:window-width="924"
     inkscape:window-height="668"
     id="namedview7"
     showgrid="false"
     inkscape:zoom="0.32506887"
     inkscape:cx="363"
     inkscape:cy="363"
     inkscape:window-x="0"
     inkscape:window-y="0"
     inkscape:window-maximized="0"
     inkscape:current-layer="svg4374" />
  <defs
     id="defs4376" />
  <metadata
     id="metadata4379">
    <rdf:RDF>
      <cc:Work
         rdf:about="">
        <dc:format>image/svg+xml</dc:format>
        <dc:type
           rdf:resource="http://purl.org/dc/dcmitype/StillImage" />
        <dc:title />
      </cc:Work>
    </rdf:RDF>
  </metadata>
  <path
     d="m 289.26212,478.08361 c 0,0 2.0507,-0.85367 3.194,-1.27034 2.3955,7.29539 6.36985,19.34547 6.36985,19.34547 h 149.93649 c 0,0 4.04694,-12.05008 6.44244,-19.34547 1.21662,0.48926 6.24281,2.54068 7.31353,2.97623 3.90176,2.75845 9.41867,6.80539 9.41867,6.80539 13.5382,9.70904 18.58327,16.29666 20.14397,18.71031 0,0 2.46809,3.75657 3.17585,4.89988 -12.24971,12.17712 -32.32109,30.61521 -56.05831,47.34741 -14.89928,-13.68338 -35.87805,-24.59017 -64.17035,-24.59017 h -2.19587 c -28.41934,0 -49.4707,10.90679 -64.36998,24.59017 -23.73722,-16.7322 -43.8086,-35.17029 -56.05831,-47.34741 0.77963,-1.14403 3.24844,-4.97248 3.24844,-4.97248 1.56071,-2.34105 6.53318,-8.92867 20.07138,-18.63771 0,0 5.51691,-3.97435 9.34608,-6.7328 0.9974,-0.50814 4.19212,-1.77848 4.19212,-1.77848 M 134.4439,1e-5 c 0,0 24.17277,72.95385 25.15274,76.00266 -5.1721,8.58388 -12.39489,20.41619 -12.39489,20.41619 -1.34293,2.12328 -26.659,44.73414 -45.73226,108.52338 -1.19775,-1.5607 -6.170226,-7.78537 -6.170226,-7.78537 0,0 -6.442442,50.9588 -9.200896,72.66348 -0.07259,0.1989 -0.290363,1.54256 -0.290363,1.54256 l 0.07259,0.0726 c -0.508137,3.97435 -1.778477,14.46373 -1.778477,14.46373 -2.341056,18.22031 -3.466215,36.36804 -3.466215,54.02577 -1.144031,-0.92627 -6.805395,-5.68025 -6.805395,-5.68025 0,0 5.462465,42.04828 9.001271,69.75985 0.07259,1.77848 0.145182,4.39175 0.145182,4.39175 0,0 0.418123,0.36295 0.489262,0.36295 0.926259,7.44057 2.758454,21.46876 2.758454,21.46876 10.217167,78.97889 30.851133,126.83443 31.758513,128.81253 l 4.11953,9.36423 8.22092,6.09763 c 3.194,2.32291 71.88313,51.52139 151.06165,74.98639 3.1214,15.87926 9.36422,34.31734 23.68277,49.63402 11.34233,12.26786 31.9037,26.78604 65.07774,26.78604 h 7.29538 c 33.24663,0 53.808,-14.51818 65.15032,-26.78604 14.31856,-15.31668 20.56137,-33.75476 23.68278,-49.56143 79.17852,-23.53759 147.86764,-72.73607 151.06164,-75.05898 l 8.29351,-6.02504 4.04695,-9.43682 c 0.90738,-1.9781 21.54134,-49.83364 31.75851,-128.81253 0,0 1.90551,-14.59077 2.97623,-22.88428 0,0 0.34553,-0.29036 0.34553,-0.29036 0,0 0.0726,-2.12329 0.0726,-3.26659 3.6114,-27.71158 9.00127,-69.46949 9.00127,-69.46949 0,0 -5.66209,4.68212 -6.8054,5.68024 0,-17.65773 -1.12515,-35.80545 -3.39362,-54.02577 0,0 -1.34293,-10.56197 -1.85107,-14.53632 l 0.0726,-0.0726 c 0,0 -0.21777,-0.97998 -0.21777,-1.12516 -2.68586,-21.34172 -9.14645,-73.15347 -9.14645,-73.15347 0,0 -5.02692,6.29726 -6.29726,7.85796 -19.07326,-63.78924 -44.44377,-106.4001 -45.73226,-108.52338 0,0 -7.2228,-11.83231 -12.3949,-20.41619 C 589.04437,72.95385 613.21714,0 613.21714,0 H 134.44392 Z"
     inkscape:connector-curvature="0"
     id="path290"
     style="fill:#ffffff;fill-opacity:1;fill-rule:nonzero;stroke:none" />
  <path
     d="M 621.45618,261.38166 C 604.85102,176.23254 568.21077,116.0547 568.21077,116.0547 l -112.49774,320.271 c 0,0 8.22092,2.41365 19.34548,7.80352 z m 6.07949,128.44958 c 1.14258,-15.38927 1.77848,-31.68593 1.77848,-48.85367 0,-17.29478 -1.19775,-34.15401 -3.194,-50.32364 L 494.05917,455.88895 c 9.78162,7.09576 22.26726,17.36737 29.70782,28.78229 z M 372.63276,570.80033 c -41.54014,0 -54.44317,37.58393 -54.44317,37.58393 -58.63529,-31.83111 -106.90823,-86.49205 -106.90823,-86.49205 0.48926,-7.1502 1.9781,-13.75597 4.04694,-19.78101 l -91.59155,-76.76487 c 9.63644,74.56899 28.85487,118.52278 28.85487,118.52278 0,0 80.66663,58.68973 163.8195,75.78489 0,0 -4.97248,68.47135 53.7354,68.47135 h 7.36798 c 58.63529,0 53.7354,-68.39876 53.7354,-68.39876 83.15287,-17.16775 163.81949,-75.78489 163.81949,-75.78489 0,0 19.21844,-43.95379 28.85488,-118.59537 l -91.59155,76.76487 c 2.06884,6.09763 3.55695,12.7034 4.04694,19.78101 0,0 -48.27294,54.73354 -106.98082,86.49205 0,0 -12.83044,-37.58393 -54.37058,-37.58393 z M 272.60251,444.12922 c 11.12456,-5.46246 19.34548,-7.80352 19.34548,-7.80352 L 179.45025,116.0547 c 0,0 -36.64025,60.17784 -53.24541,145.32696 z m -48.70848,40.54202 c 7.44056,-11.46937 19.9262,-21.68653 29.70782,-28.78229 L 121.61346,290.65393 c -2.06884,16.16963 -3.26659,33.02886 -3.26659,50.32364 0,17.16774 0.6359,33.4644 1.77848,48.85367 z M 186.81823,37.85616 H 560.84279 L 421.46828,458.30259 h -95.27554 z"
     inkscape:connector-curvature="0"
     id="path292"
     style="fill:#000000;fill-opacity:1;fill-rule:nonzero;stroke:none" />
</svg>
