<?xml version="1.0" encoding="UTF-8" standalone="no"?>
<!-- Created with Inkscape (http://www.inkscape.org/) -->

<svg
   xmlns:dc="http://purl.org/dc/elements/1.1/"
   xmlns:cc="http://creativecommons.org/ns#"
   xmlns:rdf="http://www.w3.org/1999/02/22-rdf-syntax-ns#"
   xmlns:svg="http://www.w3.org/2000/svg"
   xmlns="http://www.w3.org/2000/svg"
   xmlns:sodipodi="http://sodipodi.sourceforge.net/DTD/sodipodi-0.dtd"
   xmlns:inkscape="http://www.inkscape.org/namespaces/inkscape"
   version="1.1"
   width="600"
   height="600"
   id="svg7319"
   sodipodi:docname="eighth edition.svg"
   inkscape:version="0.92.2 5c3e80d, 2017-08-06">
  <sodipodi:namedview
     pagecolor="#ffffff"
     bordercolor="#666666"
     borderopacity="1"
     objecttolerance="10"
     gridtolerance="10"
     guidetolerance="10"
     inkscape:pageopacity="0"
     inkscape:pageshadow="2"
     inkscape:window-width="901"
     inkscape:window-height="609"
     id="namedview9"
     showgrid="false"
     inkscape:zoom="0.39333333"
     inkscape:cx="300"
     inkscape:cy="300"
     inkscape:window-x="0"
     inkscape:window-y="0"
     inkscape:window-maximized="0"
     inkscape:current-layer="svg7319" />
  <defs
     id="defs7321" />
  <metadata
     id="metadata7324">
    <rdf:RDF>
      <cc:Work
         rdf:about="">
        <dc:format>image/svg+xml</dc:format>
        <dc:type
           rdf:resource="http://purl.org/dc/dcmitype/StillImage" />
        <dc:title />
      </cc:Work>
    </rdf:RDF>
  </metadata>
  <path
     d="m 171.37655,56 c 0,0 -31.6459,3.342 -31.6459,36.15692 L 22.141579,124.98558 c 0,0 -29.4454004,11.27755 -20.4233604,49.74499 L 99.007699,537.74383 c 0,0 20.368351,27.17614 44.106211,20.3546 l 156.93671,-43.1435 156.86794,43.1435 c 23.73786,6.82154 44.10621,-20.3546 44.10621,-20.3546 l 97.23447,-363.01326 c 9.07705,-38.46744 -20.29959,-49.74499 -20.29959,-49.74499 L 460.35683,92.15692 C 460.35683,59.342 428.65592,56 428.65592,56 Z"
     inkscape:connector-curvature="0"
     id="path632"
     style="fill:#000000;fill-opacity:1;fill-rule:nonzero;stroke:none" />
  <path
     d="m 172.39428,69.54681 c -1.44408,0.26076 -5.9551,1.27904 -10.25982,4.12593 -6.01011,4.02966 -8.857,9.88848 -8.857,18.48418 v 10.31483 c 0,0 -124.809451,34.80911 -126.624861,35.30422 -3.23198,1.49909 -13.06545,7.41293 -13.06545,23.03646 0,3.17696 0.4401,6.72527 1.40282,10.69991 0.16503,0.70086 94.813921,354.14251 96.381771,359.8363 4.13969,4.73107 16.48998,16.97133 28.04259,13.69809 l 160.63629,-44.21624 160.62254,44.21624 c 11.5526,3.27324 23.86164,-8.96702 27.98757,-13.69809 1.56785,-5.69379 96.27175,-359.13489 96.43679,-359.8363 0.922,-3.97464 1.3478,-7.52295 1.3478,-10.69991 0,-15.62353 -9.77846,-21.53737 -13.0517,-23.03646 -1.82916,-0.49511 -126.63861,-35.30422 -126.63861,-35.30422 V 92.15692 c 0,-8.5957 -2.84689,-14.45452 -8.80199,-18.48418 -4.30472,-2.84689 -8.87075,-3.86462 -10.31483,-4.12593 z"
     inkscape:connector-curvature="0"
     id="path634"
     style="fill:#ffffff;fill-opacity:1;fill-rule:nonzero;stroke:none" />
  <path
     d="m 449.50563,120.41955 v 349.09512 c 0,0 -3.01193,22.61011 -21.11102,22.61011 h -98.0459 l 131.19089,36.21193 c 0,0 7.57796,3.7546 11.27755,-4.51102 l 96.54681,-358.17217 c 0,0 3.7546,-11.27755 -5.26744,-14.28948 z M 35.935949,152.12046 c -9.02204,2.99818 -5.21243,14.28948 -5.21243,14.28948 l 96.436791,358.17217 c 3.82336,8.26562 11.33256,4.51102 11.33256,4.51102 l 131.20464,-36.15692 h -98.00464 c -18.1541,0 -21.11102,-22.67887 -21.11102,-22.67887 V 121.17597 Z M 173.96213,86.51814 h 252.54831 c 5.26744,0 6.06512,6.76653 6.06512,6.76653 v 375.47358 c 0,6.02386 -6.06512,7.57796 -6.06512,7.57796 H 173.96213 c -5.32245,0 -5.32245,-7.57796 -5.32245,-7.57796 V 93.28467 c 0,-4.51102 5.32245,-6.76653 5.32245,-6.76653"
     inkscape:connector-curvature="0"
     id="path636"
     style="fill:#000000;fill-opacity:1;fill-rule:nonzero;stroke:none" />
  <path
     d="m 319.4425,253.05452 c 33.25501,-16.97134 49.91002,-36.30821 49.91002,-57.91434 0,-12.07523 -4.30472,-22.01872 -12.90041,-29.76172 -8.59569,-7.78426 -19.07556,-11.64888 -31.42585,-11.64888 -12.8454,0 -23.58658,4.08467 -32.07225,12.24026 -8.59569,8.16935 -12.79039,17.35642 -12.79039,27.50622 0,7.04159 1.9942,13.80811 6.02386,20.31334 4.08468,6.4502 13.6981,18.00281 28.89528,34.49279 z m -21.27606,29.01905 c -22.29379,9.72345 -39.00381,20.29959 -50.13008,31.6459 -11.16752,11.38757 -16.75128,23.79288 -16.75128,37.22966 0,14.39951 5.58376,26.26844 16.75128,35.77183 11.18128,9.40713 24.65933,14.1382 40.40663,14.1382 15.47225,0 28.35891,-4.67606 38.61873,-14.02817 10.25982,-9.35211 15.41723,-20.40961 15.41723,-33.14499 0,-18.5942 -14.77084,-42.4971 -44.31251,-71.61243 m -12.51533,-13.64308 c -24.45302,-23.97167 -36.69329,-45.50903 -36.69329,-64.58459 0,-17.98907 7.83927,-33.35129 23.47656,-45.97664 15.67854,-12.68036 34.1077,-19.02055 55.38376,-19.02055 20.73968,0 37.71102,5.58377 50.87274,16.65502 13.10671,11.16752 19.72196,25.19569 19.72196,42.27705 0,13.64308 -4.73107,25.56702 -14.17945,35.82684 -9.46214,10.25982 -26.91484,21.22105 -52.4406,32.82867 28.799,29.28036 43.19851,53.82966 43.19851,73.75791 0,19.66695 -7.85303,37.17465 -23.58658,52.55062 -15.6923,15.30721 -37.28468,22.9952 -64.62585,22.9952 -26.81856,0 -47.76454,-7.20663 -62.75543,-21.60613 -14.99089,-14.3995 -22.51384,-29.81674 -22.51384,-46.2517 0,-16.06363 7.46794,-31.05452 22.3488,-45.01392 14.89462,-13.91814 35.52428,-25.41574 61.79271,-34.43778"
     inkscape:connector-curvature="0"
     id="path638"
     style="fill:#ffffff;fill-opacity:1;fill-rule:nonzero;stroke:none" />
</svg>
