<?xml version="1.0" encoding="UTF-8" standalone="no"?>
<!-- Created with Inkscape (http://www.inkscape.org/) -->

<svg
   xmlns:dc="http://purl.org/dc/elements/1.1/"
   xmlns:cc="http://creativecommons.org/ns#"
   xmlns:rdf="http://www.w3.org/1999/02/22-rdf-syntax-ns#"
   xmlns:svg="http://www.w3.org/2000/svg"
   xmlns="http://www.w3.org/2000/svg"
   xmlns:inkscape="http://www.inkscape.org/namespaces/inkscape"
   version="1.1"
   width="600"
   height="503.21094"
   id="svg7455">
  <defs
     id="defs7457">
    <linearGradient
       x1="0"
       y1="0"
       x2="1"
       y2="0"
       id="linearGradient668"
       gradientUnits="userSpaceOnUse"
       gradientTransform="matrix(29.487869,-29.487869,-29.487869,-29.487869,203.64258,162.37695)"
       spreadMethod="pad">
      <stop
         id="stop670"
         style="stop-color:#8d742f;stop-opacity:1"
         offset="0" />
      <stop
         id="stop672"
         style="stop-color:#b39a54;stop-opacity:1"
         offset="0.30000299" />
      <stop
         id="stop674"
         style="stop-color:#d7bd74;stop-opacity:1"
         offset="0.5" />
      <stop
         id="stop676"
         style="stop-color:#b39a54;stop-opacity:1"
         offset="0.69999701" />
      <stop
         id="stop678"
         style="stop-color:#8d742f;stop-opacity:1"
         offset="1" />
    </linearGradient>
  </defs>
  <metadata
     id="metadata7460">
    <rdf:RDF>
      <cc:Work
         rdf:about="">
        <dc:format>image/svg+xml</dc:format>
        <dc:type
           rdf:resource="http://purl.org/dc/dcmitype/StillImage" />
        <dc:title />
      </cc:Work>
    </rdf:RDF>
  </metadata>
  <path
     d="m 171.38394,0 c 0,0 -31.70179,3.3421 -31.70179,36.15792 L 22.089835,68.98749 c 0,0 -29.3911998,11.27786 -20.3689098,49.74636 L 98.971825,481.75714 c 0,0 20.355165,27.17688 44.107445,20.35516 l 156.98229,-43.14469 156.87227,43.14469 c 23.69726,6.82172 44.10743,-20.35516 44.10743,-20.35516 L 598.27842,118.73385 C 607.3007,80.26535 577.92325,68.98749 577.92325,68.98749 L 460.31719,36.15792 C 460.31719,3.3421 428.6154,0 428.6154,0 L 171.38394,0 z"
     inkscape:connector-curvature="0"
     id="path662"
     style="fill:#000000;fill-opacity:1;fill-rule:nonzero;stroke:none" />
  <path
     d="m 172.4017,13.54719 c -1.49913,0.26076 -6.01027,1.27907 -10.2601,4.12604 -6.06529,4.02978 -8.85725,9.88876 -8.85725,18.48469 l 0,10.31511 c 0,0 -124.854155,34.81008 -126.628355,35.3052 -3.28708,1.49914 -13.06581,7.41313 -13.06581,23.0371 0,3.17705 0.3851,6.72545 1.34784,10.70021 0.16504,0.70088 94.830295,354.15228 96.384435,359.84622 4.19482,4.7312 16.49044,16.97181 28.04336,13.69848 l 160.64072,-44.21746 160.62698,44.21746 c 11.60794,3.27333 23.8623,-8.96728 28.04336,-13.69848 1.51288,-5.69394 96.23315,-359.14479 96.38443,-359.84622 0.97705,-3.97476 1.40286,-7.52316 1.40286,-10.70021 0,-15.62397 -9.83374,-21.53796 -13.10707,-23.0371 -1.7742,-0.49512 -126.62835,-35.3052 -126.62835,-35.3052 l 0,-10.31511 c 0,-8.59593 -2.79196,-14.45491 -8.81599,-18.48469 -4.29109,-2.84697 -8.81598,-3.86473 -10.31511,-4.12604 l -255.19595,0 z"
     inkscape:connector-curvature="0"
     id="path664"
     style="fill:#000000;fill-opacity:1;fill-rule:nonzero;stroke:none" />
  <g
     transform="matrix(13.753487,0,0,-13.753487,-2703.5761,2266.6433)"
     id="g666">
    <path
       d="m 209.219,162.586 c 0,0 -0.383,-0.164 -0.383,-0.492 l 0,0 0,-27.301 c 0,0 0,-0.551 0.383,-0.551 l 0,0 18.367,0 c 0,0 0.437,0.113 0.437,0.551 l 0,0 0,27.301 c 0,0 -0.054,0.492 -0.437,0.492 l 0,0 -18.367,0 z m 20.035,-27.848 c 0,0 -0.219,-1.644 -1.535,-1.644 l 0,0 -7.125,0 9.535,-2.633 c 0,0 0.551,-0.273 0.824,0.328 l 0,0 7.02,26.043 c 0,0 0.269,0.82 -0.387,1.039 l 0,0 -8.332,2.25 0,-25.383 z m -30.066,23.078 c -0.661,-0.218 -0.383,-1.039 -0.383,-1.039 l 0,0 7.015,-26.039 c 0.274,-0.605 0.821,-0.332 0.821,-0.332 l 0,0 9.539,2.629 -7.125,0 c -1.317,0 -1.535,1.649 -1.535,1.649 l 0,0 0,25.382 -8.332,-2.25 z"
       inkscape:connector-curvature="0"
       id="path680"
       style="fill:url(#linearGradient668);fill-opacity:1;fill-rule:nonzero;stroke:none" />
  </g>
  <path
     d="m 319.45397,197.05996 c 33.25594,-16.9718 49.91141,-36.3092 49.91141,-57.91593 0,-12.07556 -4.30484,-22.01933 -12.95579,-29.76255 -8.59593,-7.78447 -19.06233,-11.6492 -31.3717,-11.6492 -12.88702,0 -23.58723,4.08479 -32.12814,12.2406 -8.54092,8.16957 -12.79075,17.3569 -12.79075,27.50698 0,7.04178 1.99426,13.8085 6.07904,20.3139 4.02978,6.45038 13.64346,18.00331 28.84107,34.49374 l 4.41486,4.77246 z m -21.27664,29.01986 c -22.34942,9.72371 -39.0599,20.30014 -50.18647,31.64677 -11.16783,11.38789 -16.75175,23.79353 -16.75175,37.23069 0,14.3999 5.58392,26.26916 16.80676,35.77282 11.12657,9.40738 24.60499,14.13858 40.40775,14.13858 15.47267,0 28.30467,-4.67618 38.57853,-14.02855 10.2601,-9.35237 15.41765,-20.41018 15.41765,-33.14591 0,-18.59471 -14.78499,-42.49827 -44.27247,-71.6144 m -12.57069,-13.64346 c -24.4537,-23.97233 -36.63928,-45.51029 -36.63928,-64.58638 0,-17.98956 7.78447,-33.3522 23.4772,-45.9779 15.63771,-12.68072 34.10864,-19.02107 55.38529,-19.02107 20.74026,0 37.65704,5.58391 50.81914,16.65547 13.16208,11.16783 19.7225,25.19639 19.7225,42.27822 0,13.64346 -4.7312,25.56773 -14.17985,35.82783 -9.4624,10.2601 -26.91558,21.22163 -52.38703,32.82957 28.7998,29.28118 43.1997,53.83115 43.1997,73.75995 0,19.66749 -7.83949,37.17568 -23.58723,52.55207 -15.74774,15.30764 -37.2857,22.99583 -64.62764,22.99583 -26.86056,0 -47.76586,-7.20682 -62.75716,-21.60672 -15.03256,-14.3999 -22.5007,-29.81756 -22.5007,-46.25298 0,-16.06407 7.41313,-31.05537 22.2944,-45.01516 14.88127,-13.91853 35.5115,-25.41644 61.78066,-34.43873"
     inkscape:connector-curvature="0"
     id="path682"
     style="fill:#000000;fill-opacity:1;fill-rule:nonzero;stroke:none" />
</svg>
