<?xml version="1.0" encoding="UTF-8" standalone="no"?>
<!-- Created with Inkscape (http://www.inkscape.org/) -->

<svg
   xmlns:dc="http://purl.org/dc/elements/1.1/"
   xmlns:cc="http://creativecommons.org/ns#"
   xmlns:rdf="http://www.w3.org/1999/02/22-rdf-syntax-ns#"
   xmlns:svg="http://www.w3.org/2000/svg"
   xmlns="http://www.w3.org/2000/svg"
   xmlns:inkscape="http://www.inkscape.org/namespaces/inkscape"
   version="1.1"
   width="600"
   height="600"
   id="svg5166">
  <defs
     id="defs5168">
    <radialGradient
       cx="0"
       cy="0"
       r="1"
       fx="0"
       fy="0"
       id="radialGradient500"
       gradientUnits="userSpaceOnUse"
       gradientTransform="matrix(19.1427,0,0,-19.142685,483,371.19287)"
       spreadMethod="pad">
      <stop
         id="stop502"
         style="stop-color:#d7bd74;stop-opacity:1"
         offset="0" />
      <stop
         id="stop504"
         style="stop-color:#b39a54;stop-opacity:1"
         offset="0.69101" />
      <stop
         id="stop506"
         style="stop-color:#8d742f;stop-opacity:1"
         offset="1" />
    </radialGradient>
  </defs>
  <metadata
     id="metadata5171">
    <rdf:RDF>
      <cc:Work
         rdf:about="">
        <dc:format>image/svg+xml</dc:format>
        <dc:type
           rdf:resource="http://purl.org/dc/dcmitype/StillImage" />
        <dc:title />
      </cc:Work>
    </rdf:RDF>
  </metadata>
  <path
     d="m 442.05507,470.98534 -284.14546,0 L 129.52097,376.78827 0,99.16596 192.1267,159.97017 299.98234,0 407.83798,159.97017 600,99.16596 470.44371,376.78827 442.05507,470.98534 z"
     inkscape:connector-curvature="0"
     id="path494"
     style="fill:#000000;fill-opacity:1;fill-rule:nonzero;stroke:none" />
  <path
     d="m 333.13971,261.8914 c 0,35.70069 -14.84782,64.67806 -33.15737,64.67806 -18.30956,0 -33.11027,-28.97737 -33.11027,-64.67806 0,-35.68892 14.80071,-64.61919 33.11027,-64.61919 18.30955,0 33.15737,28.93027 33.15737,64.61919 m -180.7053,116.05079 295.09586,0 -20.87642,72.67303 -253.34302,0 -20.87642,-72.67303 z M 200.49846,184.02575 38.090939,132.60592 142.49661,356.37106 l 314.97145,0 L 561.87374,132.60592 399.46622,184.02575 300.02944,36.47781 200.49846,184.02575 z"
     inkscape:connector-curvature="0"
     id="path496"
     style="fill:#8d742f;fill-opacity:1;fill-rule:nonzero;stroke:none" />
  <g
     transform="matrix(11.774634,0,0,-11.774634,-5387.1656,4616.7631)"
     id="g498">
    <path
       d="m 475.012,376.16 -0.231,-0.344 -0.394,0.125 -12.602,3.989 8.192,-17.551 26.05,0 8.188,17.551 -12.602,-3.989 -0.39,-0.125 -0.231,0.344 -7.988,11.852 -7.992,-11.852 z m 4.625,-6.312 c 0,3.386 1.476,6.043 3.363,6.043 l 0,0 c 1.887,0 3.363,-2.657 3.363,-6.043 l 0,0 c 0,-3.387 -1.476,-6.036 -3.363,-6.036 l 0,0 c -1.887,0 -3.363,2.649 -3.363,6.036 m -8.438,-10.403 1.457,-5.07 20.692,0 1.457,5.07 -23.606,0 z"
       inkscape:connector-curvature="0"
       id="path508"
       style="fill:url(#radialGradient500);fill-opacity:1;fill-rule:nonzero;stroke:none" />
  </g>
</svg>
