<?xml version="1.0" encoding="UTF-8" standalone="no"?>
<!-- Created with Inkscape (http://www.inkscape.org/) -->

<svg
   xmlns:dc="http://purl.org/dc/elements/1.1/"
   xmlns:cc="http://creativecommons.org/ns#"
   xmlns:rdf="http://www.w3.org/1999/02/22-rdf-syntax-ns#"
   xmlns:svg="http://www.w3.org/2000/svg"
   xmlns="http://www.w3.org/2000/svg"
   xmlns:sodipodi="http://sodipodi.sourceforge.net/DTD/sodipodi-0.dtd"
   xmlns:inkscape="http://www.inkscape.org/namespaces/inkscape"
   version="1.1"
   width="639"
   height="639"
   id="svg4615"
   sodipodi:docname="fifth dawn uncommon.svg"
   inkscape:version="0.92.2 5c3e80d, 2017-08-06">
  <sodipodi:namedview
     pagecolor="#ffffff"
     bordercolor="#666666"
     borderopacity="1"
     objecttolerance="10"
     gridtolerance="10"
     guidetolerance="10"
     inkscape:pageopacity="0"
     inkscape:pageshadow="2"
     inkscape:window-width="952"
     inkscape:window-height="688"
     id="namedview14"
     showgrid="false"
     inkscape:zoom="0.36932707"
     inkscape:cx="319.5"
     inkscape:cy="319.5"
     inkscape:window-x="0"
     inkscape:window-y="0"
     inkscape:window-maximized="0"
     inkscape:current-layer="svg4615" />
  <defs
     id="defs4617">
    <linearGradient
       x1="0"
       y1="0"
       x2="1"
       y2="0"
       id="linearGradient530"
       gradientUnits="userSpaceOnUse"
       gradientTransform="matrix(33.639267,-5.931503,-5.931503,-33.639267,648.02637,485.66211)"
       spreadMethod="pad">
      <stop
         id="stop532"
         style="stop-color:#626e77;stop-opacity:1"
         offset="0" />
      <stop
         id="stop534"
         style="stop-color:#a0b6c2;stop-opacity:1"
         offset="0.30000299" />
      <stop
         id="stop536"
         style="stop-color:#b7d1e1;stop-opacity:1"
         offset="0.5" />
      <stop
         id="stop538"
         style="stop-color:#a0b6c2;stop-opacity:1"
         offset="0.69999701" />
      <stop
         id="stop540"
         style="stop-color:#626e77;stop-opacity:1"
         offset="1" />
    </linearGradient>
  </defs>
  <metadata
     id="metadata4620">
    <rdf:RDF>
      <cc:Work
         rdf:about="">
        <dc:format>image/svg+xml</dc:format>
        <dc:type
           rdf:resource="http://purl.org/dc/dcmitype/StillImage" />
        <dc:title />
      </cc:Work>
    </rdf:RDF>
  </metadata>
  <path
     d="m 287.48229,67.72342 c -4.87737,16.35916 -10.93809,39.16284 -15.1758,67.8993 -18.3101,2.86246 -47.41437,8.23555 -76.7745,17.54252 l -49.90903,-39.29076 c 0,0 15.1758,64.02939 8.92318,110.94803 -3.31021,24.67466 -10.74619,54.72242 -41.72145,56.09768 l -1.99892,0.064 c -30.415563,0 -33.549869,-41.48158 -33.91767,-46.16705 C 69.040353,131.68888 26.743215,126.44372 26.743215,126.44372 c 0,0 29.104268,36.90805 5.005294,99.43425 -4.445597,11.43382 -13.128904,28.73647 -11.561751,57.66483 1.119395,19.54144 11.050027,37.29185 19.557429,50.59666 6.428525,10.12252 13.544679,18.54997 20.420963,26.67358 10.362399,12.29735 19.301567,22.91561 23.555268,36.47628 8.059644,25.98596 13.736572,54.46656 16.854892,84.77019 1.99892,19.2376 2.94241,37.72361 2.81448,54.89832 -0.12793,18.24614 -1.31129,34.7972 -3.67801,49.04549 l -3.75797,22.61175 22.43587,4.55754 103.00033,21.17255 27.10535,5.24517 1.37526,-27.60108 c 0.31982,-5.56499 2.51064,-23.74717 18.80583,-24.8026 l 22.18001,-1.50318 v -22.22799 c 0,-3.93387 -0.31982,-98.33085 -24.86656,-174.97742 l -4.12577,-12.12145 -12.23338,-3.48612 c -3.69401,-1.07206 -29.67996,-9.37093 -41.97732,-37.1799 22.10006,4.8134 51.09239,10.93809 76.07089,15.87941 l 22.30794,81.82778 h 27.92091 L 356.37305,351.57 c 24.93053,-4.94132 53.92286,-11.06601 76.02291,-15.87941 -12.36132,27.80897 -38.28331,36.10848 -41.97731,37.1799 l -12.23339,3.48612 -4.12577,12.12145 c -24.6107,76.64657 -24.93052,171.04355 -24.93052,174.97742 v 22.22799 l 22.18001,1.50318 c 16.35916,1.05543 18.48601,19.23761 18.8698,24.8026 l 1.31129,27.60108 27.16932,-5.24517 103.00032,-21.17255 22.43588,-4.55754 -3.75797,-22.61178 c -2.36672,-14.2483 -3.61405,-30.79935 -3.74198,-49.04549 -0.064,-17.17471 0.88017,-35.66072 2.87845,-54.89832 3.11831,-30.30363 8.79524,-58.78423 16.85489,-84.77019 4.2537,-13.56067 13.19286,-24.17893 23.55526,-36.47628 6.87629,-8.12361 13.99244,-16.55106 20.42097,-26.67358 8.5074,-13.30481 18.43803,-31.05522 19.49346,-50.59666 1.63112,-28.92836 -7.05219,-46.23101 -11.49779,-57.66483 -24.09897,-62.5262 4.94133,-99.43425 4.94133,-99.43425 0,0 -42.23317,5.24516 -50.16488,108.37342 -0.36844,4.68547 -3.43814,46.16705 -33.8537,46.16705 l -1.99892,-0.064 c -31.03923,-1.37526 -38.41124,-31.42302 -41.72145,-56.09768 -6.25262,-46.91864 8.92317,-110.94803 8.92317,-110.94803 l -49.90902,39.29076 C 415.15728,143.85824 385.98904,138.48515 367.74291,135.62269 363.44123,106.88623 357.44447,84.08255 352.50314,67.72339 339.88596,25.55419 320.08866,0 320.08866,0 c 0,0 -19.98919,25.55419 -32.60637,67.72339"
     inkscape:connector-curvature="0"
     id="path526"
     style="fill:#000000;fill-opacity:1;fill-rule:nonzero;stroke:none" />
  <g
     transform="matrix(15.991357,0,0,-15.991357,-10322.223,8055.1498)"
     id="g528">
    <path
       d="m 663.844,493.914 c 0,0 -3.625,-0.375 -6.758,-1.566 v 0 c 0,0 -0.449,0.328 -0.637,0.886 v 0 c 0,0 0.321,-1.882 0.184,-3.687 v 0 c -0.164,-2.121 -1.117,-4.746 -4.02,-4.879 v 0 c -3.593,-0.168 -3.801,4.293 -3.801,4.293 v 0 c 0,0 -0.66,-1.402 -0.574,-2.891 v 0 c 0.047,-0.867 0.532,-1.73 0.989,-2.445 v 0 c 0.964,-1.512 2.359,-2.527 2.914,-4.305 v 0 c 0.562,-1.82 0.921,-3.703 1.117,-5.593 v 0 c 0.121,-1.192 0.187,-2.395 0.183,-3.594 v 0 c -0.007,-1.176 -0.082,-2.301 -0.25,-3.301 v 0 l 6.442,-1.32 c 0,0 0.082,2.804 2.558,2.972 v 0 c 0,0 0,5.86 -1.488,10.485 v 0 c 0,0 -4.047,1.074 -4.129,5.699 v 0 c 0,0 4.789,-1.074 7.848,-1.652 v 0 l 1.07,-3.965 1.086,3.965 c 3.055,0.578 7.848,1.652 7.848,1.652 v 0 c -0.082,-4.625 -4.129,-5.699 -4.129,-5.699 v 0 c -1.488,-4.625 -1.488,-10.485 -1.488,-10.485 v 0 c 2.476,-0.168 2.558,-2.972 2.558,-2.972 v 0 l 6.442,1.32 c -0.164,1 -0.247,2.125 -0.25,3.301 v 0 c -0.008,1.199 0.062,2.402 0.183,3.594 v 0 c 0.196,1.89 0.551,3.773 1.117,5.593 v 0 c 0.551,1.778 1.95,2.793 2.914,4.305 v 0 c 0.457,0.715 0.942,1.578 0.989,2.445 v 0 c 0.086,1.489 -0.574,2.891 -0.574,2.891 v 0 c 0,0 -0.208,-4.461 -3.801,-4.293 v 0 c -2.903,0.133 -3.856,2.758 -4.02,4.879 v 0 c -0.14,1.805 0.18,3.687 0.18,3.687 v 0 c -0.188,-0.558 -0.633,-0.886 -0.633,-0.886 v 0 c -3.133,1.191 -6.758,1.566 -6.758,1.566 v 0 c -0.468,4.371 -1.664,6.774 -1.664,6.774 v 0 c 0,0 -1.152,-2.399 -1.648,-6.774"
       inkscape:connector-curvature="0"
       id="path542"
       style="fill:url(#linearGradient530);fill-opacity:1;fill-rule:nonzero;stroke:none" />
  </g>
</svg>
