<?xml version="1.0" encoding="UTF-8" standalone="no"?>
<!-- Created with Inkscape (http://www.inkscape.org/) -->

<svg
   xmlns:dc="http://purl.org/dc/elements/1.1/"
   xmlns:cc="http://creativecommons.org/ns#"
   xmlns:rdf="http://www.w3.org/1999/02/22-rdf-syntax-ns#"
   xmlns:svg="http://www.w3.org/2000/svg"
   xmlns="http://www.w3.org/2000/svg"
   xmlns:inkscape="http://www.inkscape.org/namespaces/inkscape"
   version="1.1"
   width="600"
   height="639.59033"
   id="svg4684">
  <defs
     id="defs4686">
    <linearGradient
       x1="0"
       y1="0"
       x2="1"
       y2="0"
       id="linearGradient548"
       gradientUnits="userSpaceOnUse"
       gradientTransform="matrix(33.639267,-5.931503,-5.931503,-33.639267,730.52637,485.66162)"
       spreadMethod="pad">
      <stop
         id="stop550"
         style="stop-color:#8d742f;stop-opacity:1"
         offset="0" />
      <stop
         id="stop552"
         style="stop-color:#b39a54;stop-opacity:1"
         offset="0.30000299" />
      <stop
         id="stop554"
         style="stop-color:#d7bd74;stop-opacity:1"
         offset="0.5" />
      <stop
         id="stop556"
         style="stop-color:#b39a54;stop-opacity:1"
         offset="0.69999701" />
      <stop
         id="stop558"
         style="stop-color:#8d742f;stop-opacity:1"
         offset="1" />
    </linearGradient>
  </defs>
  <metadata
     id="metadata4689">
    <rdf:RDF>
      <cc:Work
         rdf:about="">
        <dc:format>image/svg+xml</dc:format>
        <dc:type
           rdf:resource="http://purl.org/dc/dcmitype/StillImage" />
        <dc:title />
      </cc:Work>
    </rdf:RDF>
  </metadata>
  <path
     d="m 267.48229,67.72342 c -4.87737,16.35916 -10.93809,39.16284 -15.1758,67.8993 -18.3101,2.86246 -47.41437,8.23555 -76.7745,17.54252 l -49.90903,-39.29076 c 0,0 15.1758,64.02939 8.92318,110.94803 -3.31021,24.67466 -10.74619,54.72242 -41.721453,56.09768 l -1.998919,0.064 c -30.415561,0 -33.549867,-41.48158 -33.917668,-46.16705 C 49.040353,131.68888 6.7432145,126.44372 6.7432145,126.44372 c 0,0 29.1042685,36.90805 5.0052945,99.43425 -4.445597,11.43382 -13.1289037,28.73647 -11.56175081,57.66483 1.11939501,19.54144 11.05002681,37.29185 19.55742881,50.59666 6.428525,10.12252 13.544679,18.54997 20.420963,26.67358 10.362399,12.29735 19.301567,22.91561 23.555268,36.47628 8.059644,25.98596 13.736575,54.46656 16.85489,84.77019 1.99892,19.2376 2.94241,37.72361 2.814479,54.89832 -0.127931,18.24614 -1.311292,34.7972 -3.678012,49.04549 l -3.757969,22.61175 22.435873,4.55754 103.000331,21.17255 27.10535,5.24517 1.37526,-27.60108 c 0.31982,-5.56499 2.51064,-23.74717 18.80583,-24.8026 l 22.18001,-1.50318 0,-22.22799 c 0,-3.93387 -0.31982,-98.33085 -24.86656,-174.97742 l -4.12577,-12.12145 -12.23338,-3.48612 c -3.69401,-1.07206 -29.67996,-9.37093 -41.97732,-37.1799 22.10006,4.8134 51.09239,10.93809 76.07089,15.87941 l 22.30794,81.82778 27.92091,0 22.41988,-81.82778 c 24.93053,-4.94132 53.92286,-11.06601 76.02291,-15.87941 -12.36132,27.80897 -38.28331,36.10848 -41.97731,37.1799 l -12.23339,3.48612 -4.12577,12.12145 c -24.6107,76.64657 -24.93052,171.04355 -24.93052,174.97742 l 0,22.22799 22.18001,1.50318 c 16.35916,1.05543 18.48601,19.23761 18.8698,24.8026 l 1.31129,27.60108 27.16932,-5.24517 103.00032,-21.17255 22.43588,-4.55754 -3.75797,-22.61178 c -2.36672,-14.2483 -3.61405,-30.79935 -3.74198,-49.04549 -0.064,-17.17471 0.88017,-35.66072 2.87845,-54.89832 3.11831,-30.30363 8.79524,-58.78423 16.85489,-84.77019 4.2537,-13.56067 13.19286,-24.17893 23.55526,-36.47628 6.87629,-8.12361 13.99244,-16.55106 20.42097,-26.67358 8.5074,-13.30481 18.43803,-31.05522 19.49346,-50.59666 1.63112,-28.92836 -7.05219,-46.23101 -11.49779,-57.66483 -24.09897,-62.5262 4.94133,-99.43425 4.94133,-99.43425 0,0 -42.23317,5.24516 -50.16488,108.37342 -0.36844,4.68547 -3.43814,46.16705 -33.8537,46.16705 l -1.99892,-0.064 c -31.03923,-1.37526 -38.41124,-31.42302 -41.72145,-56.09768 -6.25262,-46.91864 8.92317,-110.94803 8.92317,-110.94803 l -49.90902,39.29076 C 395.15728,143.85824 365.98904,138.48515 347.74291,135.62269 343.44123,106.88623 337.44447,84.08255 332.50314,67.72339 319.88596,25.55419 300.08866,0 300.08866,0 c 0,0 -19.98919,25.55419 -32.60637,67.72339"
     inkscape:connector-curvature="0"
     id="path544"
     style="fill:#000000;fill-opacity:1;fill-rule:nonzero;stroke:none" />
  <g
     transform="matrix(15.991357,0,0,-15.991357,-11661.51,8055.1498)"
     id="g546">
    <path
       d="m 746.344,493.914 c 0,0 -3.625,-0.375 -6.758,-1.566 l 0,0 c 0,0 -0.449,0.328 -0.637,0.886 l 0,0 c 0,0 0.324,-1.882 0.184,-3.687 l 0,0 c -0.164,-2.121 -1.121,-4.746 -4.024,-4.879 l 0,0 c -3.589,-0.168 -3.797,4.293 -3.797,4.293 l 0,0 c 0,0 -0.66,-1.402 -0.578,-2.891 l 0,0 c 0.051,-0.867 0.536,-1.73 0.989,-2.445 l 0,0 c 0.968,-1.512 2.363,-2.527 2.918,-4.305 l 0,0 c 0.566,-1.82 0.918,-3.703 1.113,-5.593 l 0,0 c 0.125,-1.192 0.191,-2.395 0.187,-3.594 l 0,0 c -0.007,-1.176 -0.086,-2.301 -0.25,-3.301 l 0,0 6.442,-1.32 c 0,0 0.082,2.804 2.558,2.972 l 0,0 c 0,0 0,5.86 -1.488,10.485 l 0,0 c 0,0 -4.047,1.074 -4.129,5.699 l 0,0 c 0,0 4.789,-1.074 7.848,-1.652 l 0,0 1.07,-3.965 1.086,3.965 c 3.055,0.578 7.844,1.652 7.844,1.652 l 0,0 c -0.082,-4.625 -4.125,-5.699 -4.125,-5.699 l 0,0 c -1.488,-4.625 -1.488,-10.485 -1.488,-10.485 l 0,0 c 2.476,-0.168 2.558,-2.972 2.558,-2.972 l 0,0 6.442,1.32 c -0.164,1 -0.247,2.125 -0.254,3.301 l 0,0 c -0.004,1.199 0.066,2.402 0.187,3.594 l 0,0 c 0.196,1.89 0.551,3.773 1.117,5.593 l 0,0 c 0.551,1.778 1.95,2.793 2.918,4.305 l 0,0 c 0.453,0.715 0.938,1.578 0.989,2.445 l 0,0 c 0.082,1.489 -0.578,2.891 -0.578,2.891 l 0,0 c 0,0 -0.208,-4.461 -3.801,-4.293 l 0,0 c -2.903,0.133 -3.856,2.758 -4.02,4.879 l 0,0 c -0.14,1.805 0.18,3.687 0.18,3.687 l 0,0 c -0.188,-0.558 -0.633,-0.886 -0.633,-0.886 l 0,0 c -3.133,1.191 -6.758,1.566 -6.758,1.566 l 0,0 c -0.472,4.371 -1.664,6.774 -1.664,6.774 l 0,0 c 0,0 -1.152,-2.399 -1.648,-6.774"
       inkscape:connector-curvature="0"
       id="path560"
       style="fill:url(#linearGradient548);fill-opacity:1;fill-rule:nonzero;stroke:none" />
  </g>
</svg>
