<?xml version="1.0" encoding="UTF-8" standalone="no"?>
<!-- Created with Inkscape (http://www.inkscape.org/) -->

<svg
   xmlns:dc="http://purl.org/dc/elements/1.1/"
   xmlns:cc="http://creativecommons.org/ns#"
   xmlns:rdf="http://www.w3.org/1999/02/22-rdf-syntax-ns#"
   xmlns:svg="http://www.w3.org/2000/svg"
   xmlns="http://www.w3.org/2000/svg"
   xmlns:xlink="http://www.w3.org/1999/xlink"
   xmlns:inkscape="http://www.inkscape.org/namespaces/inkscape"
   version="1.1"
   width="600"
   height="451.99985"
   id="svg2"
   xml:space="preserve"><metadata
     id="metadata8"><rdf:RDF><cc:Work
         rdf:about=""><dc:format>image/svg+xml</dc:format><dc:type
           rdf:resource="http://purl.org/dc/dcmitype/StillImage" /><dc:title /></cc:Work></rdf:RDF></metadata><defs
     id="defs6"><clipPath
       id="clipPath16"><path
         d="M 0,226 300,226 300,0 0,0 0,226 z"
         inkscape:connector-curvature="0"
         id="path18" /></clipPath><linearGradient
       x1="0"
       y1="0"
       x2="1"
       y2="0"
       id="linearGradient36"
       gradientUnits="userSpaceOnUse"
       gradientTransform="matrix(152.77832,0,0,-152.77832,10.84082,123.05859)"
       spreadMethod="pad"><stop
         id="stop38"
         style="stop-color:#bf331c;stop-opacity:1"
         offset="0" /><stop
         id="stop40"
         style="stop-color:#f6971d;stop-opacity:1"
         offset="0.630005" /><stop
         id="stop42"
         style="stop-color:#bf331c;stop-opacity:1"
         offset="1" /></linearGradient><clipPath
       id="clipPath50"><path
         d="M 0,226 300,226 300,0 0,0 0,226 z"
         inkscape:connector-curvature="0"
         id="path52" /></clipPath><linearGradient
       x1="0"
       y1="0"
       x2="1"
       y2="0"
       id="linearGradient70"
       gradientUnits="userSpaceOnUse"
       gradientTransform="matrix(238.74805,0,0,-238.74805,50.269531,107.14453)"
       spreadMethod="pad"><stop
         id="stop72"
         style="stop-color:#bf331c;stop-opacity:1"
         offset="0" /><stop
         id="stop74"
         style="stop-color:#f6971d;stop-opacity:1"
         offset="0.630005" /><stop
         id="stop76"
         style="stop-color:#bf331c;stop-opacity:1"
         offset="1" /></linearGradient><clipPath
       id="clipPath84"><path
         d="M 0,226 300,226 300,0 0,0 0,226 z"
         inkscape:connector-curvature="0"
         id="path86" /></clipPath><linearGradient
       x1="0"
       y1="0"
       x2="1"
       y2="0"
       id="linearGradient3086"
       xlink:href="#linearGradient70"
       gradientUnits="userSpaceOnUse"
       gradientTransform="matrix(238.74805,0,0,-238.74805,50.269531,107.14453)"
       spreadMethod="pad" /><linearGradient
       x1="0"
       y1="0"
       x2="1"
       y2="0"
       id="linearGradient3093"
       xlink:href="#linearGradient36"
       gradientUnits="userSpaceOnUse"
       gradientTransform="matrix(152.77832,0,0,-152.77832,10.84082,123.05859)"
       spreadMethod="pad" /><linearGradient
       x1="0"
       y1="0"
       x2="1"
       y2="0"
       id="linearGradient3101"
       xlink:href="#linearGradient36"
       gradientUnits="userSpaceOnUse"
       gradientTransform="matrix(152.77832,0,0,-152.77832,10.84082,123.05859)"
       spreadMethod="pad" /><linearGradient
       x1="0"
       y1="0"
       x2="1"
       y2="0"
       id="linearGradient3106"
       xlink:href="#linearGradient70"
       gradientUnits="userSpaceOnUse"
       gradientTransform="matrix(238.74805,0,0,-238.74805,50.269531,107.14453)"
       spreadMethod="pad" /><linearGradient
       x1="0"
       y1="0"
       x2="1"
       y2="0"
       id="linearGradient3111"
       xlink:href="#linearGradient70"
       gradientUnits="userSpaceOnUse"
       gradientTransform="matrix(238.74805,0,0,-238.74805,50.269531,107.14453)"
       spreadMethod="pad" /><linearGradient
       x1="0"
       y1="0"
       x2="1"
       y2="0"
       id="linearGradient3114"
       xlink:href="#linearGradient70"
       gradientUnits="userSpaceOnUse"
       gradientTransform="matrix(238.74805,0,0,-238.74805,50.269531,107.14453)"
       spreadMethod="pad" /><linearGradient
       x1="0"
       y1="0"
       x2="1"
       y2="0"
       id="linearGradient3116"
       xlink:href="#linearGradient36"
       gradientUnits="userSpaceOnUse"
       gradientTransform="matrix(152.77832,0,0,-152.77832,10.84082,123.05859)"
       spreadMethod="pad" /><linearGradient
       x1="0"
       y1="0"
       x2="1"
       y2="0"
       id="linearGradient3119"
       xlink:href="#linearGradient36"
       gradientUnits="userSpaceOnUse"
       gradientTransform="matrix(152.77832,0,0,-152.77832,10.84082,123.05859)"
       spreadMethod="pad" /></defs><g
     transform="matrix(1.9999993,0,0,-1.9999993,-3.9999986e-4,452.00044)"
     id="g10"><path
       d="m 125.8672,170.3223 c 18.57,0 35.464,-7.159 48.096,-18.856 1.992,-2.067 3.611,-4.61 4.661,-7.543 1.813,-5.082 1.574,-10.357 -0.269,-14.791 -10.351,18.294 -29.972,30.649 -52.488,30.649 -33.293,0 -60.283,-26.993 -60.283,-60.294 0,-13.983 4.771,-26.844 12.759,-37.072 -3.21,-1.524 -6.301,-3.288 -9.251,-5.277 -8.822,11.815 -14.046,26.471 -14.046,42.349 0,39.121 31.708,70.835 70.821,70.835 m 1.031,55.678 c -70.084,0 -126.898,-56.825 -126.898,-126.923 0,-37.541 16.299,-73.638 42.199,-99.077 l 257.667,0 c 4.529,189.939 -106.721,226 -172.968,226"
       inkscape:connector-curvature="0"
       id="path22"
       style="fill:#ffffff;fill-opacity:1;fill-rule:nonzero;stroke:none" /><path
       d="m 10.84,99.077 c 0,-25.452 8.197,-48.985 22.084,-68.117 l 0,0 c 4.921,11.45 12.369,21.55 21.629,29.626 l 0,0 C 48.616,71.907 45.24,84.784 45.24,98.455 l 0,0 c 0,45.107 36.561,81.675 81.66,81.675 l 0,0 c 12.854,0 25.009,-2.981 35.826,-8.272 l 0,0 c 0.576,3.374 0.893,6.847 0.893,10.401 l 0,0 c 0,10.655 -2.718,20.625 -7.439,29.169 l 0,0 c -9.354,2.432 -19.167,3.729 -29.281,3.729 l 0,0 C 62.802,215.157 10.84,163.186 10.84,99.077"
       inkscape:connector-curvature="0"
       id="path44"
       style="fill:url(#linearGradient3119);stroke:none" /><path
       d="m 126.9004,180.1294 c 12.854,0 25.009,-2.98 35.826,-8.272 0.576,3.375 0.893,6.848 0.893,10.402 0,10.655 -2.718,20.625 -7.44,29.168 -9.353,2.432 -19.166,3.729 -29.28,3.729 -64.098,0 -116.059,-51.97 -116.059,-116.079 0,-25.452 8.197,-48.986 22.083,-68.117 4.921,11.45 12.37,21.55 21.629,29.626 -5.936,11.321 -9.312,24.197 -9.312,37.868 0,45.107 36.56,81.675 81.66,81.675 z"
       inkscape:connector-curvature="0"
       id="path56"
       style="fill:none;stroke:#000000;stroke-width:7;stroke-linecap:butt;stroke-linejoin:miter;stroke-miterlimit:4;stroke-opacity:1;stroke-dasharray:none" /><path
       d="m 189.481,182.259 c 0,-9.488 -2.161,-18.428 -5.967,-26.307 l 0,0 c 1.869,-2.488 3.431,-5.3 4.589,-8.395 l 0,0 c 5.987,-16.016 -1.059,-33.453 -15.738,-38.979 l 0,0 c -3.887,22.912 -23.815,40.365 -47.83,40.365 l 0,0 c -26.8,0 -48.527,-21.731 -48.527,-48.536 l 0,0 c 0,-18.432 10.272,-34.464 25.402,-42.685 l 0,0 C 76.319,54.673 55.556,35.889 50.27,10.84 l 0,0 238.748,0 c -1.176,106.671 -33.89,165.491 -103.325,192.608 l 0,0 c 2.436,-6.557 3.788,-13.701 3.788,-21.189"
       inkscape:connector-curvature="0"
       id="path78"
       style="fill:url(#linearGradient3114);stroke:none" /><path
       d="m 185.6934,203.4478 c 2.436,-6.556 3.787,-13.701 3.787,-21.188 0,-9.489 -2.161,-18.429 -5.966,-26.308 1.868,-2.488 3.431,-5.3 4.588,-8.395 5.988,-16.015 -1.058,-33.453 -15.737,-38.979 -3.887,22.912 -23.815,40.365 -47.83,40.365 -26.801,0 -48.528,-21.73 -48.528,-48.536 0,-18.432 10.273,-34.463 25.403,-42.684 -25.091,-3.05 -45.855,-21.833 -51.141,-46.882 l 238.748,0 c -1.175,106.67 -33.889,165.49 -103.324,192.607 z"
       inkscape:connector-curvature="0"
       id="path90"
       style="fill:none;stroke:#000000;stroke-width:7;stroke-linecap:butt;stroke-linejoin:miter;stroke-miterlimit:4;stroke-opacity:1;stroke-dasharray:none" /></g></svg>