<?xml version="1.0" encoding="UTF-8" standalone="no"?>
<svg
   xmlns="http://www.w3.org/2000/svg"
   xmlns:xlink="http://www.w3.org/1999/xlink"
   version="1.1"
   id="Layer_1"
   x="0px"
   y="0px"
   width="88.135px"
   height="50px"
   viewBox="0 0 88.135 50"
>
         <defs
   showguides="false" />
<g
   id="g43">
	<defs
   id="defs3">
		<rect
   id="SVGID_78_"
   x="-90.268"
   y="-116.54"
   width="300"
   height="160" />
	</defs>
	<g
   id="g41">
		<defs
   id="defs9">
			<path
   id="SVGID_80_"
   d="M-260.513-116.54l-130.377,0.018c0,0-19.359,39.578-19.378,79.969     c0.021,40.411,19.393,79.979,19.393,79.979l260.664,0.034c0,0,19.959-39.756,19.943-79.997     c-0.001-40.28-19.909-79.985-19.909-79.985L-260.513-116.54" />
		</defs>
		<clipPath
   id="SVGID_3_">
			<use
   xlink:href="#SVGID_80_"
   overflow="visible"
   id="use11" />
		</clipPath>
		<g
   clip-path="url(#SVGID_3_)"
   id="g39">
			<defs
   id="defs15">
				<polygon
   id="SVGID_82_"
   points="-508.057,-97.988 -189.729,-281.483 -12.493,24.979 -330.819,208.474     " />
			</defs>
			<clipPath
   id="SVGID_5_">
				<use
   xlink:href="#SVGID_82_"
   overflow="visible"
   id="use17" />
			</clipPath>
			<polygon
   clip-path="url(#SVGID_5_)"
   fill="url(#SVGID_6_)"
   points="-384.155,423.066 199.671,85.975 -136.394,-496.075      -720.22,-158.983    "
   id="polygon37" />
		</g>
	</g>
</g>
<g
   id="g54">
	
		<path
   id="path5289"
   
   d="   M31.706,37.651L19.502,25.261l-4.438-0.027c-3.902-0.024-4.781-0.134-7.28-0.903c-1.563-0.481-3.955-1.401-5.314-2.045L0,21.115   l7.799-3.646c4.29-2.005,7.863-3.747,7.941-3.872c0.077-0.124-0.549-0.575-1.392-1.003C10.446,10.617,2.598,3.96,1.791,1.942   C0.95-0.158,1.105-0.469,2.465,0.598C3.119,1.11,4.002,1.712,4.427,1.936c1.402,0.736,5.945,0.738,13.808,0.007   c4.819-0.447,8.954-0.659,11.282-0.578c3.297,0.116,3.865,0.226,5.532,1.065c1.022,0.514,2.15,1.338,2.506,1.83   c1.401,1.938,0.504,6.245-2.649,12.724l-1.538,3.159l5.225,5.637c2.873,3.101,5.336,5.638,5.475,5.638s2.599-2.534,5.469-5.631   l5.218-5.631l-2-3.321c-2.211-3.672-3.838-7.473-4.14-9.674c-0.376-2.746,1.373-4.966,4.646-5.896   c2.143-0.608,9.15-0.446,15.848,0.366c3.225,0.392,7.575,0.723,9.667,0.736c3.901,0.025,4.87-0.2,6.735-1.568   c0.707-0.518,0.714-0.512,0.714,0.7c0,1.104-0.224,1.438-2.277,3.411c-2.681,2.577-7.951,6.564-10.146,7.677   c-0.852,0.432-1.484,0.887-1.407,1.011c0.078,0.125,3.651,1.867,7.94,3.872l7.799,3.646l-2.471,1.17   c-1.36,0.644-3.751,1.563-5.314,2.045c-2.498,0.77-3.38,0.879-7.28,0.904l-4.438,0.028L56.429,37.61   C49.718,44.402,44.155,49.978,44.067,50C39.095,45.147,35.691,41.696,31.706,37.651L31.706,37.651z" />
	<linearGradient
   id="path5291_1_"
   gradientUnits="userSpaceOnUse"
   x1="20.791"
   y1="-9.4531"
   x2="67.0506"
   y2="36.8064">
	  <stop  style="stop-color:#bf331c" offset="0" />
      <stop  style="stop-color:#d3641c" offset="0.30000299" />
      <stop  style="stop-color:#f6b91d" offset="0.5" />
      <stop  style="stop-color:#d3641c" offset="0.69999701" />
      <stop  style="stop-color:#bf331c" offset="1" />
	</linearGradient>
	
		<path
   id="path5291"
   fill="url(#path5291_1_)"
   d="   M47.406,44.016c1.727-1.787,7.191-7.347,12.143-12.354l9.004-9.107l1.571,0.514c1.917,0.628,5.269,0.437,8.82-0.502   c5.156-1.362,5.586-0.857-5.014-5.889l-9.35-4.438l3.293-0.158c3.083-0.148,3.435-0.236,5.491-1.372   c2.481-1.371,5.202-3.403,6.82-5.094l1.092-1.142h-2.209c-1.215,0-5.344-0.365-9.175-0.813c-7.82-0.912-14.158-1.103-16.288-0.489   c-1.786,0.515-3.199,1.896-3.199,3.13c0,2.044,2.044,6.622,4.97,11.128c0.948,1.46,1.659,2.815,1.58,3.012   C56.75,20.955,44.352,34.27,44.081,34.27c-0.199,0-8.541-8.855-11.816-12.543l-1.185-1.333l2.027-4.235   c2.05-4.283,3.353-7.925,3.353-9.372c0-0.471-0.42-1.211-1.037-1.828c-1.917-1.916-6.281-2.153-17.573-0.955   c-2.404,0.256-5.859,0.466-7.679,0.468L6.863,4.474l0.931,0.98c1.571,1.654,5.896,4.774,7.967,5.748   c1.81,0.851,2.2,0.915,4.963,0.821c1.649-0.055,2.95-0.024,2.892,0.069c-0.059,0.094-4.316,2.162-9.462,4.597l-9.356,4.426   l1.833,0.689c4.186,1.575,9.229,2.104,11.71,1.229l1.297-0.458l12.112,12.345c6.661,6.789,12.203,12.344,12.313,12.344   C44.175,47.265,45.679,45.803,47.406,44.016L47.406,44.016z" />
</g>
</svg>