<?xml version="1.0" encoding="UTF-8" standalone="no"?>
<!-- Created with Inkscape (http://www.inkscape.org/) -->

<svg
   xmlns:dc="http://purl.org/dc/elements/1.1/"
   xmlns:cc="http://creativecommons.org/ns#"
   xmlns:rdf="http://www.w3.org/1999/02/22-rdf-syntax-ns#"
   xmlns:svg="http://www.w3.org/2000/svg"
   xmlns="http://www.w3.org/2000/svg"
   xmlns:xlink="http://www.w3.org/1999/xlink"
   xmlns:sodipodi="http://sodipodi.sourceforge.net/DTD/sodipodi-0.dtd"
   xmlns:inkscape="http://www.inkscape.org/namespaces/inkscape"
   version="1.1"
   width="784"
   height="784"
   id="svg4530"
   sodipodi:docname="from the vault relics mythic.svg"
   inkscape:version="0.92.2 5c3e80d, 2017-08-06">
  
  <defs
     id="defs4532">
    <linearGradient
       x1="0"
       y1="0"
       x2="1"
       y2="0"
       id="linearGradient402"
       gradientUnits="userSpaceOnUse"
       gradientTransform="matrix(21.07,0,0,-21.07,749.63,419.86)"
       spreadMethod="pad">
      <stop
         id="stop404"
         style="stop-color:#bb2c26;stop-opacity:1"
         offset="0" />
      <stop
         id="stop406"
         style="stop-color:#e07823;stop-opacity:1"
         offset="0.35" />
      <stop
         id="stop408"
         style="stop-color:#f7981d;stop-opacity:1"
         offset="0.5" />
      <stop
         id="stop410"
         style="stop-color:#e07823;stop-opacity:1"
         offset="0.64" />
      <stop
         id="stop412"
         style="stop-color:#bb2c26;stop-opacity:1"
         offset="1" />
    </linearGradient>
    <radialGradient
       cx="0"
       cy="0"
       r="1"
       fx="0"
       fy="0"
       id="radialGradient390"
       gradientUnits="userSpaceOnUse"
       gradientTransform="matrix(13.84,0,0,-13.84,760.04,439.05)"
       spreadMethod="pad">
      <stop
         id="stop392"
         style="stop-color:#f7981d;stop-opacity:1"
         offset="0" />
      <stop
         id="stop394"
         style="stop-color:#e07823;stop-opacity:1"
         offset="0.55" />
      <stop
         id="stop396"
         style="stop-color:#bb2c26;stop-opacity:1"
         offset="1" />
    </radialGradient>
    <linearGradient
       x1="0"
       y1="0"
       x2="1"
       y2="0"
       id="linearGradient3005"
       xlink:href="#linearGradient402"
       gradientUnits="userSpaceOnUse"
       gradientTransform="matrix(21.07,0,0,-21.07,749.63,419.86)"
       spreadMethod="pad" />
    <linearGradient
       x1="0"
       y1="0"
       x2="1"
       y2="0"
       id="linearGradient3008"
       xlink:href="#linearGradient402"
       gradientUnits="userSpaceOnUse"
       gradientTransform="matrix(413.46,0,0,413.46,185.92,676.44)"
       spreadMethod="pad" />
    <radialGradient
       cx="0"
       cy="0"
       r="1"
       fx="0"
       fy="0"
       id="radialGradient3010"
       xlink:href="#radialGradient390"
       gradientUnits="userSpaceOnUse"
       gradientTransform="matrix(13.84,0,0,-13.84,760.04,439.05)"
       spreadMethod="pad" />
    <radialGradient
       cx="0"
       cy="0"
       r="1"
       fx="0"
       fy="0"
       id="radialGradient3013"
       xlink:href="#radialGradient390"
       gradientUnits="userSpaceOnUse"
       gradientTransform="matrix(271.52,0,0,271.52,390.02,299.97)"
       spreadMethod="pad" />
  </defs>
  <metadata
     id="metadata4535">
    <rdf:RDF>
      <cc:Work
         rdf:about="">
        <dc:format>image/svg+xml</dc:format>
        <dc:type
           rdf:resource="http://purl.org/dc/dcmitype/StillImage" />
        <dc:title />
      </cc:Work>
    </rdf:RDF>
  </metadata>
  <path
     d="m 196.51,302.45 c 0.52,37.62 17.16,75.85 45.98,105.06 23.36,23.75 65.28,52.10 131.78,52.10 111.73,0 147.81,-98.55 147.81,-146.28 0,-45.90 -37.38,-83.21 -83.29,-83.21 -45.88,0 -83.29,37.31 -83.29,83.21 0,28.73 16.16,59.61 36.01,68.97 15.87,7.41 24.75,24.73 21.14,40.97 -2.82,12.73 -14.63,27.44 -38.68,27.44 -7.27,0 -15.63,-1.31 -25.44,-3.82 C 293.99,432.33 256.13,411.26 213.13,341.99 206.09,330.66 200.58,317.40 196.51,302.45 M 390,600 C 224.63,600 90,465.36 90,300 90,134.57 224.63,0 390,0 555.44,0 690,134.57 690,300 690,465.36 555.44,600 390,600 m 6.82,184.67 c -154.71,0 -228.28,-74.77 -231.34,-77.99 l -9.72,-9.88 -4.90,-5.13 3.43,-6.12 64.06,-117.09 4.66,-8.43 8.43,4.66 16.55,9.27 c 0.68,0.39 76.30,41.45 150.95,41.45 71.18,0 126.37,-39.76 128.74,-41.45 l 16.32,-12.33 8.33,-6.35 5.61,8.88 72.64,115.93 3.66,5.82 -4.29,5.29 -8.57,10.495 c -2.68,3.37 -69.26,82.97 -224.59,82.97"
     inkscape:connector-curvature="0"
     id="path384"
     style="fill:#ffffff;fill-opacity:1;fill-rule:nonzero;stroke:none" />
  <path
     d="m 396.82,775.09 c 151.02,0 214.54,-76.17 217.15,-79.38 l 8.59,-10.495 -72.71,-116.01 -16.47,12.41 c -0.54,0.45 -58.32,43.37 -134.49,43.37 -77.78,0 -154.71,-42.31 -155.48,-42.68 l -16.69,-9.27 -64.06,117.09 9.72,9.96 c 2.92,3.06 74.40,75.01 224.45,75.01 M 198.28,238.08 c -6.51,16.92 -11.27,37.78 -11.27,62.67 0,40.62 17.71,81.99 48.66,113.48 24.59,25.07 68.73,54.94 138.61,54.94 118.93,0 157.40,-104.96 157.40,-155.85 0,-51.18 -41.60,-92.86 -92.88,-92.86 -51.18,0 -92.86,41.68 -92.86,92.86 0,32.56 18.24,66.65 41.52,77.62 11.73,5.51 18.53,18.53 15.87,30.34 -2.07,9.573 -10.96,19.85 -29.34,19.85 -6.43,0 -13.94,-1.15 -22.91,-3.53 C 298.74,423.68 262.56,403.53 221.27,336.93 203.71,308.67 198.57,271.04 198.28,238.08 M 390,590.34 C 229.84,590.34 99.57,460.07 99.57,300 99.57,139.84 229.84,9.59 390,9.59 550.15,9.59 680.42,139.84 680.42,300 680.42,460.07 550.15,590.34 390,590.34"
     inkscape:connector-curvature="0"
     id="path386"
     style="fill:#000000;fill-opacity:1;fill-rule:nonzero;stroke:none" />
  <path
     d="m 118.50,300.00 c 0,149.97 121.54,271.49 271.49,271.49 v 0 c 149.97,0 271.57,-121.52 271.57,-271.49 v 0 C 661.57,150.04 539.97,28.42 390,28.42 v 0 c -149.95,0 -271.49,121.62 -271.49,271.57 m 49.59,0.76 c 0,-88.19 55.08,-132.25 55.08,-132.25 v 0 c 0,0 -20.53,102.61 14.18,158.46 v 0 c 37.78,60.92 68.81,79.15 118.54,92.33 v 0 c 36.46,9.72 31.32,-7.57 23.52,-11.26 v 0 c -30.26,-14.26 -52.41,-54.78 -52.41,-94.71 v 0 c 0,-61.69 50.04,-111.71 111.79,-111.71 v 0 c 61.77,0 111.73,50.02 111.73,111.71 v 0 c 0,61.38 -45.60,174.70 -176.25,174.70 v 0 c -130.64,0 -206.19,-99.16 -206.19,-187.28"
     inkscape:connector-curvature="0"
     id="path398"
     style="fill:url(#radialGradient3013);fill-opacity:1;fill-rule:nonzero;stroke:none" />
  <path
     d="m 398.96,643.90 c -83.97,0 -164.74,-45.11 -164.74,-45.11 v 0 l -48.27,88.19 c 0,0 67.12,69.18 210.88,69.18 v 0 c 143.83,0 202.60,-72.32 202.60,-72.32 v 0 l -54.63,-87.13 c 0,0 -61.93,47.19 -145.83,47.19"
     inkscape:connector-curvature="0"
     id="path414"
     style="fill:url(#linearGradient3008);fill-opacity:1;fill-rule:nonzero;stroke:none" />
</svg>