<?xml version="1.0" encoding="UTF-8" standalone="no"?>
<svg xmlns:dc="http://purl.org/dc/elements/1.1/"
   xmlns:cc="http://creativecommons.org/ns#"
   xmlns:rdf="http://www.w3.org/1999/02/22-rdf-syntax-ns#"
   xmlns:svg="http://www.w3.org/2000/svg"
   xmlns="http://www.w3.org/2000/svg"
   xmlns:xlink="http://www.w3.org/1999/xlink"
   xmlns:sodipodi="http://sodipodi.sourceforge.net/DTD/sodipodi-0.dtd"
   xmlns:inkscape="http://www.inkscape.org/namespaces/inkscape"
   version="1.1"
   id="Layer_1"
   x="0px"
   y="0px"
   width="88px"
   height="88px"
   inkscape:version="0.9.2 5c3e80d">
  <metadata
     id="metadata35">
    <rdf:RDF>
      <cc:Work
         rdf:about="">
        <dc:format>image/svg+xml</dc:format>
        <dc:type
           rdf:resource="http://purl.org/dc/dcmitype/StillImage" />
      </cc:Work>
    </rdf:RDF>
  </metadata>
  <defs
     showguides="false"
     id="defs2" />
  <g
     id="g43">
    <defs
       id="defs3">
      <rect
         id="SVGID_78_"
         x="-90.2"
         y="-116.5"
         width="300"
         height="160" />
    </defs>
    <g
       id="g41">
      <defs
         id="defs9">
        <path
           id="SVGID_80_"
           d="M-260.5-116.5l-130.3,0.0c0,0-19.3,39.5-19.3,79.9c0.0,40.4,19.3,79.9,19.3,79.9l260.6,0.0c0,0,19.9-39.7,19.9-79.9     c-0.0-40.2-19.9-79.9-19.9-79.9L-260.5-116.5" />
      </defs>
      <clipPath
         id="SVGID_3_">
        <use
           xlink:href="#SVGID_80_"
           overflow="visible"
           id="use11" />
      </clipPath>
      <g
         clip-path="url(#SVGID_3_)"
         id="g39">
        <defs
           id="defs15">
          <polygon
             id="SVGID_82_"
             points="-508.0,-97.9 -189.7,-281.4 -12.4,24.9 -330.8,208.4" />
        </defs>
        <clipPath
           id="SVGID_5_">
          <use
             xlink:href="#SVGID_82_"
             overflow="visible"
             id="use17" />
        </clipPath>
        <polygon
           clip-path="url(#SVGID_5_)"
           fill="url(#SVGID_6_)"
           points="-384.1,423.0 199.6,85.9 -136.3,-496.0-720.2,-158.9"
           id="polygon37" />
      </g>
    </g>
  </g>
  <g
     id="g54"
     transform="translate(0,18)">
    <path
       id="path5289"
       d="M 31.7,37.6 19.5,25.2 15.0,25.2 C 11.1,25.2 10.2,25.1 7.7,24.3 6.2,23.8 3.8,22.9 2.4,22.2 L 0,21.1 7.7,17.4 c 4.2,-2.0 7.8,-3.7 7.9,-3.8 0.0,-0.1 -0.5,-0.5 -1.3,-1.0 C 10.4,10.6 2.5,3.9 1.7,1.9 0.9,-0.1 1.1,-0.4 2.4,0.5 3.1,1.1 4.0,1.7 4.4,1.9 c 1.4,0.7 5.9,0.7 13.8,0.0 4.8,-0.4 8.9,-0.6 11.2,-0.5 3.2,0.1 3.8,0.2 5.5,1.0 1.0,0.5 2.1,1.3 2.5,1.8 1.4,1.9 0.5,6.2 -2.6,12.7 l -1.5,3.1 5.2,5.6 c 2.8,3.1 5.3,5.6 5.4,5.6 0.1,0 2.5,-2.5 5.4,-5.6 l 5.2,-5.6 -2,-3.3 c -2.2,-3.6 -3.8,-7.4 -4.1,-9.6 -0.3,-2.7 1.3,-4.9 4.6,-5.8 2.1,-0.6 9.1,-0.4 15.8,0.3 3.2,0.3 7.5,0.7 9.6,0.7 3.9,0.0 4.8,-0.2 6.7,-1.5 0.7,-0.5 0.7,-0.5 0.7,0.7 0,1.1 -0.2,1.4 -2.2,3.4 -2.6,2.5 -7.9,6.5 -10.1,7.6 -0.8,0.4 -1.4,0.8 -1.4,1.0 0.0,0.1 3.6,1.8 7.9,3.8 l 7.7,3.6 -2.4,1.1 c -1.3,0.6 -3.7,1.5 -5.3,2.0 -2.4,0.7 -3.3,0.8 -7.2,0.9 L 68.6,25.2 56.4,37.6 C 49.7,44.4 44.1,49.9 44.0,50 39.0,45.1 35.6,41.6 31.7,37.6 Z"
       inkscape:connector-curvature="0" />
    <linearGradient
       id="path5291_1_"
       gradientUnits="userSpaceOnUse"
       x1="20.7"
       y1="-9.4"
       x2="67.0"
       y2="36.8">
      <stop
         style="stop-color:#bf331c"
         offset="0"
         id="stop19" />
      <stop
         style="stop-color:#d3641c"
         offset="0.3"
         id="stop21" />
      <stop
         style="stop-color:#f6b91d"
         offset="0.5"
         id="stop23" />
      <stop
         style="stop-color:#d3641c"
         offset="0.6"
         id="stop25" />
      <stop
         style="stop-color:#bf331c"
         offset="1"
         id="stop27" />
    </linearGradient>
    <path
       id="path5291"
       d="m 47.4,44.0 c 1.7,-1.7 7.1,-7.3 12.1,-12.3 l 9.0,-9.1 1.5,0.5 c 1.9,0.6 5.2,0.4 8.8,-0.5 C 84.1,21.2 84.5,21.7 73.9,16.6 l -9.3,-4.4 3.2,-0.1 c 3.0,-0.1 3.4,-0.2 5.4,-1.3 2.4,-1.3 5.2,-3.4 6.8,-5.0 l 1.0,-1.1 h -2.2 c -1.2,0 -5.3,-0.3 -9.1,-0.8 -7.8,-0.9 -14.1,-1.1 -16.2,-0.4 -1.7,0.5 -3.1,1.8 -3.1,3.1 0,2.0 2.0,6.6 4.9,11.1 0.9,1.4 1.6,2.8 1.5,3.0 C 56.7,20.9 44.3,34.2 44.0,34.2 43.8,34.2 35.5,25.4 32.2,21.7 L 31.0,20.3 33.1,16.1 C 35.1,11.8 36.4,8.2 36.4,6.7 36.4,6.3 36.0,5.5 35.4,4.9 33.5,3.0 29.1,2.8 17.8,4.0 15.4,4.2 11.9,4.4 10.1,4.4 l -3.3,0.0 0.9,0.9 c 1.5,1.6 5.8,4.7 7.9,5.7 1.8,0.8 2.2,0.9 4.9,0.8 1.6,-0.0 2.9,-0.0 2.8,0.0 -0.0,0.0 -4.3,2.1 -9.4,4.5 l -9.3,4.4 1.8,0.6 c 4.1,1.5 9.2,2.1 11.7,1.2 L 19.6,22.5 31.7,34.9 c 6.6,6.7 12.2,12.3 12.3,12.3 0.1,10e-4 1.6,-1.4 3.3,-3.2 z"
       style="fill:url(#path5291_1_)"
       inkscape:connector-curvature="0"/>
  </g>
</svg>