<?xml version="1.0" encoding="UTF-8" standalone="no"?>
<!-- Created with Inkscape (http://www.inkscape.org/) -->

<svg
   xmlns:dc="http://purl.org/dc/elements/1.1/"
   xmlns:cc="http://creativecommons.org/ns#"
   xmlns:rdf="http://www.w3.org/1999/02/22-rdf-syntax-ns#"
   xmlns:svg="http://www.w3.org/2000/svg"
   xmlns="http://www.w3.org/2000/svg"
   xmlns:inkscape="http://www.inkscape.org/namespaces/inkscape"
   version="1.1"
   width="600"
   height="600"
   id="svg5346">
  <defs
     id="defs5348">
    <radialGradient
       cx="0"
       cy="0"
       r="1"
       fx="0"
       fy="0"
       id="radialGradient274"
       gradientUnits="userSpaceOnUse"
       gradientTransform="matrix(17.97,0,0,-17.97,748,372.09)"
       spreadMethod="pad">
      <stop
         id="stop276"
         style="stop-color:#d7bd74;stop-opacity:1"
         offset="0" />
      <stop
         id="stop278"
         style="stop-color:#b39a54;stop-opacity:1"
         offset="0.69" />
      <stop
         id="stop280"
         style="stop-color:#8d742f;stop-opacity:1"
         offset="1" />
    </radialGradient>
  </defs>
  <metadata
     id="metadata5351">
    <rdf:RDF>
      <cc:Work
         rdf:about="">
        <dc:format>image/svg+xml</dc:format>
        <dc:type
           rdf:resource="http://purl.org/dc/dcmitype/StillImage" />
        <dc:title />
      </cc:Work>
    </rdf:RDF>
  </metadata>
  <path
     d="M 0,300 C 0,465.42 134.59,600 300,600 465.40,600 600,465.42 600,300 600,134.59 465.40,0 300,0 134.59,0 0,134.59 0,300"
     inkscape:connector-curvature="0"
     id="path268"
     style="fill:#000000;fill-opacity:1;fill-rule:nonzero;stroke:none" />
  <path
     d="m 91.75,321.51 c 0.46,2.4 0.12,4.57 0.06,7.32 -0.12,6.45 0.70,13.06 1.69,19.45 4.17,26.55 16.59,48.51 35.52,67.44 9.54,9.49 19.92,18.16 30.58,26.43 5.32,4.09 10.71,8.14 16.17,12.18 2.68,1.99 6.97,8.14 8.31,1.59 1.18,-6.15 1.06,-10.38 4.51,-16.00 7.44,-12.06 29.71,0 30.64,11.14 0.94,11.13 4.63,42.70 30.58,45.52 26.02,2.74 36.21,6.49 45.52,10.18 6.85,2.76 17.05,0.58 24.09,-0.16 9.96,-1.06 19.8,-2.52 29.64,-4.23 3.10,-0.52 6.75,-0.46 8.14,-3.85 1.41,-3.40 -1.05,-7.21 -3.33,-9.49 -5.56,-5.50 -14.23,-7.92 -21.27,-10.78 -5.86,-2.4 -11.83,-4.8 -17.82,-6.79 -7.2,-2.4 -14.64,-3.51 -19.98,-9.49 -7.90,-8.73 -9.01,-21.39 -8.55,-32.7 0.46,-12.24 1.93,-24.9 8.14,-35.73 4.27,-7.44 7.62,-15.42 11.13,-23.26 2.05,-4.51 9.61,-21.33 4.63,-25.42 -4.75,-3.99 -15.48,2.86 -16.71,7.84 -2.74,11.13 -23.19,11.13 -23.19,11.13 0,0 -34.35,-0.93 -49.23,5.56 -14.82,6.51 -55.66,-1.81 -69.6,-21.33 -0.88,-1.33 -6.21,-0.81 -7.74,-1.75 -5.44,-3.28 -6.09,-18.93 -0.58,-22.38 7.44,-4.63 0,-34.33 -26.89,-34.33 -8.79,0 -18.81,1.35 -25.66,7.44 -4.86,4.27 -5.32,9.37 -2.98,15.12 0.99,2.64 2.64,4.98 3.69,7.68 0.18,0.58 0.34,1.11 0.46,1.69 m 101.55,-191.61 c 0,0 -56.08,13.71 -51.45,55.44 0,0 -29.35,9.54 -37.74,36.43 -8.31,26.95 1.87,34.39 13.02,34.39 11.19,0 20.44,-4.62 20.44,-4.62 0,0 16.69,-3.69 25.95,2.74 9.31,6.51 49.23,5.56 58.54,-7.44 9.25,-13.00 30.58,0 39.9,22.33 9.25,22.26 38.02,29.7 47.34,2.74 0,0 8.32,-35.26 0,-82.62 0,0 -28.77,-26.01 -66.85,-32.46 -38.08,-6.49 -43.59,-9.31 -49.15,-26.95 m 226.39,119.77 c 0,-58.48 -61.23,-77.98 -61.23,-77.98 0,0 -13.93,-2.76 -13.93,-13.95 0,0 -23.79,0.34 -37.68,-7.09 0,0 -12.42,-3.10 -12.42,-11.41 0,-8.38 -62.23,-24.85 -40.36,-42.96 0,0 161.53,-37.5 244.98,127.86 0,0 -34.75,-18.10 -34.75,30.64 0,33.69 22.56,43.99 41.31,42.12 0,0 33.75,117.19 -130.42,179.23 0,0 -11.83,-3.45 -6.97,-14.64 4.86,-11.07 -6.97,-11.07 -6.97,-11.07 0,0 -16.69,1.33 -16.69,-22.33 0,-23.67 6.27,-25.72 6.27,-25.72 l 25.08,-19.5 c 0,0 5.56,-4.87 0.69,-11.13 -4.92,-6.27 -17.4,-20.92 -17.4,-28.54 0,-5.56 3.28,-10.02 6.97,-12.07 0,0 53.55,8.20 53.55,-81.43 M 300,537.84 C 168.87,537.84 62.17,431.13 62.17,300 62.17,168.87 168.87,62.17 300,62.17 431.13,62.17 537.82,168.87 537.82,300 537.82,431.13 431.13,537.84 300,537.84 M 300,22.98 C 147.01,22.98 22.90,147.01 22.90,300 22.90,453.04 147.01,577.09 300,577.09 452.98,577.09 577.09,453.04 577.09,300 577.09,147.01 452.98,22.98 300,22.98"
     inkscape:connector-curvature="0"
     id="path270"
     style="fill:#8d742f;fill-opacity:1;fill-rule:nonzero;stroke:none" />
  <g
     transform="matrix(15,0,0,-15,-10920,5881.41)"
     id="g272">
    <path
       d="m 730.02,372.09 c 0,-9.90 8.06,-17.96 17.97,-17.96 l 0,0 c 9.90,0 17.97,8.06 17.97,17.96 l 0,0 c 0,9.9 -8.06,17.97 -17.97,17.97 l 0,0 c -9.91,0 -17.97,-8.06 -17.97,-17.97 m 1.61,0 c 0,9.01 7.33,16.35 16.35,16.35 l 0,0 c 9.02,0 16.35,-7.34 16.35,-16.35 l 0,0 c 0,-9.01 -7.33,-16.35 -16.35,-16.35 l 0,0 c -9.02,0 -16.35,7.33 -16.35,16.35 m 13.53,13.12 c -0.03,-0.03 -0.04,-0.06 -0.04,-0.07 l 0,0 c 0.01,-0.28 1.19,-0.89 1.63,-1.12 l 0,0 c 0.84,-0.43 1.36,-0.70 1.36,-1.20 l 0,0 c 0,-0.07 0.23,-0.22 0.44,-0.27 l 0,0 0.06,-0.01 0.05,-0.02 c 0.75,-0.40 2.09,-0.41 2.24,-0.41 l 0,0 0.53,0 0,-0.49 c 0,-0.32 0.52,-0.44 0.58,-0.45 l 0,0 c 0.04,-0.01 4.42,-1.45 4.42,-5.67 l 0,0 c 0,-2.29 -0.51,-3.96 -1.52,-4.97 l 0,0 c -0.85,-0.84 -1.81,-0.96 -2.31,-0.96 l 0,0 -0.08,0 c -0.06,-0.07 -0.11,-0.17 -0.11,-0.28 l 0,0 c 0.00,-0.18 0.31,-0.66 0.90,-1.41 l 0,0 0.14,-0.18 c 0.45,-0.57 0.18,-1.17 -0.12,-1.44 l 0,0 -1.67,-1.30 -0.03,-0.02 c -0.04,-0.07 -0.19,-0.39 -0.19,-1.29 l 0,0 c 0,-0.30 0.05,-0.7 0.28,-0.88 l 0,0 c 0.12,-0.10 0.27,-0.10 0.33,-0.10 l 0,0 c 0.10,0 0.62,-0.01 0.89,-0.43 l 0,0 c 0.12,-0.19 0.23,-0.52 0.02,-1.00 l 0,0 c -0.03,-0.07 -0.04,-0.13 -0.03,-0.16 l 0,0 c 0.01,-0.01 0.03,-0.04 0.06,-0.06 l 0,0 c 8.92,3.46 8.54,9.33 8.27,10.89 l 0,0 c -1.34,0.04 -2.85,0.93 -2.85,3.32 l 0,0 c 0,2.41 1.26,2.74 1.86,2.76 l 0,0 c -3.76,6.53 -9.52,7.54 -12.71,7.54 l 0,0 c -1.21,0 -2.10,-0.14 -2.42,-0.20 m -7.22,-5.42 0.04,-0.40 -0.38,-0.12 c -0.01,-0.00 -1.72,-0.58 -2.19,-2.10 l 0,0 c -0.30,-0.99 -0.15,-1.35 -0.06,-1.46 l 0,0 c 0.08,-0.11 0.23,-0.17 0.45,-0.17 l 0,0 c 0.60,0 1.13,0.25 1.14,0.25 l 0,0 0.05,0.02 0.05,0.01 c 0.01,0 0.37,0.07 0.81,0.07 l 0,0 c 0.54,0 0.98,-0.11 1.31,-0.34 l 0,0 c 0.09,-0.06 0.48,-0.17 1.12,-0.17 l 0,0 c 1.09,0 1.88,0.28 2.07,0.54 l 0,0 c 0.25,0.35 0.63,0.55 1.06,0.55 l 0,0 c 0.91,0 1.94,-0.89 2.46,-2.13 l 0,0 c 0.25,-0.60 0.79,-1.03 1.31,-1.03 l 0,0 c 0.52,0 0.78,0.44 0.89,0.76 l 0,0 c 0.00,0.02 0.5,2.20 0.02,5.12 l 0,0 c -0.45,0.37 -2.07,1.59 -4.07,1.93 l 0,0 c -2.30,0.39 -3.04,0.62 -3.50,1.66 l 0,0 c -0.88,-0.31 -2.82,-1.21 -2.62,-3.01 m -3.58,-7.87 c -0.10,-0.09 -0.17,-0.18 -0.06,-0.44 l 0,0 c 0.02,-0.07 0.05,-0.13 0.09,-0.20 l 0,0 c 0.05,-0.10 0.10,-0.20 0.14,-0.31 l 0,0 c 0.02,-0.06 0.03,-0.12 0.05,-0.19 l 0,0 c 0.03,-0.17 0.02,-0.32 0.01,-0.44 l 0,0 -0.00,-0.14 c -0.00,-0.43 0.05,-0.87 0.11,-1.21 l 0,0 c 0.25,-1.59 0.97,-2.97 2.22,-4.21 l 0,0 c 0.53,-0.53 1.17,-1.08 1.99,-1.72 l 0,0 c 0.30,-0.23 0.61,-0.46 0.92,-0.7 l 0,0 c 0.04,0.22 0.11,0.45 0.27,0.71 l 0,0 c 0.22,0.36 0.60,0.57 1.06,0.57 l 0,0 c 0.80,0 1.83,-0.68 1.90,-1.54 l 0,0 c 0.13,-1.60 0.67,-2.47 1.59,-2.57 l 0,0 c 1.74,-0.18 2.46,-0.42 3.16,-0.71 l 0,0 c 0.09,-0.03 0.21,-0.05 0.38,-0.05 l 0,0 c 0.23,0 0.48,0.03 0.70,0.06 l 0,0 0.28,0.03 c 0.65,0.06 1.29,0.16 1.94,0.27 l 0,0 0.07,0.01 c -0.00,0.01 -0.01,0.02 -0.02,0.03 l 0,0 c -0.21,0.21 -0.58,0.35 -0.93,0.48 l 0,0 -0.31,0.12 c -0.38,0.15 -0.76,0.31 -1.16,0.44 l 0,0 -0.26,0.08 c -0.41,0.12 -0.89,0.26 -1.27,0.68 l 0,0 c -0.68,0.75 -0.72,1.80 -0.69,2.53 l 0,0 c 0.02,0.82 0.12,1.77 0.60,2.60 l 0,0 c 0.21,0.39 0.39,0.79 0.58,1.20 l 0,0 0.14,0.32 c 0.23,0.52 0.32,0.83 0.35,1.00 l 0,0 c -0.09,-0.05 -0.20,-0.12 -0.22,-0.17 l 0,0 c -0.27,-1.09 -1.85,-1.12 -2.04,-1.12 l 0,0 -0.28,0.00 c -1.27,0 -2.30,-0.12 -2.78,-0.33 l 0,0 c -0.28,-0.12 -0.65,-0.18 -1.09,-0.18 l 0,0 c -1.34,0 -3.16,0.57 -4.04,1.64 l 0,0 c -0.01,0 -0.01,0.00 -0.02,0.00 l 0,0 c -0.14,0.01 -0.30,0.02 -0.45,0.11 l 0,0 c -0.49,0.30 -0.53,1.00 -0.53,1.21 l 0,0 c 0,0.52 0.18,0.94 0.42,1.06 l 0,0 c 0.03,0.08 0.01,0.42 -0.22,0.79 l 0,0 c -0.19,0.29 -0.56,0.64 -1.23,0.64 l 0,0 c -0.64,0 -1.10,-0.12 -1.37,-0.36"
       inkscape:connector-curvature="0"
       id="path282"
       style="fill:url(#radialGradient274);fill-opacity:1;fill-rule:nonzero;stroke:none" />
  </g>
</svg>