<?xml version="1.0" encoding="UTF-8" standalone="no"?>
<!-- Created with Inkscape (http://www.inkscape.org/) -->

<svg
   xmlns:dc="http://purl.org/dc/elements/1.1/"
   xmlns:cc="http://creativecommons.org/ns#"
   xmlns:rdf="http://www.w3.org/1999/02/22-rdf-syntax-ns#"
   xmlns:svg="http://www.w3.org/2000/svg"
   xmlns="http://www.w3.org/2000/svg"
   xmlns:sodipodi="http://sodipodi.sourceforge.net/DTD/sodipodi-0.dtd"
   xmlns:inkscape="http://www.inkscape.org/namespaces/inkscape"
   version="1.1"
   width="833"
   height="833"
   id="svg3805"
   sodipodi:docname="invasion uncommon.svg"
   inkscape:version="0.92.2 5c3e80d, 2017-08-06">
  <sodipodi:namedview
     pagecolor="#ffffff"
     bordercolor="#666666"
     borderopacity="1"
     objecttolerance="10"
     gridtolerance="10"
     guidetolerance="10"
     inkscape:pageopacity="0"
     inkscape:pageshadow="2"
     inkscape:window-width="723"
     inkscape:window-height="480"
     id="namedview13"
     showgrid="false"
     inkscape:zoom="0.28331333"
     inkscape:cx="416.5"
     inkscape:cy="416.5"
     inkscape:window-x="207"
     inkscape:window-y="383"
     inkscape:window-maximized="0"
     inkscape:current-layer="svg3805" />
  <defs
     id="defs3807">
    <radialGradient
       cx="0"
       cy="0"
       r="1"
       fx="0"
       fy="0"
       id="radialGradient314"
       gradientUnits="userSpaceOnUse"
       gradientTransform="matrix(13.282349,0,0,-13.282349,135.12598,487.84717)"
       spreadMethod="pad">
      <stop
         id="stop316"
         style="stop-color:#b7d1e1;stop-opacity:1"
         offset="0" />
      <stop
         id="stop318"
         style="stop-color:#a0b6c2;stop-opacity:1"
         offset="0.66291797" />
      <stop
         id="stop320"
         style="stop-color:#626e77;stop-opacity:1"
         offset="1" />
    </radialGradient>
  </defs>
  <metadata
     id="metadata3810">
    <rdf:RDF>
      <cc:Work
         rdf:about="">
        <dc:format>image/svg+xml</dc:format>
        <dc:type
           rdf:resource="http://purl.org/dc/dcmitype/StillImage" />
        <dc:title />
      </cc:Work>
    </rdf:RDF>
  </metadata>
  <path
     d="M 722,341.28543 C 722,264.45464 683.69909,183.93947 643.04601,143.28639 587.75948,87.91659 527.74779,70.59792 525.22909,69.86937 L 502.62322,63.43732 C 485.78331,36.37689 456.68295,14 421.87908,14 387.15847,14 358.14137,36.37689 341.30146,63.43732 l -22.60586,6.43205 c -2.5187,0.72772 -62.44713,18.04722 -117.81693,73.41702 -40.73634,40.73634 -79.51601,121.2307 -78.87073,197.99904 0,76.43529 45.94028,129.20312 45.94028,129.20312 l 25.12456,-39.59148 24.56254,6.24471 c 54.0584,13.84245 123.83267,161.17605 156.18028,261.42452 l 7.4104,23.02217 39.84127,125.03998 41.63142,-125.03998 7.47284,-23.02217 C 502.4567,598.31783 572.31422,450.98423 626.28936,437.14178 l 24.56254,-6.24471 25.54088,40.1535 c 0,0 45.60722,-52.85109 45.60722,-129.76514"
     inkscape:connector-curvature="0"
     id="path308"
     style="fill:#ffffff;fill-opacity:1;fill-rule:nonzero;stroke:none" />
  <path
     d="m 421.87908,195.2424 v 0 c -0.33305,0 -0.56286,0 -0.89591,0 -0.24979,0 -0.56119,0 -0.89424,0 v 0 c -13.82163,-0.89591 -23.41768,-12.19801 -23.41768,-34.72061 0,-23.48012 24.31275,-55.68202 24.31275,-55.68202 0,0 24.39602,32.2019 24.39602,55.68202 0,22.5226 -9.67931,33.82554 -23.50094,34.72061 m 74.16638,-39.11272 C 494.25531,138.74856 493.44349,121.34663 485.55434,97.03388 477.74845,72.63786 453.01938,43.933 421.87908,43.933 c -31.30683,0 -55.70284,28.70486 -63.50873,53.10088 -7.8059,24.31275 -8.70097,41.71468 -10.40786,59.0958 -1.79015,17.40193 -12.11474,94.81556 73.99985,94.81556 86.1146,0 75.79001,-77.41363 74.08312,-94.81556 m 21.12795,-57.55544 c 5.20392,19.35861 6.82755,34.97039 8.13894,48.79203 l 0.64612,7.05652 c 1.62362,15.38281 6.51532,62.1349 -23.41768,95.37759 -14.88323,16.50686 -35.44915,26.18616 -60.90677,29.51668 v 52.12254 c 186.36306,0 233.0527,81.16046 233.0527,81.16046 43.90034,-79.03726 -2.20646,-197.666 -52.70538,-248.16491 -50.56136,-50.49892 -104.8071,-65.86091 -104.8071,-65.86091 m 101.80964,309.6337 C 524.50137,432.35417 441.71729,689.38657 441.71729,689.38657 V 361.03954 c 130.01493,0 177.26659,47.1684 177.26659,47.1684 M 222.02827,164.43515 c -50.58218,50.49891 -96.68898,169.12765 -52.78865,248.16491 0,0 46.68964,-81.16046 233.13597,-81.16046 v -52.12254 c -25.45761,-3.33052 -46.1068,-13.00982 -60.99003,-29.51668 -29.933,-33.24269 -24.95804,-79.99478 -23.41768,-95.37759 l 0.72772,-7.05652 c 1.22896,-13.82164 2.93501,-29.43342 8.13894,-48.79203 0,0 -54.329,15.36199 -104.8071,65.86091 m 180.18079,196.60439 v 328.34703 c 0,0 -82.78408,-257.0324 -177.18333,-281.17863 0,0 47.25166,-47.1684 177.18333,-47.1684"
     inkscape:connector-curvature="0"
     id="path310"
     style="fill:#626e77;fill-opacity:1;fill-rule:nonzero;stroke:none" />
  <g
     transform="matrix(20.815711,0,0,-20.815711,-2390.7606,10499.352)"
     id="g312">
    <path
       d="m 132.496,499.598 c -0.312,-0.985 -0.383,-1.731 -0.449,-2.446 v 0 l -0.035,-0.379 c -0.063,-0.585 -0.223,-2.148 0.648,-3.117 v 0 c 0.524,-0.578 1.352,-0.867 2.469,-0.867 v 0 c 1.113,0 1.941,0.289 2.465,0.867 v 0 c 0.875,0.977 0.711,2.535 0.64,3.192 v 0 l -0.027,0.304 c -0.066,0.715 -0.137,1.461 -0.453,2.446 v 0 c -0.301,0.929 -1.316,2.238 -2.633,2.238 v 0 c -1.234,0 -2.273,-1.156 -2.625,-2.238 m 2.508,-5.032 c -0.746,0.051 -1.547,0.633 -1.547,2.118 v 0 c 0,1.246 1.137,2.777 1.266,2.949 v 0 l 0.355,0.472 0.36,-0.472 c 0.128,-0.172 1.261,-1.703 1.261,-2.949 v 0 c 0,-1.262 -0.578,-2.055 -1.551,-2.118 v 0 h -0.113 z m 5.531,2.797 0.035,-0.355 c 0.082,-0.789 0.325,-3.18 -1.238,-4.914 v 0 c -0.699,-0.778 -1.644,-1.282 -2.812,-1.5 v 0 -1.676 c 6.691,-0.098 9.613,-2.363 10.652,-3.496 v 0 c 1.437,3.543 -0.535,8.535 -2.758,10.758 v 0 c -1.539,1.539 -3.168,2.379 -4.09,2.769 v 0 c 0.117,-0.601 0.172,-1.125 0.211,-1.586 m -14.699,-1.183 c -2.223,-2.223 -4.195,-7.215 -2.758,-10.758 v 0 c 1.043,1.133 3.961,3.398 10.656,3.496 v 0 1.676 c -1.172,0.218 -2.117,0.722 -2.816,1.5 v 0 c -1.563,1.734 -1.316,4.125 -1.238,4.929 v 0 l 0.035,0.336 c 0.043,0.481 0.097,0.996 0.211,1.586 v 0 c -0.922,-0.386 -2.551,-1.226 -4.09,-2.765 m 10.687,-22.321 c 1.329,3.434 4.016,9.426 7.141,11.047 v 0 c -0.976,0.602 -3.195,1.621 -7.141,1.692 v 0 z m -9.933,11.047 c 3.125,-1.621 5.808,-7.613 7.137,-11.047 v 0 12.739 c -3.942,-0.071 -6.165,-1.09 -7.137,-1.692"
       inkscape:connector-curvature="0"
       id="path322"
       style="fill:url(#radialGradient314);fill-opacity:1;fill-rule:nonzero;stroke:none" />
  </g>
</svg>
