<?xml version="1.0" encoding="UTF-8" standalone="no"?>
<!-- Created with Inkscape (http://www.inkscape.org/) -->

<svg
   xmlns:dc="http://purl.org/dc/elements/1.1/"
   xmlns:cc="http://creativecommons.org/ns#"
   xmlns:rdf="http://www.w3.org/1999/02/22-rdf-syntax-ns#"
   xmlns:svg="http://www.w3.org/2000/svg"
   xmlns="http://www.w3.org/2000/svg"
   xmlns:sodipodi="http://sodipodi.sourceforge.net/DTD/sodipodi-0.dtd"
   xmlns:inkscape="http://www.inkscape.org/namespaces/inkscape"
   version="1.1"
   width="833"
   height="833"
   id="svg3751"
   sodipodi:docname="invasion.svg"
   inkscape:version="0.92.2 5c3e80d, 2017-08-06">
  <sodipodi:namedview
     pagecolor="#ffffff"
     bordercolor="#666666"
     borderopacity="1"
     objecttolerance="10"
     gridtolerance="10"
     guidetolerance="10"
     inkscape:pageopacity="0"
     inkscape:pageshadow="2"
     inkscape:window-width="923"
     inkscape:window-height="713"
     id="namedview7"
     showgrid="false"
     inkscape:zoom="0.28331333"
     inkscape:cx="416.5"
     inkscape:cy="416.5"
     inkscape:window-x="0"
     inkscape:window-y="0"
     inkscape:window-maximized="0"
     inkscape:current-layer="svg3751" />
  <defs
     id="defs3753" />
  <metadata
     id="metadata3756">
    <rdf:RDF>
      <cc:Work
         rdf:about="">
        <dc:format>image/svg+xml</dc:format>
        <dc:type
           rdf:resource="http://purl.org/dc/dcmitype/StillImage" />
        <dc:title />
      </cc:Work>
    </rdf:RDF>
  </metadata>
  <path
     d="m 723.30508,341.52272 c 0,-76.83079 -38.30091,-157.34596 -78.95399,-197.99904 C 589.06456,88.15388 529.05287,70.835208 526.53417,70.106658 l -22.60587,-6.43205 c -16.83991,-27.06043 -45.94027,-49.43732 -80.74414,-49.43732 -34.72061,0 -63.73771,22.37689 -80.57762,49.43732 l -22.60586,6.43205 c -2.5187,0.72772 -62.44713,18.047222 -117.81692,73.417022 -40.73635,40.73634 -79.51602,121.2307 -78.87073,197.99904 0,76.43529 45.94027,129.20312 45.94027,129.20312 l 25.12456,-39.59148 24.56254,6.24471 c 54.0584,13.84245 123.83267,161.17605 156.2011,261.42452 l 7.38958,23.02217 39.84127,125.03998 41.63142,-125.03998 7.47284,-23.02217 C 503.76178,598.55512 573.6193,451.22152 627.59444,437.37907 l 24.56254,-6.24471 25.54088,40.1535 c 0,0 45.60722,-52.85109 45.60722,-129.76514"
     inkscape:connector-curvature="0"
     id="path304"
     style="fill:#ffffff;fill-opacity:1;fill-rule:nonzero;stroke:none" />
  <path
     d="m 423.18416,195.47969 v 0 c -0.33305,0 -0.56286,0 -0.89591,0 -0.24979,0 -0.56119,0 -0.89424,0 v 0 c -13.82163,-0.89591 -23.41768,-12.19801 -23.41768,-34.72061 0,-23.48012 24.31275,-55.68202 24.31275,-55.68202 0,0 24.39602,32.2019 24.39602,55.68202 0,22.5226 -9.67931,33.82554 -23.50094,34.72061 m 74.16638,-39.11272 c -1.79015,-17.38112 -2.60197,-34.78305 -10.49112,-59.0958 -7.80589,-24.396022 -32.53496,-53.100882 -63.67526,-53.100882 -31.30683,0 -55.70284,28.70486 -63.50873,53.100882 -7.8059,24.31275 -8.70097,41.71468 -10.40786,59.0958 -1.79015,17.40193 -12.11474,94.81556 73.99985,94.81556 86.1146,0 75.79001,-77.41363 74.08312,-94.81556 m 21.12795,-57.55544 c 5.20392,19.35861 6.82755,34.97039 8.13894,48.79203 l 0.64612,7.05652 c 1.62362,15.38281 6.51532,62.1349 -23.41768,95.37759 -14.88323,16.50686 -35.44915,26.18616 -60.90677,29.51668 v 52.12254 c 186.36306,0 233.0527,81.16046 233.0527,81.16046 43.90034,-79.03726 -2.20646,-197.666 -52.70538,-248.16491 -50.56136,-50.49892 -104.8071,-65.86091 -104.8071,-65.86091 m 101.80964,309.6337 C 525.80645,432.59146 443.02237,689.62386 443.02237,689.62386 V 361.27683 c 130.01493,0 177.26659,47.1684 177.26659,47.1684 M 223.33335,164.67244 c -50.58218,50.49891 -96.68898,169.12765 -52.78864,248.16491 0,0 46.68964,-81.16046 233.13596,-81.16046 v -52.12254 c -25.45761,-3.33052 -46.1068,-13.00982 -60.99003,-29.51668 -29.933,-33.24269 -24.95804,-79.99478 -23.41768,-95.37759 l 0.72772,-7.05652 c 1.22896,-13.82164 2.93501,-29.43342 8.13894,-48.79203 0,0 -54.329,15.36199 -104.8071,65.86091 m 180.18079,196.60439 v 328.34703 c 0,0 -82.78408,-257.0324 -177.18333,-281.17863 0,0 47.25166,-47.1684 177.18333,-47.1684"
     inkscape:connector-curvature="0"
     id="path306"
     style="fill:#000000;fill-opacity:1;fill-rule:nonzero;stroke:none" />
</svg>
