<?xml version="1.0" encoding="UTF-8" standalone="no"?>
<!-- Created with Inkscape (http://www.inkscape.org/) -->

<svg
   xmlns:dc="http://purl.org/dc/elements/1.1/"
   xmlns:cc="http://creativecommons.org/ns#"
   xmlns:rdf="http://www.w3.org/1999/02/22-rdf-syntax-ns#"
   xmlns:svg="http://www.w3.org/2000/svg"
   xmlns="http://www.w3.org/2000/svg"
   xmlns:sodipodi="http://sodipodi.sourceforge.net/DTD/sodipodi-0.dtd"
   xmlns:inkscape="http://www.inkscape.org/namespaces/inkscape"
   version="1.1"
   width="600"
   height="600"
   id="svg4637"
   sodipodi:docname="legends.svg"
   inkscape:version="0.92.2 5c3e80d, 2017-08-06">
  <sodipodi:namedview
     pagecolor="#ffffff"
     bordercolor="#666666"
     borderopacity="1"
     objecttolerance="10"
     gridtolerance="10"
     guidetolerance="10"
     inkscape:pageopacity="0"
     inkscape:pageshadow="2"
     inkscape:window-width="1265"
     inkscape:window-height="862"
     id="namedview12"
     showgrid="false"
     inkscape:zoom="0.39333333"
     inkscape:cx="300"
     inkscape:cy="300"
     inkscape:window-x="0"
     inkscape:window-y="0"
     inkscape:window-maximized="0"
     inkscape:current-layer="svg4637" />
  <defs
     id="defs4639" />
  <metadata
     id="metadata4642">
    <rdf:RDF>
      <cc:Work
         rdf:about="">
        <dc:format>image/svg+xml</dc:format>
        <dc:type
           rdf:resource="http://purl.org/dc/dcmitype/StillImage" />
        <dc:title />
      </cc:Work>
    </rdf:RDF>
  </metadata>
  <path
     d="M 147.55622,559.12176 H 100.08061 V 284.92151 l 22.61774,-63.38566 18.85023,-19.89394 H 97.00042 L 78.404752,177.33135 44.789987,153.619 0,50 h 600 l -44.8409,103.72083 -33.80568,23.86508 -19.04116,24.056 h -43.91175 l 18.95206,19.94485 22.56682,59.60543 v 94.62028 l -47.83199,24.85787 h -9.44421 l -41.81162,26.65252 -48.12474,25.06152 h -18.79932 l -42.40984,31.87102 -48.62113,25.30336 h -18.95206 l -42.44803,31.92193 z"
     inkscape:connector-curvature="0"
     id="path372"
     style="fill:#ffffff;fill-opacity:1;fill-rule:nonzero;stroke:none" />
  <path
     d="m 486.94951,172.3165 h -64.78574 c -2.29105,-4.97667 -3.93297,-8.60416 -3.93297,-8.60416 H 181.7692 c 0,0 -1.74374,3.78023 -3.93297,8.60416 H 113.1014 l -11.53161,-14.47179 22.82139,-23.36869 h 351.21764 l 22.82139,23.36869 z m -53.69962,45.3882 19.19389,20.23759 H 147.55622 l 19.14297,-20.23759 z m -47.43742,184.40391 v -84.71786 l 9.59695,-12.82987 H 424.493 l 9.59694,12.82987 0.0509,53.99236 -48.32839,30.7255 z M 275.79126,459.34662 V 317.39075 l 9.59695,-12.82987 h 29.08358 l 9.59694,12.82987 0.0509,105.65549 -48.32838,36.30038 z M 165.80823,516.57191 V 317.39075 l 9.59695,-12.82987 h 29.03266 l 9.64786,12.82987 0.0509,162.82986 -48.32838,36.3513 z M 31.514637,70.73398 l 29.987272,69.31693 31.463725,22.27407 14.268136,18.58295 h 66.68222 l -14.47178,31.92193 -18.83751,19.94485 -19.79211,52.1468 v 253.51718 h 21.67586 l 27.88715,-14.50997 46.63555,-35.05304 h 20.83581 l 42.56258,-22.17225 46.58464,-35.00212 h 20.63216 l 42.80441,-22.32499 46.19008,-29.38905 h 10.39881 l 32.16377,-16.75011 v -78.26474 l -19.7412,-52.1468 -18.88842,-19.94484 -14.47178,-31.97285 h 66.22401 L 507.03437,162.32498 538.49809,140.14 568.48536,70.73398 Z"
     inkscape:connector-curvature="0"
     id="path374"
     style="fill:#000000;fill-opacity:1;fill-rule:nonzero;stroke:none" />
  <path
     d="m 424.493,304.56088 h -29.08358 l -9.59695,12.82987 v 84.71786 l 48.32839,-30.7255 -0.0509,-53.99236 -9.59694,-12.82987 z"
     inkscape:connector-curvature="0"
     id="path376"
     style="fill:#ffffff;fill-opacity:1;fill-rule:nonzero;stroke:none" />
  <path
     d="m 204.43784,304.56088 h -29.03266 l -9.59695,12.82987 v 199.18116 l 48.32838,-36.3513 -0.0509,-162.82986 -9.64786,-12.82987 z"
     inkscape:connector-curvature="0"
     id="path378"
     style="fill:#ffffff;fill-opacity:1;fill-rule:nonzero;stroke:none" />
  <path
     d="m 314.47179,304.56088 h -29.0454 l -9.63513,12.82987 v 141.95587 l 48.32838,-36.30038 -0.0509,-105.65549 -9.59694,-12.82987 z"
     inkscape:connector-curvature="0"
     id="path380"
     style="fill:#ffffff;fill-opacity:1;fill-rule:nonzero;stroke:none" />
  <path
     d="M 147.55622,237.94229 H 452.44378 L 433.24989,217.7047 h -266.5507 z"
     inkscape:connector-curvature="0"
     id="path382"
     style="fill:#ffffff;fill-opacity:1;fill-rule:nonzero;stroke:none" />
  <path
     d="m 124.39118,134.47602 -22.82139,23.36869 11.4807,14.47179 h 64.78574 c 2.18923,-4.82393 3.93297,-8.60416 3.93297,-8.60416 h 236.4616 c 0,0 1.64192,3.62749 3.93297,8.60416 h 64.78574 l 11.4807,-14.47179 -22.82139,-23.36869 z"
     inkscape:connector-curvature="0"
     id="path384"
     style="fill:#ffffff;fill-opacity:1;fill-rule:nonzero;stroke:none" />
</svg>
