<?xml version="1.0" encoding="UTF-8" standalone="no"?>
<!-- Created with Inkscape (http://www.inkscape.org/) -->

<svg
   xmlns:dc="http://purl.org/dc/elements/1.1/"
   xmlns:cc="http://creativecommons.org/ns#"
   xmlns:rdf="http://www.w3.org/1999/02/22-rdf-syntax-ns#"
   xmlns:svg="http://www.w3.org/2000/svg"
   xmlns="http://www.w3.org/2000/svg"
   xmlns:sodipodi="http://sodipodi.sourceforge.net/DTD/sodipodi-0.dtd"
   xmlns:inkscape="http://www.inkscape.org/namespaces/inkscape"
   version="1.1"
   width="823"
   height="823"
   id="svg4239"
   sodipodi:docname="lorwyn.svg"
   inkscape:version="0.92.2 5c3e80d, 2017-08-06">
  <sodipodi:namedview
     pagecolor="#ffffff"
     bordercolor="#666666"
     borderopacity="1"
     objecttolerance="10"
     gridtolerance="10"
     guidetolerance="10"
     inkscape:pageopacity="0"
     inkscape:pageshadow="2"
     inkscape:window-width="1069"
     inkscape:window-height="824"
     id="namedview37"
     showgrid="false"
     inkscape:zoom="0.28675577"
     inkscape:cx="437.16328"
     inkscape:cy="194.16431"
     inkscape:window-x="0"
     inkscape:window-y="0"
     inkscape:window-maximized="0"
     inkscape:current-layer="svg4239" />
  <defs
     id="defs4241" />
  <metadata
     id="metadata4244">
    <rdf:RDF>
      <cc:Work
         rdf:about="">
        <dc:format>image/svg+xml</dc:format>
        <dc:type
           rdf:resource="http://purl.org/dc/dcmitype/StillImage" />
        <dc:title />
      </cc:Work>
    </rdf:RDF>
  </metadata>
  <path
     d="m 507.15315,401.76591 c -6.4373,7.71242 -13.01857,15.01352 -19.76437,22.08838 -41.54426,43.53921 -78.00861,63.94114 -134.73092,75.10874 -20.56646,4.11329 -44.99943,17.68716 -63.79718,35.51828 -20.40193,19.35305 -36.29981,41.93503 -49.31838,70.54298 1.76872,-1.04971 3.53743,-2.09778 5.30615,-3.22894 14.37596,-8.43225 45.06112,-21.59479 66.59421,-29.71854 67.00555,-25.15279 100.09699,-43.06618 131.11122,-71.18054 26.98321,-24.41239 49.00989,-58.49103 64.59927,-99.13036 M 172.61902,822.65863 c -16.55601,0 -31.405,-9.25491 -39.77555,-24.74146 -2.15948,-4.03103 -7.30109,-13.51217 -7.30109,-49.25668 0,-30.35611 0.80127,-40.16631 18.63322,-62.74829 0.63673,-0.88518 1.37877,-1.68645 2.09778,-2.57081 l -2.89988,-18.63322 -1.85098,-12.05195 c -1.68645,-10.75626 -3.29063,-39.61101 -3.92819,-53.34941 -4.25726,-93.82422 17.50206,-175.45252 62.97451,-235.93849 26.36622,-34.88073 54.9536,-57.52441 109.35191,-86.29689 112.45743,-59.43709 203.89594,-149.18915 222.28236,-218.27191 1.46104,-5.53237 2.48854,-11.55835 2.65307,-13.2448 C 534.93848,20.4842 554.22979,-3.2203397e-7 578.80672,-3.2203397e-7 587.4035,-3.2203397e-7 595.83575,2.5708097 603.15741,7.46563 c 18.05736,12.05195 60.81504,92.87816 61.20581,93.68025 23.21954,46.74757 42.98391,107.97394 52.85581,163.64737 5.63522,31.81632 9.00812,93.98874 8.20602,126.2781 l -1.76871,65.95665 -29.24552,-18.55095 c 7.71243,17.3581 13.01858,37.8423 14.2937,61.61713 l 3.0644,57.68894 -53.90471,-20.81327 c -3.61969,-1.35738 -7.95922,-2.89987 -12.62781,-4.42179 7.32167,31.17877 10.94136,75.35553 2.65308,136.08831 l -8.82302,64.517 -52.15655,-40.80387 c -0.30932,-0.24679 -29.96534,-22.82877 -103.69612,-22.82877 -46.52135,0 -98.34884,13.7384 -150.0735,39.61101 -45.71926,22.89048 -80.18865,48.04326 -102.52384,74.96477 -16.94677,20.31967 -34.05807,38.56212 -57.99743,38.56212"
     inkscape:connector-curvature="0"
     id="path722"
     style="fill:#ffffff;fill-opacity:1;fill-rule:nonzero;stroke:none" />
  <path
     d="m 593.34721,386.09426 c 0,0 73.27832,29.24552 78.00861,116.01543 0,0 -71.26281,-27.64133 -82.6772,-6.99259 0,0 39.36422,42.18182 22.19122,168.45992 0,0 -35.76508,-31.405 -127.65605,-31.405 -52.95865,0 -110.54476,15.34259 -166.79404,43.45695 -50.61407,25.39958 -88.76487,53.51394 -114.55522,84.52817 -21.06006,25.21449 -30.45893,30.52064 -36.07358,20.07287 -1.60418,-2.96157 -2.89987,-17.19356 -2.89987,-31.56952 0,-26.18112 0,-26.18112 10.6123,-39.61102 18.96228,-23.93936 56.14645,-54.87133 90.36905,-75.02646 10.6123,-6.27278 38.00683,-18.40699 60.81504,-26.92151 71.83866,-26.9832 107.97394,-46.74757 143.0192,-78.48163 48.10496,-43.53921 82.10133,-112.06667 95.922,-193.30421 5.69691,-33.81127 11.16759,-122.51444 7.30109,-118.89474 -1.13198,1.04971 -7.95922,15.50711 -15.01352,32.06312 -25.79035,59.68388 -58.32649,110.70928 -95.53123,149.49764 -36.23811,38.00683 -66.03892,54.6451 -114.96654,64.2702 -27.62077,5.55295 -58.24424,22.25292 -82.34813,45.0817 -33.25598,31.65179 -55.89966,69.63805 -73.50455,123.39879 l -9.23435,28.27889 -1.85098,-12.05195 c -1.04807,-6.66353 -2.65307,-28.93701 -3.53743,-49.42121 -3.84593,-84.34308 15.67165,-158.64972 55.50889,-211.69064 22.99331,-30.43837 47.24117,-49.40065 96.97089,-75.66402 C 450.8216,244.86434 546.9904,148.38705 568.27669,68.4452 c 2.09778,-7.87696 3.86649,-17.6049 3.86649,-21.61536 0.0823,-7.38336 5.22389,-11.64062 10.20097,-8.26772 4.17499,2.79704 37.8423,57.66837 48.51629,79.20146 21.77989,43.70374 40.24858,100.98135 49.48292,153.4464 4.91539,27.55907 8.53508,86.85219 7.65073,118.89474 0,0 -45.0817,-30.43837 -94.64688,-4.01046"
     inkscape:connector-curvature="0"
     id="path724"
     style="fill:#000000;fill-opacity:1;fill-rule:nonzero;stroke:none" />
</svg>
