<?xml version="1.0" encoding="UTF-8" standalone="no"?>
<!-- Created with Inkscape (http://www.inkscape.org/) -->

<svg
   xmlns:dc="http://purl.org/dc/elements/1.1/"
   xmlns:cc="http://creativecommons.org/ns#"
   xmlns:rdf="http://www.w3.org/1999/02/22-rdf-syntax-ns#"
   xmlns:svg="http://www.w3.org/2000/svg"
   xmlns="http://www.w3.org/2000/svg"
   xmlns:xlink="http://www.w3.org/1999/xlink"
   xmlns:sodipodi="http://sodipodi.sourceforge.net/DTD/sodipodi-0.dtd"
   xmlns:inkscape="http://www.inkscape.org/namespaces/inkscape"
   version="1.1"
   width="823"
   height="823"
   id="svg4427"
   sodipodi:docname="lorwyn rare.svg"
   inkscape:version="0.92.2 5c3e80d, 2017-08-06">
  <sodipodi:namedview
     pagecolor="#ffffff"
     bordercolor="#666666"
     borderopacity="1"
     objecttolerance="10"
     gridtolerance="10"
     guidetolerance="10"
     inkscape:pageopacity="0"
     inkscape:pageshadow="2"
     inkscape:window-width="835"
     inkscape:window-height="677"
     id="namedview15"
     showgrid="false"
     inkscape:zoom="0.28675577"
     inkscape:cx="411.5"
     inkscape:cy="411.5"
     inkscape:window-x="0"
     inkscape:window-y="0"
     inkscape:window-maximized="0"
     inkscape:current-layer="svg4427" />
  <defs
     id="defs4429">
    <linearGradient
       x1="0"
       y1="0"
       x2="1"
       y2="0"
       id="linearGradient748"
       gradientUnits="userSpaceOnUse"
       gradientTransform="matrix(21.231186,-7.727524,-7.727524,-21.231186,735.42187,148.57812)"
       spreadMethod="pad">
      <stop
         id="stop750"
         style="stop-color:#8d742f;stop-opacity:1"
         offset="0" />
      <stop
         id="stop752"
         style="stop-color:#b39a54;stop-opacity:1"
         offset="0.35000601" />
      <stop
         id="stop754"
         style="stop-color:#d7bd74;stop-opacity:1"
         offset="0.5" />
      <stop
         id="stop756"
         style="stop-color:#b39a54;stop-opacity:1"
         offset="0.64999402" />
      <stop
         id="stop758"
         style="stop-color:#8d742f;stop-opacity:1"
         offset="1" />
    </linearGradient>
    <linearGradient
       x1="0"
       y1="0"
       x2="1"
       y2="0"
       id="linearGradient2995"
       xlink:href="#linearGradient748"
       gradientUnits="userSpaceOnUse"
       gradientTransform="matrix(21.231186,-7.727524,-7.727524,-21.231186,735.42187,148.57812)"
       spreadMethod="pad" />
    <linearGradient
       x1="0"
       y1="0"
       x2="1"
       y2="0"
       id="linearGradient2998"
       xlink:href="#linearGradient748"
       gradientUnits="userSpaceOnUse"
       gradientTransform="matrix(436.65047,158.92786,-158.92786,436.65047,217.30723,361.03427)"
       spreadMethod="pad" />
  </defs>
  <metadata
     id="metadata4432">
    <rdf:RDF>
      <cc:Work
         rdf:about="">
        <dc:format>image/svg+xml</dc:format>
        <dc:type
           rdf:resource="http://purl.org/dc/dcmitype/StillImage" />
        <dc:title />
      </cc:Work>
    </rdf:RDF>
  </metadata>
  <path
     d="m 495.20399,404.74048 c -6.4373,7.71242 -13.01857,15.01352 -19.76437,22.08838 -41.54426,43.53921 -78.00861,63.94114 -134.73092,75.10874 -20.56646,4.11329 -44.99943,17.68716 -63.79718,35.51828 -20.40193,19.35305 -36.29981,41.93503 -49.31838,70.54298 1.76872,-1.04971 3.53743,-2.09778 5.30615,-3.22894 14.37596,-8.43225 45.06112,-21.59479 66.59421,-29.71854 67.00555,-25.15279 100.09699,-43.06618 131.11122,-71.18054 26.98321,-24.41239 49.00989,-58.49103 64.59927,-99.13036 M 160.66986,825.6332 c -16.55601,0 -31.405,-9.25491 -39.77555,-24.74146 -2.15948,-4.03103 -7.30109,-13.51217 -7.30109,-49.25668 0,-30.35611 0.80127,-40.16631 18.63322,-62.74829 0.63673,-0.88518 1.37877,-1.68645 2.09778,-2.57081 l -2.89988,-18.63322 -1.85098,-12.05195 c -1.68645,-10.75626 -3.29063,-39.61101 -3.92819,-53.34941 -4.25726,-93.82422 17.50206,-175.45252 62.97451,-235.93849 26.36622,-34.88073 54.9536,-57.52441 109.35191,-86.29689 112.45743,-59.43709 203.89594,-149.18915 222.28236,-218.271904 1.46104,-5.53237 2.48854,-11.55835 2.65307,-13.2448 0.0823,-25.07052 19.37361,-45.5547197 43.95054,-45.5547197 8.59678,0 17.02903,2.57081 24.35069,7.4656297 18.05736,12.05195 60.81504,92.878164 61.20581,93.680254 23.21954,46.74756 42.98391,107.97393 52.85581,163.64736 5.63522,31.81632 9.00812,93.98874 8.20602,126.2781 l -1.76871,65.95665 -29.24552,-18.55095 c 7.71243,17.3581 13.01858,37.8423 14.2937,61.61713 l 3.0644,57.68894 -53.90471,-20.81327 c -3.61969,-1.35738 -7.95922,-2.89987 -12.62781,-4.42179 7.32167,31.17877 10.94136,75.35553 2.65308,136.08831 l -8.82302,64.517 -52.15655,-40.80387 c -0.30932,-0.24679 -29.96534,-22.82877 -103.69612,-22.82877 -46.52135,0 -98.34884,13.7384 -150.0735,39.61101 -45.71926,22.89048 -80.18865,48.04326 -102.52384,74.96477 -16.94677,20.31967 -34.05807,38.56212 -57.99743,38.56212"
     inkscape:connector-curvature="0"
     id="path744"
     style="fill:#000000;fill-opacity:1;fill-rule:nonzero;stroke:none" />
  <path
     d="m 560.19402,49.804416 c 0,4.01046 -1.76871,13.7384 -3.78423,21.61536 v 0 C 535.04124,151.36162 438.87244,247.83891 315.47365,313.15801 v 0 c -49.72972,26.26337 -73.97758,45.22565 -96.97089,75.66402 v 0 c -39.83724,53.04092 -59.35482,127.34756 -55.50889,211.69064 v 0 c 0.88436,20.56646 2.48854,42.75768 3.53743,49.42121 v 0 l 1.85098,12.05195 9.23435,-28.27889 c 17.60489,-53.76074 40.24857,-91.747 73.50455,-123.39879 v 0 c 24.10389,-22.82878 54.6451,-39.52875 82.34813,-45.0817 v 0 c 48.92762,-9.6251 78.72843,-26.26337 114.96654,-64.2702 v 0 c 37.20474,-38.78836 69.74088,-89.81376 95.53123,-149.49764 v 0 c 7.0543,-16.63827 13.88237,-31.01423 15.01352,-32.06312 v 0 c 3.8665,-3.6197 -1.60418,85.08347 -7.38336,118.89474 v 0 c -13.7384,81.3198 -47.73477,149.765 -95.92199,193.30421 v 0 c -34.963,31.73406 -71.09828,51.49843 -142.93694,78.48163 v 0 c -22.80821,8.51452 -50.20274,20.64873 -60.81504,26.92151 v 0 c -34.2226,20.2374 -71.40677,51.0871 -90.36905,75.02646 v 0 c -10.6123,13.42991 -10.6123,13.42991 -10.6123,39.61102 v 0 c 0,14.45822 1.29569,28.60795 2.89987,31.56952 v 0 c 5.61465,10.44777 15.01352,5.14162 36.07358,-20.07287 v 0 c 25.79035,-31.01423 63.94115,-59.12859 114.55522,-84.52817 v 0 c 56.24928,-28.11436 113.83539,-43.45695 166.79404,-43.45695 v 0 c 91.89097,0 127.65605,31.405 127.65605,31.405 v 0 C 616.17594,540.27349 576.72946,498.09167 576.72946,498.09167 v 0 c 11.41439,-20.731 82.6772,6.99259 82.6772,6.99259 v 0 C 654.67637,418.31435 581.39805,389.06883 581.39805,389.06883 v 0 c 49.56518,-26.51017 94.70858,4.01046 94.70858,4.01046 v 0 c 0.82265,-32.04255 -2.79704,-91.33567 -7.71243,-118.89474 v 0 C 659.15986,221.7195 640.69117,164.44189 618.91128,120.73815 v 0 C 608.23729,99.20507 574.56998,44.333736 570.39499,41.536696 v 0 c -1.21342,-0.80209 -2.40628,-1.21342 -3.45516,-1.21342 v 0 c -3.70197,0 -6.74581,3.8665 -6.74581,9.48114"
     inkscape:connector-curvature="0"
     id="path760"
     style="fill:url(#linearGradient2998);fill-opacity:1;fill-rule:nonzero;stroke:none" />
</svg>
