<?xml version="1.0" encoding="UTF-8" standalone="no"?>
<!-- Created with Inkscape (http://www.inkscape.org/) -->

<svg
   xmlns:dc="http://purl.org/dc/elements/1.1/"
   xmlns:cc="http://creativecommons.org/ns#"
   xmlns:rdf="http://www.w3.org/1999/02/22-rdf-syntax-ns#"
   xmlns:svg="http://www.w3.org/2000/svg"
   xmlns="http://www.w3.org/2000/svg"
   xmlns:xlink="http://www.w3.org/1999/xlink"
   xmlns:sodipodi="http://sodipodi.sourceforge.net/DTD/sodipodi-0.dtd"
   xmlns:inkscape="http://www.inkscape.org/namespaces/inkscape"
   width="356mm"
   height="300mm"
   viewBox="0 0 356mm 300mm"
   id="svg2"
   version="1.1"
   inkscape:version="0.92.2 5c3e80d, 2017-08-06"
   sodipodi:docname="magic origins mythic.svg">
  <defs
     id="defs4">
    <linearGradient
       inkscape:collect="always"
       id="linearGradient4272">
      <stop
         style="stop-color:#ca2723;stop-opacity:1"
         offset="0"
         id="stop4274" />
      <stop
         id="stop4280"
         offset="0.5"
         style="stop-color:#ce5d23;stop-opacity:1" />
      <stop
         style="stop-color:#e2bd6b;stop-opacity:1"
         offset="1"
         id="stop4276" />
    </linearGradient>
    <linearGradient
       inkscape:collect="always"
       xlink:href="#linearGradient4272"
       id="linearGradient4278"
       x1="74.953316"
       y1="486.67679"
       x2="668.92303"
       y2="486.67679"
       gradientUnits="userSpaceOnUse"
       gradientTransform="matrix(1.7340067,0,0,1.6010629,37.447859,-76.158992)" />
  </defs>
  <sodipodi:namedview
     id="base"
     pagecolor="#c2c2c2"
     bordercolor="#666666"
     borderopacity="1.0"
     inkscape:pageopacity="0"
     inkscape:pageshadow="2"
     inkscape:zoom="0.35355339"
     inkscape:cx="-349.80369"
     inkscape:cy="584.19317"
     inkscape:document-units="px"
     inkscape:current-layer="layer1"
     showgrid="false"
     inkscape:window-width="1680"
     inkscape:window-height="1002"
     inkscape:window-x="0"
     inkscape:window-y="0"
     inkscape:window-maximized="1" />
  <metadata
     id="metadata7">
    <rdf:RDF>
      <cc:Work
         rdf:about="">
        <dc:format>image/svg+xml</dc:format>
        <dc:type
           rdf:resource="http://purl.org/dc/dcmitype/StillImage" />
        <dc:title />
      </cc:Work>
    </rdf:RDF>
  </metadata>
  <g
     inkscape:label="Layer 1"
     inkscape:groupmode="layer"
     id="layer1">
    <path
       style="fill:#1d201a;fill-opacity:1;stroke:none;stroke-width:1.66620922;stroke-opacity:1"
       d="M 681.49502,63.275329 C 325.38264,63.278759 36.699723,334.17636 36.703803,668.34144 c 0.19667,152.97134 62.133487,300.19521 173.344977,412.04236 13.04919,-44.9141 33.23265,-87.74818 59.8779,-127.07511 L 228.17122,730.62086 345.878,855.15682 c 13.59561,-11.61063 37.99359,-19.39294 52.88047,-29.52867 L 383.2805,522.72995 530.96901,755.06042 c 20.29516,-5.82475 59.52849,-11.99123 80.45271,-15.35544 l 69.64003,-310.67385 67.26086,307.97057 c 21.33695,2.80398 64.39216,10.01224 85.16237,15.3671 L 981.94643,537.89628 955.60857,807.74072 c 17.65952,10.60556 49.77013,28.4738 65.85903,41.07151 l 118.9627,-105.65078 -48.784,183.51469 c 33.348,42.05538 58.8681,89.05826 75.4886,139.03426 102.4558,-110.0718 158.9924,-251.22197 159.1631,-397.36896 0,-334.16942 -288.686,-605.068534 -644.80298,-605.066111 z"
       id="path4147-2"
       inkscape:connector-curvature="0"
       sodipodi:nodetypes="scccccccccccccccccccs" />
    <path
       style="fill:url(#linearGradient4278);fill-opacity:1;stroke:none;stroke-width:1.66620922;stroke-opacity:1"
       d="M 681.92837,94.83865 C 348.1717,94.84171 77.610172,347.46275 77.610055,659.08547 c 0.426911,124.45894 44.914375,245.294 126.536455,343.69293 8.45132,-19.39476 18.21052,-38.26902 29.21869,-56.50896 L 149.67901,571.83492 352.99218,809.24641 c 2.22006,-1.86309 7.56441,-6.57778 9.81784,-8.40553 L 320.5998,353.76804 548.93921,710.5556 c 6.71981,-1.68127 22.79682,-6.10784 29.58227,-7.54049 L 681.06175,227.52566 783.61422,698.27195 c 8.18049,1.20538 25.65202,2.58984 33.76311,4.15222 L 1047.7421,382.46594 997.7402,781.1827 c 4.9077,3.37464 15.9679,9.69734 20.7481,13.22818 l 197.0596,-176.67452 -78.6856,295.27209 c 15.4338,21.62844 29.0214,44.35923 40.6369,67.98168 70.5833,-94.4262 108.535,-206.75513 108.7592,-321.90466 -2e-4,-311.62698 -270.5688,-564.249716 -604.33003,-564.24682 z"
       id="path4171"
       inkscape:connector-curvature="0"
       sodipodi:nodetypes="scccccccccccccccccccs" />
  </g>
</svg>
