<?xml version="1.0" encoding="UTF-8" standalone="no"?>
<!-- Created with Inkscape (http://www.inkscape.org/) -->

<svg
   xmlns:dc="http://purl.org/dc/elements/1.1/"
   xmlns:cc="http://creativecommons.org/ns#"
   xmlns:rdf="http://www.w3.org/1999/02/22-rdf-syntax-ns#"
   xmlns:svg="http://www.w3.org/2000/svg"
   xmlns="http://www.w3.org/2000/svg"
   xmlns:xlink="http://www.w3.org/1999/xlink"
   xmlns:inkscape="http://www.inkscape.org/namespaces/inkscape"
   version="1.1"
   width="600"
   height="320.00342"
   viewBox="0 0 600 320.00342"
   id="Layer_1"
   xml:space="preserve"><metadata
   id="metadata22"><rdf:RDF><cc:Work
       rdf:about=""><dc:format>image/svg+xml</dc:format><dc:type
         rdf:resource="http://purl.org/dc/dcmitype/StillImage" /><dc:title /></cc:Work></rdf:RDF></metadata><defs
   id="defs20"><linearGradient
   x1="3.8369"
   y1="45.069302"
   x2="89.913101"
   y2="4.9313002"
   id="linearGradient3817-1-8"
   xlink:href="#SVGID_2_-2-8-6"
   gradientUnits="userSpaceOnUse"
   gradientTransform="matrix(6.3894193,0,0,6.3894193,0.50040599,0.48410249)" /><linearGradient
   x1="5.9902"
   y1="44.064499"
   x2="87.759697"
   y2="5.9347"
   id="SVGID_2_-2-8-6"
   gradientUnits="userSpaceOnUse"><stop
     id="stop8-6-1-9"
     style="stop-color:#bd3627;stop-opacity:1"
     offset="0" /><stop
     id="stop10-0-2-8"
     style="stop-color:#f49620;stop-opacity:1"
     offset="1" /></linearGradient><clipPath
   id="clipPath4012"><path
     d="m 162.78125,-506.0625 c -25.35707,47.09811 -39.875,101.73378 -39.875,160 0,58.26622 14.51793,112.90189 39.875,160 l 520.25,0 c 25.35707,-47.09811 39.875,-101.73378 39.875,-160 0,-58.26622 -14.49308,-112.90189 -39.84375,-160 l -520.28125,0 z"
     inkscape:connector-curvature="0"
     id="path4014"
     style="color:#000000;fill:url(#linearGradient4016);fill-opacity:1;fill-rule:nonzero;stroke:none;stroke-width:1;marker:none;visibility:visible;display:inline;overflow:visible;enable-background:accumulate" /></clipPath><linearGradient
   x1="3.8369"
   y1="45.069302"
   x2="89.913101"
   y2="4.9313002"
   id="linearGradient3027"
   xlink:href="#SVGID_2_-2-8-6"
   gradientUnits="userSpaceOnUse"
   gradientTransform="matrix(6.3894193,0,0,6.3894193,239.199,0.48410807)" />
	
	
	

		<linearGradient
   x1="3.8369"
   y1="45.069302"
   x2="89.913101"
   y2="4.9313002"
   id="SVGID_2_"
   gradientUnits="userSpaceOnUse">
			<stop
   id="stop8"
   style="stop-color:#8f743f;stop-opacity:1"
   offset="0" />
			<stop
   id="stop10"
   style="stop-color:#ebd491;stop-opacity:1"
   offset="0.78789997" />
		</linearGradient>
		
	<linearGradient
   x1="3.8369"
   y1="45.069302"
   x2="89.913101"
   y2="4.9313002"
   id="linearGradient3802"
   xlink:href="#SVGID_2_-2-8-6"
   gradientUnits="userSpaceOnUse"
   gradientTransform="matrix(6.1867328,0,0,5.9999999,9.9999963,10.00171)" /></defs>
<path
   d="M 39.866024,0 C 14.508953,47.0981 -1.8706565e-6,101.73549 -1.8706565e-6,160.00171 -1.8706565e-6,218.26793 14.508953,272.90531 39.866024,320.00342 H 560.13399 C 585.49106,272.90531 600,218.26793 600,160.00171 600,101.73549 585.49106,47.0981 560.14039,0 H 39.866024 z"
   inkscape:connector-curvature="0"
   id="path3800"
   style="fill:#ffffff;fill-opacity:1" /><path
   d="m 48.537155,10.00171 c -24.511836,44.154 -38.5371587,95.376 -38.5371587,150 0,54.624 14.0253227,105.84599 38.5371587,150 H 551.46286 C 575.97469,265.8477 590,214.62571 590,160.00171 c 0,-54.624 -14.02531,-105.846 -38.53095,-150 H 48.537155 z"
   inkscape:connector-curvature="0"
   id="path12"
   style="fill:url(#linearGradient3802);fill-opacity:1" /><path
   d="m 535.95452,38.0036 c 16.68498,36.89 26.04828,78.27284 26.04828,122.00451 0,44.52527 -9.72171,86.61212 -26.98269,124.00132 H 64.979891 C 47.718907,246.61383 38.003604,204.52698 38.003604,160.00171 c 0,-43.72527 9.363299,-85.11451 26.048278,-122.00451 H 535.95452 M 548.21065,19.0018 H 535.95452 64.051882 51.795751 L 46.739697,30.16992 C 28.3331,70.84875 19.001801,114.53562 19.001801,160.00171 c 0,46.27249 9.670503,90.67617 28.729906,131.96301 l 5.094455,11.04011 h 12.153729 470.040219 12.15373 l 5.09445,-11.04011 c 19.07221,-41.28684 28.73631,-85.69052 28.73631,-131.96301 0,-45.46609 -9.3313,-89.15296 -27.7379,-129.83819 l -5.05605,-11.16172 0,0 z"
   inkscape:connector-curvature="0"
   id="path14" /><path
   d="m 42.003646,244.0026 c 12.524934,-9.8177 20.915423,-23.07224 27.949099,-42.59885 6.534469,-18.11219 10.969717,-35.58438 19.200204,-52.25016 2.080023,-4.21124 7.129677,-7.53288 12.601741,-4.90245 3.85924,1.85602 7.69288,3.98084 11.91692,5.91366 4.44165,2.03522 5.36326,5.88807 3.33444,10.63692 -5.86246,13.68974 -13.13934,26.79068 -17.830594,40.86443 -4.665649,14.00335 -5.337657,30.33633 11.161724,34.67557 v 12.99854 c -30.784333,-3.72484 -49.22293,0.68481 -60.903054,10.66251 L 42.003646,244.0026 z M 87.668134,77.33842 c 16.083376,2.00323 27.910696,3.91045 22.163436,18.8226 -3.12963,8.13449 -6.51527,15.74417 -10.003307,23.17465 -1.984021,4.22405 -1.542416,8.9153 3.334437,12.16013 3.27044,2.18243 10.33611,5.73446 14.00335,7.16168 4.91525,1.92002 7.94889,-0.0768 9.4977,-3.66084 1.13921,-2.63683 3.71204,-7.76968 4.99846,-10.33611 2.41922,-4.81285 6.65607,-3.77604 9.6641,0.49921 19.117,27.23229 37.1972,65.24869 48.49972,110.67638 3.12963,12.57613 3.00163,22.83544 -0.83201,29.16511 5.51686,4.10244 11.69932,6.96327 18.50259,8.66569 8.01929,-15.06576 21.94584,-26.95069 40.83244,-36.16039 -3.87204,-15.47536 -8.84489,-30.72672 -15.33456,-45.66448 -6.53447,-21.03703 -2.57923,-32.01314 4.00004,-40.33963 1.79842,-2.27203 1.83682,-5.28646 0,-8.18569 -3.52004,-5.54886 -7.36008,-9.96491 -11.33452,-13.31214 -2.79683,-2.36163 -6.46407,-2.85443 -9.4977,0.16 -1.79202,1.78562 -3.35364,3.80164 -5.49766,5.33766 -21.67063,-25.66428 -40.16683,-53.16537 -47.0021,-72.49998 L 96.999433,60.49984 c -4.499248,4.74885 -8.000085,10.50252 -9.331299,16.83858 z M 249.74347,84.2761 c 3.92324,3.38563 4.00644,7.06567 1.43361,11.14892 -5.00485,7.96168 -9.8433,14.32335 -15.34096,19.0722 -2.86723,2.47683 -2.42563,6.66247 -0.66561,10.00331 3.85924,7.30248 9.8177,11.89773 15.83377,15.00176 4.97285,-4.97285 9.9521,-6.67527 12.83214,-1.16481 10.61771,20.28821 18.55379,40.85803 28.1667,59.82783 8.40329,16.58898 6.22726,28.0131 -3.16804,35.67399 -6.56007,5.35045 -12.88974,9.7793 -18.00339,15.00176 4.30085,4.46724 8.84489,8.74889 13.67055,12.82573 22.05463,-17.99059 55.49499,-17.01778 96.16742,-4.00004 1.57442,-4.82565 3.69284,-9.4913 6.32967,-14.00335 -14.25295,-12.78734 -29.12031,-15.88497 -34.32997,-28.3267 -2.75843,-6.57927 -4.12804,-19.89141 -7.48808,-28.3715 -11.01451,-27.8083 -21.35062,-48.63412 -38.51561,-83.9689 -7.69928,-15.85297 -5.96486,-31.26434 -2.00322,-39.84043 -5.74726,-2.45122 -10.20811,-5.40166 -13.49774,-8.78729 -7.66728,7.62248 -38.17001,7.78888 -54.04218,0 -3.68644,6.32327 -7.39848,11.23212 -11.12332,15.75057 9.93291,4.20484 17.86899,9.08169 23.74426,14.15695 z m 110.26037,9.5617 h 27.8339 v 99.32906 l 27.41789,-27.41149 V 56.1606 C 399.61386,66.29831 380.68246,74.7592 360.00384,82.33688 V 93.8378 z m 139.52789,-45.05648 28.0195,15.46896 c -6.29127,19.28981 -2.02882,42.02285 -2.56643,79.07925 l 15.29617,-0.006 5.27365,-4.66565 5.54886,7.16808 c 0,0 -6.64967,13.31854 -11.00812,20.11541 -8.60169,-2.24002 -9.7345,-1.79842 -15.65456,-1.29281 -1.35042,11.23212 2.02882,44.52527 2.02882,44.52527 0,0 -14.34895,-1.61922 -32.05794,8.05769 1.33121,-11.43692 3.47523,-40.80684 2.00322,-52.98617 -10.00971,0.46721 -34.23397,1.89442 -57.11421,4.87045 l -12.05133,-8.70409 c 0.67841,0.85761 68.62793,-62.15106 72.28237,-111.62999 z m -2.43203,95.14982 c 0,0 1.01122,-22.32984 0,-39.99403 0,0 -17.46578,27.60989 -30.25312,40.19883 4.05765,1.42081 30.25312,-0.2048 30.25312,-0.2048 z"
   inkscape:connector-curvature="0"
   id="path16" />
</svg>