<?xml version="1.0" encoding="UTF-8" standalone="no"?>
<!-- Created with Inkscape (http://www.inkscape.org/) -->

<svg
   xmlns:dc="http://purl.org/dc/elements/1.1/"
   xmlns:cc="http://creativecommons.org/ns#"
   xmlns:rdf="http://www.w3.org/1999/02/22-rdf-syntax-ns#"
   xmlns:svg="http://www.w3.org/2000/svg"
   xmlns="http://www.w3.org/2000/svg"
   xmlns:xlink="http://www.w3.org/1999/xlink"
   xmlns:sodipodi="http://sodipodi.sourceforge.net/DTD/sodipodi-0.dtd"
   xmlns:inkscape="http://www.inkscape.org/namespaces/inkscape"
   width="210mm"
   height="297mm"
   viewBox="0 0 744.09448819 1052.3622047"
   id="svg2"
   version="1.1"
   inkscape:version="0.91 r13725"
   sodipodi:docname="ORI_M.svg">
  <defs
     id="defs4">
    <linearGradient
       inkscape:collect="always"
       id="linearGradient4272">
      <stop
         style="stop-color:#ca2723;stop-opacity:1"
         offset="0"
         id="stop4274" />
      <stop
         id="stop4280"
         offset="0.5"
         style="stop-color:#ce5d23;stop-opacity:1" />
      <stop
         style="stop-color:#e2bd6b;stop-opacity:1"
         offset="1"
         id="stop4276" />
    </linearGradient>
    <linearGradient
       inkscape:collect="always"
       xlink:href="#linearGradient4272"
       id="linearGradient4278"
       x1="74.953316"
       y1="486.67679"
       x2="668.92303"
       y2="486.67679"
       gradientUnits="userSpaceOnUse" />
  </defs>
  <sodipodi:namedview
     id="base"
     pagecolor="#c2c2c2"
     bordercolor="#666666"
     borderopacity="1.0"
     inkscape:pageopacity="0"
     inkscape:pageshadow="2"
     inkscape:zoom="0.70710678"
     inkscape:cx="377.80919"
     inkscape:cy="584.19317"
     inkscape:document-units="px"
     inkscape:current-layer="layer1"
     showgrid="false"
     inkscape:window-width="1920"
     inkscape:window-height="1018"
     inkscape:window-x="-8"
     inkscape:window-y="32"
     inkscape:window-maximized="1" />
  <metadata
     id="metadata7">
    <rdf:RDF>
      <cc:Work
         rdf:about="">
        <dc:format>image/svg+xml</dc:format>
        <dc:type
           rdf:resource="http://purl.org/dc/dcmitype/StillImage" />
        <dc:title></dc:title>
      </cc:Work>
    </rdf:RDF>
  </metadata>
  <g
     inkscape:label="Layer 1"
     inkscape:groupmode="layer"
     id="layer1">
    <path
       style="fill:#1d201a;fill-opacity:1;stroke:none;stroke-opacity:1"
       d="M 371.4214,87.088611 C 166.05172,87.090886 -0.43144812,256.28935 -0.42909676,465.00388 -0.31567828,560.54751 35.403226,652.50134 99.538787,722.35938 107.06424,694.30674 118.70402,667.55319 134.07032,642.99019 l -24.08033,-139.08751 67.88138,77.78331 c 7.84057,-7.25184 21.91087,-12.11255 30.49612,-18.44317 l -8.92613,-189.1857 85.17182,145.11014 c 11.7042,-3.63804 34.33003,-7.48954 46.397,-9.59077 l 40.16135,-194.04227 38.78927,192.35384 c 12.305,1.75132 37.1349,6.25349 49.11306,9.59807 l 85.61758,-133.95635 -15.18902,168.54081 c 10.18423,6.62408 28.70238,17.78432 37.98088,25.65266 l 68.60561,-65.98791 -28.1336,114.62054 c 19.23166,26.26717 33.94912,55.62448 43.53416,86.83873 59.08616,-68.7492 91.69075,-156.90949 91.7892,-248.19073 C 743.28174,256.28664 576.79372,87.087089 371.4214,87.088611 Z"
       id="path4147-2"
       inkscape:connector-curvature="0"
       sodipodi:nodetypes="scccccccccccccccccccs" />
    <path
       style="fill:url(#linearGradient4278);fill-opacity:1;stroke:none;stroke-opacity:1"
       d="m 371.6713,106.80258 c -192.47715,0.002 -348.509733,157.78526 -348.509802,352.42017 0.246203,77.7352 25.902087,153.20697 72.973454,214.66551 4.873878,-12.11372 10.501998,-23.90229 16.850388,-35.29469 L 64.723599,404.72735 181.97411,553.01103 c 1.28031,-1.16366 4.36239,-4.10839 5.66194,-5.24997 l -24.3426,-279.23504 131.68313,222.8442 c 3.87532,-1.0501 13.1469,-3.81487 17.06007,-4.70967 l 59.13488,-296.98364 59.14191,294.02113 c 4.71768,0.75286 14.7935,1.61757 19.47115,2.59342 L 582.63576,286.4503 553.79967,535.48285 c 2.83031,2.10775 9.20864,6.05682 11.96544,8.26212 l 113.64404,-110.34826 -45.3779,184.42254 c 8.9007,13.5088 16.73666,27.70612 23.43524,42.46035 40.70541,-58.9772 62.5921,-129.13618 62.72136,-201.05685 -8e-5,-194.63757 -156.03677,-352.42197 -348.51655,-352.42017 z"
       id="path4171"
       inkscape:connector-curvature="0"
       sodipodi:nodetypes="scccccccccccccccccccs" />
  </g>
</svg>
