<?xml version="1.0" encoding="UTF-8" standalone="no"?>
<!-- Created with Inkscape (http://www.inkscape.org/) -->

<svg
   xmlns:dc="http://purl.org/dc/elements/1.1/"
   xmlns:cc="http://creativecommons.org/ns#"
   xmlns:rdf="http://www.w3.org/1999/02/22-rdf-syntax-ns#"
   xmlns:svg="http://www.w3.org/2000/svg"
   xmlns="http://www.w3.org/2000/svg"
   xmlns:xlink="http://www.w3.org/1999/xlink"
   xmlns:sodipodi="http://sodipodi.sourceforge.net/DTD/sodipodi-0.dtd"
   xmlns:inkscape="http://www.inkscape.org/namespaces/inkscape"
   version="1.1"
   width="759"
   height="759"
   id="svg5046"
   sodipodi:docname="mirrodin besieged mythic.svg"
   inkscape:version="0.92.2 5c3e80d, 2017-08-06">
  <sodipodi:namedview
     pagecolor="#ffffff"
     bordercolor="#666666"
     borderopacity="1"
     objecttolerance="10"
     gridtolerance="10"
     guidetolerance="10"
     inkscape:pageopacity="0"
     inkscape:pageshadow="2"
     inkscape:window-width="980"
     inkscape:window-height="611"
     id="namedview16"
     showgrid="false"
     inkscape:zoom="0.31093544"
     inkscape:cx="379.5"
     inkscape:cy="379.5"
     inkscape:window-x="0"
     inkscape:window-y="0"
     inkscape:window-maximized="0"
     inkscape:current-layer="svg5046" />
  <defs
     id="defs5048">
    <linearGradient
       x1="0"
       y1="0"
       x2="1"
       y2="0"
       id="linearGradient570"
       gradientUnits="userSpaceOnUse"
       gradientTransform="matrix(16.335449,-28.293823,-28.293823,-16.335449,487.24121,383.55664)"
       spreadMethod="pad">
      <stop
         id="stop572"
         style="stop-color:#bb2c26;stop-opacity:1"
         offset="0" />
      <stop
         id="stop574"
         style="stop-color:#e07823;stop-opacity:1"
         offset="0.39999399" />
      <stop
         id="stop576"
         style="stop-color:#f7981d;stop-opacity:1"
         offset="0.5" />
      <stop
         id="stop578"
         style="stop-color:#e07823;stop-opacity:1"
         offset="0.60000598" />
      <stop
         id="stop580"
         style="stop-color:#bb2c26;stop-opacity:1"
         offset="1" />
    </linearGradient>
    <linearGradient
       x1="0"
       y1="0"
       x2="1"
       y2="0"
       id="linearGradient2997"
       xlink:href="#linearGradient570"
       gradientUnits="userSpaceOnUse"
       gradientTransform="matrix(16.335449,-28.293823,-28.293823,-16.335449,487.24121,383.55664)"
       spreadMethod="pad" />
    <linearGradient
       x1="0"
       y1="0"
       x2="1"
       y2="0"
       id="linearGradient3000"
       xlink:href="#linearGradient570"
       gradientUnits="userSpaceOnUse"
       gradientTransform="matrix(309.77463,536.54532,-536.54532,309.77463,215.6486,156.24929)"
       spreadMethod="pad" />
  </defs>
  <metadata
     id="metadata5051">
    <rdf:RDF>
      <cc:Work
         rdf:about="">
        <dc:format>image/svg+xml</dc:format>
        <dc:type
           rdf:resource="http://purl.org/dc/dcmitype/StillImage" />
        <dc:title />
      </cc:Work>
    </rdf:RDF>
  </metadata>
  <path
     d="m 487.74955,170.42704 -50.15803,147.85714 h -0.0759 c -0.20784,-0.15171 -0.43692,-0.20936 -0.66296,-0.28521 -3.622,-116.22629 -12.59166,-205.71428 -26.5866,-266.150435 l -22.9646,-57.49684 -22.88875,57.42099 c -13.99494,60.512005 -22.9646,149.999995 -26.66245,266.226285 -0.22756,0.0759 -0.45512,0.13654 -0.60683,0.28521 h -0.0607 L 287.30397,169.68747 C 170.33893,210.64828 86.483051,322.00099 86.483051,452.88595 c 0,165.70164 134.298359,300 299.999999,300 165.70164,0 300,-134.29836 300,-300 0,-130.14539 -82.88875,-240.89128 -198.73578,-282.45891"
     inkscape:connector-curvature="0"
     id="path564"
     style="fill:#ffffff;fill-opacity:1;fill-rule:nonzero;stroke:none" />
  <path
     d="m 491.90252,179.16914 -49.64602,145.94184 -11.92794,-2.29456 -0.13653,-4.60809 C 426.55107,202.79745 417.67622,113.84044 403.81402,53.840445 l -16.51706,-41.34008 -16.44122,41.34008 c -13.8622,59.999995 -22.73704,148.957005 -26.378,264.367885 l -0.15171,4.60809 -12.06068,2.29456 -49.1909,-146.75727 C 169.21858,221.24878 93.21352,330.74309 93.21352,452.88595 c 0,161.70038 131.56763,293.26801 293.26801,293.26801 161.70038,0 293.26802,-131.56763 293.26802,-293.26801 0,-121.19469 -75.18964,-230.30973 -187.85082,-273.71681"
     inkscape:connector-curvature="0"
     id="path566"
     style="fill:#000000;fill-opacity:1;fill-rule:nonzero;stroke:none" />
  <path
     d="m 360.79,335.76838 c -55.20227,12.36409 -94.38053,61.40328 -94.38053,117.93299 v 0 c 0,56.51075 39.17826,105.47409 94.38053,117.933 v 0 c 1.555,59.46903 4.43742,111.84577 8.5904,157.1871 v 0 c 11.98482,0.73958 23.91276,0.73958 35.8407,0 v 0 c 4.22883,-45.34133 7.0354,-97.71807 8.66625,-157.1871 v 0 c 55.12642,-12.45891 94.30468,-61.42225 94.30468,-117.933 v 0 c 0,-56.52971 -39.17826,-105.5689 -94.30468,-117.93299 v 0 c -3.31859,-123.622 -12.13654,-216.52339 -26.5866,-278.666245 v 0 C 372.92654,119.24499 364.03273,212.14638 360.79,335.76838 m 54.5196,117.93299 c 0,-28.82427 -0.22756,-56.30215 -0.68268,-82.60429 v 0 c 79.57016,26.30214 79.57016,138.83059 0,165.18963 v 0 c 0.45512,-26.28319 0.68268,-53.78003 0.68268,-82.58534 m -55.33502,-82.60429 c -0.45512,26.30214 -0.68268,53.78002 -0.68268,82.60429 v 0 c 0,28.80531 0.22756,56.30215 0.68268,82.58534 v 0 c -79.49431,-26.35904 -79.49431,-138.88749 0,-165.18963 m 96.65613,-35.68901 c 16.30847,9.55753 29.26043,21.18205 40.52465,36.21998 v 0 c 25.99874,-39.93679 51.92162,-79.85462 77.92036,-119.7914 v 0 c -22.14918,-20.65108 -46.1378,-36.58028 -73.63464,-49.09609 v 0 c -14.96208,44.22251 -29.8483,88.44501 -44.81037,132.66751 M 199.60163,251.83665 c 25.92289,39.93678 51.92162,79.85461 77.8445,119.7914 v 0 c 11.34008,-15.03793 24.29204,-26.66245 40.60051,-36.21998 v 0 c -14.96207,-44.2225 -29.86726,-88.445 -44.82933,-132.66751 v 0 c -27.55373,12.51581 -51.48546,28.44501 -73.61568,49.09609 m 310.52466,140.82174 c 37.24399,74.96207 -0.81543,165.49305 -80.38559,191.41593 v 0 c -0.15171,4.28571 -0.28445,8.66624 -0.3603,12.97092 v 0 c -0.53098,14.14665 -1.11884,28.2933 -1.78256,42.43995 v 0 c -1.04298,21.54235 -2.29456,43.10367 -4.00126,64.66498 v 0 c -0.58787,7.69912 -1.17573,15.39823 -1.93426,23.11631 v 0 C 635.53084,700.37647 737.23122,449.5484 602.4967,281.32464 v 0 c -30.81542,37.11125 -61.63084,74.2225 -92.37041,111.33375 M 352.92022,727.26648 c -0.66372,-7.71808 -1.25158,-15.41719 -1.83945,-23.11631 v 0 c -1.7067,-21.56131 -2.95828,-43.12263 -4.00126,-64.66498 v 0 c -0.66372,-14.14665 -1.27054,-28.2933 -1.78255,-42.43995 v 0 c -0.15171,-4.30468 -0.30342,-8.68521 -0.36031,-12.97092 v 0 C 265.29064,558.15144 227.28811,467.62046 264.55107,392.65839 v 0 c -30.81543,-37.11125 -61.63085,-74.2225 -92.37042,-111.33375 v 0 C 37.370282,449.5484 139.14651,700.37647 352.92022,727.26648"
     inkscape:connector-curvature="0"
     id="path582"
     style="fill:url(#linearGradient3000);fill-opacity:1;fill-rule:nonzero;stroke:none" />
</svg>
