<?xml version="1.0" encoding="UTF-8" standalone="no"?>
<!-- Created with Inkscape (http://www.inkscape.org/) -->

<svg
   xmlns:dc="http://purl.org/dc/elements/1.1/"
   xmlns:cc="http://creativecommons.org/ns#"
   xmlns:rdf="http://www.w3.org/1999/02/22-rdf-syntax-ns#"
   xmlns:svg="http://www.w3.org/2000/svg"
   xmlns="http://www.w3.org/2000/svg"
   xmlns:xlink="http://www.w3.org/1999/xlink"
   xmlns:sodipodi="http://sodipodi.sourceforge.net/DTD/sodipodi-0.dtd"
   xmlns:inkscape="http://www.inkscape.org/namespaces/inkscape"
   version="1.1"
   width="759"
   height="759"
   id="svg4976"
   sodipodi:docname="mirrodin besieged rare.svg"
   inkscape:version="0.92.2 5c3e80d, 2017-08-06">
  <sodipodi:namedview
     pagecolor="#ffffff"
     bordercolor="#666666"
     borderopacity="1"
     objecttolerance="10"
     gridtolerance="10"
     guidetolerance="10"
     inkscape:pageopacity="0"
     inkscape:pageshadow="2"
     inkscape:window-width="988"
     inkscape:window-height="557"
     id="namedview15"
     showgrid="false"
     inkscape:zoom="0.31093544"
     inkscape:cx="379.5"
     inkscape:cy="364.07654"
     inkscape:window-x="0"
     inkscape:window-y="0"
     inkscape:window-maximized="0"
     inkscape:current-layer="svg4976" />
  <defs
     id="defs4978">
    <linearGradient
       x1="0"
       y1="0"
       x2="1"
       y2="0"
       id="linearGradient550"
       gradientUnits="userSpaceOnUse"
       gradientTransform="matrix(16.335937,-28.294678,-28.294678,-16.335937,420.83203,383.55713)"
       spreadMethod="pad">
      <stop
         id="stop552"
         style="stop-color:#8d742f;stop-opacity:1"
         offset="0" />
      <stop
         id="stop554"
         style="stop-color:#b39a54;stop-opacity:1"
         offset="0.39999399" />
      <stop
         id="stop556"
         style="stop-color:#d7bd74;stop-opacity:1"
         offset="0.5" />
      <stop
         id="stop558"
         style="stop-color:#b39a54;stop-opacity:1"
         offset="0.60000598" />
      <stop
         id="stop560"
         style="stop-color:#8d742f;stop-opacity:1"
         offset="1" />
    </linearGradient>
    <linearGradient
       x1="0"
       y1="0"
       x2="1"
       y2="0"
       id="linearGradient2995"
       xlink:href="#linearGradient550"
       gradientUnits="userSpaceOnUse"
       gradientTransform="matrix(16.335937,-28.294678,-28.294678,-16.335937,420.83203,383.55713)"
       spreadMethod="pad" />
    <linearGradient
       x1="0"
       y1="0"
       x2="1"
       y2="0"
       id="linearGradient2998"
       xlink:href="#linearGradient550"
       gradientUnits="userSpaceOnUse"
       gradientTransform="matrix(309.81326,536.6124,-536.6124,309.81326,214.39961,161.90367)"
       spreadMethod="pad" />
  </defs>
  <metadata
     id="metadata4981">
    <rdf:RDF>
      <cc:Work
         rdf:about="">
        <dc:format>image/svg+xml</dc:format>
        <dc:type
           rdf:resource="http://purl.org/dc/dcmitype/StillImage" />
        <dc:title />
      </cc:Work>
    </rdf:RDF>
  </metadata>
  <path
     d="m 486.51081,176.09205 -50.16278,147.87116 v 0 c -0.22759,-0.15172 -0.43696,-0.20938 -0.66303,-0.28524 C 431.9868,207.44066 423.01629,117.94418 409.02002,57.50229 L 386.12911,0 363.16233,57.42643 c -13.99627,60.51775 -22.96678,150.01423 -26.60809,266.25154 -0.28524,0.0759 -0.43696,0.13655 -0.66302,0.28524 h -0.0759 L 286.03184,175.3524 C 169.13078,216.3171 85.266949,327.68038 85.266949,458.57774 c 0,165.71736 134.311091,300.02845 299.971551,300.02845 165.71736,0 300.02845,-134.31109 300.02845,-300.02845 0,-130.15772 -82.89661,-240.91412 -198.75462,-282.48569"
     inkscape:connector-curvature="0"
     id="path546"
     style="fill:#000000;fill-opacity:1;fill-rule:nonzero;stroke:none" />
  <path
     d="m 359.52026,341.44906 c -55.18854,12.36527 -94.37051,61.40911 -94.37051,117.94418 v 0 c 0,56.51611 39.18197,105.48409 94.37051,117.94418 v 0 c 1.55514,59.47467 4.45681,111.85637 8.61017,157.20201 v 0 c 11.98597,0.73964 23.91504,0.73964 35.84411,0 v 0 c 4.22922,-45.34564 7.03606,-97.72734 8.66707,-157.20201 v 0 c 55.11268,-12.46009 94.38948,-61.42807 94.38948,-117.94418 v 0 c 0,-56.53507 -39.2768,-105.57891 -94.38948,-117.94418 v 0 C 409.3796,217.81534 400.50392,124.90514 386.12835,62.75639 v 0 c -14.45144,62.14875 -23.34609,155.05895 -26.60809,278.69267 m 54.60063,117.94418 c 0,-28.827 -0.28448,-56.30748 -0.73964,-82.61213 v 0 c 79.57771,26.30465 79.57771,138.84376 0,165.2053 v 0 c 0.45516,-26.28568 0.73964,-53.78513 0.73964,-82.59317 m -55.34027,-82.61213 c -0.4362,26.30465 -0.73964,53.78513 -0.73964,82.61213 v 0 c 0,28.80804 0.30344,56.30749 0.73964,82.59317 v 0 c -79.55874,-26.36154 -79.55874,-138.90065 0,-165.2053 m 96.6084,-35.69238 c 16.29105,9.55842 29.33907,21.18405 40.5285,36.22341 v 0 c 26.0012,-39.94058 52.0024,-79.86219 77.92774,-119.80277 v 0 c -22.15128,-20.65303 -46.08528,-36.58374 -73.64162,-49.10073 v 0 c -14.96349,44.22669 -29.85113,88.45339 -44.81462,132.68009 M 198.31661,257.50937 c 26.0012,39.94058 51.9455,79.86219 77.94671,119.80277 v 0 c 11.26529,-15.03936 24.21847,-26.66499 40.50952,-36.22341 v 0 L 271.95823,208.40864 v 0 c -27.55634,12.51699 -51.49034,28.4477 -73.64162,49.10073 m 310.5541,140.8351 c 37.26649,74.96918 -0.81551,165.50874 -80.37425,191.43408 v 0 c -0.15172,4.28612 -0.30344,8.66707 -0.36034,12.97215 v 0 c -0.53102,14.148 -1.04308,28.29599 -1.78272,42.44398 v 0 c -1.04308,21.54439 -2.29478,43.10775 -4.00164,64.67111 v 0 c -0.51206,7.69985 -1.19481,15.39969 -1.85859,23.1185 v 0 C 634.30611,706.09173 736.01614,455.23988 601.24988,287.00016 v 0 C 570.5074,324.11493 539.68905,361.2297 508.87071,398.34447 M 351.74456,732.98429 c -0.73964,-7.71881 -1.32756,-15.41865 -1.91548,-23.1185 v 0 c -1.63101,-21.56336 -2.97753,-43.12672 -4.00165,-64.67111 v 0 c -0.66378,-14.14799 -1.27066,-28.29598 -1.70686,-42.44398 v 0 c -0.22758,-4.30508 -0.3793,-8.68603 -0.45516,-12.97215 v 0 C 264.0308,563.85321 226.02467,473.31365 263.29116,398.34447 v 0 C 232.47282,361.2297 201.65447,324.11493 170.91199,287.00016 v 0 C 36.164695,455.23988 137.87472,706.09173 351.74456,732.98429"
     inkscape:connector-curvature="0"
     id="path562"
     style="fill:url(#linearGradient2998);fill-opacity:1;fill-rule:nonzero;stroke:none" />
</svg>
