<?xml version="1.0" encoding="UTF-8" standalone="no"?>
<!-- Created with Inkscape (http://www.inkscape.org/) -->

<svg
   xmlns:dc="http://purl.org/dc/elements/1.1/"
   xmlns:cc="http://creativecommons.org/ns#"
   xmlns:rdf="http://www.w3.org/1999/02/22-rdf-syntax-ns#"
   xmlns:svg="http://www.w3.org/2000/svg"
   xmlns="http://www.w3.org/2000/svg"
   xmlns:xlink="http://www.w3.org/1999/xlink"
   xmlns:sodipodi="http://sodipodi.sourceforge.net/DTD/sodipodi-0.dtd"
   xmlns:inkscape="http://www.inkscape.org/namespaces/inkscape"
   version="1.1"
   width="759"
   height="759"
   id="svg4907"
   sodipodi:docname="mirrodin besieged uncommon.svg"
   inkscape:version="0.92.2 5c3e80d, 2017-08-06">
  <sodipodi:namedview
     pagecolor="#ffffff"
     bordercolor="#666666"
     borderopacity="1"
     objecttolerance="10"
     gridtolerance="10"
     guidetolerance="10"
     inkscape:pageopacity="0"
     inkscape:pageshadow="2"
     inkscape:window-width="916"
     inkscape:window-height="658"
     id="namedview15"
     showgrid="false"
     inkscape:zoom="0.31093544"
     inkscape:cx="385.55592"
     inkscape:cy="434.24909"
     inkscape:window-x="0"
     inkscape:window-y="0"
     inkscape:window-maximized="0"
     inkscape:current-layer="svg4907" />
  <defs
     id="defs4909">
    <linearGradient
       x1="0"
       y1="0"
       x2="1"
       y2="0"
       id="linearGradient532"
       gradientUnits="userSpaceOnUse"
       gradientTransform="matrix(16.335937,-28.294678,-28.294678,-16.335937,353.83203,383.55713)"
       spreadMethod="pad">
      <stop
         id="stop534"
         style="stop-color:#626e77;stop-opacity:1"
         offset="0" />
      <stop
         id="stop536"
         style="stop-color:#a0b6c2;stop-opacity:1"
         offset="0.39999399" />
      <stop
         id="stop538"
         style="stop-color:#b7d1e1;stop-opacity:1"
         offset="0.5" />
      <stop
         id="stop540"
         style="stop-color:#a0b6c2;stop-opacity:1"
         offset="0.60000598" />
      <stop
         id="stop542"
         style="stop-color:#626e77;stop-opacity:1"
         offset="1" />
    </linearGradient>
    <linearGradient
       x1="0"
       y1="0"
       x2="1"
       y2="0"
       id="linearGradient2995"
       xlink:href="#linearGradient532"
       gradientUnits="userSpaceOnUse"
       gradientTransform="matrix(16.335937,-28.294678,-28.294678,-16.335937,353.83203,383.55713)"
       spreadMethod="pad" />
    <linearGradient
       x1="0"
       y1="0"
       x2="1"
       y2="0"
       id="linearGradient2998"
       xlink:href="#linearGradient532"
       gradientUnits="userSpaceOnUse"
       gradientTransform="matrix(309.78388,536.56152,-536.56152,309.78388,211.49934,167.10441)"
       spreadMethod="pad" />
  </defs>
  <metadata
     id="metadata4912">
    <rdf:RDF>
      <cc:Work
         rdf:about="">
        <dc:format>image/svg+xml</dc:format>
        <dc:type
           rdf:resource="http://purl.org/dc/dcmitype/StillImage" />
        <dc:title />
      </cc:Work>
    </rdf:RDF>
  </metadata>
  <path
     d="m 483.58474,181.29145 -50.15803,147.85714 v 0 c -0.22756,-0.15171 -0.43692,-0.20936 -0.66296,-0.28521 C 429.0659,212.63709 420.09624,123.1491 406.1013,62.712942 L 383.21255,5.2161017 360.24795,62.637092 C 346.253,123.1491 337.28334,212.63709 333.64238,328.86338 c -0.2852,0.0759 -0.43691,0.13654 -0.66295,0.28521 h -0.0759 L 283.12477,180.55188 C 166.2348,221.51269 82.322034,332.8654 82.322034,463.75036 c 0,165.70164 134.355246,300 299.999996,300 165.70164,0 300,-134.29836 300,-300 0,-130.14539 -82.88875,-240.89128 -198.73578,-282.45891"
     inkscape:connector-curvature="0"
     id="path528"
     style="fill:#000000;fill-opacity:1;fill-rule:nonzero;stroke:none" />
  <path
     d="m 356.60623,346.63279 c -55.10746,12.36409 -94.28572,61.40328 -94.28572,117.93299 v 0 c 0,56.51075 39.17826,105.47409 94.28572,117.933 v 0 c 1.63084,59.46903 4.45638,111.84577 8.60935,157.1871 v 0 c 11.98483,0.73958 23.91277,0.73958 35.84071,0 v 0 c 4.22882,-45.34133 7.0354,-97.71807 8.66625,-157.1871 v 0 c 55.18331,-12.45891 94.38053,-61.42225 94.38053,-117.933 v 0 c 0,-56.52971 -39.19722,-105.5689 -94.38053,-117.93299 v 0 C 406.38499,223.01079 397.586,130.1094 383.21179,67.966542 v 0 C 368.76173,130.1094 359.94377,223.01079 356.60623,346.63279 m 54.59545,117.93299 c 0,-28.82427 -0.2086,-56.30215 -0.73957,-82.60429 v 0 c 79.57016,26.30214 79.57016,138.83059 0,165.18963 v 0 c 0.53097,-26.28319 0.73957,-53.78003 0.73957,-82.58534 m -55.33502,-82.60429 c -0.43616,26.30214 -0.73957,53.78002 -0.73957,82.60429 v 0 c 0,28.80531 0.30341,56.30215 0.73957,82.58534 v 0 c -79.5512,-26.35904 -79.5512,-138.88749 0,-165.18963 m 96.59924,-35.68901 c 16.28951,9.55753 29.33628,21.18205 40.6005,36.21998 v 0 c 25.92289,-39.93679 51.92162,-79.85462 77.8445,-119.7914 v 0 c -22.14917,-20.65108 -46.08091,-36.58028 -73.63463,-49.09609 v 0 c -14.96208,44.22251 -29.8483,88.44501 -44.81037,132.66751 M 195.41786,262.70106 c 25.94184,39.93678 51.94058,79.85461 77.93932,119.7914 v 0 c 11.26422,-15.03793 24.21618,-26.66245 40.50568,-36.21998 v 0 c -14.96207,-44.2225 -29.84829,-88.445 -44.81036,-132.66751 v 0 c -27.55373,12.51581 -51.48546,28.44501 -73.63464,49.09609 M 505.94251,403.5228 c 37.26296,74.96207 -0.73957,165.49305 -80.36662,191.41593 v 0 c -0.0759,4.28571 -0.30342,8.66624 -0.36031,12.97092 v 0 c -0.53097,14.14665 -1.11883,28.2933 -1.78255,42.43995 v 0 c -1.04298,21.54235 -2.29457,43.10367 -4.00127,64.66498 v 0 c -0.58786,7.69912 -1.19469,15.39823 -1.93426,23.11631 v 0 C 631.36602,711.24088 733.0664,460.41281 598.31293,292.18905 v 0 c -30.81543,37.11125 -61.555,74.2225 -92.37042,111.33375 M 348.83126,738.13089 c -0.73957,-7.71808 -1.32743,-15.41719 -1.9153,-23.11631 v 0 c -1.63085,-21.56131 -2.97724,-43.12263 -4.00126,-64.66498 v 0 c -0.66372,-14.14665 -1.27055,-28.2933 -1.7067,-42.43995 v 0 c -0.22756,-4.30468 -0.30342,-8.68521 -0.45512,-12.97092 v 0 C 261.12582,569.01585 223.12329,478.48487 260.38625,403.5228 v 0 C 229.57083,366.41155 198.83126,329.3003 168.01584,292.18905 v 0 C 33.281326,460.41281 134.9817,711.24088 348.83126,738.13089"
     inkscape:connector-curvature="0"
     id="path544"
     style="fill:url(#linearGradient2998);fill-opacity:1;fill-rule:nonzero;stroke:none" />
</svg>
