<?xml version="1.0" encoding="UTF-8" standalone="no"?>
<!-- Created with Inkscape (http://www.inkscape.org/) -->

<svg
   xmlns:dc="http://purl.org/dc/elements/1.1/"
   xmlns:cc="http://creativecommons.org/ns#"
   xmlns:rdf="http://www.w3.org/1999/02/22-rdf-syntax-ns#"
   xmlns:svg="http://www.w3.org/2000/svg"
   xmlns="http://www.w3.org/2000/svg"
   xmlns:xlink="http://www.w3.org/1999/xlink"
   xmlns:inkscape="http://www.inkscape.org/namespaces/inkscape"
   version="1.1"
   width="600"
   height="487.85431"
   viewBox="0 0 600.00001 487.85431"
   id="Layer_1"
   xml:space="preserve"><metadata
   id="metadata42"><rdf:RDF><cc:Work
       rdf:about=""><dc:format>image/svg+xml</dc:format><dc:type
         rdf:resource="http://purl.org/dc/dcmitype/StillImage" /><dc:title /></cc:Work></rdf:RDF></metadata><defs
   id="defs40">
	
	
	
		<radialGradient
   cx="-4.2939"
   cy="45.360401"
   r="61.599201"
   fx="-6.5683999"
   fy="45.276402"
   id="SVGID_2_"
   gradientUnits="userSpaceOnUse"
   gradientTransform="matrix(0.9668,-0.2556,0.2468,0.9337,-11.3389,1.9096)">
		<stop
   id="stop10"
   style="stop-color:#be3526;stop-opacity:1"
   offset="0.3055" />
		<stop
   id="stop12"
   style="stop-color:#bf3826;stop-opacity:1"
   offset="0.4113" />
		<stop
   id="stop14"
   style="stop-color:#c44025;stop-opacity:1"
   offset="0.47600001" />
		<stop
   id="stop16"
   style="stop-color:#cd4e24;stop-opacity:1"
   offset="0.52960002" />
		<stop
   id="stop18"
   style="stop-color:#d86323;stop-opacity:1"
   offset="0.57709998" />
		<stop
   id="stop20"
   style="stop-color:#e87d21;stop-opacity:1"
   offset="0.62019998" />
		<stop
   id="stop22"
   style="stop-color:#f6961f;stop-opacity:1"
   offset="0.6523" />
		<stop
   id="stop24"
   style="stop-color:#f6961f;stop-opacity:1"
   offset="0.73280001" />
		<stop
   id="stop26"
   style="stop-color:#ec8520;stop-opacity:1"
   offset="0.76160002" />
		<stop
   id="stop28"
   style="stop-color:#d86223;stop-opacity:1"
   offset="0.82870001" />
		<stop
   id="stop30"
   style="stop-color:#ca4925;stop-opacity:1"
   offset="0.89230001" />
		<stop
   id="stop32"
   style="stop-color:#c13a26;stop-opacity:1"
   offset="0.9501" />
		<stop
   id="stop34"
   style="stop-color:#be3526;stop-opacity:1"
   offset="0.99720001" />
	</radialGradient>
	
<radialGradient
   cx="-4.2939"
   cy="45.360401"
   r="61.599201"
   fx="-6.5683999"
   fy="45.276402"
   id="radialGradient3015"
   xlink:href="#SVGID_2_"
   gradientUnits="userSpaceOnUse"
   gradientTransform="matrix(9.4329622,-2.4938613,2.4080007,9.1100091,-110.63241,18.64152)" /></defs>
<path
   d="m 51.643224,264.58737 c 0,-163.48646 106.945286,-263.99220043 225.901296,-263.99220043 0,0 0.87812,9.08367003 -0.87812,18.31369043 -1.58062,8.29336 -34.08082,28.11936 -33.84665,65.26384 0.21465,33.8369 24.38247,58.22913 57.79006,58.22913 31.65136,0 57.79982,-24.60688 57.79982,-58.22913 0,-34.28571 -31.82698,-55.13619 -33.62224,-65.48825 C 323.07993,8.8299896 323.90927,6.3712496 323.90927,-4.3422842e-7 418.18035,-4.3422842e-7 549.59591,78.24051 549.59591,264.57762 c -59.92682,-4.0979 -92.99293,31.08545 -99.1788,48.34539 46.2867,53.33117 83.80194,48.6381 149.5829,48.6381 C 596.59486,369.87398 467.96,487.85431 467.96,487.85431 L 134.04993,487.59087 0,361.06351 c 72.737622,0 116.69242,-1.53183 148.11936,-48.34539 -12.63517,-52.08229 -96.476136,-48.13075 -96.476136,-48.13075 z"
   inkscape:connector-curvature="0"
   id="path5"
   style="fill:#ffffff" /><path
   d="m 437.23556,334.14425 c 56.55094,44.13042 75.43052,45.75006 115.6094,47.18432 -24.1288,23.11408 -59.02919,55.71185 -92.63193,86.59241 l -318.221,-0.25368 -92.719734,-87.51931 c 47.623385,-2.60509 51.282224,3.00512 113.238484,-46.00374 h 274.72478 z m -0.32198,-38.6568 C 450.10489,274.00277 481.28792,248.18604 529.1162,244.72234 524.32556,158.12018 488.60559,105.89154 458.30068,76.80625 428.43484,48.1405 390.05123,28.77308 351.64811,22.31401 c 10.93747,13.06448 26.68509,33.64176 26.68509,61.86845 0,43.82795 -34.13936,78.16245 -77.73315,78.16245 -44.02309,0 -77.44044,-33.54419 -77.72339,-78.03561 -0.18538,-28.33401 14.00114,-48.57956 25.08497,-61.48793 -42.97911,6.73226 -82.42622,28.13888 -113.27751,61.90748 -19.65038,21.5237 -35.056506,47.27213 -45.769575,76.51353 -9.503212,25.90455 -15.132938,54.11172 -16.820881,84.07513 28.119366,2.39044 73.576716,12.32296 90.582976,50.3358 l 274.23694,-0.16586 z"
   inkscape:connector-curvature="0"
   id="path7"
   style="fill:#000000" /><path
   d="m 146.27531,456.85667 -71.098468,-67.1079 c 29.309708,-1.83429 43.515738,-7.41524 91.080578,-44.80364 h 267.28027 c 43.69136,33.72957 66.21027,42.64737 93.89057,45.64273 -20.55777,19.42597 -45.86715,43.00838 -71.4302,66.52249 L 146.27531,456.85667 z M 169.3406,284.84268 C 150.46102,251.15213 111.36515,239.59998 83.62631,235.73625 85.860638,210.63177 91.03179,186.85422 99.071471,164.95 109.30645,137.03554 123.98081,112.4872 142.68477,92.00749 165.35979,67.1762 192.81568,49.4089 223.15961,39.74958 c -6.04927,11.60094 -11.1814,26.67534 -11.07407,44.62802 0.33173,50.60899 38.39337,88.76819 88.52427,88.76819 49.65282,0 88.53403,-39.07635 88.53403,-88.96333 0,-17.49411 -5.4541,-32.48069 -11.93268,-44.3158 8.80072,2.9661 17.50386,6.64444 26.06066,10.99602 17.51362,8.9178 33.51492,20.26506 47.53557,33.72957 17.38678,16.69404 31.76844,36.65664 42.73518,59.31214 13.05472,26.96805 21.12367,57.59493 24.0605,91.19766 -41.88634,6.01024 -71.23506,28.22668 -86.48509,49.59428 l -261.77738,0.14635 z"
   inkscape:connector-curvature="0"
   id="path36"
   style="fill:url(#radialGradient3015)" />
</svg>