<?xml version="1.0" encoding="UTF-8" standalone="no"?>
<!-- Created with Inkscape (http://www.inkscape.org/) -->

<svg
   xmlns:dc="http://purl.org/dc/elements/1.1/"
   xmlns:cc="http://creativecommons.org/ns#"
   xmlns:rdf="http://www.w3.org/1999/02/22-rdf-syntax-ns#"
   xmlns:svg="http://www.w3.org/2000/svg"
   xmlns="http://www.w3.org/2000/svg"
   xmlns:xlink="http://www.w3.org/1999/xlink"
   xmlns:sodipodi="http://sodipodi.sourceforge.net/DTD/sodipodi-0.dtd"
   xmlns:inkscape="http://www.inkscape.org/namespaces/inkscape"
   version="1.1"
   width="920"
   height="900"
   id="svg3944"
   sodipodi:docname="new phyrexia rare.svg"
   inkscape:version="0.92.2 5c3e80d, 2017-08-06">
  <sodipodi:namedview
     pagecolor="#ffffff"
     bordercolor="#666666"
     borderopacity="1"
     objecttolerance="10"
     gridtolerance="10"
     guidetolerance="10"
     inkscape:pageopacity="0"
     inkscape:pageshadow="2"
     inkscape:window-width="1413"
     inkscape:window-height="947"
     id="namedview15"
     showgrid="false"
     inkscape:zoom="0.26222222"
     inkscape:cx="460"
     inkscape:cy="450"
     inkscape:window-x="0"
     inkscape:window-y="0"
     inkscape:window-maximized="0"
     inkscape:current-layer="svg3944" />
  <defs
     id="defs3946">
    <linearGradient
       x1="0"
       y1="0"
       x2="1"
       y2="0"
       id="linearGradient490"
       gradientUnits="userSpaceOnUse"
       gradientTransform="matrix(22.892578,0,0,-22.892578,680.89844,371.94775)"
       spreadMethod="pad">
      <stop
         id="stop492"
         style="stop-color:#8d742f;stop-opacity:1"
         offset="0" />
      <stop
         id="stop494"
         style="stop-color:#b39a54;stop-opacity:1"
         offset="0.39999399" />
      <stop
         id="stop496"
         style="stop-color:#d7bd74;stop-opacity:1"
         offset="0.5" />
      <stop
         id="stop498"
         style="stop-color:#b39a54;stop-opacity:1"
         offset="0.60000598" />
      <stop
         id="stop500"
         style="stop-color:#8d742f;stop-opacity:1"
         offset="1" />
    </linearGradient>
    <linearGradient
       x1="0"
       y1="0"
       x2="1"
       y2="0"
       id="linearGradient2995"
       xlink:href="#linearGradient490"
       gradientUnits="userSpaceOnUse"
       gradientTransform="matrix(22.892578,0,0,-22.892578,680.89844,371.94775)"
       spreadMethod="pad" />
    <linearGradient
       x1="0"
       y1="0"
       x2="1"
       y2="0"
       id="linearGradient2998"
       xlink:href="#linearGradient490"
       gradientUnits="userSpaceOnUse"
       gradientTransform="matrix(531.00656,0,0,531.00656,200.52523,463.94054)"
       spreadMethod="pad" />
  </defs>
  <metadata
     id="metadata3949">
    <rdf:RDF>
      <cc:Work
         rdf:about="">
        <dc:format>image/svg+xml</dc:format>
        <dc:type
           rdf:resource="http://purl.org/dc/dcmitype/StillImage" />
        <dc:title />
      </cc:Work>
    </rdf:RDF>
  </metadata>
  <path
     d="M 388.44559,927.8231 V 714.51657 C 331.26849,701.20231 279.44957,673.29803 240.10987,634.16709 192.37337,586.68574 166,525.61179 166,462.19508 c 0,-63.34712 26.37337,-124.42108 74.10987,-171.90242 39.3397,-39.13094 91.15862,-67.12801 148.33572,-80.44227 V 133.46736 L 543.57761,0 v 209.85039 c 57.1539,13.31426 109.0888,41.31133 148.4053,80.44227 C 739.74261,337.774 766,398.84796 766,462.19508 c 0,63.41671 -26.25739,124.49066 -74.01709,171.97201 -39.3165,39.13094 -91.2514,67.03522 -148.4053,80.34948 v 79.93196 z"
     inkscape:connector-curvature="0"
     id="path486"
     style="fill:#000000;fill-opacity:1;fill-rule:nonzero;stroke:none" />
  <path
     d="m 422.86782,149.30994 v 89.25658 c -126.11435,17.58225 -222.3528,110.99084 -222.3528,223.62856 v 0 c 0,112.70731 96.23845,206.1159 222.3528,223.69815 v 0 166.79939 l 86.26436,-74.10987 v -92.68952 c 126.13755,-17.58225 222.3528,-110.99084 222.3528,-223.69815 v 0 c 0,-112.63772 -96.21525,-206.04631 -222.3528,-223.62856 v 0 -163.36645 z m 86.26436,195.0748 c 59.79819,15.49465 103.2899,62.4425 103.2899,117.81034 v 0 c 0,55.43743 -43.49171,102.38528 -103.2899,117.87992 v 0 z M 319.57792,462.19508 c 0,-55.36784 43.49171,-102.31569 103.2899,-117.81034 v 0 V 580.075 C 363.06963,564.58036 319.57792,517.63251 319.57792,462.19508"
     inkscape:connector-curvature="0"
     id="path502"
     style="fill:url(#linearGradient2998);fill-opacity:1;fill-rule:nonzero;stroke:none" />
</svg>
