<?xml version="1.0" encoding="UTF-8" standalone="no"?>
<!-- Created with Inkscape (http://www.inkscape.org/) -->

<svg
   xmlns:dc="http://purl.org/dc/elements/1.1/"
   xmlns:cc="http://creativecommons.org/ns#"
   xmlns:rdf="http://www.w3.org/1999/02/22-rdf-syntax-ns#"
   xmlns:svg="http://www.w3.org/2000/svg"
   xmlns="http://www.w3.org/2000/svg"
   xmlns:xlink="http://www.w3.org/1999/xlink"
   xmlns:sodipodi="http://sodipodi.sourceforge.net/DTD/sodipodi-0.dtd"
   xmlns:inkscape="http://www.inkscape.org/namespaces/inkscape"
   version="1.1"
   width="927"
   height="900"
   id="svg4014"
   sodipodi:docname="new phyrexia mythic.svg"
   inkscape:version="0.92.2 5c3e80d, 2017-08-06">
  <sodipodi:namedview
     pagecolor="#ffffff"
     bordercolor="#666666"
     borderopacity="1"
     objecttolerance="10"
     gridtolerance="10"
     guidetolerance="10"
     inkscape:pageopacity="0"
     inkscape:pageshadow="2"
     inkscape:window-width="1298"
     inkscape:window-height="868"
     id="namedview16"
     showgrid="false"
     inkscape:zoom="0.26222222"
     inkscape:cx="-225.48901"
     inkscape:cy="630.01049"
     inkscape:window-x="0"
     inkscape:window-y="0"
     inkscape:window-maximized="0"
     inkscape:current-layer="svg4014" />
  <defs
     id="defs4016">
    <linearGradient
       x1="0"
       y1="0"
       x2="1"
       y2="0"
       id="linearGradient510"
       gradientUnits="userSpaceOnUse"
       gradientTransform="matrix(22.892578,0,0,-22.892578,747.27344,371.94775)"
       spreadMethod="pad">
      <stop
         id="stop512"
         style="stop-color:#bb2c26;stop-opacity:1"
         offset="0" />
      <stop
         id="stop514"
         style="stop-color:#e07823;stop-opacity:1"
         offset="0.39999399" />
      <stop
         id="stop516"
         style="stop-color:#f7981d;stop-opacity:1"
         offset="0.5" />
      <stop
         id="stop518"
         style="stop-color:#e07823;stop-opacity:1"
         offset="0.60000598" />
      <stop
         id="stop520"
         style="stop-color:#bb2c26;stop-opacity:1"
         offset="1" />
    </linearGradient>
    <linearGradient
       x1="0"
       y1="0"
       x2="1"
       y2="0"
       id="linearGradient2997"
       xlink:href="#linearGradient510"
       gradientUnits="userSpaceOnUse"
       gradientTransform="matrix(22.892578,0,0,-22.892578,747.27344,371.94775)"
       spreadMethod="pad" />
    <linearGradient
       x1="0"
       y1="0"
       x2="1"
       y2="0"
       id="linearGradient3000"
       xlink:href="#linearGradient510"
       gradientUnits="userSpaceOnUse"
       gradientTransform="matrix(531.00656,0,0,531.00656,200.52523,459.94054)"
       spreadMethod="pad" />
  </defs>
  <metadata
     id="metadata4019">
    <rdf:RDF>
      <cc:Work
         rdf:about="">
        <dc:format>image/svg+xml</dc:format>
        <dc:type
           rdf:resource="http://purl.org/dc/dcmitype/StillImage" />
        <dc:title />
      </cc:Work>
    </rdf:RDF>
  </metadata>
  <path
     d="M 388.44559,923.8231 V 710.51657 C 331.26849,697.20231 279.44957,669.29803 240.10987,630.16709 192.37337,582.68574 166,521.61179 166,458.19508 c 0,-63.34712 26.37337,-124.42108 74.10987,-171.90242 39.3397,-39.13094 91.15862,-67.12801 148.33572,-80.44227 V 129.46736 L 543.55441,-4 v 209.85039 c 57.1771,13.31426 109.112,41.31133 148.4285,80.44227 C 739.74261,333.774 766,394.84796 766,458.19508 c 0,63.41671 -26.25739,124.49066 -74.01709,171.97201 -39.3165,39.13094 -91.2514,67.03522 -148.4285,80.34948 v 79.93196 z"
     inkscape:connector-curvature="0"
     id="path504"
     style="fill:#ffffff;fill-opacity:1;fill-rule:nonzero;stroke:none" />
  <path
     d="M 399.67225,899.25898 V 701.4703 C 268.66363,675.09692 177.31944,575.51831 177.31944,458.19508 c 0,-117.25364 91.34419,-216.83226 222.35281,-243.20563 V 134.61678 L 532.42054,20.54093 v 194.44852 c 131.00862,26.37337 222.26002,125.95199 222.26002,243.20563 0,117.32323 -91.2514,216.90184 -222.26002,243.27522 v 83.80562 z"
     inkscape:connector-curvature="0"
     id="path506"
     style="fill:#000000;fill-opacity:1;fill-rule:nonzero;stroke:none" />
  <path
     d="m 422.86782,145.30994 v 89.25658 c -126.11435,17.58225 -222.3528,110.99084 -222.3528,223.62856 v 0 c 0,112.70731 96.23845,206.1159 222.3528,223.69815 v 0 166.79939 l 86.26436,-74.10987 v -92.68952 c 126.13755,-17.58225 222.3528,-110.99084 222.3528,-223.69815 v 0 c 0,-112.63772 -96.21525,-206.04631 -222.3528,-223.62856 v 0 -163.36645 z m 86.26436,195.0748 c 59.79819,15.49465 103.2899,62.4425 103.2899,117.81034 v 0 c 0,55.43743 -43.49171,102.38528 -103.2899,117.87992 v 0 z M 319.57792,458.19508 c 0,-55.36784 43.49171,-102.31569 103.2899,-117.81034 v 0 V 576.075 C 363.06963,560.58036 319.57792,513.63251 319.57792,458.19508"
     inkscape:connector-curvature="0"
     id="path522"
     style="fill:url(#linearGradient3000);fill-opacity:1;fill-rule:nonzero;stroke:none" />
</svg>
