<?xml version="1.0" encoding="UTF-8" standalone="no"?>
<!-- Created with Inkscape (http://www.inkscape.org/) -->

<svg
   xmlns:dc="http://purl.org/dc/elements/1.1/"
   xmlns:cc="http://creativecommons.org/ns#"
   xmlns:rdf="http://www.w3.org/1999/02/22-rdf-syntax-ns#"
   xmlns:svg="http://www.w3.org/2000/svg"
   xmlns="http://www.w3.org/2000/svg"
   xmlns:xlink="http://www.w3.org/1999/xlink"
   xmlns:sodipodi="http://sodipodi.sourceforge.net/DTD/sodipodi-0.dtd"
   xmlns:inkscape="http://www.inkscape.org/namespaces/inkscape"
   version="1.1"
   width="920"
   height="900"
   id="svg3875"
   sodipodi:docname="new phyrexia uncommon.svg"
   inkscape:version="0.92.2 5c3e80d, 2017-08-06">
  <sodipodi:namedview
     pagecolor="#ffffff"
     bordercolor="#666666"
     borderopacity="1"
     objecttolerance="10"
     gridtolerance="10"
     guidetolerance="10"
     inkscape:pageopacity="0"
     inkscape:pageshadow="2"
     inkscape:window-width="1444"
     inkscape:window-height="1009"
     id="namedview15"
     showgrid="false"
     inkscape:zoom="0.26222222"
     inkscape:cx="968.56513"
     inkscape:cy="312.84153"
     inkscape:window-x="0"
     inkscape:window-y="0"
     inkscape:window-maximized="0"
     inkscape:current-layer="svg3875" />
  <defs
     id="defs3877">
    <linearGradient
       x1="0"
       y1="0"
       x2="1"
       y2="0"
       id="linearGradient472"
       gradientUnits="userSpaceOnUse"
       gradientTransform="matrix(22.892578,0,0,-22.892578,613.89844,371.94775)"
       spreadMethod="pad">
      <stop
         id="stop474"
         style="stop-color:#626e77;stop-opacity:1"
         offset="0" />
      <stop
         id="stop476"
         style="stop-color:#a0b6c2;stop-opacity:1"
         offset="0.39999399" />
      <stop
         id="stop478"
         style="stop-color:#b7d1e1;stop-opacity:1"
         offset="0.5" />
      <stop
         id="stop480"
         style="stop-color:#a0b6c2;stop-opacity:1"
         offset="0.60000598" />
      <stop
         id="stop482"
         style="stop-color:#626e77;stop-opacity:1"
         offset="1" />
    </linearGradient>
    <linearGradient
       x1="0"
       y1="0"
       x2="1"
       y2="0"
       id="linearGradient2995"
       xlink:href="#linearGradient472"
       gradientUnits="userSpaceOnUse"
       gradientTransform="matrix(22.892578,0,0,-22.892578,613.89844,371.94775)"
       spreadMethod="pad" />
    <linearGradient
       x1="0"
       y1="0"
       x2="1"
       y2="0"
       id="linearGradient2998"
       xlink:href="#linearGradient472"
       gradientUnits="userSpaceOnUse"
       gradientTransform="matrix(531.00656,0,0,531.00656,210.52523,457.94054)"
       spreadMethod="pad" />
  </defs>
  <metadata
     id="metadata3880">
    <rdf:RDF>
      <cc:Work
         rdf:about="">
        <dc:format>image/svg+xml</dc:format>
        <dc:type
           rdf:resource="http://purl.org/dc/dcmitype/StillImage" />
        <dc:title />
      </cc:Work>
    </rdf:RDF>
  </metadata>
  <path
     d="M 398.44559,921.8231 V 708.51657 C 341.26849,695.20231 289.44957,667.29803 250.10987,628.16709 202.37337,580.68574 176,519.61179 176,456.19508 c 0,-63.34712 26.37337,-124.42108 74.10987,-171.90242 39.3397,-39.13094 91.15862,-67.12801 148.33572,-80.44227 V 127.46736 L 553.57761,-6 v 209.85039 c 57.1539,13.31426 109.0888,41.31133 148.4053,80.44227 C 749.74261,331.774 776,392.84796 776,456.19508 c 0,63.41671 -26.25739,124.49066 -74.01709,171.97201 -39.3165,39.13094 -91.2514,67.03522 -148.4053,80.34948 v 79.93196 z"
     inkscape:connector-curvature="0"
     id="path468"
     style="fill:#000000;fill-opacity:1;fill-rule:nonzero;stroke:none" />
  <path
     d="m 432.96061,143.30994 v 89.25658 C 306.84625,250.14877 210.51502,343.55736 210.51502,456.19508 v 0 c 0,112.70731 96.33123,206.1159 222.44559,223.69815 v 0 166.79939 l 86.17157,-74.10987 v -92.68952 c 126.13755,-17.58225 222.3528,-110.99084 222.3528,-223.69815 v 0 c 0,-112.63772 -96.21525,-206.04631 -222.3528,-223.62856 v 0 -163.36645 z m 86.17157,195.0748 c 59.79819,15.49465 103.2899,62.4425 103.2899,117.81034 v 0 c 0,55.43743 -43.49171,102.38528 -103.2899,117.87992 v 0 z M 329.6707,456.19508 c 0,-55.36784 43.39893,-102.31569 103.28991,-117.81034 v 0 V 574.075 C 373.06963,558.58036 329.6707,511.63251 329.6707,456.19508"
     inkscape:connector-curvature="0"
     id="path484"
     style="fill:url(#linearGradient2998);fill-opacity:1;fill-rule:nonzero;stroke:none" />
</svg>
