<?xml version="1.0" encoding="UTF-8" standalone="no"?>
<!-- Created with Inkscape (http://www.inkscape.org/) -->

<svg
   xmlns:dc="http://purl.org/dc/elements/1.1/"
   xmlns:cc="http://creativecommons.org/ns#"
   xmlns:rdf="http://www.w3.org/1999/02/22-rdf-syntax-ns#"
   xmlns:svg="http://www.w3.org/2000/svg"
   xmlns="http://www.w3.org/2000/svg"
   xmlns:inkscape="http://www.inkscape.org/namespaces/inkscape"
   version="1.1"
   width="600"
   height="503.24957"
   id="svg7659">
  <defs
     id="defs7661">
    <linearGradient
       x1="0"
       y1="0"
       x2="1"
       y2="0"
       id="linearGradient720"
       gradientUnits="userSpaceOnUse"
       gradientTransform="matrix(29.487183,-29.487183,-29.487183,-29.487183,466.44141,162.37598)"
       spreadMethod="pad">
      <stop
         id="stop722"
         style="stop-color:#8d742f;stop-opacity:1"
         offset="0" />
      <stop
         id="stop724"
         style="stop-color:#b39a54;stop-opacity:1"
         offset="0.30000299" />
      <stop
         id="stop726"
         style="stop-color:#d7bd74;stop-opacity:1"
         offset="0.5" />
      <stop
         id="stop728"
         style="stop-color:#b39a54;stop-opacity:1"
         offset="0.69999701" />
      <stop
         id="stop730"
         style="stop-color:#8d742f;stop-opacity:1"
         offset="1" />
    </linearGradient>
  </defs>
  <metadata
     id="metadata7664">
    <rdf:RDF>
      <cc:Work
         rdf:about="">
        <dc:format>image/svg+xml</dc:format>
        <dc:type
           rdf:resource="http://purl.org/dc/dcmitype/StillImage" />
        <dc:title />
      </cc:Work>
    </rdf:RDF>
  </metadata>
  <path
     d="m 171.43896,0 c 0,0 -31.70179,3.38336 -31.70179,36.15792 L 22.089835,68.98749 c 0,0 -29.3911998,11.27786 -20.3689098,49.74636 L 99.013085,481.75713 c 0,0 20.368925,27.17689 44.107445,20.41018 l 156.94103,-43.19971 156.87227,43.19971 c 23.73852,6.76671 44.10743,-20.41018 44.10743,-20.41018 L 598.27842,118.73385 C 607.3007,80.26535 577.92325,68.98749 577.92325,68.98749 L 460.31719,36.15792 C 460.31719,3.38336 428.6154,0 428.6154,0 L 171.43896,0 z"
     inkscape:connector-curvature="0"
     id="path714"
     style="fill:#000000;fill-opacity:1;fill-rule:nonzero;stroke:none" />
  <path
     d="m 172.4017,13.54718 c -1.44412,0.26077 -6.01027,1.27908 -10.2601,4.12605 -6.06529,4.02977 -8.85725,9.88876 -8.85725,18.48469 l 0,10.31511 c 0,0 -124.812895,34.81008 -126.628355,35.3052 -3.28708,1.49913 -13.06581,7.46815 -13.06581,23.03709 0,3.17706 0.44011,6.72546 1.34784,10.70021 0.16504,0.70198 94.871555,354.15229 96.439455,359.84623 4.1398,4.7312 16.43542,16.9718 28.04336,13.69847 l 160.5857,-44.21746 160.62698,44.21746 c 11.60794,3.27333 23.8623,-8.96727 28.04336,-13.69847 1.5679,-5.69394 96.21939,-359.1448 96.43945,-359.84623 0.90773,-3.97475 1.34784,-7.52315 1.34784,-10.70021 0,-15.56894 -9.83374,-21.53796 -13.06581,-23.03709 -1.81546,-0.49512 -126.66961,-35.3052 -126.66961,-35.3052 l 0,-10.31511 c 0,-8.59593 -2.80572,-14.45492 -8.81599,-18.48469 -4.30484,-2.84697 -8.81598,-3.86473 -10.31511,-4.12605 l -255.19595,0 z"
     inkscape:connector-curvature="0"
     id="path716"
     style="fill:#000000;fill-opacity:1;fill-rule:nonzero;stroke:none" />
  <g
     transform="matrix(13.753487,0,0,-13.753487,-6317.9511,2266.6434)"
     id="g718">
    <path
       d="m 472.02,162.586 c 0,0 -0.387,-0.164 -0.387,-0.492 l 0,0 0,-27.305 c 0,0 0,-0.547 0.387,-0.547 l 0,0 18.363,0 c 0,0 0.437,0.113 0.437,0.547 l 0,0 0,27.305 c 0,0 -0.054,0.492 -0.437,0.492 l 0,0 -18.363,0 z m 20.031,-27.848 c 0,0 -0.215,-1.644 -1.531,-1.644 l 0,0 -7.129,0 9.539,-2.633 c 0,0 0.547,-0.273 0.82,0.328 l 0,0 7.02,26.039 c 0,0 0.273,0.824 -0.383,1.043 l 0,0 -8.336,2.246 0,-25.379 z m -30.067,23.078 c -0.656,-0.218 -0.382,-1.043 -0.382,-1.043 l 0,0 7.015,-26.035 c 0.278,-0.605 0.824,-0.332 0.824,-0.332 l 0,0 9.536,2.629 -7.125,0 c -1.317,0 -1.536,1.649 -1.536,1.649 l 0,0 0,25.378 -8.332,-2.246 z"
       inkscape:connector-curvature="0"
       id="path732"
       style="fill:url(#linearGradient720);fill-opacity:1;fill-rule:nonzero;stroke:none" />
  </g>
  <path
     d="m 349.47784,207.70516 c 6.39537,-19.02108 9.61368,-35.93787 9.61368,-50.72286 0,-17.50819 -4.07103,-31.85308 -12.18559,-43.07592 -8.11455,-11.29162 -18.42967,-16.93055 -31.00035,-16.93055 -15.95405,0 -29.28118,8.76098 -39.96764,26.26916 -10.70021,17.57696 -16.00906,37.6708 -16.00906,60.28154 0,15.5827 3.86473,27.28691 11.48417,34.97511 7.68819,7.74322 17.04057,11.60795 28.09837,11.60795 8.92601,0 17.57695,-1.88423 25.89781,-5.58392 8.33462,-3.76846 16.33915,-9.35237 24.06861,-16.82051 m -133.12,151.23334 -10.96153,-11.49792 c 63.16976,-17.89329 108.30871,-56.25176 135.33431,-115.18545 -9.4624,7.04178 -18.86979,12.30937 -28.2084,15.89903 -9.40739,3.5484 -18.75976,5.3226 -28.04336,5.3226 -19.83253,0 -35.19517,-6.56041 -46.21172,-19.7225 -11.0578,-13.2171 -16.54544,-28.84106 -16.54544,-47.10569 0,-25.69152 9.02229,-49.54006 27.13563,-71.51813 18.09959,-22.01934 40.55903,-33.03588 67.30956,-33.03588 23.97233,0 43.03466,8.70596 57.17325,26.10412 14.12483,17.3569 21.16662,39.0599 21.16662,64.9027 0,41.10917 -18.00332,81.02179 -54.05121,119.91665 -35.99288,38.94988 -77.36336,60.92795 -124.09771,65.92047"
     inkscape:connector-curvature="0"
     id="path734"
     style="fill:#000000;fill-opacity:1;fill-rule:nonzero;stroke:none" />
</svg>
