<?xml version="1.0" encoding="UTF-8" standalone="no"?>
<!-- Created with Inkscape (http://www.inkscape.org/) -->

<svg
   xmlns:dc="http://purl.org/dc/elements/1.1/"
   xmlns:cc="http://creativecommons.org/ns#"
   xmlns:rdf="http://www.w3.org/1999/02/22-rdf-syntax-ns#"
   xmlns:svg="http://www.w3.org/2000/svg"
   xmlns="http://www.w3.org/2000/svg"
   xmlns:sodipodi="http://sodipodi.sourceforge.net/DTD/sodipodi-0.dtd"
   xmlns:inkscape="http://www.inkscape.org/namespaces/inkscape"
   version="1.1"
   width="600"
   height="600"
   id="svg4831"
   sodipodi:docname="onslaught.svg"
   inkscape:version="0.92.2 5c3e80d, 2017-08-06">
  <sodipodi:namedview
     pagecolor="#ffffff"
     bordercolor="#666666"
     borderopacity="1"
     objecttolerance="10"
     gridtolerance="10"
     guidetolerance="10"
     inkscape:pageopacity="0"
     inkscape:pageshadow="2"
     inkscape:window-width="1232"
     inkscape:window-height="761"
     id="namedview7"
     showgrid="false"
     inkscape:zoom="0.39333333"
     inkscape:cx="300"
     inkscape:cy="300"
     inkscape:window-x="0"
     inkscape:window-y="0"
     inkscape:window-maximized="0"
     inkscape:current-layer="svg4831" />
  <defs
     id="defs4833" />
  <metadata
     id="metadata4836">
    <rdf:RDF>
      <cc:Work
         rdf:about="">
        <dc:format>image/svg+xml</dc:format>
        <dc:type
           rdf:resource="http://purl.org/dc/dcmitype/StillImage" />
        <dc:title />
      </cc:Work>
    </rdf:RDF>
  </metadata>
  <path
     d="m 410.09878,342.83519 c 10.19734,41.66002 14.96409,61.12965 20.91707,85.36603 -6.29036,-4.76674 -9.14169,-6.93245 -12.66778,-9.60966 -0.8924,-8.4996 -4.25524,-38.93928 -8.24929,-75.75637 m -215.11282,-0.0435 c -4.03758,36.86063 -7.35689,67.3003 -8.29282,75.7999 -3.48256,2.67721 -6.33389,4.84292 -12.62425,9.60966 5.90945,-24.23638 10.71973,-43.70601 20.91707,-85.40956 m 44.42429,-234.10364 c 0,0 -9.94704,35.23906 -18.0222,63.67627 -23.25691,-22.39716 -83.96213,-80.893128 -83.96213,-80.893128 0,0 -35.79409,310.502068 -37.916268,328.741928 -11.013568,6.75832 -96.9672791,59.46456 -96.9672791,59.46456 H 106.22444 c -0.13059,0.0871 -1.87187,1.4039 -1.87187,1.4039 h 139.91149 c 0,0 22.86512,-86.50874 30.89675,-116.90488 7.2263,2.046 15.35588,3.74374 25.21585,3.74374 h 4.28789 c 9.9035,0 17.98955,-1.69774 25.21585,-3.74374 8.03163,30.39614 30.94028,116.90488 30.94028,116.90488 h 139.91149 c 0,0 -1.74128,-1.31684 -1.9154,-1.4039 h 103.7256 c 0,0 -85.99724,-52.70624 -97.01081,-59.46456 -2.07865,-18.23986 -37.91627,-328.741928 -37.91627,-328.741928 0,0 -60.70522,58.495968 -83.96213,80.893128 C 375.62153,143.92711 347.772,45.806242 347.772,45.806242 c 0,0 -35.92469,107.806718 -45.22963,135.743308 C 293.23743,153.61296 257.26921,45.762712 257.26921,45.762712 Z"
     inkscape:connector-curvature="0"
     id="path376"
     style="fill:#ffffff;fill-opacity:1;fill-rule:nonzero;stroke:none" />
  <path
     d="m 304.66455,347.76518 c 24.36697,0 38.68896,-11.47066 38.68896,-11.47066 L 376.3398,460.9372 h 64.44896 L 399.25934,429.431 383.48991,284.67659 407.846,248.88249 459.40953,459.48976 h 71.63172 l -44.38076,-27.20743 -34.39019,-298.00841 -78.81449,75.93049 -27.20743,-95.99869 -32.95363,98.83915 h -21.50476 l -32.95363,-98.83915 -27.20743,95.99869 -78.81449,-75.93049 -34.39019,298.00841 -44.424284,27.20743 h 71.631714 l 51.56352,-210.60727 24.39963,35.7941 -15.76943,144.75441 -41.57295,31.5062 h 64.49249 l 32.94275,-124.64268 c 0,0 14.32199,11.47066 38.68897,11.47066 z"
     inkscape:connector-curvature="0"
     id="path378"
     style="fill:#000000;fill-opacity:1;fill-rule:nonzero;stroke:none" />
</svg>
