<?xml version="1.0" encoding="UTF-8" standalone="no"?>
<!-- Created with Inkscape (http://www.inkscape.org/) -->

<svg
   xmlns:dc="http://purl.org/dc/elements/1.1/"
   xmlns:cc="http://creativecommons.org/ns#"
   xmlns:rdf="http://www.w3.org/1999/02/22-rdf-syntax-ns#"
   xmlns:svg="http://www.w3.org/2000/svg"
   xmlns="http://www.w3.org/2000/svg"
   xmlns:sodipodi="http://sodipodi.sourceforge.net/DTD/sodipodi-0.dtd"
   xmlns:inkscape="http://www.inkscape.org/namespaces/inkscape"
   version="1.1"
   width="600"
   height="600"
   id="svg4951"
   sodipodi:docname="onslaught rare.svg"
   inkscape:version="0.92.2 5c3e80d, 2017-08-06">
  <sodipodi:namedview
     pagecolor="#ffffff"
     bordercolor="#666666"
     borderopacity="1"
     objecttolerance="10"
     gridtolerance="10"
     guidetolerance="10"
     inkscape:pageopacity="0"
     inkscape:pageshadow="2"
     inkscape:window-width="1108"
     inkscape:window-height="711"
     id="namedview13"
     showgrid="false"
     inkscape:zoom="0.39333333"
     inkscape:cx="300"
     inkscape:cy="300"
     inkscape:window-x="0"
     inkscape:window-y="0"
     inkscape:window-maximized="0"
     inkscape:current-layer="svg4951" />
  <defs
     id="defs4953">
    <radialGradient
       cx="0"
       cy="0"
       r="1"
       fx="0"
       fy="0"
       id="radialGradient402"
       gradientUnits="userSpaceOnUse"
       gradientTransform="matrix(17.17102,0,0,-17.17102,219.24805,256.4873)"
       spreadMethod="pad">
      <stop
         id="stop404"
         style="stop-color:#d7bd74;stop-opacity:1"
         offset="0" />
      <stop
         id="stop406"
         style="stop-color:#b39a54;stop-opacity:1"
         offset="0.69101" />
      <stop
         id="stop408"
         style="stop-color:#8d742f;stop-opacity:1"
         offset="1" />
    </radialGradient>
  </defs>
  <metadata
     id="metadata4956">
    <rdf:RDF>
      <cc:Work
         rdf:about="">
        <dc:format>image/svg+xml</dc:format>
        <dc:type
           rdf:resource="http://purl.org/dc/dcmitype/StillImage" />
        <dc:title />
      </cc:Work>
    </rdf:RDF>
  </metadata>
  <path
     d="m 407.55641,345.07248 c 10.19734,41.66002 14.96409,61.12965 20.91707,85.36603 -6.29036,-4.76674 -9.14169,-6.93245 -12.66778,-9.60966 -0.8924,-8.4996 -4.25524,-38.93928 -8.24929,-75.75637 m -215.11282,-0.0435 c -4.03758,36.86063 -7.35689,67.3003 -8.29282,75.7999 -3.48256,2.67721 -6.33389,4.84292 -12.62425,9.60966 5.90945,-24.23638 10.71973,-43.70601 20.91707,-85.40956 m 44.42429,-234.10364 c 0,0 -9.94704,35.23906 -18.0222,63.67627 -23.25691,-22.39716 -83.96213,-80.89313 -83.96213,-80.89313 0,0 -35.794092,310.50207 -37.916271,328.74193 C 85.953711,429.20873 0,481.91497 0,481.91497 h 103.68207 c -0.13059,0.0871 -1.87187,1.4039 -1.87187,1.4039 h 139.91149 c 0,0 22.86512,-86.50874 30.89675,-116.90488 7.2263,2.046 15.35588,3.74374 25.21585,3.74374 h 4.28789 c 9.9035,0 17.98955,-1.69774 25.21585,-3.74374 8.03163,30.39614 30.94028,116.90488 30.94028,116.90488 H 498.1898 c 0,0 -1.74128,-1.31684 -1.9154,-1.4039 H 600 c 0,0 -85.99724,-52.70624 -97.01081,-59.46456 -2.07865,-18.23986 -37.91627,-328.74193 -37.91627,-328.74193 0,0 -60.70522,58.49597 -83.96213,80.89313 -8.03163,-28.43721 -35.88116,-126.55808 -35.88116,-126.55808 0,0 -35.92469,107.80672 -45.22963,135.74331 C 290.69506,155.85025 254.72684,48 254.72684,48 Z"
     inkscape:connector-curvature="0"
     id="path396"
     style="fill:#ffffff;fill-opacity:1;fill-rule:nonzero;stroke:none" />
  <path
     d="m 302.12218,350.00247 c 24.36697,0 38.68896,-11.47066 38.68896,-11.47066 l 32.98629,124.64268 h 64.44896 l -41.52942,-31.5062 -15.76943,-144.75441 24.35609,-35.7941 51.56353,210.60727 h 71.63172 l -44.38076,-27.20743 -34.39019,-298.00841 -78.81449,75.93049 -27.20743,-95.99869 -32.95363,98.83915 h -21.50476 l -32.95363,-98.83915 -27.20743,95.99869 -78.81449,-75.93049 -34.39019,298.00841 -44.424287,27.20743 h 71.631717 l 51.56352,-210.60727 24.39963,35.7941 -15.76943,144.75441 -41.57295,31.5062 h 64.49249 l 32.94275,-124.64268 c 0,0 14.32199,11.47066 38.68897,11.47066 z"
     inkscape:connector-curvature="0"
     id="path398"
     style="fill:#8d742f;fill-opacity:1;fill-rule:nonzero;stroke:none" />
  <g
     transform="matrix(10.882972,0,0,-10.882972,-2086.0916,3087.6685)"
     id="g400">
    <path
       d="m 220.711,263.773 -0.113,-0.343 h -0.364 -1.972 -0.36 l -0.117,0.343 -2.512,7.547 -2.058,-7.261 -0.231,-0.801 -0.597,0.578 -6.516,6.273 -3.043,-26.379 -0.027,-0.238 -0.207,-0.129 -2.574,-1.578 h 4.421 l 4.645,18.973 0.269,1.094 0.629,-0.93 2.243,-3.293 0.101,-0.149 -0.019,-0.183 -1.45,-13.301 -0.023,-0.215 -0.172,-0.129 -2.633,-1.996 h 4.055 l 2.926,11.082 0.199,0.735 0.598,-0.473 c 0.011,-0.008 1.226,-0.945 3.246,-0.945 v 0 h 0.39 c 2.02,0 3.235,0.937 3.246,0.945 v 0 l 0.598,0.473 0.195,-0.735 2.93,-11.082 h 4.051 l -2.629,1.996 -0.172,0.129 -0.023,0.215 -1.45,13.301 -0.019,0.183 0.101,0.149 2.239,3.293 0.633,0.93 0.265,-1.094 4.649,-18.973 h 4.418 l -2.575,1.578 -0.207,0.129 -0.027,0.238 -3.039,26.383 -6.516,-6.277 -0.601,-0.578 -0.227,0.801 -2.058,7.261 z"
       inkscape:connector-curvature="0"
       id="path410"
       style="fill:url(#radialGradient402);fill-opacity:1;fill-rule:nonzero;stroke:none" />
  </g>
</svg>
