<?xml version="1.0" encoding="UTF-8" standalone="no"?>
<!-- Created with Inkscape (http://www.inkscape.org/) -->

<svg
   xmlns:dc="http://purl.org/dc/elements/1.1/"
   xmlns:cc="http://creativecommons.org/ns#"
   xmlns:rdf="http://www.w3.org/1999/02/22-rdf-syntax-ns#"
   xmlns:svg="http://www.w3.org/2000/svg"
   xmlns="http://www.w3.org/2000/svg"
   xmlns:sodipodi="http://sodipodi.sourceforge.net/DTD/sodipodi-0.dtd"
   xmlns:inkscape="http://www.inkscape.org/namespaces/inkscape"
   version="1.1"
   width="946"
   height="946"
   id="svg5299"
   sodipodi:docname="ravnica city of guilds.svg"
   inkscape:version="0.92.2 5c3e80d, 2017-08-06">
  <sodipodi:namedview
     pagecolor="#ffffff"
     bordercolor="#666666"
     borderopacity="1"
     objecttolerance="10"
     gridtolerance="10"
     guidetolerance="10"
     inkscape:pageopacity="0"
     inkscape:pageshadow="2"
     inkscape:window-width="1680"
     inkscape:window-height="1002"
     id="namedview7"
     showgrid="false"
     inkscape:zoom="0.24947146"
     inkscape:cx="473"
     inkscape:cy="1004.229"
     inkscape:window-x="0"
     inkscape:window-y="0"
     inkscape:window-maximized="1"
     inkscape:current-layer="svg5299" />
  <defs
     id="defs5301" />
  <metadata
     id="metadata5304">
    <rdf:RDF>
      <cc:Work
         rdf:about="">
        <dc:format>image/svg+xml</dc:format>
        <dc:type
           rdf:resource="http://purl.org/dc/dcmitype/StillImage" />
        <dc:title />
      </cc:Work>
    </rdf:RDF>
  </metadata>
  <path
     d="m 429.58295,464.14186 c 0,-18.37748 14.97162,-33.25449 33.27815,-33.25449 18.37748,0 33.3491,14.87701 33.3491,33.25449 0,18.40114 -14.97162,33.37276 -33.3491,33.37276 -18.30653,0 -33.27815,-14.97162 -33.27815,-33.37276 M 643.37198,366.12862 V 320.29134 H 574.00112 C 567.52051,295.26769 498.43347,33.985765 497.13262,27.978195 495.83082,21.970625 483.08343,2.0084746 461.08721,2.0084746 h -0.17029 c -17.73889,0.0946 -33.27815,13.2213804 -37.32261,29.3046304 -3.97351,16.15421 -60.8089,242.975395 -72.16178,288.978235 h -47.11448 v 49.52697 H 172.36441 v 578.26395 h 600 V 366.12862 H 643.36725 Z"
     inkscape:connector-curvature="0"
     id="path402"
     style="fill:#ffffff;fill-opacity:1;fill-rule:nonzero;stroke:none" />
  <path
     d="m 462.8611,396.0482 c -37.60643,0 -68.09366,30.51088 -68.09366,68.09366 0,37.70104 30.48723,68.18827 68.09366,68.18827 37.67739,0 68.16462,-30.48723 68.16462,-68.18827 0,-37.58278 -30.48723,-68.09366 -68.16462,-68.09366 M 461.08816,40.631935 543.60944,359.64801 h 60.50142 v 99.05393 h 53.12205 v -53.21665 h 75.78051 v 503.2403 H 211.6558 V 409.17498 h 69.74929 v 102.649 H 343.6804 V 359.64801 h 38.52885 z"
     inkscape:connector-curvature="0"
     id="path404"
     style="fill:#000000;fill-opacity:1;fill-rule:nonzero;stroke:none" />
</svg>
