<?xml version="1.0" encoding="UTF-8" standalone="no"?>
<!-- Created with Inkscape (http://www.inkscape.org/) -->

<svg
   xmlns:dc="http://purl.org/dc/elements/1.1/"
   xmlns:cc="http://creativecommons.org/ns#"
   xmlns:rdf="http://www.w3.org/1999/02/22-rdf-syntax-ns#"
   xmlns:svg="http://www.w3.org/2000/svg"
   xmlns="http://www.w3.org/2000/svg"
   xmlns:inkscape="http://www.inkscape.org/namespaces/inkscape"
   version="1.1"
   width="946"
   height="946"
   id="svg5354">
  <defs
     id="defs5356">
    <linearGradient
       x1="0"
       y1="0"
       x2="1"
       y2="0"
       id="linearGradient410"
       gradientUnits="userSpaceOnUse"
       gradientTransform="matrix(22.042969,0,0,-22.042969,124.10352,259.32031)"
       spreadMethod="pad">
      <stop
         id="stop412"
         style="stop-color:#626e77;stop-opacity:1"
         offset="0" />
      <stop
         id="stop414"
         style="stop-color:#a0b6c2;stop-opacity:1"
         offset="0.35000601" />
      <stop
         id="stop416"
         style="stop-color:#b7d1e1;stop-opacity:1"
         offset="0.5" />
      <stop
         id="stop418"
         style="stop-color:#a0b6c2;stop-opacity:1"
         offset="0.64999402" />
      <stop
         id="stop420"
         style="stop-color:#626e77;stop-opacity:1"
         offset="1" />
    </linearGradient>
  </defs>
  <metadata
     id="metadata5359">
    <rdf:RDF>
      <cc:Work
         rdf:about="">
        <dc:format>image/svg+xml</dc:format>
        <dc:type
           rdf:resource="http://purl.org/dc/dcmitype/StillImage" />
        <dc:title />
      </cc:Work>
    </rdf:RDF>
  </metadata>
  <path
     d="m 257.21854,462.13339 c 0,-18.37748 14.97162,-33.25449 33.27815,-33.25449 18.37748,0 33.3491,14.87701 33.3491,33.25449 0,18.40114 -14.97162,33.37276 -33.3491,33.37276 -18.30653,0 -33.27815,-14.97162 -33.27815,-33.37276 m 213.78903,-98.01324 0,-45.83728 -69.37086,0 C 395.1561,293.25922 326.06906,31.97729 324.76821,25.96972 323.46831,19.96215 310.71902,0 288.7228,0 l -0.17029,0 c -17.73889,0.0946 -33.27815,13.22138 -37.34627,29.30463 -3.94985,16.15421 -60.78524,242.9754 -72.13812,288.97824 l -47.11448,0 0,49.52697 -131.95364,0 0,578.26395 600,0 0,-581.95364 -128.99716,0 z"
     inkscape:connector-curvature="0"
     id="path406"
     style="fill:#000000;fill-opacity:1;fill-rule:nonzero;stroke:none" />
  <g
     transform="matrix(23.651845,0,0,-23.651845,-2895.9508,6606.0785)"
     id="g408">
    <path
       d="m 131.312,264.184 -1.628,0 0,-6.434 -2.633,0 0,4.34 -2.946,0 0,-21.121 22.04,0 0,21.277 -3.204,0 0,-2.25 -2.25,0 0,4.188 -2.554,0 -3.489,13.488 -3.336,-13.488 z m 0.532,-4.418 c 0,1.589 1.289,2.879 2.879,2.879 l 0,0 c 1.593,0 2.882,-1.29 2.882,-2.879 l 0,0 c 0,-1.594 -1.289,-2.883 -2.882,-2.883 l 0,0 c -1.59,0 -2.879,1.289 -2.879,2.883"
       inkscape:connector-curvature="0"
       id="path422"
       style="fill:url(#linearGradient410);fill-opacity:1;fill-rule:nonzero;stroke:none" />
  </g>
</svg>
