<?xml version="1.0" encoding="UTF-8" standalone="no"?>
<!-- Created with Inkscape (http://www.inkscape.org/) -->

<svg
   xmlns:dc="http://purl.org/dc/elements/1.1/"
   xmlns:cc="http://creativecommons.org/ns#"
   xmlns:rdf="http://www.w3.org/1999/02/22-rdf-syntax-ns#"
   xmlns:svg="http://www.w3.org/2000/svg"
   xmlns="http://www.w3.org/2000/svg"
   xmlns:sodipodi="http://sodipodi.sourceforge.net/DTD/sodipodi-0.dtd"
   xmlns:inkscape="http://www.inkscape.org/namespaces/inkscape"
   version="1.1"
   width="946"
   height="946"
   id="svg5354"
   sodipodi:docname="ravnica city of guilds uncommon.svg"
   inkscape:version="0.92.2 5c3e80d, 2017-08-06">
  <sodipodi:namedview
     pagecolor="#ffffff"
     bordercolor="#666666"
     borderopacity="1"
     objecttolerance="10"
     gridtolerance="10"
     guidetolerance="10"
     inkscape:pageopacity="0"
     inkscape:pageshadow="2"
     inkscape:window-width="1098"
     inkscape:window-height="837"
     id="namedview14"
     showgrid="false"
     inkscape:zoom="0.24947146"
     inkscape:cx="473"
     inkscape:cy="473"
     inkscape:window-x="0"
     inkscape:window-y="0"
     inkscape:window-maximized="0"
     inkscape:current-layer="svg5354" />
  <defs
     id="defs5356">
    <linearGradient
       x1="0"
       y1="0"
       x2="1"
       y2="0"
       id="linearGradient410"
       gradientUnits="userSpaceOnUse"
       gradientTransform="matrix(22.042969,0,0,-22.042969,124.10352,259.32031)"
       spreadMethod="pad">
      <stop
         id="stop412"
         style="stop-color:#626e77;stop-opacity:1"
         offset="0" />
      <stop
         id="stop414"
         style="stop-color:#a0b6c2;stop-opacity:1"
         offset="0.35000601" />
      <stop
         id="stop416"
         style="stop-color:#b7d1e1;stop-opacity:1"
         offset="0.5" />
      <stop
         id="stop418"
         style="stop-color:#a0b6c2;stop-opacity:1"
         offset="0.64999402" />
      <stop
         id="stop420"
         style="stop-color:#626e77;stop-opacity:1"
         offset="1" />
    </linearGradient>
  </defs>
  <metadata
     id="metadata5359">
    <rdf:RDF>
      <cc:Work
         rdf:about="">
        <dc:format>image/svg+xml</dc:format>
        <dc:type
           rdf:resource="http://purl.org/dc/dcmitype/StillImage" />
        <dc:title />
      </cc:Work>
    </rdf:RDF>
  </metadata>
  <path
     d="m 437.21854,462.13339 c 0,-18.37748 14.97162,-33.25449 33.27815,-33.25449 18.37748,0 33.3491,14.87701 33.3491,33.25449 0,18.40114 -14.97162,33.37276 -33.3491,33.37276 -18.30653,0 -33.27815,-14.97162 -33.27815,-33.37276 M 651.00757,364.12015 V 318.28287 H 581.63671 C 575.1561,293.25922 506.06906,31.97729 504.76821,25.96972 503.46831,19.96215 490.71902,0 468.7228,0 h -0.17029 c -17.73889,0.0946 -33.27815,13.22138 -37.34627,29.30463 -3.94985,16.15421 -60.78524,242.9754 -72.13812,288.97824 h -47.11448 v 49.52697 H 180 V 946.07379 H 780 V 364.12015 H 651.00284 Z"
     inkscape:connector-curvature="0"
     id="path406"
     style="fill:#000000;fill-opacity:1;fill-rule:nonzero;stroke:none" />
  <g
     transform="matrix(23.651845,0,0,-23.651845,-2715.9508,6606.0785)"
     id="g408">
    <path
       d="m 131.312,264.184 h -1.628 v -6.434 h -2.633 v 4.34 h -2.946 v -21.121 h 22.04 v 21.277 h -3.204 v -2.25 h -2.25 v 4.188 h -2.554 l -3.489,13.488 z m 0.532,-4.418 c 0,1.589 1.289,2.879 2.879,2.879 v 0 c 1.593,0 2.882,-1.29 2.882,-2.879 v 0 c 0,-1.594 -1.289,-2.883 -2.882,-2.883 v 0 c -1.59,0 -2.879,1.289 -2.879,2.883"
       inkscape:connector-curvature="0"
       id="path422"
       style="fill:url(#linearGradient410);fill-opacity:1;fill-rule:nonzero;stroke:none" />
  </g>
</svg>
