<?xml version="1.0" encoding="UTF-8" standalone="no"?>
<!-- Created with Inkscape (http://www.inkscape.org/) -->

<svg
   xmlns:dc="http://purl.org/dc/elements/1.1/"
   xmlns:cc="http://creativecommons.org/ns#"
   xmlns:rdf="http://www.w3.org/1999/02/22-rdf-syntax-ns#"
   xmlns:svg="http://www.w3.org/2000/svg"
   xmlns="http://www.w3.org/2000/svg"
   xmlns:xlink="http://www.w3.org/1999/xlink"
   xmlns:inkscape="http://www.inkscape.org/namespaces/inkscape"
   version="1.1"
   width="600"
   height="510.34946"
   id="svg6261">
  <defs
     id="defs6263">
    <radialGradient
       cx="0"
       cy="0"
       r="1"
       fx="0"
       fy="0"
       id="radialGradient450"
       gradientUnits="userSpaceOnUse"
       gradientTransform="matrix(17.570969,0,0,-17.570969,134.70996,372.04785)"
       spreadMethod="pad">
      <stop
         id="stop452"
         style="stop-color:#b7d1e1;stop-opacity:1"
         offset="0" />
      <stop
         id="stop454"
         style="stop-color:#a0b6c2;stop-opacity:1"
         offset="0.66291797" />
      <stop
         id="stop456"
         style="stop-color:#626e77;stop-opacity:1"
         offset="1" />
    </radialGradient>
    <radialGradient
       cx="0"
       cy="0"
       r="1"
       fx="0"
       fy="0"
       id="radialGradient3775"
       xlink:href="#radialGradient450"
       gradientUnits="userSpaceOnUse"
       gradientTransform="matrix(17.570969,0,0,-17.570969,134.70996,372.04785)"
       spreadMethod="pad" />
  </defs>
  <metadata
     id="metadata6266">
    <rdf:RDF>
      <cc:Work
         rdf:about="">
        <dc:format>image/svg+xml</dc:format>
        <dc:type
           rdf:resource="http://purl.org/dc/dcmitype/StillImage" />
        <dc:title />
      </cc:Work>
    </rdf:RDF>
  </metadata>
  <path
     d="m 419.34167,0 -239.7678,0 -1.14825,0.1531 C 162.22251,1.90099 139.84435,13.56213 132.36795,38.03266 111.99286,43.71013 35.39168,65.09314 35.39168,65.09314 L 34.44756,65.4371 C 21.22991,70.52769 0,87.57285 0,118.76703 c 0,5.5754 0.65017,11.61011 2.19444,18.14239 l 91.4519,341.42638 2.53891,3.39372 c 10.32151,13.80454 35.54478,34.93238 64.30212,26.76703 0,0 128.92319,-35.49374 139.53815,-38.42817 10.66598,2.93443 139.79331,38.47921 139.79331,38.47921 28.5532,8.11431 53.72544,-13.01353 64.09799,-26.81807 l 2.48788,-3.39372 91.2988,-340.82674 C 599.29829,130.82368 600,124.64863 600,118.92013 600,87.52182 578.82113,70.52769 565.6545,65.4371 l -0.94411,-0.34396 c 0,0 -76.65221,-21.38301 -96.97627,-27.06048 C 460.25772,13.56213 437.82853,1.90099 421.67645,0.1531 L 420.5282,0 419.34167,0 z"
     inkscape:connector-curvature="0"
     id="path440"
     style="fill:#ffffff;fill-opacity:1;fill-rule:nonzero;stroke:none" />
  <path
     d="m 180.70936,21.72748 c 0,0 -29.39525,3.18959 -29.39525,33.59275 L 42.2174,85.7234 c 0,0 -27.26461,10.51288 -18.88237,46.19801 l 90.25262,336.75682 c 0,0 18.88237,25.21052 40.91605,18.88237 l 145.57285,-40.02296 145.52182,40.02296 c 21.98265,6.32815 40.91605,-18.88237 40.91605,-18.88237 L 576.72876,131.92141 C 585.09824,96.23628 557.83363,85.7234 557.83363,85.7234 L 448.73692,55.32023 c 0,-30.40316 -29.39525,-33.59275 -29.39525,-33.59275 l -238.63231,0 z"
     inkscape:connector-curvature="0"
     id="path442"
     style="fill:#626e77;fill-opacity:1;fill-rule:nonzero;stroke:none" />
  <path
     d="m 181.66624,34.3455 c -1.35238,0.24291 -5.58816,1.18652 -9.51773,3.8275 -5.6392,3.7382 -8.22914,9.17326 -8.22914,17.14723 l 0,9.56877 c 0,0 -115.76933,32.2914 -117.46619,32.7507 -3.03649,1.39066 -12.10768,6.87676 -12.10768,21.37025 0,2.94718 0.34396,6.23884 1.23756,9.926 0.1531,0.59914 88.0199,328.52769 89.46159,333.80965 3.84027,4.33784 15.259,15.79484 25.96326,12.70732 l 149.01761,-41.01812 149.0176,41.01812 c 10.7553,3.08752 22.12299,-8.36948 26.01429,-12.70732 1.4417,-5.28196 89.3085,-333.21 89.4616,-333.80965 0.84205,-3.68716 1.23756,-6.97882 1.23756,-9.926 0,-14.49349 -9.12222,-19.97959 -12.15871,-21.37025 C 551.95203,97.1804 436.13167,64.889 436.13167,64.889 l 0,-9.56877 c 0,-7.97397 -2.58995,-13.40903 -8.17811,-17.14723 -3.98061,-2.64098 -8.16535,-3.5851 -9.56877,-3.8275 l -236.71855,0 z"
     inkscape:connector-curvature="0"
     id="path444"
     style="fill:#ffffff;fill-opacity:1;fill-rule:nonzero;stroke:none" />
  <path
     d="m 438.67058,81.53866 0,323.84537 c 0,0 -2.79408,20.97473 -19.58408,20.97473 l -90.90329,0 121.70196,33.59276 c 0,0 6.97883,3.48303 10.46186,-4.23578 l 89.56366,-332.21485 c 0,0 3.48303,-10.46185 -4.93748,-13.25593 L 438.67058,81.53866 z M 55.07783,110.94667 c -8.42052,2.78132 -4.88645,13.25593 -4.88645,13.25593 l 89.51263,332.26589 c 3.53406,7.66777 10.51288,4.18474 10.51288,4.18474 l 121.70197,-33.59276 -90.9033,0 c -16.84103,0 -19.63511,-20.98749 -19.63511,-20.98749 l 0,-323.83261 -106.30262,28.7063 z m 127.97907,-60.85736 234.33274,0 c 4.88645,0 5.58816,6.27711 5.58816,6.27711 l 0,348.3159 c 0,5.5754 -5.58816,6.97882 -5.58816,6.97882 l -234.33274,0 c -4.88645,0 -4.88645,-6.97882 -4.88645,-6.97882 l 0,-348.3159 c 0,-4.18474 4.88645,-6.27711 4.88645,-6.27711"
     inkscape:connector-curvature="0"
     id="path446"
     style="fill:#626e77;fill-opacity:1;fill-rule:nonzero;stroke:none" />
  <g
     transform="matrix(12.758357,0,0,-12.758357,-1418.6144,5002.4751)"
     id="g448">
    <path
       d="m 125.645,387.77 c -0.047,-0.036 -0.09,-0.075 -0.09,-0.094 l 0,0 0,-27.297 c 0.004,-0.063 0.023,-0.152 -0.016,-0.152 l 0,0 18.297,0 c 0.051,0.019 0.105,0.066 0.105,0.148 l 0,0 0.004,27.254 c -0.007,0.055 -0.039,0.129 -0.039,0.141 l 0,0 -18.261,0 z m 20.328,-27.5 c -0.094,-0.692 -0.614,-1.993 -1.934,-1.993 l 0,0 -4.18,0 6.766,-1.871 c 0.012,-0.008 0.063,-0.023 0.109,-0.023 l 0,0 c 0.036,0 0.106,0 0.153,0.094 l 0,0 7.023,26.058 c 0.016,0.047 0.137,0.453 -0.105,0.531 l 0,0 -7.828,2.114 -0.004,-24.91 z m -30.34,22.75 c -0.262,-0.086 -0.145,-0.493 -0.121,-0.555 l 0,0 6.992,-25.981 c 0.07,-0.156 0.141,-0.156 0.176,-0.156 l 0,0 c 0.05,0 0.097,0.016 0.175,0.047 l 0,0 6.7,1.848 -4.176,0 c -1.32,0 -1.844,1.3 -1.938,2.043 l 0,0 0,24.859 -7.808,-2.105 z"
       inkscape:connector-curvature="0"
       id="path458"
       style="fill:url(#radialGradient3775);fill-opacity:1;fill-rule:nonzero;stroke:none" />
  </g>
  <g
     transform="translate(270.6075,230.17398)"
     id="text6169"
     style="font-size:269.88818359px;font-style:normal;font-variant:normal;font-weight:100;font-stretch:normal;text-align:start;line-height:125%;letter-spacing:0px;word-spacing:0px;writing-mode:lr-tb;text-anchor:start;fill:#ffffff;fill-opacity:1;stroke:#626e77;stroke-width:12.75835705;stroke-opacity:0.42745098;font-family:GoudyMedieval;-inkscape-font-specification:GoudyMedieval Thin">
    <path
       d="m 44.066448,-92.661562 c 16.37372,1.88e-4 30.048766,4.858247 41.025178,14.574193 10.97614,9.716292 16.464274,22.311006 16.464434,37.784181 -1.6e-4,14.034834 -2.250045,23.3913 -6.749678,28.069425 -4.499925,4.6783405 -14.846123,12.50559513 -31.038624,23.481788 5.397424,9.718948 12.10042,20.201045 20.109009,31.446322 8.008319,11.245382 16.328383,22.715838 24.960213,34.411402 3.95876,6.116863 9.13255,9.399038 15.52137,9.846537 6.38846,0.447515 9.58279,1.931427 9.58297,4.451738 -1.8e-4,0.71931 -0.27061,1.483916 -0.81128,2.293819 -0.54103,0.809907 -0.90206,1.396059 -1.08308,1.758458 l -40.209776,0 C 90.755337,95.275101 88.685273,94.24007 85.626988,92.351203 82.568429,90.462342 76.137232,81.870481 66.333376,66.575596 56.529286,51.280769 47.30872,38.235802 38.671649,27.440657 30.0344,16.645647 18.248218,11.248109 3.3130688,11.248025 2.236801,11.248109 1.6080949,18.939464 1.4269483,34.322114 1.2456965,49.704885 1.155097,59.556903 1.1551493,63.878197 c -5.23e-5,4.497065 -5.23e-5,7.105235 0,7.824517 -5.23e-5,0.719329 -5.23e-5,1.350781 0,1.894357 -5.23e-5,6.654973 1.4399319,10.92688 4.3199571,12.815735 2.8799118,1.888873 8.0976236,2.833305 15.6531526,2.833299 l 20.78027,0 c 2.69593,6e-6 4.043942,1.169564 4.044039,3.508678 -9.7e-5,3.777731 -1.617162,5.666595 -4.8512,5.666598 l -2.701518,0 -23.481787,-2.15792 -40.48158,0 -31.849903,2.973317 c -3.234124,-4e-6 -4.851189,-1.710414 -4.8512,-5.131236 1.1e-5,-2.701514 4.722171,-4.276025 14.166494,-4.723537 9.444316,-0.447502 15.336035,-1.121508 17.675172,-2.02202 2.339095,-0.900497 3.508654,-12.327026 3.508678,-34.279621 l 0,-70.980724 c -2.4e-5,-8.637047 -0.76463,-18.17334 -2.293819,-28.608906 -1.529233,-10.435282 -3.192971,-16.597427 -4.991218,-18.486451 -1.798282,-1.888703 -8.635804,-3.372615 -20.512589,-4.451738 -11.876778,-1.078794 -17.815169,-2.969031 -17.81519,-5.670716 2.1e-5,-3.23396 1.350779,-4.851025 4.052276,-4.8512 5.578755,1.076388 13.226183,2.4244 22.942308,4.044039 9.716113,1.619982 17.992247,2.429888 24.828428,2.429719 l 15.6490337,0 c 5.94108997,-5.040463 12.8239126,-9.494942 20.6484883,-13.363452 7.824443,-3.868145 17.315435,-5.802309 28.473006,-5.802497 z m -43.71845938,44.533857 0,21.052069 c -5.155e-5,9.356588 2.60811818,16.77889 7.82451708,22.266928 C 13.388786,0.67953024 22.1138,3.4235993 34.347574,3.4235076 44.42326,3.4235993 52.880594,0.27457757 59.7196,-6.0235672 66.558385,-12.32151 69.977833,-20.86807 69.977954,-31.663274 c -1.21e-4,-12.771669 -3.508796,-23.34162 -10.526035,-31.709885 -7.01746,-8.367948 -17.362284,-12.552001 -31.034505,-12.552173 -8.63724,1.72e-4 -15.474763,2.024935 -20.5125892,6.074297 -5.0379449,4.049691 -7.55688773,11.290794 -7.55683618,21.72333 z"
       inkscape:connector-curvature="0"
       id="path3013" />
  </g>
  <g
     transform="translate(270.6075,230.17398)"
     id="text6173"
     style="font-size:269.88818359px;font-style:normal;font-variant:normal;font-weight:100;font-stretch:normal;text-align:start;line-height:125%;letter-spacing:0px;word-spacing:0px;writing-mode:lr-tb;text-anchor:start;fill:#ffffff;fill-opacity:1;stroke:#626e77;stroke-width:12.75835705;stroke-opacity:0;font-family:GoudyMedieval;-inkscape-font-specification:GoudyMedieval Thin">
    <path
       d="m 44.066448,-92.661562 c 16.37372,1.88e-4 30.048766,4.858247 41.025178,14.574193 10.97614,9.716292 16.464274,22.311006 16.464434,37.784181 -1.6e-4,14.034834 -2.250045,23.3913 -6.749678,28.069425 -4.499925,4.6783405 -14.846123,12.50559513 -31.038624,23.481788 5.397424,9.718948 12.10042,20.201045 20.109009,31.446322 8.008319,11.245382 16.328383,22.715838 24.960213,34.411402 3.95876,6.116863 9.13255,9.399038 15.52137,9.846537 6.38846,0.447515 9.58279,1.931427 9.58297,4.451738 -1.8e-4,0.71931 -0.27061,1.483916 -0.81128,2.293819 -0.54103,0.809907 -0.90206,1.396059 -1.08308,1.758458 l -40.209776,0 C 90.755337,95.275101 88.685273,94.24007 85.626988,92.351203 82.568429,90.462342 76.137232,81.870481 66.333376,66.575596 56.529286,51.280769 47.30872,38.235802 38.671649,27.440657 30.0344,16.645647 18.248218,11.248109 3.3130688,11.248025 2.236801,11.248109 1.6080949,18.939464 1.4269483,34.322114 1.2456965,49.704885 1.155097,59.556903 1.1551493,63.878197 c -5.23e-5,4.497065 -5.23e-5,7.105235 0,7.824517 -5.23e-5,0.719329 -5.23e-5,1.350781 0,1.894357 -5.23e-5,6.654973 1.4399319,10.92688 4.3199571,12.815735 2.8799118,1.888873 8.0976236,2.833305 15.6531526,2.833299 l 20.78027,0 c 2.69593,6e-6 4.043942,1.169564 4.044039,3.508678 -9.7e-5,3.777731 -1.617162,5.666595 -4.8512,5.666598 l -2.701518,0 -23.481787,-2.15792 -40.48158,0 -31.849903,2.973317 c -3.234124,-4e-6 -4.851189,-1.710414 -4.8512,-5.131236 1.1e-5,-2.701514 4.722171,-4.276025 14.166494,-4.723537 9.444316,-0.447502 15.336035,-1.121508 17.675172,-2.02202 2.339095,-0.900497 3.508654,-12.327026 3.508678,-34.279621 l 0,-70.980724 c -2.4e-5,-8.637047 -0.76463,-18.17334 -2.293819,-28.608906 -1.529233,-10.435282 -3.192971,-16.597427 -4.991218,-18.486451 -1.798282,-1.888703 -8.635804,-3.372615 -20.512589,-4.451738 -11.876778,-1.078794 -17.815169,-2.969031 -17.81519,-5.670716 2.1e-5,-3.23396 1.350779,-4.851025 4.052276,-4.8512 5.578755,1.076388 13.226183,2.4244 22.942308,4.044039 9.716113,1.619982 17.992247,2.429888 24.828428,2.429719 l 15.6490337,0 c 5.94108997,-5.040463 12.8239126,-9.494942 20.6484883,-13.363452 7.824443,-3.868145 17.315435,-5.802309 28.473006,-5.802497 z m -43.71845938,44.533857 0,21.052069 c -5.155e-5,9.356588 2.60811818,16.77889 7.82451708,22.266928 C 13.388786,0.67953024 22.1138,3.4235993 34.347574,3.4235076 44.42326,3.4235993 52.880594,0.27457757 59.7196,-6.0235672 66.558385,-12.32151 69.977833,-20.86807 69.977954,-31.663274 c -1.21e-4,-12.771669 -3.508796,-23.34162 -10.526035,-31.709885 -7.01746,-8.367948 -17.362284,-12.552001 -31.034505,-12.552173 -8.63724,1.72e-4 -15.474763,2.024935 -20.5125892,6.074297 -5.0379449,4.049691 -7.55688773,11.290794 -7.55683618,21.72333 z"
       inkscape:connector-curvature="0"
       id="path3016" />
  </g>
</svg>
