<?xml version="1.0" encoding="UTF-8" standalone="no"?>
<svg
   xmlns:dc="http://purl.org/dc/elements/1.1/"
   xmlns:cc="http://creativecommons.org/ns#"
   xmlns:rdf="http://www.w3.org/1999/02/22-rdf-syntax-ns#"
   xmlns:svg="http://www.w3.org/2000/svg"
   xmlns="http://www.w3.org/2000/svg"
   xmlns:xlink="http://www.w3.org/1999/xlink"
   xmlns:sodipodi="http://sodipodi.sourceforge.net/DTD/sodipodi-0.dtd"
   xmlns:inkscape="http://www.inkscape.org/namespaces/inkscape"
   version="1.1"
   width="829"
   height="829"
   id="svg7257"
   sodipodi:docname="seventh edition rare.svg"
   inkscape:version="0.92.2 5c3e80d, 2017-08-06">
  <defs
     id="defs7259">
    <radialGradient
       cx="0"
       cy="0"
       r="1"
       fx="0"
       fy="0"
       id="radialGradient622"
       gradientUnits="userSpaceOnUse"
       gradientTransform="matrix(15.084,0,0,-15.084,747.353,259.262)"
       spreadMethod="pad">
      <stop
         id="stop624"
         style="stop-color:#d7bd74;stop-opacity:1"
         offset="0" />
      <stop
         id="stop626"
         style="stop-color:#b39a54;stop-opacity:1"
         offset="0.691" />
      <stop
         id="stop628"
         style="stop-color:#8d742f;stop-opacity:1"
         offset="1" />
    </radialGradient>
    <radialGradient
       cx="0"
       cy="0"
       r="1"
       fx="0"
       fy="0"
       id="radialGradient2997"
       xlink:href="#radialGradient622"
       gradientUnits="userSpaceOnUse"
       gradientTransform="matrix(15.084,0,0,-15.084,747.353,259.262)"
       spreadMethod="pad" />
  </defs>
  <metadata
     id="metadata7262">
    <rdf:RDF>
      <cc:Work
         rdf:about="">
        <dc:format>image/svg+xml</dc:format>
        <dc:type
           rdf:resource="http://purl.org/dc/dcmitype/StillImage" />
        <dc:title />
      </cc:Work>
    </rdf:RDF>
  </metadata>
  <path
     d="m 254.170,825.751 c -10.365,0 -20.088,-2.985 -28.340,-8.582 -12.065,-8.251 -19.280,-22.016 -19.612,-37.648 -0.311,-17.912 8.188,-35.803 21.706,-45.837 5.348,-3.980 10.199,-7.380 14.988,-10.780 4.125,-2.985 8.417,-5.991 13.123,-9.474 l 2.010,-1.368 c 5.929,-18.637 18.223,-55.477 34.663,-97.189 14.988,-37.980 30.288,-74.986 45.526,-111.660 11.817,-28.588 23.323,-56.203 34.414,-83.900 -4.374,1.058 -8.914,1.7 -13.454,1.7 -8.499,0 -16.440,-2.114 -23.551,-6.074 -33.937,-19.529 -25.188,-58.960 -22.286,-71.918 0.975,-4.374 1.554,-9.142 2.197,-13.848 0.973,-6.799 1.948,-13.599 3.234,-19.674 5.659,-25.520 22.099,-52.720 51.497,-52.720 17.580,0 29.729,7.857 36.446,13.351 5.099,0.829 10.282,1.223 15.797,1.223 1.534,0 2.985,-0.082 4.540,-0.082 8.417,-26.163 15.382,-49.797 21.623,-72.954 -62.049,9.868 -156.378,38.788 -205.388,55.146 -1.202,1.865 -2.425,3.710 -3.710,5.576 -11.899,17.248 -34.269,36.114 -60.266,36.114 -18.057,0 -34.642,-9.059 -45.588,-24.940 -25.416,-37.482 0.724,-72.788 10.531,-86.077 1.534,-2.031 3.006,-3.959 4.291,-5.908 13.288,-20.171 26.888,-37.980 40.012,-55.146 17.082,-22.514 33.274,-43.660 47.703,-68.435 5.908,-10.117 6.074,-19.529 6.074,-19.674 0.066,-11.174 5.099,-22.203 13.765,-29.397 7.028,-5.763 15.693,-9.080 24.691,-9.080 2.031,0 4.125,0.165 6.240,0.497 0.393,0.082 39.037,7.110 81.226,9.308 35.554,1.865 221.393,2.425 277.513,2.591 h 11.506 11.423 c 34.082,0 50.046,20.980 53.280,38.954 6.406,35.140 -21.457,56.763 -33.274,65.988 -1.534,1.224 -3.089,2.363 -4.374,3.482 -11.506,9.806 -20.980,20.337 -29.003,32.320 -14.159,20.731 -24.774,44.386 -36.031,69.409 -4.623,10.448 -9.308,20.814 -14.242,31.014 l -1.948,4.208 c 30.123,7.940 36.529,31.097 37.731,39.182 2.342,15.237 0.726,52.326 -64.786,72.809 -9.723,3.006 -18.948,5.597 -27.365,7.774 -0.331,0.975 -0.726,1.948 -1.058,2.923 -12.148,33.357 -22.016,70.943 -32.548,110.789 l -8.499,31.905 c -16.295,60.246 -10.780,171.761 -10.697,172.881 0.809,15.320 -7.774,29.646 -21.706,36.218 l -175.804,82.926 -4.623,2.176 c -10.697,5.348 -23.965,11.899 -39.597,11.899"
     id="path616"
     style="fill:#ffffff;fill-opacity:1;fill-rule:nonzero;stroke:none" />
  <path
     d="M 677.801,58.151 C 676.515,51.019 666.543,50.294 661.775,50.211 H 638.784 C 560.066,50.045 393.715,49.403 359.384,47.619 314.044,45.359 273.223,37.813 273.223,37.813 c 0,0 0.809,18.886 -11.174,39.452 -27.137,46.480 -59.209,80.500 -88.835,125.364 -9.329,13.993 -27.635,31.325 -15.071,49.714 13.123,19.197 34.497,1.389 43.577,-11.651 3.068,-4.457 5.991,-9.412 8.251,-14.740 0,0 203.916,-70.549 275.336,-65.035 0,0 3.565,10.614 -6.551,48.905 -9.163,34.580 -19.446,67.709 -30.454,100.175 -21.788,3.089 -41.629,4.291 -63.977,-0.724 C 378.664,307.988 375.098,298.1 363.260,298.1 c -7.193,0 -13.102,16.937 -14.408,23.012 -2.259,10.365 -3.151,23.157 -5.431,33.440 -2.425,11.008 -5.742,25.334 4.063,30.931 9.225,5.348 30.205,-9.806 32.880,-11.091 14.491,-7.297 34.725,-11.899 49.320,-12.563 h 0.228 c -33.771,91.198 -72.394,177.773 -108.923,270.402 -22.742,57.820 -37.648,106.975 -37.648,106.975 l -11.817,8.354 c -10.137,7.359 -17.974,12.625 -28.112,20.088 -5.493,4.042 -9.308,17.559 -3.068,21.768 8.582,5.908 23.157,-2.902 34.974,-8.499 11.754,-5.576 175.824,-82.926 175.824,-82.926 0,0 -6.074,-117.734 11.982,-184.718 14.097,-52.388 25.997,-101.709 41.940,-145.681 2.757,-7.629 5.763,-14.988 8.748,-22.286 14.097,-3.234 28.505,-6.799 44.054,-11.734 8.665,-2.757 41.297,-13.848 38.623,-30.682 -2.425,-15.963 -42.997,-8.354 -55.063,-7.131 -2.010,0.165 -4.042,0.558 -6.074,0.975 8.748,-18.637 18.223,-37.814 28.671,-59.520 16.999,-35.388 30.848,-72.726 52.969,-105.295 10.117,-14.968 22.099,-28.174 35.782,-39.825 9.806,-8.437 27.780,-18.803 25.023,-33.937"
     id="path618"
     style="fill:#8d742f;fill-opacity:1;fill-rule:nonzero;stroke:none" />
  <g
     transform="matrix(20.731,0,0,-20.731,-15077.901,5790.362)"
     id="g620">
    <path
       d="m 740.406,275.297 c -0.769,-1.32 -1.633,-2.449 -2.468,-3.543 v 0 c -0.61,-0.801 -1.239,-1.625 -1.836,-2.527 v 0 c -0.082,-0.125 -0.18,-0.258 -0.278,-0.391 v 0 c -0.496,-0.672 -0.707,-1.027 -0.453,-1.398 v 0 c 0.113,-0.168 0.195,-0.168 0.231,-0.168 v 0 c 0.253,0 0.683,0.332 0.968,0.734 v 0 c 0.141,0.211 0.258,0.414 0.34,0.609 v 0 l 0.094,0.231 0.234,0.078 c 0.375,0.129 9.25,3.18 13.051,3.18 v 0 c 0.16,0 0.313,-0.004 0.453,-0.012 v 0 l 0.36,-0.031 0.117,-0.344 c 0.054,-0.156 0.187,-0.809 -0.305,-2.676 v 0 c -0.398,-1.516 -0.883,-3.105 -1.476,-4.871 v 0 l -0.11,-0.32 -0.34,-0.047 c -0.656,-0.09 -1.164,-0.133 -1.644,-0.133 v 0 c -0.571,0 -1.102,0.059 -1.637,0.18 v 0 c -0.246,0.054 -0.41,0.207 -0.543,0.328 v 0 c -0.105,0.097 -0.172,0.152 -0.242,0.179 v 0 c -0.094,-0.14 -0.219,-0.441 -0.27,-0.66 v 0 c -0.05,-0.234 -0.086,-0.5 -0.121,-0.765 v 0 c -0.043,-0.293 -0.082,-0.586 -0.14,-0.86 v 0 c -0.121,-0.543 -0.145,-0.843 -0.11,-0.867 v 0 c 0.114,0 0.371,0.074 0.953,0.442 v 0 c 0.078,0.046 0.133,0.078 0.161,0.093 v 0 c 0.82,0.41 1.894,0.625 2.593,0.657 v 0 l 0.844,0.039 -0.289,-0.778 c -0.965,-2.601 -2.031,-5.183 -3.066,-7.679 v 0 c -0.731,-1.762 -1.469,-3.547 -2.192,-5.375 v 0 c -1.078,-2.735 -1.797,-5.094 -1.805,-5.118 v 0 l -0.054,-0.179 -0.153,-0.11 -0.562,-0.394 c -0.242,-0.18 -0.457,-0.332 -0.676,-0.485 v 0 c -0.215,-0.156 -0.433,-0.308 -0.668,-0.48 v 0 c -0.027,-0.027 -0.055,-0.09 -0.07,-0.148 v 0 c 0.207,0.035 0.523,0.191 0.781,0.32 v 0 l 0.254,0.125 c 0.5,0.234 6.645,3.129 8.152,3.84 v 0 c -0.046,1.328 -0.152,5.879 0.614,8.715 v 0 l 0.414,1.558 c 0.519,1.961 1.008,3.813 1.625,5.512 v 0 c 0.129,0.355 0.265,0.703 0.41,1.047 v 0 l 0.125,0.312 0.281,0.067 c 0.586,0.132 1.293,0.304 2.078,0.55 v 0 c 1.106,0.352 1.508,0.758 1.531,0.797 v 0 c -0.003,0 -0.128,0.094 -0.636,0.094 v 0 c -0.395,0 -0.84,-0.059 -1.16,-0.102 v 0 l -0.301,-0.035 c -0.051,-0.004 -0.098,-0.011 -0.149,-0.019 v 0 l -0.125,-0.02 -1.019,-0.156 0.441,0.934 c 0.266,0.554 0.539,1.121 0.832,1.722 v 0 l 0.555,1.149 c 0.23,0.476 0.445,0.961 0.664,1.441 v 0 c 0.559,1.25 1.141,2.539 1.934,3.707 v 0 c 0.507,0.75 1.101,1.414 1.82,2.031 v 0 c 0.09,0.075 0.191,0.157 0.297,0.239 v 0 c 0.308,0.242 0.683,0.531 0.73,0.789 v 0 c -0.05,0.011 -0.129,0.023 -0.234,0.023 v 0 h -0.559 -0.554 c -2.719,0.008 -11.731,0.031 -13.504,0.121 v 0 c -1.496,0.078 -2.875,0.27 -3.629,0.391 v 0 c -0.07,-0.41 -0.223,-0.969 -0.559,-1.543"
       id="path630"
       style="fill:url(#radialGradient2997);fill-opacity:1;fill-rule:nonzero;stroke:none" />
  </g>
</svg>