<?xml version="1.0" encoding="UTF-8" standalone="no"?>
<!-- Created with Inkscape (http://www.inkscape.org/) -->

<svg
   xmlns:dc="http://purl.org/dc/elements/1.1/"
   xmlns:cc="http://creativecommons.org/ns#"
   xmlns:rdf="http://www.w3.org/1999/02/22-rdf-syntax-ns#"
   xmlns:svg="http://www.w3.org/2000/svg"
   xmlns="http://www.w3.org/2000/svg"
   xmlns:sodipodi="http://sodipodi.sourceforge.net/DTD/sodipodi-0.dtd"
   xmlns:inkscape="http://www.inkscape.org/namespaces/inkscape"
   version="1.1"
   width="600"
   height="600"
   id="svg7725"
   sodipodi:docname="tenth edition.svg"
   inkscape:version="0.92.2 5c3e80d, 2017-08-06">
  <sodipodi:namedview
     pagecolor="#ffffff"
     bordercolor="#666666"
     borderopacity="1"
     objecttolerance="10"
     gridtolerance="10"
     guidetolerance="10"
     inkscape:pageopacity="0"
     inkscape:pageshadow="2"
     inkscape:window-width="1167"
     inkscape:window-height="630"
     id="namedview7"
     showgrid="false"
     inkscape:zoom="0.39333333"
     inkscape:cx="300"
     inkscape:cy="300"
     inkscape:window-x="0"
     inkscape:window-y="0"
     inkscape:window-maximized="0"
     inkscape:current-layer="svg7725" />
  <defs
     id="defs7727" />
  <metadata
     id="metadata7730">
    <rdf:RDF>
      <cc:Work
         rdf:about="">
        <dc:format>image/svg+xml</dc:format>
        <dc:type
           rdf:resource="http://purl.org/dc/dcmitype/StillImage" />
        <dc:title />
      </cc:Work>
    </rdf:RDF>
  </metadata>
  <path
     d="M 599.99999,533.93484 H 568.44364 396.36945 376.85716 v -19.50099 c 0,-5.87515 0,-9.76179 -3.61547,-18.09999 -3.93184,-9.12908 -12.71067,-24.14462 -73.25864,-101.64014 -60.46888,77.49552 -69.29291,92.51106 -73.22475,101.64014 -3.61547,8.3382 -3.61547,12.22484 -3.61547,18.09999 v 19.50099 H 203.67573 31.60154 0.04519 l 14.07777,-28.24592 c 9.79569,-19.50099 31.25129,-23.25205 45.45335,-25.6812 3.00536,-0.53148 5.96554,-1.06205 8.60935,-1.72865 7.6829,-1.88683 38.43706,-40.47077 138.40505,-170.31165 C 106.62272,178.12654 75.86856,139.5539 68.18566,137.65577 c -2.68901,-0.7005 -5.60399,-1.18633 -8.68844,-1.71735 -14.16816,-2.47434 -35.57857,-6.2254 -45.32907,-25.6925 L 0,82 h 31.60154 172.07419 19.4671 v 19.51228 c 0,5.86386 0,9.7505 3.61547,18.0887 3.88664,9.14038 12.75587,24.14462 73.22475,101.64014 60.54797,-77.49552 69.372,-92.49976 73.25864,-101.64014 3.61547,-8.3382 3.61547,-12.22484 3.61547,-18.0887 V 82 h 19.51229 172.07419 31.55635 l -14.16815,28.24592 c -9.7053,19.4671 -31.14961,23.21816 -45.31777,25.6925 -3.05056,0.53148 -5.99943,1.01685 -8.65455,1.71735 -7.71679,1.89813 -38.48225,40.47077 -138.40505,170.31165 99.9228,129.84088 130.68826,168.42482 138.40505,170.31165 2.60992,0.66705 5.5588,1.19762 8.56416,1.72865 14.21335,2.42915 35.70286,6.18021 45.45335,25.6812 z"
     inkscape:connector-curvature="0"
     id="path736"
     style="fill:#ffffff;fill-opacity:1;fill-rule:nonzero;stroke:none" />
  <path
     d="M 568.40975,514.43385 C 561.51774,500.66114 540.86432,500.66114 527.1368,497.21514 513.36409,493.78043 506.48338,486.88843 368.82402,307.96742 506.48338,129.04641 513.36409,122.16571 527.1368,118.7197 c 13.72752,-3.4347 34.38094,-3.4347 41.27295,-17.20742 h -172.0403 c 0,6.88071 0,13.77272 -5.20855,25.77159 -5.11816,12.04406 -15.44487,29.26278 -91.17785,125.60399 -75.6539,-96.34121 -85.98061,-113.55993 -91.14396,-125.60399 -5.16336,-11.99887 -5.16336,-18.89088 -5.16336,-25.77159 H 31.60154 C 38.48225,115.285 59.13567,115.285 72.90838,118.7197 86.6359,122.16571 93.56181,129.04641 231.17597,307.96742 93.56181,486.88843 86.6359,493.78043 72.90838,497.21514 c -13.77271,3.446 -34.42613,3.446 -41.30684,17.21871 h 172.07419 c 0,-6.892 0,-13.77271 5.16336,-25.81677 5.16335,-12.05537 15.49006,-29.21759 91.14396,-125.61529 75.73298,96.3977 86.05969,113.55992 91.17785,125.61529 5.20855,12.04406 5.20855,18.92477 5.20855,25.81677 z"
     inkscape:connector-curvature="0"
     id="path738"
     style="fill:#000000;fill-opacity:1;fill-rule:nonzero;stroke:none" />
</svg>
