<?xml version="1.0" encoding="UTF-8" standalone="no"?>
<!-- Created with Inkscape (http://www.inkscape.org/) -->

<svg
   xmlns:dc="http://purl.org/dc/elements/1.1/"
   xmlns:cc="http://creativecommons.org/ns#"
   xmlns:rdf="http://www.w3.org/1999/02/22-rdf-syntax-ns#"
   xmlns:svg="http://www.w3.org/2000/svg"
   xmlns="http://www.w3.org/2000/svg"
   xmlns:sodipodi="http://sodipodi.sourceforge.net/DTD/sodipodi-0.dtd"
   xmlns:inkscape="http://www.inkscape.org/namespaces/inkscape"
   version="1.1"
   width="600"
   height="600"
   id="svg7849"
   sodipodi:docname="tenth edition rare.svg"
   inkscape:version="0.92.2 5c3e80d, 2017-08-06">
  <sodipodi:namedview
     pagecolor="#ffffff"
     bordercolor="#666666"
     borderopacity="1"
     objecttolerance="10"
     gridtolerance="10"
     guidetolerance="10"
     inkscape:pageopacity="0"
     inkscape:pageshadow="2"
     inkscape:window-width="1069"
     inkscape:window-height="673"
     id="namedview14"
     showgrid="false"
     inkscape:zoom="0.39333333"
     inkscape:cx="300"
     inkscape:cy="300"
     inkscape:window-x="0"
     inkscape:window-y="0"
     inkscape:window-maximized="0"
     inkscape:current-layer="svg7849" />
  <defs
     id="defs7851">
    <linearGradient
       x1="0"
       y1="0"
       x2="1"
       y2="0"
       id="linearGradient762"
       gradientUnits="userSpaceOnUse"
       gradientTransform="matrix(47.512695,0,0,-47.512695,723.60059,146.51172)"
       spreadMethod="pad">
      <stop
         id="stop764"
         style="stop-color:#8d742f;stop-opacity:1"
         offset="0" />
      <stop
         id="stop766"
         style="stop-color:#b39a54;stop-opacity:1"
         offset="0.35000601" />
      <stop
         id="stop768"
         style="stop-color:#d7bd74;stop-opacity:1"
         offset="0.5" />
      <stop
         id="stop770"
         style="stop-color:#b39a54;stop-opacity:1"
         offset="0.64999402" />
      <stop
         id="stop772"
         style="stop-color:#8d742f;stop-opacity:1"
         offset="1" />
    </linearGradient>
  </defs>
  <metadata
     id="metadata7854">
    <rdf:RDF>
      <cc:Work
         rdf:about="">
        <dc:format>image/svg+xml</dc:format>
        <dc:type
           rdf:resource="http://purl.org/dc/dcmitype/StillImage" />
        <dc:title />
      </cc:Work>
    </rdf:RDF>
  </metadata>
  <path
     d="m 599.9548,531.93484 h -31.55635 -172.029 -19.51229 v -19.50099 c 0,-5.87515 0,-9.76179 -3.61547,-18.09999 -3.93184,-9.12908 -12.75587,-24.14462 -73.26994,-101.64014 -60.45759,77.49552 -69.32681,92.51106 -73.21345,101.64014 -3.61548,8.3382 -3.61548,12.22484 -3.61548,18.09999 v 19.50099 H 203.63054 31.55635 0 l 14.12296,-28.24592 c 9.75049,-19.50099 31.24,-23.25205 45.45335,-25.6812 3.00536,-0.53148 5.95424,-1.06205 8.60935,-1.72865 7.6377,-1.88683 38.39187,-40.47077 138.35986,-170.31165 C 106.62272,176.12654 75.86856,137.5539 68.14047,135.65577 c -2.64382,-0.7005 -5.60399,-1.18633 -8.65455,-1.71735 -14.16816,-2.47434 -35.61247,-6.2254 -45.36296,-25.6925 L 0,80 h 31.55635 172.07419 19.51229 v 19.51228 c 0,5.86386 0,9.7505 3.61547,18.0887 3.88664,9.14038 12.75587,24.14462 73.21345,101.64014 60.51408,-77.49552 69.3833,-92.49976 73.26994,-101.64014 3.61547,-8.3382 3.61547,-12.22484 3.61547,-18.0887 V 80 h 19.51229 172.029 31.60154 l -14.16815,28.24592 c -9.7505,19.4671 -31.16091,23.21816 -45.31777,25.6925 -3.05056,0.53148 -6.01073,1.01685 -8.65455,1.71735 -7.77328,1.89813 -38.52745,40.47077 -138.40505,170.31165 99.9228,129.84088 130.67696,168.42482 138.40505,170.31165 2.59862,0.66705 5.5588,1.19762 8.56416,1.72865 14.16816,2.42915 35.65766,6.18021 45.45335,25.6812 z"
     inkscape:connector-curvature="0"
     id="path758"
     style="fill:#000000;fill-opacity:1;fill-rule:nonzero;stroke:none" />
  <g
     transform="matrix(11.298371,0,0,-11.298371,-8143.9224,1961.3144)"
     id="g760">
    <path
       d="m 755.883,164.785 c 0,-0.609 0,-1.219 -0.457,-2.281 v 0 c -0.457,-1.066 -1.367,-2.59 -8.071,-11.117 v 0 c -6.699,8.527 -7.613,10.051 -8.07,11.117 v 0 c -0.457,1.062 -0.457,1.672 -0.457,2.281 v 0 h -15.226 c 0.609,-1.219 2.433,-1.219 3.656,-1.523 v 0 c 1.215,-0.305 1.824,-0.914 14.008,-16.75 v 0 c -12.184,-15.836 -12.793,-16.446 -14.008,-16.75 v 0 c -1.223,-0.305 -3.047,-0.305 -3.656,-1.524 v 0 h 15.226 c 0,0.61 0,1.219 0.457,2.285 v 0 c 0.457,1.067 1.371,2.586 8.07,11.118 v 0 c 6.704,-8.532 7.614,-10.051 8.071,-11.118 v 0 c 0.457,-1.066 0.457,-1.675 0.457,-2.285 v 0 h 15.23 c -0.609,1.219 -2.437,1.219 -3.656,1.524 v 0 c -1.219,0.304 -1.828,0.914 -14.008,16.75 v 0 c 12.18,15.836 12.789,16.445 14.008,16.75 v 0 c 1.219,0.304 3.047,0.304 3.656,1.523 v 0 z"
       inkscape:connector-curvature="0"
       id="path774"
       style="fill:url(#linearGradient762);fill-opacity:1;fill-rule:nonzero;stroke:none" />
  </g>
</svg>
