<?xml version="1.0" encoding="UTF-8" standalone="no"?>
<!-- Created with Inkscape (http://www.inkscape.org/) -->

<svg
   xmlns:dc="http://purl.org/dc/elements/1.1/"
   xmlns:cc="http://creativecommons.org/ns#"
   xmlns:rdf="http://www.w3.org/1999/02/22-rdf-syntax-ns#"
   xmlns:svg="http://www.w3.org/2000/svg"
   xmlns="http://www.w3.org/2000/svg"
   xmlns:xlink="http://www.w3.org/1999/xlink"
   xmlns:sodipodi="http://sodipodi.sourceforge.net/DTD/sodipodi-0.dtd"
   xmlns:inkscape="http://www.inkscape.org/namespaces/inkscape"
   version="1.1"
   width="675"
   height="675"
   id="svg6069"
   sodipodi:docname="time spiral timeshifted.svg"
   inkscape:version="0.92.2 5c3e80d, 2017-08-06">
  <sodipodi:namedview
     pagecolor="#ffffff"
     bordercolor="#666666"
     borderopacity="1"
     objecttolerance="10"
     gridtolerance="10"
     guidetolerance="10"
     inkscape:pageopacity="0"
     inkscape:pageshadow="2"
     inkscape:window-width="640"
     inkscape:window-height="480"
     id="namedview28"
     showgrid="false"
     inkscape:zoom="0.34962963"
     inkscape:cx="149.33557"
     inkscape:cy="268.50995"
     inkscape:window-x="0"
     inkscape:window-y="0"
     inkscape:window-maximized="0"
     inkscape:current-layer="svg6069" />
  <defs
     id="defs6071">
    <linearGradient
       x1="0"
       y1="0"
       x2="1"
       y2="0"
       id="linearGradient638"
       gradientUnits="userSpaceOnUse"
       gradientTransform="matrix(39.478577,-22.792969,-22.792969,-39.478577,213.30762,157.90723)"
       spreadMethod="pad">
      <stop
         id="stop640"
         style="stop-color:#612c75;stop-opacity:1"
         offset="0" />
      <stop
         id="stop642"
         style="stop-color:#7b5190;stop-opacity:1"
         offset="0.30000299" />
      <stop
         id="stop644"
         style="stop-color:#bf99c3;stop-opacity:1"
         offset="0.5" />
      <stop
         id="stop646"
         style="stop-color:#7b5190;stop-opacity:1"
         offset="0.69999701" />
      <stop
         id="stop648"
         style="stop-color:#612c75;stop-opacity:1"
         offset="1" />
    </linearGradient>
    <linearGradient
       x1="0"
       y1="0"
       x2="1"
       y2="0"
       id="linearGradient2991"
       xlink:href="#linearGradient638"
       gradientUnits="userSpaceOnUse"
       gradientTransform="matrix(665.85557,384.43192,-384.43192,665.85557,5.104402,147.13021)"
       spreadMethod="pad" />
  </defs>
  <metadata
     id="metadata6074">
    <rdf:RDF>
      <cc:Work
         rdf:about="">
        <dc:format>image/svg+xml</dc:format>
        <dc:type
           rdf:resource="http://purl.org/dc/dcmitype/StillImage" />
        <dc:title />
      </cc:Work>
    </rdf:RDF>
  </metadata>
  <path
     d="M 600.50632,676.65003 H 75.476809 C 54.798786,676.65003 38,659.85124 38,639.24069 v -57.53078 c 0,-20.74549 16.798786,-37.61174 37.476809,-37.61174 h 11.46905 c 4.216563,-65.49165 46.061731,-122.21286 118.991401,-160.56671 19.36245,-10.13662 25.36684,-18.56974 25.36684,-51.57699 0,-33.34458 -5.14421,-40.7826 -24.25367,-50.80115 C 139.33243,245.51493 98.347445,194.12347 89.509529,134.50127 H 75.476809 C 54.798786,134.50127 38,117.76995 38,97.14252 V 39.62861 C 38,18.86626 54.798786,2 75.476809,2 H 600.50632 C 621.20121,2 638,18.86626 638,39.62861 v 57.51391 c 0,20.62743 -16.79879,37.35875 -37.42621,37.35875 h -12.97015 c -8.97284,59.75713 -49.8735,111.08113 -117.47343,146.65205 -21.60567,11.33412 -26.54748,20.81295 -26.54748,50.80115 0,33.00725 5.98752,41.44037 25.36684,51.57699 72.99713,38.35385 114.8929,95.07506 119.042,160.56671 h 12.51475 c 20.69489,0 37.49368,16.86625 37.49368,37.61174 v 57.53078 c 0,20.61055 -16.79879,37.40934 -37.49368,37.40934"
     inkscape:connector-curvature="0"
     id="path634"
     style="fill:#ffffff;fill-opacity:1;fill-rule:nonzero;stroke:none" />
  <path
     d="m 75.476809,32.30866 c -3.946703,0 -7.168157,3.28892 -7.168157,7.31995 v 0 57.51391 c 0,3.81178 3.221454,7.0501 7.168157,7.0501 v 0 h 42.637881 l -0.0675,5.53213 c 0,65.81211 46.04487,114.57244 103.03592,144.54377 v 0 c 33.07472,17.3385 40.5296,38.35385 40.5296,77.68595 v 0 c 0,38.80924 -8.18013,60.93776 -41.57531,78.46179 v 0 c -57.12595,29.97133 -103.10334,78.6642 -103.10334,144.54377 v 0 c 0,6.72964 0.45539,13.05448 1.31557,19.44679 v 0 H 75.476814 c -3.946703,0 -7.168157,3.28892 -7.168157,7.23562 v 0 57.59825 c 0,3.87923 3.221454,7.10069 7.168157,7.10069 v 0 H 600.50632 c 4.03104,0 7.18503,-3.22146 7.18503,-7.10069 v 0 -57.59825 c 0,-3.9467 -3.15399,-7.23562 -7.18503,-7.23562 v 0 h -43.80165 c 0.72525,-6.39231 1.31557,-12.71715 1.31557,-19.44679 v 0 c 0,-65.87957 -46.1292,-114.57244 -103.17086,-144.54377 v 0 c -33.34457,-17.52403 -41.5753,-39.65255 -41.5753,-78.46179 v 0 c 0,-37.81414 8.75358,-59.75713 42.75594,-77.68595 v 0 c 57.05853,-29.90387 103.10339,-78.6642 103.10339,-144.54377 v 0 l -0.13493,-5.53213 h 41.50784 c 4.03104,0 7.18503,-3.23832 7.18503,-7.0501 v 0 -57.51391 c 0,-4.03103 -3.15399,-7.31995 -7.18503,-7.31995 v 0 H 75.476814 Z M 336.31337,193.78614 c -57.17658,-0.32046 -90.58863,-6.18991 -144.4763,-25.4849 v 0 c -10.33901,-20.42503 -16.73132,-43.88599 -16.73132,-64.17609 v 0 h 325.85596 c 0,21.87553 -17.65896,65.08686 -17.65896,65.08686 v 0 c -52.90943,18.65408 -86.507,24.57413 -140.98499,24.57413 v 0 c -1.97335,0 -3.96357,0 -6.00439,0 M 172.52522,560.50903 c 0,-48.30494 33.66503,-88.09243 85.39382,-115.17963 v 0 c 34.52522,-18.11435 63.11351,-46.97251 63.11351,-46.97251 v 0 l -0.32046,10.54141 c 0,76.30292 -32.16394,133.29398 -78.61359,165.50852 v 0 h -67.39754 c -1.4505,-6.91516 -2.17574,-6.66217 -2.17574,-13.89779 m 182.89762,-153.85394 -0.38793,-8.23073 c 0,0 28.72323,26.48001 63.11351,44.61123 v 0 c 51.71193,27.07033 85.3095,66.87469 85.3095,115.23023 v 0 c 0,7.11755 -0.65779,6.84769 -2.04082,16.141 v 0 H 433.88463 C 387.56991,539.81414 355.42284,482.89054 355.42284,406.65509"
     inkscape:connector-curvature="0"
     id="path650"
     style="fill:url(#linearGradient2991);fill-opacity:1;fill-rule:nonzero;stroke:none" />
</svg>
