<?xml version="1.0" encoding="UTF-8" standalone="no"?>
<!-- Created with Inkscape (http://www.inkscape.org/) -->

<svg
   xmlns:dc="http://purl.org/dc/elements/1.1/"
   xmlns:cc="http://creativecommons.org/ns#"
   xmlns:rdf="http://www.w3.org/1999/02/22-rdf-syntax-ns#"
   xmlns:svg="http://www.w3.org/2000/svg"
   xmlns="http://www.w3.org/2000/svg"
   xmlns:sodipodi="http://sodipodi.sourceforge.net/DTD/sodipodi-0.dtd"
   xmlns:inkscape="http://www.inkscape.org/namespaces/inkscape"
   version="1.1"
   width="675"
   height="675"
   id="svg5876"
   sodipodi:docname="time spiral.svg"
   inkscape:version="0.92.2 5c3e80d, 2017-08-06">
  <sodipodi:namedview
     pagecolor="#ffffff"
     bordercolor="#666666"
     borderopacity="1"
     objecttolerance="10"
     gridtolerance="10"
     guidetolerance="10"
     inkscape:pageopacity="0"
     inkscape:pageshadow="2"
     inkscape:window-width="1236"
     inkscape:window-height="956"
     id="namedview49"
     showgrid="false"
     inkscape:zoom="0.34962963"
     inkscape:cx="337.5"
     inkscape:cy="337.5"
     inkscape:window-x="0"
     inkscape:window-y="0"
     inkscape:window-maximized="0"
     inkscape:current-layer="svg5876" />
  <defs
     id="defs5878" />
  <metadata
     id="metadata5881">
    <rdf:RDF>
      <cc:Work
         rdf:about="">
        <dc:format>image/svg+xml</dc:format>
        <dc:type
           rdf:resource="http://purl.org/dc/dcmitype/StillImage" />
        <dc:title />
      </cc:Work>
    </rdf:RDF>
  </metadata>
  <path
     d="M 596.50632,676.65003 H 71.476809 C 50.798786,676.65003 34,659.85124 34,639.24069 v -57.53078 c 0,-20.74549 16.798786,-37.61174 37.476809,-37.61174 h 11.46905 c 4.149098,-65.49165 46.061731,-122.21286 118.991401,-160.56671 19.36245,-10.13662 25.4343,-18.56974 25.4343,-51.57699 0,-33.34458 -5.21167,-40.7826 -24.32113,-50.80115 C 135.33243,245.51493 94.347445,194.12347 85.526396,134.50127 H 71.476809 C 50.798786,134.50127 34,117.76995 34,97.14252 V 39.62861 C 34,18.86626 50.798786,2 71.476809,2 H 596.50632 C 617.20121,2 634,18.86626 634,39.62861 v 57.51391 c 0,20.62743 -16.79879,37.35875 -37.42621,37.35875 h -12.97015 c -8.95598,59.75713 -49.8735,111.08113 -117.47343,146.65205 -21.60567,11.33412 -26.54748,20.81295 -26.54748,50.80115 0,33.00725 5.98752,41.44037 25.36684,51.57699 72.99713,38.35385 114.8929,95.07506 119.042,160.56671 h 12.51475 c 20.69489,0 37.49368,16.86625 37.49368,37.61174 v 57.53078 c 0,20.61055 -16.79879,37.40934 -37.49368,37.40934"
     inkscape:connector-curvature="0"
     id="path594"
     style="fill:#ffffff;fill-opacity:1;fill-rule:nonzero;stroke:none" />
  <path
     d="m 479.30275,169.21201 c -54.81532,19.31186 -88.86828,24.97892 -146.98938,24.57413 -57.17658,-0.31978 -90.58863,-6.18991 -144.4763,-25.4849 -10.33901,-20.42503 -16.73132,-43.88599 -16.73132,-64.17609 h 325.85596 c 0,21.87553 -17.65896,65.08686 -17.65896,65.08686 m -65.15433,273.75612 c 51.71193,27.20526 85.3095,66.94215 85.3095,115.29769 0,7.11756 -0.65711,6.8477 -2.04082,16.141 h -67.465 C 383.56991,539.81414 351.4903,482.89054 351.4903,406.60449 l -0.45471,-8.18013 c 0,0 28.72322,26.42941 63.11351,44.54377 M 316.71277,408.8983 c 0,76.30292 -32.16394,133.29398 -78.6136,165.50852 h -67.39753 c -1.4505,-6.91516 -2.17575,-6.66217 -2.17575,-13.89779 0,-48.30494 33.7325,-88.09243 85.32636,-115.17963 34.59268,-18.11435 63.18098,-46.97251 63.18098,-46.97251 l -0.32114,10.54141 z M 603.69202,97.14252 V 39.62861 c 0,-4.03103 -3.15399,-7.31995 -7.18502,-7.31995 H 71.477484 c -3.946703,0 -7.168157,3.28892 -7.168157,7.31995 v 57.51391 c 0,3.81178 3.221454,7.0501 7.168157,7.0501 h 42.637876 l -0.0674,5.53213 c 0,65.87957 46.04486,114.57244 103.03592,144.61123 33.07471,17.27104 40.59706,38.28639 40.59706,77.61849 0,38.80924 -8.2476,60.93776 -41.64277,78.46179 -57.12599,29.97133 -103.12025,78.73166 -103.12025,144.54377 0,6.72964 0.47225,13.05448 1.33176,19.44679 H 71.476814 c -3.946703,0 -7.168157,3.28892 -7.168157,7.23562 v 57.59825 c 0,3.87923 3.221454,7.10069 7.168157,7.10069 H 596.50632 c 4.03104,0 7.18503,-3.22146 7.18503,-7.10069 v -57.59825 c 0,-3.9467 -3.15399,-7.23562 -7.18503,-7.23562 h -43.80165 c 0.72458,-6.39231 1.31557,-12.71715 1.31557,-19.44679 0,-65.81211 -46.1292,-114.57244 -103.17086,-144.54377 -33.34457,-17.52403 -41.5753,-39.65255 -41.5753,-78.46179 0,-37.8816 8.75358,-59.75713 42.75594,-77.61849 57.05853,-29.97133 103.10339,-78.73166 103.10339,-144.61123 l -0.0675,-5.53213 h 41.50784 c 3.96357,0 7.11756,-3.23832 7.11756,-7.0501"
     inkscape:connector-curvature="0"
     id="path596"
     style="fill:#000000;fill-opacity:1;fill-rule:nonzero;stroke:none" />
</svg>
