<?xml version="1.0" encoding="UTF-8" standalone="no"?>
<!-- Created with Inkscape (http://www.inkscape.org/) -->

<svg
   xmlns:dc="http://purl.org/dc/elements/1.1/"
   xmlns:cc="http://creativecommons.org/ns#"
   xmlns:rdf="http://www.w3.org/1999/02/22-rdf-syntax-ns#"
   xmlns:svg="http://www.w3.org/2000/svg"
   xmlns="http://www.w3.org/2000/svg"
   xmlns:inkscape="http://www.inkscape.org/namespaces/inkscape"
   version="1.1"
   width="600"
   height="600"
   id="svg4525">
  <defs
     id="defs4527">
    <radialGradient
       cx="0"
       cy="0"
       r="1"
       fx="0"
       fy="0"
       id="radialGradient500"
       gradientUnits="userSpaceOnUse"
       gradientTransform="matrix(17.670,0,0,-17.670,400.983,371.969)"
       spreadMethod="pad">
      <stop
         id="stop502"
         style="stop-color:#b7d1e1;stop-opacity:1"
         offset="0" />
      <stop
         id="stop504"
         style="stop-color:#a0b6c2;stop-opacity:1"
         offset="0.662" />
      <stop
         id="stop506"
         style="stop-color:#626e77;stop-opacity:1"
         offset="1" />
    </radialGradient>
  </defs>
  <metadata
     id="metadata4530">
    <rdf:RDF>
      <cc:Work
         rdf:about="">
        <dc:format>image/svg+xml</dc:format>
        <dc:type
           rdf:resource="http://purl.org/dc/dcmitype/StillImage" />
        <dc:title />
      </cc:Work>
    </rdf:RDF>
  </metadata>
  <path
     d="m 263.689,590.630 c -0.759,0.121 -1.533,0.182 -2.369,0.182 0.652,-0.060 1.898,-0.060 2.369,-0.182 M 90.589,497.201 c 0,-2.141 0.349,-4.404 1.366,-6.834 -0.896,2.202 -1.123,4.510 -1.366,6.879 0,0 0,-0.048 0,-0.048 M 343.966,272.053 c 1.716,-0.532 12.741,-4.799 25.498,-14.655 2.429,1.959 4.874,3.918 7.593,5.467 3.386,1.959 7.471,2.839 11.633,2.839 5.573,20.411 16.720,43.722 38.088,63.420 2.718,2.551 3.903,6.758 3.903,11.982 0,20.001 -17.130,55.887 -33.623,78.849 -0.895,1.063 -33.638,41.171 -112.002,41.171 -55.948,0 -112.184,-26.045 -136.514,-82.585 6.834,5.102 14.533,9.901 23.433,14.412 7.775,3.978 17.024,3.629 24.450,-0.880 7.061,-4.328 11.268,-11.921 11.739,-20.122 6.879,0 13.409,-4.388 18.512,-9.370 2.733,-2.612 4.449,-6.348 5.634,-10.372 19.636,17.312 44.132,22.947 63.951,12.984 6.105,-3.022 10.737,-8.474 12.696,-15.004 0.773,-2.429 1.184,-4.920 1.184,-7.411 0,-4.282 -1.063,-8.489 -3.143,-12.225 -2.490,-4.631 -6.059,-13.060 -8.185,-21.777 2.429,-0.532 4.799,-0.349 7.228,-1.412 3.568,-1.549 6.651,-3.796 9.142,-6.651 0.591,-0.653 10.266,-12.225 20.350,-27.943 2.779,0.182 5.634,0.121 8.428,-0.714 m -316.326,22.309 -2.429,2.429 c 0.591,-0.653 1.245,-1.245 2.429,-2.429 M 383.179,234.739 c 0,-1.898 1.063,-3.614 1.473,-5.452 -0.348,2.490 -0.652,5.102 -0.652,8.124 -0.121,-0.896 -0.820,-1.716 -0.820,-2.672 M 340.337,0.425 C 320.700,4.040 283.629,23.676 269.217,73.975 l 0,0 c -5.588,19.515 -16.265,24.860 -34.701,32.636 -11.101,4.677 -28.596,13.409 -39.637,22.248 -8.185,6.515 -3.553,13.227 -5.983,19.925 -0.364,-1.594 -0.364,-3.325 -1.078,-4.799 -4.738,-9.916 -15.247,-15.672 -26.090,-14.123 -2.855,0.409 -70.011,10.858 -131.289,98.182 -1.776,2.308 -12.939,18.269 -12.939,39.500 0,12.164 0.303,21.124 5.755,31.208 -5.452,5.467 -16.492,16.492 -16.492,16.492 -1.123,1.123 -2.186,2.429 -3.082,3.796 C 1.306,322.553 0,329.903 0,340.169 0,374.628 15.429,441.192 60.868,496.593 c 0.835,1.078 1.837,2.080 2.839,3.037 2.445,2.065 13.652,10.797 29.371,14.230 3.492,10.327 11.147,27.351 27.822,39.804 19.515,14.655 58.378,17.859 75.691,18.694 3.568,4.388 7.244,7.411 9.020,8.595 13.531,9.020 33.046,10.448 46.334,10.205 9.309,7.775 24.147,16.310 46.988,16.310 22.658,0 37.010,-7.942 46.091,-15.308 l 15.186,0 c 10.084,0 19.165,-5.983 23.129,-15.232 -2.247,5.148 -4.799,6.515 -4.920,6.515 0,0 2.247,-1.063 8.307,-1.063 9.020,0 17.495,-5.042 21.944,-12.939 2.141,-3.735 6.591,-8.960 9.142,-10.144 3.978,-1.533 18.558,-2.551 30.373,-1.959 5.391,0.182 10.737,-1.245 15.186,-4.206 2.779,-1.898 25.620,-18.391 43.130,-45.560 23.251,-11.025 72.486,-39.151 72.486,-79.852 0,-3.735 -0.591,-7.411 -1.184,-11.025 3.857,-4.282 6.469,-9.613 6.697,-15.718 0.546,-11.283 1.837,-42.356 1.837,-62.949 0,-5.512 -0.167,-9.901 -0.349,-13.349 0.652,-1.123 1.898,-3.265 1.898,-3.265 4.267,-7.061 10.797,-17.798 11.982,-33.988 C 600,285.876 600,284.403 600,282.915 c 0,-20.107 -9.674,-34.762 -15.596,-43.783 0,0 -3.098,-4.920 -3.204,-5.102 0,0 0.060,-0.109 0.060,-0.289 0,-1.184 -0.546,-5.695 -0.546,-5.695 -0.880,-9.370 -2.186,-23.494 -10.494,-35.127 0.835,-1.533 2.247,-2.551 2.839,-4.328 1.078,-3.265 1.488,-6.515 1.488,-9.780 0,-12.164 -6.105,-23.433 -11.207,-30.024 -0.242,-0.880 -2.490,-7.821 -2.490,-7.821 l -7.714,-20.122 C 545.600,108.205 514.817,88.341 486.630,81.507 c -5.983,-1.412 -11.633,-1.837 -17.206,-2.126 1.549,-4.328 2.794,-8.489 5.877,-13.713 2.247,-3.903 3.386,-8.292 3.386,-12.680 0,-4.343 -1.138,-8.610 -3.265,-12.529 -4.510,-7.760 -12.817,-12.574 -21.838,-12.574 -5.163,0 -49.584,0.773 -80.383,20.471 -2.369,-3.568 -4.556,-9.263 -4.556,-13.470 0,-0.835 0.048,-1.594 0.289,-2.247 0.775,-2.429 1.123,-4.981 1.123,-7.487 0,-6.105 -2.247,-12.027 -6.287,-16.659 -5.922,-6.651 -14.761,-9.674 -23.433,-8.064"
     inkscape:connector-curvature="0"
     id="path494"
     style="fill:#ffffff;fill-opacity:1;fill-rule:nonzero;stroke:none" />
  <path
     d="m 317.921,170.624 c 6.636,-13.288 16.492,-22.309 17.373,-43.069 0,0 -73.321,3.022 -69.707,65.850 0,0 36.782,8.307 52.333,-22.780 m 56.646,387.856 c 0,0 -2.961,4.206 -5.391,5.922 -4.282,2.794 -8.960,2.612 -8.960,2.612 l -25.043,0 c 0,0 -9.780,15.369 -36.174,15.369 -26.470,0 -37.678,-16.735 -37.678,-16.735 0,0 -29.189,2.794 -41.763,-5.573 -4.206,-2.779 -7.942,-10.858 -7.942,-10.858 0,0 1.655,-5.391 2.004,-6.226 1.366,-3.553 1.549,-7.122 2.262,-10.919 0.470,-2.369 0.349,-4.677 1.366,-6.879 0.880,-1.898 3.325,-4.388 5.102,-5.862 1.594,-1.245 4.085,-3.386 5.862,-4.571 4.039,-2.612 8.140,-4.100 11.876,-7.122 3.903,-3.143 11.329,-10.387 11.329,-10.387 l -2.323,-3.082 c 0,0 -5.740,3.857 -6.575,4.449 -3.857,2.976 -7.244,5.816 -11.693,7.897 -4.388,2.080 -13.759,7.350 -13.759,7.350 0,0 -1.837,-2.080 -2.961,-3.796 -1.959,-2.900 -4.388,-5.163 -6.059,-8.307 -0.880,-1.776 -5.695,-7.107 -5.695,-7.107 l -1.837,2.308 c 0,0 5.102,10.737 5.406,12.878 0.349,2.186 2.779,6.940 2.369,9.005 -1.655,8.246 -3.204,13.409 -4.039,21.777 -0.349,3.796 -1.412,6.879 -1.412,6.879 0,0 -50.131,-1.366 -66.867,-13.880 -16.659,-12.574 -20.881,-33.456 -20.881,-33.456 0,0 4.221,-9.734 -9.719,-9.734 -13.941,0 -25.103,-9.719 -25.103,-9.719 C 23.145,411.001 24.557,332.986 24.557,332.986 l 20.881,-20.881 c 0,0 8.367,-13.941 2.794,-20.881 -5.573,-7.001 -5.573,-9.734 -5.573,-23.676 0,-13.941 8.352,-25.088 8.352,-25.088 55.705,-79.366 114.204,-87.734 114.204,-87.734 0,0 -54.277,48.704 -54.277,158.747 0,110.043 80.793,172.749 174.116,172.749 93.307,0 132.337,-51.498 132.337,-51.498 0,0 64.073,-89.161 26.409,-123.985 -37.617,-34.823 -34.823,-78.014 -34.823,-78.014 -5.528,0 -19.454,8.367 -19.454,8.367 -9.795,-5.634 -19.530,-19.515 -19.530,-19.515 -15.293,20.881 -33.395,26.455 -33.395,26.455 l -11.207,-8.352 c -11.101,23.661 -29.249,44.542 -29.249,44.542 -9.734,4.206 -22.248,-2.733 -22.248,-2.733 -8.367,26.470 11.162,61.293 11.162,61.293 -11.162,5.512 -26.470,1.412 -39.045,-11.162 -12.513,-12.574 -22.248,-19.515 -32.028,-9.719 -9.734,9.719 -4.161,25.027 -4.161,25.027 -8.352,-1.366 -20.866,-8.307 -20.866,-8.307 -5.588,11.101 -5.588,32.028 -5.588,32.028 -79.427,-40.396 -23.721,-86.428 -23.721,-86.428 1.427,-34.823 4.206,-54.277 27.882,-66.852 23.661,-12.513 32.028,-22.248 27.882,-33.395 -4.221,-11.162 -9.324,-27.184 0.941,-38.027 16.310,-17.328 63.116,-16.325 77.057,-65.090 13.941,-48.749 51.498,-55.705 51.498,-55.705 -6.940,22.309 13.941,64.073 39.030,45.985 25.043,-18.148 69.646,-18.148 69.646,-18.148 -19.515,33.456 -12.513,57.117 -12.513,57.117 33.395,-20.881 86.382,16.735 90.528,23.676 4.206,7.001 6.940,25.088 11.147,29.310 4.161,4.146 11.101,19.454 2.794,20.881 -8.367,1.412 -12.574,11.147 0,19.454 12.513,8.413 8.307,30.662 12.513,40.396 4.221,9.780 18.163,22.309 16.735,41.824 -1.427,19.515 -15.369,26.455 -13.941,39.030 1.427,12.513 -1.427,75.220 -1.427,75.220 -9.734,-20.881 -41.763,-37.663 -41.763,-37.663 0,0 36.190,33.456 36.190,65.485 0,32.104 -64.073,59.927 -64.073,59.927 -15.308,27.882 -40.396,44.603 -40.396,44.603 0,0 -29.249,-1.427 -41.763,4.161 -11.147,4.981 -19.044,17.677 -20.593,20.395 0,0 -7.411,-11.921 -3.143,-36.600 0,0 -15.779,18.148 -9.309,38.270"
     inkscape:connector-curvature="0"
     id="path496"
     style="fill:#626e77;fill-opacity:1;fill-rule:nonzero;stroke:none" />
  <g
     transform="matrix(15.186,0,0,-15.186,-5789.911,5954.658)"
     id="g498">
    <path
       d="m 401.043,386.633 c -0.68,-2.383 -2.477,-3.153 -3.789,-3.711 l 0,0 c -0.602,-0.258 -1.117,-0.481 -1.399,-0.777 l 0,0 c -0.445,-0.473 -0.242,-1.235 0.043,-1.989 l 0,0 c 0.473,-1.265 -0.781,-2.133 -2.07,-2.816 l 0,0 c -1.305,-0.692 -1.48,-1.742 -1.566,-3.985 l 0,0 -0.012,-0.218 -0.168,-0.145 c -0.016,-0.012 -1.199,-1.015 -1.062,-2.238 l 0,0 c 0.089,-0.793 0.71,-1.543 1.847,-2.238 l 0,0 c 0.051,0.48 0.156,1.074 0.375,1.507 l 0,0 0.231,0.465 0.457,-0.25 c 0.101,-0.058 0.304,-0.164 0.531,-0.261 l 0,0 c 0.012,0.406 0.129,0.882 0.519,1.277 l 0,0 c 0.301,0.297 0.633,0.449 0.997,0.449 l 0,0 c 0.613,0 1.152,-0.418 1.824,-1.094 l 0,0 c 0.469,-0.464 1.011,-0.738 1.496,-0.742 l 0,0 c -0.371,0.848 -0.93,2.469 -0.492,3.844 l 0,0 0.179,0.578 0.539,-0.293 c 0.106,-0.058 0.45,-0.207 0.762,-0.207 l 0,0 c 0.063,0 0.117,0.008 0.168,0.02 l 0,0 c 0.281,0.336 1.184,1.476 1.77,2.718 l 0,0 0.261,0.551 0.493,-0.363 0.507,-0.383 c 0.356,0.168 1.082,0.594 1.723,1.469 l 0,0 0.41,0.562 0.403,-0.57 c 0.136,-0.191 0.515,-0.68 0.898,-0.984 l 0,0 c 0.371,0.207 0.914,0.461 1.262,0.461 l 0,0 0.531,0 -0.035,-0.532 c 0,-0.023 -0.125,-2.644 2.133,-4.738 l 0,0 c 2.769,-2.562 -1.493,-8.566 -1.68,-8.832 l 0,0 c -0.109,-0.145 -2.793,-3.594 -9.113,-3.594 l 0,0 c -0.633,0 -1.25,0.039 -1.844,0.117 l 0,0 0.031,-0.039 0.262,-0.351 -0.317,-0.305 c 0,0 -0.507,-0.5 -0.781,-0.719 l 0,0 c -0.172,-0.136 -0.347,-0.238 -0.535,-0.336 l 0,0 c -0.094,-0.05 -0.191,-0.101 -0.289,-0.168 l 0,0 c -0.078,-0.046 -0.18,-0.132 -0.262,-0.199 l 0,0 -0.078,-0.062 0,0 c -0.094,-0.074 -0.18,-0.18 -0.199,-0.211 l 0,0 c -0.012,-0.024 -0.02,-0.086 -0.024,-0.149 l 0,0 c -0.007,-0.058 -0.011,-0.121 -0.027,-0.183 l 0,0 -0.031,-0.199 c -0.031,-0.184 -0.063,-0.391 -0.145,-0.618 l 0,0 c -0.011,-0.031 -0.035,-0.101 -0.058,-0.172 l 0,0 c 0.09,-0.156 0.199,-0.304 0.261,-0.351 l 0,0 c 0.297,-0.195 0.934,-0.313 1.743,-0.313 l 0,0 c 0.39,0 0.675,0.032 0.683,0.032 l 0,0 0.297,0.023 0.164,-0.242 c 0.028,-0.035 0.637,-0.883 2.067,-0.883 l 0,0 c 1.414,0 1.945,0.75 1.964,0.781 l 0,0 0.153,0.227 0.265,0 1.661,0 c 0,0 0.164,0.004 0.296,0.094 l 0,0 c 0.024,0.015 0.055,0.047 0.09,0.086 l 0,0 c -0.308,1.457 0.739,2.679 0.785,2.73 l 0,0 1.176,1.348 -0.304,-1.762 c -0.09,-0.488 -0.094,-0.887 -0.071,-1.203 l 0,0 c 0.254,0.262 0.567,0.523 0.934,0.683 l 0,0 c 0.609,0.274 1.652,0.329 2.418,0.329 l 0,0 c 0.152,0 0.289,-0.004 0.383,-0.004 l 0,0 c 0.39,0.289 1.597,1.254 2.378,2.672 l 0,0 0.083,0.148 0.156,0.07 c 1.015,0.442 3.918,2.032 3.918,3.485 l 0,0 c 0,1.863 -2.203,3.922 -2.223,3.941 l 0,0 -2.742,2.539 3.308,-1.726 c 0.071,-0.036 1.184,-0.625 2.079,-1.508 l 0,0 c 0.047,1.351 0.089,3.027 0.035,3.488 l 0,0 c -0.059,0.566 0.191,0.981 0.437,1.383 l 0,0 c 0.215,0.359 0.446,0.726 0.481,1.273 l 0,0 c 0.054,0.75 -0.324,1.328 -0.664,1.84 l 0,0 c -0.157,0.235 -0.297,0.457 -0.395,0.68 l 0,0 c -0.129,0.297 -0.16,0.656 -0.195,1.047 l 0,0 c -0.055,0.547 -0.106,1.168 -0.449,1.394 l 0,0 c -0.801,0.531 -0.77,1.133 -0.723,1.364 l 0,0 c 0.078,0.375 0.367,0.667 0.742,0.789 l 0,0 c -0.043,0.179 -0.176,0.468 -0.277,0.574 l 0,0 c -0.231,0.226 -0.348,0.601 -0.524,1.195 l 0,0 c -0.089,0.313 -0.195,0.664 -0.281,0.813 l 0,0 c -0.219,0.293 -2.207,1.738 -4,1.738 l 0,0 c -0.488,0 -0.918,-0.113 -1.273,-0.332 l 0,0 -0.559,-0.352 -0.187,0.633 c -0.02,0.067 -0.395,1.41 0.461,3.356 l 0,0 c -0.942,-0.09 -2.465,-0.344 -3.45,-1.051 l 0,0 c -0.355,-0.258 -0.726,-0.391 -1.105,-0.391 l 0,0 c -0.598,0 -1.168,0.332 -1.61,0.938 l 0,0 c -0.445,0.601 -0.71,1.406 -0.734,2.14 l 0,0 c -0.711,-0.363 -1.793,-1.199 -2.328,-3.062 m -2.422,-7.758 -0.367,0.082 -0.024,0.375 c -0.066,1.25 0.274,2.301 1.02,3.121 l 0,0 c 1.465,1.617 3.949,1.738 4.055,1.742 l 0,0 0.547,0.024 -0.028,-0.547 c -0.051,-1.133 -0.469,-1.817 -0.84,-2.414 l 0,0 c -0.125,-0.203 -0.246,-0.403 -0.355,-0.621 l 0,0 c -0.801,-1.606 -2.332,-1.844 -3.176,-1.844 l 0,0 c -0.469,0 -0.793,0.074 -0.832,0.082 m -13.617,-3.043 c -0.004,-0.008 -0.449,-0.625 -0.449,-1.355 l 0,0 c 0,-0.911 0.004,-0.93 0.257,-1.247 l 0,0 c 0.555,-0.695 -0.023,-1.742 -0.144,-1.945 l 0,0 -0.031,-0.051 -0.043,-0.043 -1.227,-1.226 c 0.031,-0.961 0.356,-5.309 3.492,-9.145 l 0,0 c 0.004,-0.008 0.61,-0.519 1.325,-0.519 l 0,0 c 0.492,0 0.839,-0.153 1.039,-0.449 l 0,0 c 0.148,-0.227 0.16,-0.493 0.121,-0.704 l 0,0 c 0.086,-0.308 0.394,-1.218 1.156,-1.789 l 0,0 c 0.691,-0.519 2.633,-0.738 3.699,-0.8 l 0,0 c 0.043,0.414 0.113,0.726 0.184,1.054 l 0,0 0.086,0.325 c -0.008,0.054 -0.039,0.121 -0.063,0.183 l 0,0 c -0.039,0.117 -0.078,0.227 -0.09,0.301 l 0,0 c -0.023,0.09 -0.183,0.449 -0.32,0.734 l 0,0 -0.133,0.282 0.196,0.242 0.121,0.156 0.363,0.465 0.398,-0.442 c 0.243,-0.265 0.395,-0.461 0.45,-0.574 l 0,0 c 0.039,-0.078 0.105,-0.156 0.175,-0.246 l 0,0 c 0.036,-0.047 0.071,-0.086 0.106,-0.133 l 0,0 c 0.191,0.102 0.418,0.223 0.558,0.289 l 0,0 c 0.196,0.09 0.364,0.215 0.555,0.367 l 0,0 0.113,0.083 c 0.032,0.027 0.172,0.128 0.297,0.21 l 0,0 c -5.504,1.129 -9.144,5.579 -9.144,11.594 l 0,0 c 0,4.735 1.472,7.789 2.57,9.414 l 0,0 c -1.398,-0.66 -3.539,-2.07 -5.617,-5.031"
       inkscape:connector-curvature="0"
       id="path508"
       style="fill:url(#radialGradient500);fill-opacity:1;fill-rule:nonzero;stroke:none" />
  </g>
</svg>