<?xml version="1.0" encoding="UTF-8" standalone="no"?>
<!-- Created with Inkscape (http://www.inkscape.org/) -->

<svg
   xmlns:dc="http://purl.org/dc/elements/1.1/"
   xmlns:cc="http://creativecommons.org/ns#"
   xmlns:rdf="http://www.w3.org/1999/02/22-rdf-syntax-ns#"
   xmlns:svg="http://www.w3.org/2000/svg"
   xmlns="http://www.w3.org/2000/svg"
   xmlns:inkscape="http://www.inkscape.org/namespaces/inkscape"
   version="1.1"
   width="600"
   height="600"
   id="svg4471">
  <defs
     id="defs4473" />
  <metadata
     id="metadata4476">
    <rdf:RDF>
      <cc:Work
         rdf:about="">
        <dc:format>image/svg+xml</dc:format>
        <dc:type
           rdf:resource="http://purl.org/dc/dcmitype/StillImage" />
        <dc:title />
      </cc:Work>
    </rdf:RDF>
  </metadata>
  <path
     d="m 263.688,590.634 c -0.759,0.121 -1.533,0.182 -2.369,0.182 0.652,-0.060 1.898,-0.060 2.369,-0.182 M 90.588,497.205 c 0,-2.141 0.349,-4.404 1.366,-6.834 -0.896,2.202 -1.123,4.510 -1.366,6.879 0,0 0,-0.048 0,-0.048 M 343.965,272.058 c 1.776,-0.532 12.741,-4.799 25.498,-14.655 2.490,1.959 4.920,3.918 7.593,5.467 3.386,1.959 7.471,2.839 11.633,2.839 5.573,20.411 16.781,43.722 38.088,63.420 2.718,2.551 3.903,6.758 3.903,11.982 0,20.001 -17.130,55.887 -33.623,78.849 -0.895,1.063 -33.638,41.171 -112.002,41.171 -55.948,0 -112.184,-26.045 -136.514,-82.585 6.834,5.102 14.533,9.901 23.433,14.412 7.775,3.978 17.024,3.629 24.450,-0.880 7.061,-4.328 11.268,-11.921 11.739,-20.122 6.879,0 13.409,-4.388 18.512,-9.370 2.733,-2.612 4.449,-6.348 5.634,-10.372 19.636,17.312 44.132,22.947 63.951,12.984 6.105,-3.022 10.737,-8.474 12.756,-15.004 0.773,-2.429 1.123,-4.920 1.123,-7.411 0,-4.282 -1.063,-8.489 -3.143,-12.225 -2.490,-4.631 -6.059,-13.060 -8.185,-21.777 2.429,-0.532 4.799,-0.349 7.289,-1.412 3.508,-1.549 6.591,-3.796 9.081,-6.651 0.591,-0.653 10.327,-12.225 20.350,-27.943 2.839,0.182 5.634,0.121 8.428,-0.714 M 27.639,294.367 l -2.429,2.429 c 0.591,-0.653 1.245,-1.245 2.429,-2.429 M 383.223,234.743 c 0,-1.898 1.016,-3.614 1.427,-5.452 -0.348,2.490 -0.652,5.102 -0.652,8.124 -0.121,-0.896 -0.773,-1.716 -0.773,-2.672 M 340.337,0.426 C 320.700,4.040 283.629,23.677 269.277,73.975 l 0,0 c -5.588,19.515 -16.325,24.860 -34.762,32.636 -11.101,4.677 -28.596,13.409 -39.637,22.248 -8.185,6.515 -3.553,13.227 -5.983,19.925 -0.364,-1.594 -0.364,-3.325 -1.078,-4.799 -4.738,-9.916 -15.247,-15.672 -26.090,-14.123 -2.855,0.409 -70.011,10.858 -131.289,98.182 -1.776,2.308 -12.939,18.269 -12.939,39.500 0,12.164 0.303,21.124 5.755,31.208 -5.452,5.467 -16.492,16.492 -16.492,16.492 -1.123,1.123 -2.186,2.429 -3.082,3.796 C 1.306,322.553 0,329.903 0,340.169 0,374.628 15.429,441.192 60.868,496.593 c 0.835,1.078 1.837,2.080 2.839,3.037 2.445,2.065 13.652,10.797 29.371,14.230 3.492,10.327 11.147,27.351 27.822,39.804 19.515,14.655 58.378,17.859 75.691,18.694 3.568,4.388 7.244,7.411 9.020,8.595 13.531,9.020 33.046,10.448 46.334,10.205 9.309,7.775 24.147,16.310 47.048,16.310 22.597,0 36.949,-7.942 46.031,-15.308 l 15.247,0 c 10.023,0 19.150,-5.983 23.068,-15.232 -2.186,5.148 -4.799,6.515 -4.920,6.515 0,0 2.247,-1.063 8.307,-1.063 9.081,0 17.495,-5.042 21.944,-12.939 2.141,-3.735 6.591,-8.960 9.203,-10.144 3.963,-1.533 18.497,-2.551 30.373,-1.959 5.330,0.182 10.676,-1.245 15.126,-4.206 2.779,-1.898 25.620,-18.391 43.191,-45.560 23.190,-11.025 72.425,-39.151 72.425,-79.852 0,-3.735 -0.591,-7.411 -1.184,-11.025 3.857,-4.282 6.469,-9.613 6.758,-15.718 0.530,-11.283 1.776,-42.356 1.776,-62.949 0,-5.512 -0.109,-9.901 -0.349,-13.349 0.652,-1.123 1.898,-3.265 1.898,-3.265 4.267,-7.061 10.797,-17.798 11.982,-33.988 C 600,285.876 600,284.403 600,282.915 c 0,-20.107 -9.674,-34.762 -15.596,-43.783 0,0 -3.037,-4.920 -3.143,-5.102 0,0 0,-0.109 0,-0.289 0,-1.184 -0.546,-5.695 -0.546,-5.695 -0.820,-9.370 -2.126,-23.494 -10.494,-35.127 0.835,-1.533 2.308,-2.551 2.839,-4.328 1.078,-3.265 1.488,-6.515 1.488,-9.780 0,-12.164 -6.044,-23.433 -11.147,-30.024 -0.303,-0.880 -2.551,-7.821 -2.551,-7.821 l -7.714,-20.122 c -7.532,-12.635 -38.270,-32.499 -66.503,-39.333 -5.938,-1.412 -11.572,-1.837 -17.206,-2.126 1.549,-4.328 2.855,-8.489 5.877,-13.713 2.247,-3.903 3.447,-8.292 3.447,-12.680 0,-4.343 -1.138,-8.610 -3.325,-12.529 -4.510,-7.760 -12.817,-12.574 -21.838,-12.574 -5.163,0 -49.584,0.773 -80.383,20.471 -2.369,-3.568 -4.556,-9.263 -4.556,-13.470 0,-0.835 0.048,-1.594 0.289,-2.247 0.775,-2.429 1.123,-4.981 1.123,-7.487 0,-6.105 -2.186,-12.027 -6.287,-16.659 -5.877,-6.651 -14.761,-9.674 -23.433,-8.064"
     inkscape:connector-curvature="0"
     id="path490"
     style="fill:#ffffff;fill-opacity:1;fill-rule:nonzero;stroke:none" />
  <path
     d="m 317.920,170.628 c 6.636,-13.288 16.492,-22.309 17.434,-43.069 0,0 -73.382,3.022 -69.768,65.850 0,0 36.782,8.307 52.333,-22.780 m 56.646,387.856 c 0,0 -2.900,4.206 -5.391,5.922 -4.282,2.794 -8.899,2.612 -8.899,2.612 l -25.103,0 c 0,0 -9.719,15.369 -36.174,15.369 -26.470,0 -37.617,-16.735 -37.617,-16.735 0,0 -29.249,2.794 -41.824,-5.573 -4.206,-2.779 -7.942,-10.858 -7.942,-10.858 0,0 1.655,-5.391 2.004,-6.226 1.366,-3.553 1.549,-7.122 2.262,-10.919 0.470,-2.369 0.349,-4.677 1.366,-6.879 0.880,-1.898 3.325,-4.388 5.102,-5.862 1.594,-1.245 4.085,-3.386 5.862,-4.571 4.039,-2.612 8.140,-4.100 11.876,-7.122 3.903,-3.143 11.329,-10.387 11.329,-10.387 l -2.323,-3.082 c 0,0 -5.740,3.857 -6.575,4.449 -3.857,2.976 -7.244,5.816 -11.693,7.897 -4.388,2.080 -13.759,7.350 -13.759,7.350 0,0 -1.837,-2.080 -2.961,-3.796 -1.959,-2.900 -4.388,-5.163 -6.059,-8.307 -0.880,-1.776 -5.695,-7.107 -5.695,-7.107 l -1.837,2.308 c 0,0 5.102,10.737 5.406,12.878 0.349,2.186 2.779,6.940 2.369,9.005 -1.655,8.246 -3.204,13.409 -4.039,21.777 -0.349,3.796 -1.412,6.879 -1.412,6.879 0,0 -50.131,-1.366 -66.867,-13.880 -16.659,-12.574 -20.881,-33.456 -20.881,-33.456 0,0 4.221,-9.734 -9.719,-9.734 -13.941,0 -25.103,-9.719 -25.103,-9.719 C 23.144,411.005 24.556,332.990 24.556,332.990 l 20.881,-20.881 c 0,0 8.367,-13.941 2.794,-20.881 -5.573,-7.001 -5.573,-9.734 -5.573,-23.676 0,-13.941 8.352,-25.088 8.352,-25.088 55.705,-79.366 114.204,-87.734 114.204,-87.734 0,0 -54.277,48.704 -54.277,158.747 0,110.043 80.793,172.749 174.116,172.749 93.307,0 132.337,-51.498 132.337,-51.498 0,0 64.073,-89.161 26.470,-123.985 -37.617,-34.823 -34.823,-78.014 -34.823,-78.014 -5.588,0 -19.515,8.367 -19.515,8.367 -9.734,-5.634 -19.530,-19.515 -19.530,-19.515 -15.293,20.881 -33.395,26.455 -33.395,26.455 l -11.147,-8.352 c -11.162,23.661 -29.249,44.542 -29.249,44.542 -9.795,4.206 -22.309,-2.733 -22.309,-2.733 -8.367,26.470 11.162,61.293 11.162,61.293 -11.162,5.512 -26.470,1.412 -39.045,-11.162 -12.513,-12.574 -22.248,-19.515 -32.028,-9.719 -9.734,9.719 -4.161,25.027 -4.161,25.027 -8.352,-1.366 -20.866,-8.307 -20.866,-8.307 -5.588,11.101 -5.588,32.028 -5.588,32.028 -79.427,-40.396 -23.721,-86.428 -23.721,-86.428 1.427,-34.823 4.206,-54.277 27.882,-66.852 23.661,-12.513 32.028,-22.248 27.882,-33.395 -4.221,-11.162 -9.324,-27.184 0.941,-38.027 16.310,-17.328 63.116,-16.325 77.057,-65.090 13.941,-48.749 51.559,-55.705 51.559,-55.705 -7.001,22.309 13.880,64.073 38.969,45.985 25.103,-18.148 69.646,-18.148 69.646,-18.148 C 434.129,86.447 441.07,110.109 441.07,110.109 c 33.395,-20.881 86.382,16.735 90.528,23.676 4.206,7.001 7.001,25.088 11.147,29.310 4.161,4.146 11.162,19.454 2.794,20.881 -8.367,1.412 -12.513,11.147 0,19.454 12.574,8.413 8.367,30.662 12.574,40.396 4.161,9.780 18.102,22.309 16.675,41.824 -1.366,19.515 -15.308,26.455 -13.941,39.030 1.427,12.513 -1.366,75.220 -1.366,75.220 -9.795,-20.881 -41.824,-37.663 -41.824,-37.663 0,0 36.250,33.456 36.250,65.485 0,32.104 -64.073,59.927 -64.073,59.927 -15.369,27.882 -40.396,44.603 -40.396,44.603 0,0 -29.249,-1.427 -41.824,4.161 -11.147,4.981 -19.044,17.677 -20.593,20.395 0,0 -7.411,-11.921 -3.143,-36.600 0,0 -15.779,18.148 -9.309,38.270"
     inkscape:connector-curvature="0"
     id="path492"
     style="fill:#000000;fill-opacity:1;fill-rule:nonzero;stroke:none" />
</svg>
