<?xml version="1.0" encoding="UTF-8" standalone="no"?>
<!-- Created with Inkscape (http://www.inkscape.org/) -->

<svg
   xmlns:dc="http://purl.org/dc/elements/1.1/"
   xmlns:cc="http://creativecommons.org/ns#"
   xmlns:rdf="http://www.w3.org/1999/02/22-rdf-syntax-ns#"
   xmlns:svg="http://www.w3.org/2000/svg"
   xmlns="http://www.w3.org/2000/svg"
   xmlns:sodipodi="http://sodipodi.sourceforge.net/DTD/sodipodi-0.dtd"
   xmlns:inkscape="http://www.inkscape.org/namespaces/inkscape"
   version="1.1"
   width="600"
   height="550"
   id="svg5925"
   sodipodi:docname="unlimited.svg"
   inkscape:version="0.92.2 5c3e80d, 2017-08-06">
  
  <defs
     id="defs5927" />
  <metadata
     id="metadata5930">
    <rdf:RDF>
      <cc:Work
         rdf:about="">
        <dc:format>image/svg+xml</dc:format>
        <dc:type
           rdf:resource="http://purl.org/dc/dcmitype/StillImage" />
        <dc:title />
      </cc:Work>
    </rdf:RDF>
  </metadata>
  <path
     d="M 419.337,30 H 179.564 l -1.148,0.153 c -16.190,1.747 -38.569,13.409 -46.045,37.931 l -96.991,27.010 -0.944,0.345 C 21.230,100.530 0,117.575 0,148.770 c 0,5.575 0.650,11.610 2.194,18.142 l 91.504,341.446 2.487,3.381 c 10.372,13.804 35.532,34.933 64.290,26.767 0,0 128.938,-35.481 139.604,-38.428 10.615,2.947 139.745,38.480 139.745,38.480 28.553,8.114 53.726,-13.013 64.086,-26.818 l 2.487,-3.342 91.364,-340.833 C 599.311,160.878 600,154.652 600,148.974 600,117.524 578.820,100.530 565.666,95.439 l -0.944,-0.345 L 467.731,68.084 C 460.254,43.562 437.825,31.901 421.685,30.153 L 420.537,30 Z"
     inkscape:connector-curvature="0"
     id="path812"
     style="fill:#ffffff;fill-opacity:1;fill-rule:nonzero;stroke:none" />
  <path
     d="m 180.713,51.778 c 0,0 -29.357,3.138 -29.357,33.542 L 42.256,115.776 c 0,0 -27.303,10.462 -18.882,46.147 l 90.203,336.763 c 0,0 18.895,25.211 40.916,18.882 l 145.588,-40.023 145.524,40.023 c 22.021,6.328 40.916,-18.882 40.916,-18.882 l 90.203,-336.763 c 8.420,-35.685 -18.831,-46.147 -18.831,-46.147 L 448.746,85.321 c 0,-30.403 -29.408,-33.542 -29.408,-33.542 z"
     inkscape:connector-curvature="0"
     id="path814"
     style="fill:#000000;fill-opacity:1;fill-rule:nonzero;stroke:none" />
  <path
     d="m 181.708,64.346 c -1.390,0.241 -5.575,1.186 -9.568,3.840 -5.575,3.725 -8.216,9.160 -8.216,17.134 v 9.568 c 0,0 -115.784,32.304 -117.468,32.751 -2.998,1.441 -12.120,6.876 -12.120,21.370 0,2.947 0.408,6.238 1.250,9.977 0.204,0.600 88.021,328.483 89.463,333.765 3.840,4.388 15.246,15.795 26.014,12.707 l 149.020,-40.967 148.956,40.967 c 10.768,3.087 22.136,-8.318 26.014,-12.707 1.454,-5.282 89.310,-333.166 89.463,-333.765 0.842,-3.738 1.250,-7.03 1.250,-9.977 0,-14.493 -9.122,-19.928 -12.107,-21.370 -1.696,-0.446 -117.519,-32.751 -117.519,-32.751 v -9.568 c 0,-7.974 -2.602,-13.409 -8.178,-17.134 -3.942,-2.653 -8.178,-3.597 -9.568,-3.840 z"
     inkscape:connector-curvature="0"
     id="path816"
     style="fill:#ffffff;fill-opacity:1;fill-rule:nonzero;stroke:none" />
  <path
     d="m 438.730,111.540 v 323.852 c 0,0 -2.845,20.975 -19.584,20.975 h -90.956 l 121.704,33.593 c 0,0 6.978,3.495 10.462,-4.184 l 89.565,-332.272 c 0,0 3.483,-10.462 -4.886,-13.256 z M 55.066,140.949 c -8.369,2.781 -4.873,13.307 -4.873,13.307 l 89.501,332.221 c 3.546,7.667 10.513,4.184 10.513,4.184 l 121.704,-33.542 h -90.892 c -16.854,0 -19.597,-21.038 -19.597,-21.038 V 112.242 Z M 183.111,80.090 h 234.286 c 4.937,0 5.575,6.277 5.575,6.277 v 348.323 c 0,5.639 -5.575,7.03 -5.575,7.03 H 183.111 c -4.937,0 -4.937,-7.03 -4.937,-7.03 V 86.367 c 0,-4.184 4.937,-6.277 4.937,-6.277"
     inkscape:connector-curvature="0"
     id="path818"
     style="fill:#000000;fill-opacity:1;fill-rule:nonzero;stroke:none" />
  <g
     transform="matrix(10.206,0,0,10.206,0,30)"
     id="text5170"
     style="font-style:normal;font-variant:normal;font-weight:100;font-stretch:normal;font-size:29.300px;line-height:125%;font-family:GoudyMedieval;-inkscape-font-specification:'GoudyMedieval Thin';text-align:start;letter-spacing:0px;word-spacing:0px;writing-mode:lr-tb;text-anchor:start;fill:#ffffff;fill-opacity:1;stroke:#8d742f;stroke-width:0.915;stroke-opacity:0">
    <path
       d="m 39.974,31.766 c -0.058,0.253 -0.258,0.498 -0.600,0.732 -0.341,0.234 -0.747,0.351 -1.215,0.351 -0.273,0 -0.522,-0.034 -0.747,-0.102 -0.224,-0.068 -0.552,-0.249 -0.981,-0.542 -0.429,-0.292 -0.776,-0.737 -1.039,-1.332 -0.263,-0.595 -0.541,-0.864 -0.835,-0.805 -0.664,0.605 -1.391,1.211 -2.182,1.816 -0.791,0.605 -1.645,0.966 -2.563,1.084 -0.918,0.117 -1.923,0.254 -3.017,0.410 -0.703,-1e-6 -1.362,-0.131 -1.977,-0.395 -0.615,-0.263 -1.245,-0.708 -1.889,-1.333 -0.644,-0.625 -1.113,-1.562 -1.406,-2.813 -0.292,-1.250 -0.439,-3.242 -0.439,-5.977 v -1.934 -1.318 c -1e-6,-1.367 -0.009,-2.192 -0.029,-2.475 -0.019,-0.283 -0.088,-0.683 -0.205,-1.201 -0.117,-0.517 -0.483,-0.942 -1.098,-1.274 -0.615,-0.332 -0.922,-0.703 -0.922,-1.113 0.956,1.9e-5 1.767,-0.058 2.431,-0.175 0.664,-0.117 1.308,-0.244 1.933,-0.381 0.156,2e-5 0.317,0.039 0.483,0.117 0.166,0.078 0.249,0.410 0.249,0.996 -3e-6,0.586 -0.009,1.181 -0.029,1.787 -0.019,0.605 -0.038,1.181 -0.058,1.728 -3e-6,0.605 -0.004,1.201 -0.014,1.787 -0.009,0.585 -0.014,1.171 -0.014,1.757 -3e-6,3.223 0.288,5.626 0.864,7.208 0.576,1.582 1.406,2.437 2.490,2.564 1.084,0.126 1.762,0.190 2.036,0.190 0.956,2e-6 1.884,-0.180 2.783,-0.542 0.898,-0.361 1.582,-0.962 2.050,-1.802 0.234,-0.566 0.410,-1.201 0.528,-1.904 0.117,-0.703 0.175,-1.592 0.175,-2.666 -1.4e-5,-0.898 -0.043,-1.806 -0.131,-2.724 -0.087,-0.918 -0.146,-1.684 -0.175,-2.300 -0.029,-0.615 -0.043,-1.147 -0.043,-1.596 v -0.615 c -1.3e-5,-0.351 -0.009,-0.625 -0.029,-0.820 -0.019,-0.195 -0.073,-0.454 -0.161,-0.776 -0.087,-0.322 -0.341,-0.683 -0.761,-1.083 -0.419,-0.400 -0.629,-0.659 -0.629,-0.776 -1.2e-5,-0.097 0.063,-0.175 0.190,-0.234 0.126,-0.058 0.625,-0.151 1.494,-0.278 0.869,-0.126 1.528,-0.190 1.977,-0.190 0.195,2e-5 0.356,0.043 0.483,0.131 0.126,0.087 0.190,0.766 0.190,2.036 v 1.553 8.878 c -1.6e-5,1.992 0.166,3.452 0.498,4.380 0.332,0.927 1.113,1.587 2.343,1.977 z"
       inkscape:connector-curvature="0"
       id="path2989" />
  </g>
</svg>