<?xml version="1.0" encoding="UTF-8" standalone="no"?>
<!-- Created with Inkscape (http://www.inkscape.org/) -->

<svg
   xmlns:dc="http://purl.org/dc/elements/1.1/"
   xmlns:cc="http://creativecommons.org/ns#"
   xmlns:rdf="http://www.w3.org/1999/02/22-rdf-syntax-ns#"
   xmlns:svg="http://www.w3.org/2000/svg"
   xmlns="http://www.w3.org/2000/svg"
   xmlns:xlink="http://www.w3.org/1999/xlink"
   xmlns:inkscape="http://www.inkscape.org/namespaces/inkscape"
   version="1.1"
   width="600"
   height="510.36029"
   id="svg6077">
  <defs
     id="defs6079">
    <radialGradient
       cx="0"
       cy="0"
       r="1"
       fx="0"
       fy="0"
       id="radialGradient856"
       gradientUnits="userSpaceOnUse"
       gradientTransform="matrix(17.571274,0,0,-17.571274,747.36328,483.67578)"
       spreadMethod="pad">
      <stop
         id="stop858"
         style="stop-color:#d7bd74;stop-opacity:1"
         offset="0" />
      <stop
         id="stop860"
         style="stop-color:#b39a54;stop-opacity:1"
         offset="0.69101" />
      <stop
         id="stop862"
         style="stop-color:#8d742f;stop-opacity:1"
         offset="1" />
    </radialGradient>
    <radialGradient
       cx="0"
       cy="0"
       r="1"
       fx="0"
       fy="0"
       id="radialGradient3009"
       xlink:href="#radialGradient856"
       gradientUnits="userSpaceOnUse"
       gradientTransform="matrix(17.571274,0,0,-17.571274,747.36328,483.67578)"
       spreadMethod="pad" />
  </defs>
  <metadata
     id="metadata6082">
    <rdf:RDF>
      <cc:Work
         rdf:about="">
        <dc:format>image/svg+xml</dc:format>
        <dc:type
           rdf:resource="http://purl.org/dc/dcmitype/StillImage" />
        <dc:title />
      </cc:Work>
    </rdf:RDF>
  </metadata>
  <path
     d="m 419.38886,0 -239.82393,0 -1.14828,0.15311 c -16.15242,1.74793 -38.56933,13.40932 -46.04589,37.9314 L 35.37967,65.09452 34.43553,65.4385 C 21.23035,70.52919 0,87.57472 0,118.76956 c 0,5.57552 0.68896,11.61035 2.19448,18.14277 l 91.50488,341.4464 2.48793,3.38104 c 10.30897,13.80484 35.53278,34.93312 64.29073,26.7676 0,0 128.92593,-35.48174 139.59215,-38.42899 10.61518,2.94725 139.74525,38.48003 139.74525,38.48003 28.56657,8.11448 53.72658,-13.0138 64.09935,-26.81864 l 2.48793,-3.34276 91.35178,-340.83399 C 599.29827,130.8775 600,124.65129 600,118.9737 600,87.52368 578.82067,70.52919 565.66653,65.4385 l -0.95639,-0.34398 c 0,0 -76.59004,-21.33242 -96.97833,-27.01001 C 460.25525,13.56243 437.82558,1.90104 421.68592,0.15311 L 420.53764,0 419.38937,0 z"
     inkscape:connector-curvature="0"
     id="path846"
     style="fill:#ffffff;fill-opacity:1;fill-rule:nonzero;stroke:none" />
  <path
     d="m 180.76424,21.77898 c 0,0 -29.40864,3.13862 -29.40864,33.54243 L 42.25657,85.77626 c 0,0 -27.30346,10.46207 -18.9338,46.14796 L 113.5773,468.6882 c 0,0 18.89553,25.21105 40.91692,18.88277 l 145.57595,-40.02381 145.53767,40.02381 c 22.02139,6.32828 40.91692,-18.88277 40.91692,-18.88277 l 90.2035,-336.76398 c 8.42069,-35.68589 -18.8445,-46.14796 -18.8445,-46.14796 L 448.74646,55.32141 c 0,-30.40381 -29.40864,-33.54243 -29.40864,-33.54243 l -238.57358,0 z"
     inkscape:connector-curvature="0"
     id="path848"
     style="fill:#8d742f;fill-opacity:1;fill-rule:nonzero;stroke:none" />
  <path
     d="m 181.70837,34.34623 c -1.39069,0.24292 -5.58827,1.18655 -9.56897,3.84035 -5.58827,3.72552 -8.22931,9.16069 -8.22931,17.13483 l 0,9.56898 c 0,0 -115.77179,32.30484 -117.46869,32.75139 -2.98552,1.44173 -12.10794,6.8769 -12.10794,21.37071 0,2.94724 0.39501,6.23896 1.30138,9.97724 0.14086,0.60017 87.95798,328.48364 89.41247,333.76571 3.82759,4.38897 15.24656,15.79518 26.01484,12.7076 l 149.00802,-40.96796 148.96974,40.96796 c 10.76828,3.08758 22.12346,-8.31863 26.01484,-12.7076 1.44173,-5.28207 89.3104,-333.16605 89.4635,-333.76571 0.84207,-3.73828 1.25035,-7.03 1.25035,-9.97724 0,-14.49381 -9.12242,-19.92898 -12.1207,-21.37071 C 551.951,97.19574 436.12818,64.89039 436.12818,64.89039 l 0,-9.56898 c 0,-7.97414 -2.59,-13.40931 -8.16553,-17.13483 -3.94241,-2.6538 -8.17828,-3.59794 -9.56897,-3.84035 l -236.68531,0 z"
     inkscape:connector-curvature="0"
     id="path850"
     style="fill:#ffffff;fill-opacity:1;fill-rule:nonzero;stroke:none" />
  <path
     d="m 438.6799,81.5404 0,323.85225 c 0,0 -2.79414,20.97518 -19.54622,20.97518 l -90.95626,0 121.70456,33.59347 c 0,0 6.97897,3.49587 10.47483,-4.18483 l 89.55281,-332.27295 c 0,0 3.49587,-10.46207 -4.92483,-13.25621 L 438.6799,81.5404 z M 55.06623,110.94903 c -8.36966,2.78138 -4.88655,13.30725 -4.88655,13.30725 l 89.51453,332.22192 c 3.53414,7.66793 10.51311,4.18483 10.51311,4.18483 l 121.70456,-33.54244 -90.90523,0 c -16.84139,0 -19.58449,-21.03897 -19.58449,-21.03897 l 0,-323.8395 -106.35593,28.70691 z m 128.03284,-60.85865 234.29944,0 c 4.92483,0 5.57552,6.27724 5.57552,6.27724 l 0,348.32331 c 0,5.63931 -5.57552,7.03 -5.57552,7.03 l -234.29944,0 c -4.92484,0 -4.92484,-7.03 -4.92484,-7.03 l 0,-348.32331 c 0,-4.18483 4.92484,-6.27724 4.92484,-6.27724"
     inkscape:connector-curvature="0"
     id="path852"
     style="fill:#8d742f;fill-opacity:1;fill-rule:nonzero;stroke:none" />
  <g
     transform="matrix(12.758628,0,0,-12.758628,-9235.2564,6426.8139)"
     id="g854">
    <path
       d="m 738.297,499.395 c -0.051,-0.032 -0.086,-0.071 -0.086,-0.09 l 0,0 0,-27.297 c 0,-0.063 0.019,-0.153 -0.016,-0.153 l 0,0 18.297,0 c 0.047,0.024 0.106,0.067 0.106,0.149 l 0,0 0,27.254 c -0.008,0.054 -0.036,0.129 -0.039,0.137 l 0,0 -18.262,0 z m 20.328,-27.5 c -0.09,-0.688 -0.613,-1.993 -1.934,-1.993 l 0,0 -4.179,0 6.761,-1.871 c 0.016,-0.004 0.067,-0.023 0.114,-0.023 l 0,0 c 0.039,0 0.105,0 0.152,0.097 l 0,0 7.023,26.063 c 0.028,0.074 0.129,0.449 -0.105,0.527 l 0,0 -7.828,2.114 -0.004,-24.914 z m -30.34,22.753 c -0.262,-0.089 -0.144,-0.492 -0.121,-0.558 l 0,0 6.992,-25.981 c 0.074,-0.152 0.141,-0.152 0.176,-0.152 l 0,0 c 0.051,0 0.098,0.016 0.18,0.047 l 0,0 6.691,1.844 -4.172,0 c -1.32,0 -1.84,1.3 -1.933,2.043 l 0,0 0,24.863 -7.813,-2.106 z"
       inkscape:connector-curvature="0"
       id="path864"
       style="fill:url(#radialGradient3009);fill-opacity:1;fill-rule:nonzero;stroke:none" />
  </g>
  <g
     transform="matrix(10.206902,0,0,10.206902,0.67316577,0)"
     id="text5897"
     style="font-size:29.30051804px;font-style:normal;font-variant:normal;font-weight:100;font-stretch:normal;text-align:start;line-height:125%;letter-spacing:0px;word-spacing:0px;writing-mode:lr-tb;text-anchor:start;fill:#ffffff;fill-opacity:1;stroke:#8d742f;stroke-width:0.91564119;stroke-opacity:0.37391304;font-family:GoudyMedieval;-inkscape-font-specification:GoudyMedieval Thin">
    <path
       d="m 39.909665,31.766883 c -0.05844,0.253949 -0.258586,0.498209 -0.600442,0.732782 -0.341893,0.234573 -0.747106,0.35186 -1.215639,0.35186 -0.273636,0 -0.522815,-0.03428 -0.747535,-0.102831 -0.224754,-0.06855 -0.552024,-0.249327 -0.981811,-0.542321 -0.429818,-0.292992 -0.776462,-0.73725 -1.039932,-1.332776 -0.2635,-0.595522 -0.541888,-0.864074 -0.835165,-0.805657 -0.664091,0.605661 -1.391656,1.21117 -2.182695,1.816528 -0.791063,0.605361 -1.645601,0.966759 -2.563617,1.084194 -0.918034,0.117436 -1.923986,0.254246 -3.01786,0.410429 -0.703428,0 -1.362736,-0.131891 -1.977928,-0.395675 -0.6152,-0.263783 -1.24515,-0.70819 -1.889852,-1.333223 -0.644705,-0.625031 -1.113554,-1.562727 -1.406546,-2.813093 -0.292994,-1.250358 -0.43949,-3.242739 -0.43949,-5.977152 l 0,-1.934113 0,-1.318023 c 0,-1.367485 -0.0098,-2.192814 -0.02951,-2.475987 -0.01967,-0.283141 -0.08808,-0.683584 -0.205214,-1.201331 -0.117138,-0.517714 -0.483305,-0.942598 -1.098502,-1.274655 -0.615194,-0.332021 -0.922792,-0.703105 -0.922794,-1.113255 0.956774,1.9e-5 1.767349,-0.05855 2.431725,-0.175707 0.664375,-0.117118 1.30893,-0.24424 1.933666,-0.381368 0.156181,2e-5 0.317282,0.03907 0.483304,0.117138 0.166017,0.07811 0.249027,0.41015 0.24903,0.996117 -3e-6,0.586005 -0.0097,1.181827 -0.02906,1.787468 -0.01938,0.605675 -0.0389,1.181825 -0.05857,1.728451 -3e-6,0.605673 -0.0049,1.201495 -0.01475,1.787468 -0.0098,0.585999 -0.01476,1.171985 -0.01475,1.757959 -3e-6,3.223233 0.288221,5.626043 0.864673,7.208439 0.576444,1.582405 1.40669,2.437092 2.490741,2.564064 1.084038,0.126975 1.762869,0.190462 2.036497,0.19046 0.956764,2e-6 1.884476,-0.180771 2.783138,-0.54232 0.898639,-0.361545 1.58224,-0.962285 2.050803,-1.802222 0.234858,-0.56631 0.410863,-1.201028 0.528014,-1.904158 0.117124,-0.703117 0.175693,-1.592081 0.175707,-2.666894 -1.4e-5,-0.898344 -0.04398,-1.806533 -0.131892,-2.72457 -0.08794,-0.918013 -0.14651,-1.684772 -0.175707,-2.30028 -0.02922,-0.61548 -0.04383,-1.147666 -0.04381,-1.59656 l 0,-0.615196 c -1.4e-5,-0.351695 -0.0099,-0.625314 -0.02951,-0.820858 -0.01969,-0.195511 -0.07349,-0.454376 -0.1614,-0.776596 -0.08794,-0.322185 -0.341888,-0.683434 -0.761842,-1.083747 -0.419979,-0.400276 -0.629962,-0.659141 -0.629951,-0.776596 -1.1e-5,-0.09774 0.06348,-0.175836 0.190461,-0.234276 0.126961,-0.0584 0.62502,-0.151096 1.494176,-0.27809 0.869129,-0.126954 1.528438,-0.19044 1.977928,-0.190461 0.195512,2.1e-5 0.356762,0.04384 0.483752,0.131445 0.126958,0.08765 0.190444,0.766332 0.190461,2.03605 l 0,1.553192 0,8.878322 c -1.7e-5,1.99224 0.166003,3.452287 0.498058,4.380144 0.332022,0.927865 1.113238,1.587024 2.343648,1.977481 z"
       inkscape:connector-curvature="0"
       id="path2998"
       style="stroke:#8d742f" />
  </g>
  <g
     transform="matrix(10.206902,0,0,10.206902,0.67316577,0)"
     id="text5905"
     style="font-size:29.30051804px;font-style:normal;font-variant:normal;font-weight:100;font-stretch:normal;text-align:start;line-height:125%;letter-spacing:0px;word-spacing:0px;writing-mode:lr-tb;text-anchor:start;fill:#ffffff;fill-opacity:1;stroke:#8d742f;stroke-width:0.91564119;stroke-opacity:0;font-family:GoudyMedieval;-inkscape-font-specification:GoudyMedieval Thin">
    <path
       d="m 39.909665,31.766883 c -0.05844,0.253949 -0.258586,0.498209 -0.600442,0.732782 -0.341893,0.234573 -0.747106,0.35186 -1.215639,0.35186 -0.273636,0 -0.522815,-0.03428 -0.747535,-0.102831 -0.224754,-0.06855 -0.552024,-0.249327 -0.981811,-0.542321 -0.429818,-0.292992 -0.776462,-0.73725 -1.039932,-1.332776 -0.2635,-0.595522 -0.541888,-0.864074 -0.835165,-0.805657 -0.664091,0.605661 -1.391656,1.21117 -2.182695,1.816528 -0.791063,0.605361 -1.645601,0.966759 -2.563617,1.084194 -0.918034,0.117436 -1.923986,0.254246 -3.01786,0.410429 -0.703428,0 -1.362736,-0.131891 -1.977928,-0.395675 -0.6152,-0.263783 -1.24515,-0.70819 -1.889852,-1.333223 -0.644705,-0.625031 -1.113554,-1.562727 -1.406546,-2.813093 -0.292994,-1.250358 -0.43949,-3.242739 -0.43949,-5.977152 l 0,-1.934113 0,-1.318023 c 0,-1.367485 -0.0098,-2.192814 -0.02951,-2.475987 -0.01967,-0.283141 -0.08808,-0.683584 -0.205214,-1.201331 -0.117138,-0.517714 -0.483305,-0.942598 -1.098502,-1.274655 -0.615194,-0.332021 -0.922792,-0.703105 -0.922794,-1.113255 0.956774,1.9e-5 1.767349,-0.05855 2.431725,-0.175707 0.664375,-0.117118 1.30893,-0.24424 1.933666,-0.381368 0.156181,2e-5 0.317282,0.03907 0.483304,0.117138 0.166017,0.07811 0.249027,0.41015 0.24903,0.996117 -3e-6,0.586005 -0.0097,1.181827 -0.02906,1.787468 -0.01938,0.605675 -0.0389,1.181825 -0.05857,1.728451 -3e-6,0.605673 -0.0049,1.201495 -0.01475,1.787468 -0.0098,0.585999 -0.01476,1.171985 -0.01475,1.757959 -3e-6,3.223233 0.288221,5.626043 0.864673,7.208439 0.576444,1.582405 1.40669,2.437092 2.490741,2.564064 1.084038,0.126975 1.762869,0.190462 2.036497,0.19046 0.956764,2e-6 1.884476,-0.180771 2.783138,-0.54232 0.898639,-0.361545 1.58224,-0.962285 2.050803,-1.802222 0.234858,-0.56631 0.410863,-1.201028 0.528014,-1.904158 0.117124,-0.703117 0.175693,-1.592081 0.175707,-2.666894 -1.4e-5,-0.898344 -0.04398,-1.806533 -0.131892,-2.72457 -0.08794,-0.918013 -0.14651,-1.684772 -0.175707,-2.30028 -0.02922,-0.61548 -0.04383,-1.147666 -0.04381,-1.59656 l 0,-0.615196 c -1.4e-5,-0.351695 -0.0099,-0.625314 -0.02951,-0.820858 -0.01969,-0.195511 -0.07349,-0.454376 -0.1614,-0.776596 -0.08794,-0.322185 -0.341888,-0.683434 -0.761842,-1.083747 -0.419979,-0.400276 -0.629962,-0.659141 -0.629951,-0.776596 -1.1e-5,-0.09774 0.06348,-0.175836 0.190461,-0.234276 0.126961,-0.0584 0.62502,-0.151096 1.494176,-0.27809 0.869129,-0.126954 1.528438,-0.19044 1.977928,-0.190461 0.195512,2.1e-5 0.356762,0.04384 0.483752,0.131445 0.126958,0.08765 0.190444,0.766332 0.190461,2.03605 l 0,1.553192 0,8.878322 c -1.7e-5,1.99224 0.166003,3.452287 0.498058,4.380144 0.332022,0.927865 1.113238,1.587024 2.343648,1.977481 z"
       inkscape:connector-curvature="0"
       id="path3001"
       style="stroke:#8d742f" />
  </g>
</svg>
