<?xml version="1.0" encoding="UTF-8" standalone="no"?>
<!-- Created with Inkscape (http://www.inkscape.org/) -->

<svg
   xmlns:dc="http://purl.org/dc/elements/1.1/"
   xmlns:cc="http://creativecommons.org/ns#"
   xmlns:rdf="http://www.w3.org/1999/02/22-rdf-syntax-ns#"
   xmlns:svg="http://www.w3.org/2000/svg"
   xmlns="http://www.w3.org/2000/svg"
   xmlns:xlink="http://www.w3.org/1999/xlink"
   xmlns:sodipodi="http://sodipodi.sourceforge.net/DTD/sodipodi-0.dtd"
   xmlns:inkscape="http://www.inkscape.org/namespaces/inkscape"
   version="1.1"
   width="600"
   height="550"
   id="svg6077"
   sodipodi:docname="unlimited rare.svg"
   inkscape:version="0.92.2 5c3e80d, 2017-08-06">
  
  <defs
     id="defs6079">
    <radialGradient
       cx="0"
       cy="0"
       r="1"
       fx="0"
       fy="0"
       id="radialGradient856"
       gradientUnits="userSpaceOnUse"
       gradientTransform="matrix(17.57,0,0,-17.57,747.36,483.67)"
       spreadMethod="pad">
      <stop
         id="stop858"
         style="stop-color:#d7bd74;stop-opacity:1"
         offset="0" />
      <stop
         id="stop860"
         style="stop-color:#b39a54;stop-opacity:1"
         offset="0.69" />
      <stop
         id="stop862"
         style="stop-color:#8d742f;stop-opacity:1"
         offset="1" />
    </radialGradient>
    <radialGradient
       cx="0"
       cy="0"
       r="1"
       fx="0"
       fy="0"
       id="radialGradient3009"
       xlink:href="#radialGradient856"
       gradientUnits="userSpaceOnUse"
       gradientTransform="matrix(17.57,0,0,-17.57,747.36,483.67)"
       spreadMethod="pad" />
  </defs>
  <metadata
     id="metadata6082">
    <rdf:RDF>
      <cc:Work
         rdf:about="">
        <dc:format>image/svg+xml</dc:format>
        <dc:type
           rdf:resource="http://purl.org/dc/dcmitype/StillImage" />
        <dc:title />
      </cc:Work>
    </rdf:RDF>
  </metadata>
  <path
     d="M 419.38,30 H 179.56 l -1.14,0.15 c -16.15,1.74 -38.56,13.40 -46.04,37.93 L 35.37,95.09 34.43,95.43 C 21.23,100.52 0,117.57 0,148.76 c 0,5.57 0.68,11.61 2.19,18.14 l 91.50,341.44 2.48,3.38 c 10.30,13.80 35.53,34.93 64.29,26.76 0,0 128.92,-35.48 139.59,-38.42 10.61,2.94 139.74,38.48 139.74,38.48 28.56,8.11 53.72,-13.01 64.09,-26.81 l 2.48,-3.34 91.35,-340.83 C 599.29,160.87 600,154.65 600,148.97 600,117.52 578.82,100.52 565.66,95.43 l -0.95,-0.34 c 0,0 -76.59,-21.33 -96.97,-27.01 -7.47,-24.52 -29.90,-36.18 -46.04,-37.93 L 420.53,30 h -1.14 z"
     inkscape:connector-curvature="0"
     id="path846"
     style="fill:#ffffff;fill-opacity:1;fill-rule:nonzero;stroke:none" />
  <path
     d="m 180.76,51.77 c 0,0 -29.40,3.13 -29.40,33.54 L 42.25,115.77 c 0,0 -27.30,10.46 -18.93,46.14 L 113.57,498.68 c 0,0 18.89,25.21 40.91,18.88 l 145.57,-40.02 145.53,40.02 c 22.02,6.32 40.91,-18.88 40.91,-18.88 l 90.20,-336.76 c 8.42,-35.68 -18.84,-46.14 -18.84,-46.14 L 448.74,85.32 c 0,-30.40 -29.40,-33.54 -29.40,-33.54 z"
     inkscape:connector-curvature="0"
     id="path848"
     style="fill:#8d742f;fill-opacity:1;fill-rule:nonzero;stroke:none" />
  <path
     d="m 181.70,64.34 c -1.39,0.24 -5.58,1.18 -9.56,3.84 -5.58,3.72 -8.22,9.16 -8.22,17.13 v 9.56 c 0,0 -115.77,32.30 -117.46,32.75 -2.98,1.44 -12.10,6.87 -12.10,21.37 0,2.94 0.39,6.23 1.30,9.97 0.14,0.60 87.95,328.48 89.41,333.76 3.82,4.38 15.24,15.79 26.01,12.70 l 149.00,-40.96 148.96,40.96 c 10.76,3.08 22.12,-8.31 26.01,-12.70 1.44,-5.28 89.31,-333.16 89.46,-333.76 0.84,-3.73 1.25,-7.03 1.25,-9.97 0,-14.49 -9.12,-19.92 -12.12,-21.37 C 551.951,127.19 436.12,94.89 436.12,94.89 v -9.56 c 0,-7.97 -2.59,-13.40 -8.16,-17.13 -3.94,-2.65 -8.17,-3.59 -9.56,-3.84 z"
     inkscape:connector-curvature="0"
     id="path850"
     style="fill:#ffffff;fill-opacity:1;fill-rule:nonzero;stroke:none" />
  <path
     d="m 438.67,111.54 v 323.85 c 0,0 -2.79,20.97 -19.54,20.97 h -90.95 l 121.70,33.59 c 0,0 6.97,3.49 10.47,-4.18 l 89.55,-332.27 c 0,0 3.49,-10.46 -4.92,-13.25 z M 55.06,140.94 c -8.36,2.78 -4.88,13.30 -4.88,13.30 l 89.51,332.22 c 3.53,7.66 10.51,4.18 10.51,4.18 l 121.70,-33.54 h -90.90 c -16.84,0 -19.58,-21.03 -19.58,-21.03 V 112.24 Z M 183.09,80.09 h 234.29 c 4.92,0 5.57,6.27 5.57,6.27 v 348.32 c 0,5.63 -5.57,7.03 -5.57,7.03 H 183.09 c -4.92,0 -4.92,-7.03 -4.92,-7.03 V 86.36 c 0,-4.18 4.92,-6.27 4.92,-6.27"
     inkscape:connector-curvature="0"
     id="path852"
     style="fill:#8d742f;fill-opacity:1;fill-rule:nonzero;stroke:none" />
  <g
     transform="matrix(12.75,0,0,-12.75,-9235.25,6456.81)"
     id="g854">
    <path
       d="m 738.297,499.395 c -0.051,-0.032 -0.086,-0.071 -0.086,-0.09 v 0 -27.297 c 0,-0.063 0.019,-0.153 -0.016,-0.153 v 0 h 18.297 c 0.047,0.024 0.106,0.067 0.106,0.149 v 0 27.254 c -0.008,0.054 -0.036,0.129 -0.039,0.137 v 0 z m 20.328,-27.5 c -0.09,-0.688 -0.613,-1.993 -1.934,-1.993 v 0 h -4.179 l 6.761,-1.871 c 0.016,-0.004 0.067,-0.023 0.114,-0.023 v 0 c 0.039,0 0.105,0 0.152,0.097 v 0 l 7.023,26.063 c 0.028,0.074 0.129,0.449 -0.105,0.527 v 0 l -7.828,2.114 z m -30.34,22.753 c -0.262,-0.089 -0.144,-0.492 -0.121,-0.558 v 0 l 6.992,-25.981 c 0.074,-0.152 0.141,-0.152 0.176,-0.152 v 0 c 0.051,0 0.098,0.016 0.18,0.047 v 0 l 6.691,1.844 h -4.172 c -1.32,0 -1.84,1.3 -1.933,2.043 v 0 24.863 z"
       inkscape:connector-curvature="0"
       id="path864"
       style="fill:url(#radialGradient3009);fill-opacity:1;fill-rule:nonzero;stroke:none" />
  </g>
  <g
     transform="matrix(10.20,0,0,10.20,0.67,30)"
     id="text5897"
     style="font-style:normal;font-variant:normal;font-weight:100;font-stretch:normal;font-size:29.30px;line-height:125%;font-family:GoudyMedieval;-inkscape-font-specification:'GoudyMedieval Thin';text-align:start;letter-spacing:0px;word-spacing:0px;writing-mode:lr-tb;text-anchor:start;fill:#ffffff;fill-opacity:1;stroke:#8d742f;stroke-width:0.91;stroke-opacity:0.37">
    <path
       d="m 39.90,31.76 c -0.05,0.25 -0.25,0.49 -0.60,0.73 -0.34,0.23 -0.74,0.35 -1.21,0.35 -0.27,0 -0.52,-0.03 -0.74,-0.10 -0.22,-0.06 -0.55,-0.24 -0.98,-0.54 -0.42,-0.29 -0.77,-0.73 -1.03,-1.33 -0.26,-0.59 -0.54,-0.86 -0.83,-0.80 -0.66,0.60 -1.39,1.21 -2.18,1.81 -0.79,0.60 -1.64,0.96 -2.56,1.08 -0.91,0.11 -1.92,0.25 -3.01,0.41 -0.70,0 -1.36,-0.13 -1.97,-0.39 -0.61,-0.26 -1.24,-0.70 -1.88,-1.33 -0.64,-0.62 -1.11,-1.56 -1.40,-2.81 -0.29,-1.25 -0.43,-3.24 -0.43,-5.97 v -1.93 -1.31 c 0,-1.36 -0.00,-2.19 -0.02,-2.47 -0.01,-0.28 -0.08,-0.68 -0.20,-1.20 -0.11,-0.51 -0.48,-0.94 -1.09,-1.27 -0.61,-0.33 -0.92,-0.70 -0.92,-1.11 0.95,1.9e-5 1.76,-0.05 2.43,-0.17 0.66,-0.11 1.30,-0.24 1.93,-0.38 0.15,2e-5 0.31,0.03 0.48,0.11 0.16,0.07 0.24,0.41 0.24,0.99 -3e-6,0.58 -0.00,1.18 -0.02,1.78 -0.01,0.60 -0.03,1.18 -0.05,1.72 -3e-6,0.60 -0.00,1.20 -0.01,1.78 -0.00,0.58 -0.01,1.17 -0.01,1.75 -3e-6,3.22 0.28,5.62 0.86,7.20 0.57,1.58 1.40,2.43 2.49,2.56 1.08,0.12 1.76,0.19 2.03,0.19 0.95,2e-6 1.88,-0.18 2.78,-0.54 0.89,-0.36 1.58,-0.96 2.05,-1.80 0.23,-0.56 0.41,-1.20 0.52,-1.90 0.11,-0.70 0.17,-1.59 0.17,-2.66 -1.4e-5,-0.89 -0.04,-1.80 -0.13,-2.72 -0.08,-0.91 -0.14,-1.68 -0.17,-2.30 -0.02,-0.61 -0.04,-1.14 -0.04,-1.59 v -0.61 c -1.4e-5,-0.35 -0.00,-0.62 -0.02,-0.82 -0.01,-0.19 -0.07,-0.45 -0.16,-0.77 -0.08,-0.32 -0.34,-0.68 -0.76,-1.08 -0.41,-0.40 -0.62,-0.65 -0.62,-0.77 -1.1e-5,-0.09 0.06,-0.17 0.19,-0.23 0.12,-0.05 0.62,-0.15 1.49,-0.27 0.86,-0.12 1.52,-0.19 1.97,-0.19 0.19,2.1e-5 0.35,0.04 0.48,0.13 0.12,0.08 0.19,0.76 0.19,2.03 v 1.55 8.87 c -1.7e-5,1.99 0.16,3.45 0.49,4.38 0.33,0.92 1.11,1.58 2.34,1.97 z"
       inkscape:connector-curvature="0"
       id="path2998"
       style="stroke:#8d742f" />
  </g>
  <g
     transform="matrix(10.20,0,0,10.20,0.67,30)"
     id="text5905"
     style="font-style:normal;font-variant:normal;font-weight:100;font-stretch:normal;font-size:29.30px;line-height:125%;font-family:GoudyMedieval;-inkscape-font-specification:'GoudyMedieval Thin';text-align:start;letter-spacing:0px;word-spacing:0px;writing-mode:lr-tb;text-anchor:start;fill:#ffffff;fill-opacity:1;stroke:#8d742f;stroke-width:0.91;stroke-opacity:0">
    <path
       d="m 39.90,31.76 c -0.05,0.25 -0.25,0.49 -0.60,0.73 -0.34,0.23 -0.74,0.35 -1.21,0.35 -0.27,0 -0.52,-0.03 -0.74,-0.10 -0.22,-0.06 -0.55,-0.24 -0.98,-0.54 -0.42,-0.29 -0.77,-0.73 -1.03,-1.33 -0.26,-0.59 -0.54,-0.86 -0.83,-0.80 -0.66,0.60 -1.39,1.21 -2.18,1.81 -0.79,0.60 -1.64,0.96 -2.56,1.08 -0.91,0.11 -1.92,0.25 -3.01,0.41 -0.70,0 -1.36,-0.13 -1.97,-0.39 -0.61,-0.26 -1.24,-0.70 -1.88,-1.33 -0.64,-0.62 -1.11,-1.56 -1.40,-2.81 -0.29,-1.25 -0.43,-3.24 -0.43,-5.97 v -1.93 -1.31 c 0,-1.36 -0.00,-2.19 -0.02,-2.47 -0.01,-0.28 -0.08,-0.68 -0.20,-1.20 -0.11,-0.51 -0.48,-0.94 -1.09,-1.27 -0.61,-0.33 -0.92,-0.70 -0.92,-1.11 0.95,1.9e-5 1.76,-0.05 2.43,-0.17 0.66,-0.11 1.30,-0.24 1.93,-0.38 0.15,2e-5 0.31,0.03 0.48,0.11 0.16,0.07 0.24,0.41 0.24,0.99 -3e-6,0.58 -0.00,1.18 -0.02,1.78 -0.01,0.60 -0.03,1.18 -0.05,1.72 -3e-6,0.60 -0.00,1.20 -0.01,1.78 -0.00,0.58 -0.01,1.17 -0.01,1.75 -3e-6,3.22 0.28,5.62 0.86,7.20 0.57,1.58 1.40,2.43 2.49,2.56 1.08,0.12 1.76,0.19 2.03,0.19 0.95,2e-6 1.88,-0.18 2.78,-0.54 0.89,-0.36 1.58,-0.96 2.05,-1.80 0.23,-0.56 0.41,-1.20 0.52,-1.90 0.11,-0.70 0.17,-1.59 0.17,-2.66 -1.4e-5,-0.89 -0.04,-1.80 -0.13,-2.72 -0.08,-0.91 -0.14,-1.68 -0.17,-2.30 -0.02,-0.61 -0.04,-1.14 -0.04,-1.59 v -0.61 c -1.4e-5,-0.35 -0.00,-0.62 -0.02,-0.82 -0.01,-0.19 -0.07,-0.45 -0.16,-0.77 -0.08,-0.32 -0.34,-0.68 -0.76,-1.08 -0.41,-0.40 -0.62,-0.65 -0.62,-0.77 -1.1e-5,-0.09 0.06,-0.17 0.19,-0.23 0.12,-0.05 0.62,-0.15 1.49,-0.27 0.86,-0.12 1.52,-0.19 1.97,-0.19 0.19,2.1e-5 0.35,0.04 0.48,0.13 0.12,0.08 0.19,0.76 0.19,2.03 v 1.55 8.87 c -1.7e-5,1.99 0.16,3.45 0.49,4.38 0.33,0.92 1.11,1.58 2.34,1.97 z"
       inkscape:connector-curvature="0"
       id="path3001"
       style="stroke:#8d742f" />
  </g>
</svg>