<?xml version="1.0" encoding="UTF-8" standalone="no"?>
<!-- Created with Inkscape (http://www.inkscape.org/) -->

<svg
   xmlns:dc="http://purl.org/dc/elements/1.1/"
   xmlns:cc="http://creativecommons.org/ns#"
   xmlns:rdf="http://www.w3.org/1999/02/22-rdf-syntax-ns#"
   xmlns:svg="http://www.w3.org/2000/svg"
   xmlns="http://www.w3.org/2000/svg"
   xmlns:xlink="http://www.w3.org/1999/xlink"
   xmlns:sodipodi="http://sodipodi.sourceforge.net/DTD/sodipodi-0.dtd"
   xmlns:inkscape="http://www.inkscape.org/namespaces/inkscape"
   version="1.1"
   width="600"
   height="550"
   id="svg5993"
   sodipodi:docname="unlimited uncommon.svg"
   inkscape:version="0.92.2 5c3e80d, 2017-08-06">
  
  <defs
     id="defs5995">
    <radialGradient
       cx="0"
       cy="0"
       r="1"
       fx="0"
       fy="0"
       id="radialGradient832"
       gradientUnits="userSpaceOnUse"
       gradientTransform="matrix(17.57,0,0,-17.57,663.95,483.67)"
       spreadMethod="pad">
      <stop
         id="stop834"
         style="stop-color:#b7d1e1;stop-opacity:1"
         offset="0" />
      <stop
         id="stop836"
         style="stop-color:#a0b6c2;stop-opacity:1"
         offset="0.66" />
      <stop
         id="stop838"
         style="stop-color:#626e77;stop-opacity:1"
         offset="1" />
    </radialGradient>
    <radialGradient
       cx="0"
       cy="0"
       r="1"
       fx="0"
       fy="0"
       id="radialGradient3009"
       xlink:href="#radialGradient832"
       gradientUnits="userSpaceOnUse"
       gradientTransform="matrix(17.57,0,0,-17.57,663.95,483.67)"
       spreadMethod="pad" />
  </defs>
  <metadata
     id="metadata5998">
    <rdf:RDF>
      <cc:Work
         rdf:about="">
        <dc:format>image/svg+xml</dc:format>
        <dc:type
           rdf:resource="http://purl.org/dc/dcmitype/StillImage" />
        <dc:title />
      </cc:Work>
    </rdf:RDF>
  </metadata>
  <path
     d="M 419.35,30 H 179.60 l -1.19,0.15 c -16.15,1.74 -38.57,13.40 -46.05,37.92 -20.32,5.67 -96.91,27.00 -96.91,27.00 L 34.43,95.43 C 21.26,100.52 0,117.56 0,148.76 c 0,5.57 0.68,11.60 2.23,18.14 l 91.44,341.41 2.53,3.38 c 10.32,13.80 35.49,34.93 64.24,26.76 0,0 128.966,-35.47 139.58,-38.42 10.66,2.94 139.78,38.47 139.78,38.47 28.55,8.11 53.72,-13.01 64.04,-26.81 l 2.53,-3.34 91.29,-340.80 C 599.29,160.86 600,154.64 600,148.96 600,117.51 578.82,100.52 565.65,95.43 l -0.99,-0.34 c 0,0 -76.59,-21.33 -96.91,-27.00 -7.47,-24.52 -29.90,-36.18 -46.10,-37.92 L 420.48,30 Z"
     inkscape:connector-curvature="0"
     id="path822"
     style="fill:#ffffff;fill-opacity:1;fill-rule:nonzero;stroke:none" />
  <path
     d="m 180.73,51.77 c 0,0 -29.39,3.13 -29.39,33.53 L 42.25,115.76 c 0,0 -27.26,10.46 -18.88,46.14 l 90.24,336.73 c 0,0 18.88,25.20 40.91,18.88 l 145.51,-40.02 145.56,40.02 c 21.98,6.32 40.91,-18.88 40.91,-18.88 l 90.20,-336.73 c 8.36,-35.68 -18.89,-46.14 -18.89,-46.14 L 448.74,85.31 c 0,-30.40 -29.39,-33.53 -29.39,-33.53 z"
     inkscape:connector-curvature="0"
     id="path824"
     style="fill:#626e77;fill-opacity:1;fill-rule:nonzero;stroke:none" />
  <path
     d="m 181.69,64.34 c -1.35,0.24 -5.58,1.18 -9.51,3.84 -5.63,3.72 -8.22,9.15 -8.22,17.13 v 9.56 c 0,0 -115.81,32.30 -117.45,32.74 -3.03,1.44 -12.10,6.87 -12.10,21.36 0,2.94 0.34,6.23 1.23,9.97 0.15,0.60 87.96,328.45 89.40,333.73 3.89,4.38 15.30,15.79 26.01,12.70 l 149.00,-40.96 149.00,40.96 c 10.75,3.08 22.12,-8.31 26.01,-12.70 1.39,-5.28 89.25,-333.13 89.45,-333.73 0.842,-3.73 1.18,-7.02 1.18,-9.97 0,-14.49 -9.07,-19.92 -12.10,-21.36 -1.64,-0.446 -117.45,-32.74 -117.45,-32.74 V 85.31 c 0,-7.97 -2.64,-13.40 -8.17,-17.13 -3.98,-2.65 -8.16,-3.59 -9.56,-3.84 z"
     inkscape:connector-curvature="0"
     id="path826"
     style="fill:#ffffff;fill-opacity:1;fill-rule:nonzero;stroke:none" />
  <path
     d="m 438.68,111.53 v 323.82 c 0,0 -2.79,20.97 -19.58,20.97 h -90.89 l 121.64,33.59 c 0,0 7.02,3.49 10.51,-4.18 l 89.55,-332.24 c 0,0 3.48,-10.46 -4.93,-13.25 z M 55.11,140.93 c -8.41,2.78 -4.88,13.30 -4.88,13.30 l 89.50,332.19 c 3.48,7.66 10.51,4.18 10.51,4.18 l 121.69,-33.53 h -90.94 c -16.78,0 -19.58,-21.03 -19.58,-21.03 V 112.23 Z M 183.08,80.08 h 234.26 c 4.93,0 5.63,6.27 5.63,6.27 V 434.65 c 0,5.63 -5.63,7.02 -5.63,7.02 H 183.08 c -4.88,0 -4.88,-7.02 -4.88,-7.02 V 86.36 c 0,-4.18 4.88,-6.27 4.88,-6.27"
     inkscape:connector-curvature="0"
     id="path828"
     style="fill:#626e77;fill-opacity:1;fill-rule:nonzero;stroke:none" />
  <g
     transform="matrix(12.75,0,0,-12.75,-8170.41,6456.26)"
     id="g830">
    <path
       d="m 654.891,499.395 c -0.047,-0.032 -0.086,-0.071 -0.086,-0.09 v 0 -27.297 c 0,-0.063 0.019,-0.153 -0.012,-0.153 v 0 h 18.297 c 0.047,0.024 0.101,0.067 0.101,0.149 v 0 l 0.004,27.254 c -0.007,0.054 -0.035,0.129 -0.039,0.137 v 0 z m 20.328,-27.5 c -0.09,-0.688 -0.614,-1.993 -1.93,-1.993 v 0 h -4.18 l 6.762,-1.871 c 0.016,-0.004 0.063,-0.023 0.113,-0.023 v 0 c 0.036,0 0.106,0 0.153,0.097 v 0 l 7.027,26.063 c 0.02,0.074 0.125,0.449 -0.113,0.527 v 0 l -7.828,2.114 z m -30.336,22.753 c -0.266,-0.089 -0.145,-0.492 -0.125,-0.558 v 0 l 6.996,-25.981 c 0.07,-0.152 0.137,-0.152 0.176,-0.152 v 0 c 0.05,0 0.097,0.016 0.179,0.047 v 0 l 6.688,1.844 h -4.172 c -1.32,0 -1.84,1.3 -1.934,2.043 v 0 24.863 z"
       inkscape:connector-curvature="0"
       id="path840"
       style="fill:url(#radialGradient3009);fill-opacity:1;fill-rule:nonzero;stroke:none" />
  </g>
  <g
     transform="translate(-1.92,30)"
     id="text5893"
     style="font-style:normal;font-variant:normal;font-weight:100;font-stretch:normal;font-size:299.04px;line-height:125%;font-family:GoudyMedieval;-inkscape-font-specification:'GoudyMedieval Thin';text-align:start;letter-spacing:0px;word-spacing:0px;writing-mode:lr-tb;text-anchor:start;fill:#ffffff;fill-opacity:1;stroke:#626e77;stroke-width:9.34;stroke-opacity:0.36">
    <path
       d="m 409.94,324.21 c -0.59,2.59 -2.63,5.08 -6.12,7.47 -3.48,2.39 -7.62,3.59 -12.40,3.59 -2.79,0 -5.33,-0.34 -7.62,-1.04 -2.29,-0.69 -5.63,-2.54 -10.02,-5.53 -4.38,-2.99 -7.92,-7.52 -10.61,-13.60 -2.68,-6.07 -5.53,-8.81 -8.52,-8.22 -6.77,6.18 -14.20,12.36 -22.27,18.53 -8.07,6.17 -16.79,9.86 -26.16,11.06 -9.36,1.19 -19.63,2.59 -30.80,4.18 -7.17,0 -13.90,-1.34 -20.18,-4.03 -6.27,-2.69 -12.70,-7.22 -19.28,-13.60 -6.57,-6.37 -11.36,-15.94 -14.35,-28.71 -2.99,-12.76 -4.48,-33.09 -4.48,-61.00 V 213.57 200.11 c 0,-13.95 -0.10,-22.37 -0.30,-25.27 -0.20,-2.88 -0.89,-6.97 -2.09,-12.26 -1.19,-5.28 -4.93,-9.62 -11.21,-13.00 -6.27,-3.38 -9.41,-7.17 -9.41,-11.36 9.76,2e-4 18.03,-0.59 24.81,-1.79 6.78,-1.19 13.35,-2.49 19.73,-3.89 1.59,2.1e-4 3.23,0.39 4.93,1.19 1.69,0.79 2.54,4.18 2.54,10.16 -4e-5,5.98 -0.09,12.06 -0.29,18.24 -0.19,6.18 -0.39,12.06 -0.59,17.64 -3e-5,6.18 -0.05,12.26 -0.15,18.24 -0.10,5.98 -0.15,11.96 -0.15,17.94 -4e-5,32.89 2.94,57.41 8.82,73.56 5.88,16.15 14.35,24.87 25.42,26.16 11.06,1.29 17.99,1.94 20.78,1.94 9.76,2e-5 19.23,-1.84 28.40,-5.53 9.17,-3.68 16.14,-9.82 20.93,-18.39 2.39,-5.77 4.19,-12.25 5.38,-19.43 1.19,-7.17 1.79,-16.24 1.79,-27.21 -1.4e-4,-9.16 -0.44,-18.43 -1.34,-27.80 -0.89,-9.36 -1.49,-17.19 -1.79,-23.47 -0.29,-6.28 -0.44,-11.71 -0.44,-16.29 v -6.27 c -1.4e-4,-3.58 -0.10,-6.38 -0.30,-8.37 -0.20,-1.99 -0.74,-4.63 -1.64,-7.92 -0.89,-3.28 -3.48,-6.97 -7.77,-11.06 -4.28,-4.08 -6.42,-6.72 -6.42,-7.92 -1.2e-4,-0.99 0.64,-1.79 1.94,-2.39 1.29,-0.59 6.37,-1.54 15.24,-2.83 8.87,-1.29 15.59,-1.94 20.18,-1.94 1.99,2e-4 3.64,0.44 4.93,1.34 1.29,0.89 1.94,7.82 1.94,20.77 v 15.85 90.61 c -1.6e-4,20.33 1.69,35.23 5.08,44.70 3.38,9.46 11.36,16.19 23.91,20.18 z"
       inkscape:connector-curvature="0"
       id="path2998"
       style="stroke:#626e77" />
  </g>
  <g
     transform="translate(-1.92,30)"
     id="text5901"
     style="font-style:normal;font-variant:normal;font-weight:100;font-stretch:normal;font-size:299.04px;line-height:125%;font-family:GoudyMedieval;-inkscape-font-specification:'GoudyMedieval Thin';text-align:start;letter-spacing:0px;word-spacing:0px;writing-mode:lr-tb;text-anchor:start;fill:#ffffff;fill-opacity:1;stroke:#626e77;stroke-width:9.34;stroke-opacity:0">
    <path
       d="m 409.94,324.21 c -0.59,2.59 -2.63,5.08 -6.12,7.47 -3.48,2.39 -7.62,3.59 -12.40,3.59 -2.79,0 -5.33,-0.34 -7.62,-1.04 -2.29,-0.69 -5.63,-2.54 -10.02,-5.53 -4.38,-2.99 -7.92,-7.52 -10.61,-13.60 -2.68,-6.07 -5.53,-8.81 -8.52,-8.22 -6.77,6.18 -14.20,12.36 -22.27,18.53 -8.07,6.17 -16.79,9.86 -26.16,11.06 -9.36,1.19 -19.63,2.59 -30.80,4.18 -7.17,0 -13.90,-1.34 -20.18,-4.03 -6.27,-2.69 -12.70,-7.22 -19.28,-13.60 -6.57,-6.37 -11.36,-15.94 -14.35,-28.71 -2.99,-12.76 -4.48,-33.09 -4.48,-61.00 V 213.57 200.11 c 0,-13.95 -0.10,-22.37 -0.30,-25.27 -0.20,-2.88 -0.89,-6.97 -2.09,-12.26 -1.19,-5.28 -4.93,-9.62 -11.21,-13.00 -6.27,-3.38 -9.41,-7.17 -9.41,-11.36 9.76,2e-4 18.03,-0.59 24.81,-1.79 6.78,-1.19 13.35,-2.49 19.73,-3.89 1.59,2.1e-4 3.23,0.39 4.93,1.19 1.69,0.79 2.54,4.18 2.54,10.16 -4e-5,5.98 -0.09,12.06 -0.29,18.24 -0.19,6.18 -0.39,12.06 -0.59,17.64 -3e-5,6.18 -0.05,12.26 -0.15,18.24 -0.10,5.98 -0.15,11.96 -0.15,17.94 -4e-5,32.89 2.94,57.41 8.82,73.56 5.88,16.15 14.35,24.87 25.42,26.16 11.06,1.29 17.99,1.94 20.78,1.94 9.76,2e-5 19.23,-1.84 28.40,-5.53 9.17,-3.68 16.14,-9.82 20.93,-18.39 2.39,-5.77 4.19,-12.25 5.38,-19.43 1.19,-7.17 1.79,-16.24 1.79,-27.21 -1.4e-4,-9.16 -0.44,-18.43 -1.34,-27.80 -0.89,-9.36 -1.49,-17.19 -1.79,-23.47 -0.29,-6.28 -0.44,-11.71 -0.44,-16.29 v -6.27 c -1.4e-4,-3.58 -0.10,-6.38 -0.30,-8.37 -0.20,-1.99 -0.74,-4.63 -1.64,-7.92 -0.89,-3.28 -3.48,-6.97 -7.77,-11.06 -4.28,-4.08 -6.42,-6.72 -6.42,-7.92 -1.2e-4,-0.99 0.64,-1.79 1.94,-2.39 1.29,-0.59 6.37,-1.54 15.24,-2.83 8.87,-1.29 15.59,-1.94 20.18,-1.94 1.99,2e-4 3.64,0.44 4.93,1.34 1.29,0.89 1.94,7.82 1.94,20.77 v 15.85 90.61 c -1.6e-4,20.33 1.69,35.23 5.08,44.70 3.38,9.46 11.36,16.19 23.91,20.18 z"
       inkscape:connector-curvature="0"
       id="path3001"
       style="stroke:#626e77" />
  </g>
</svg>