<?xml version="1.0" encoding="UTF-8" standalone="no"?>
<!-- Created with Inkscape (http://www.inkscape.org/) -->

<svg
   xmlns:dc="http://purl.org/dc/elements/1.1/"
   xmlns:cc="http://creativecommons.org/ns#"
   xmlns:rdf="http://www.w3.org/1999/02/22-rdf-syntax-ns#"
   xmlns:svg="http://www.w3.org/2000/svg"
   xmlns="http://www.w3.org/2000/svg"
   xmlns:xlink="http://www.w3.org/1999/xlink"
   xmlns:sodipodi="http://sodipodi.sourceforge.net/DTD/sodipodi-0.dtd"
   xmlns:inkscape="http://www.inkscape.org/namespaces/inkscape"
   version="1.1"
   width="600"
   height="600"
   id="svg5993"
   sodipodi:docname="unlimited uncommon.svg"
   inkscape:version="0.92.2 5c3e80d, 2017-08-06">
  <sodipodi:namedview
     pagecolor="#ffffff"
     bordercolor="#666666"
     borderopacity="1"
     objecttolerance="10"
     gridtolerance="10"
     guidetolerance="10"
     inkscape:pageopacity="0"
     inkscape:pageshadow="2"
     inkscape:window-width="1432"
     inkscape:window-height="973"
     id="namedview20"
     showgrid="false"
     inkscape:zoom="1"
     inkscape:cx="301.38477"
     inkscape:cy="236.48155"
     inkscape:window-x="0"
     inkscape:window-y="0"
     inkscape:window-maximized="0"
     inkscape:current-layer="svg5993" />
  <defs
     id="defs5995">
    <radialGradient
       cx="0"
       cy="0"
       r="1"
       fx="0"
       fy="0"
       id="radialGradient832"
       gradientUnits="userSpaceOnUse"
       gradientTransform="matrix(17.571808,0,0,-17.571808,663.95898,483.67578)"
       spreadMethod="pad">
      <stop
         id="stop834"
         style="stop-color:#b7d1e1;stop-opacity:1"
         offset="0" />
      <stop
         id="stop836"
         style="stop-color:#a0b6c2;stop-opacity:1"
         offset="0.66291797" />
      <stop
         id="stop838"
         style="stop-color:#626e77;stop-opacity:1"
         offset="1" />
    </radialGradient>
    <radialGradient
       cx="0"
       cy="0"
       r="1"
       fx="0"
       fy="0"
       id="radialGradient3009"
       xlink:href="#radialGradient832"
       gradientUnits="userSpaceOnUse"
       gradientTransform="matrix(17.571808,0,0,-17.571808,663.95898,483.67578)"
       spreadMethod="pad" />
  </defs>
  <metadata
     id="metadata5998">
    <rdf:RDF>
      <cc:Work
         rdf:about="">
        <dc:format>image/svg+xml</dc:format>
        <dc:type
           rdf:resource="http://purl.org/dc/dcmitype/StillImage" />
        <dc:title />
      </cc:Work>
    </rdf:RDF>
  </metadata>
  <path
     d="M 419.35319,46 H 179.60068 l -1.19921,0.15309 c -16.15104,1.74778 -38.5788,13.40817 -46.05472,37.92817 -20.32277,5.67711 -96.91906,27.00772 -96.91906,27.00772 l -0.99509,0.34496 C 21.26682,116.5242 0,133.56828 0,164.76047 c 0,5.57505 0.6889,11.60937 2.23257,18.14123 l 91.44606,341.41736 2.53875,3.38075 c 10.32086,13.80366 35.49149,34.93015 64.24699,26.76533 0,0 128.966,-35.47873 139.58028,-38.42572 10.6653,2.94699 139.78439,38.47675 139.78439,38.47675 28.55138,8.11379 53.72202,-13.0127 64.04287,-26.81636 l 2.53875,-3.34247 91.29298,-340.80501 C 599.29833,176.86738 600,170.6417 600,164.96459 600,133.51725 578.82247,116.5242 565.65669,111.43394 l -0.99509,-0.34496 c 0,0 -76.59629,-21.33061 -96.91905,-27.00772 -7.47592,-24.52 -29.90368,-36.18039 -46.10576,-37.92817 L 420.48861,46 Z"
     inkscape:connector-curvature="0"
     id="path822"
     style="fill:#ffffff;fill-opacity:1;fill-rule:nonzero;stroke:none" />
  <path
     d="m 180.7361,67.77712 c 0,0 -29.39337,3.13836 -29.39337,33.53958 L 42.25298,131.76896 c 0,0 -27.26287,10.46118 -18.88117,46.14403 l 90.24686,336.73534 c 0,0 18.88117,25.20891 40.91344,18.88117 l 145.51254,-40.02041 145.56356,40.02041 c 21.98125,6.32774 40.91344,-18.88117 40.91344,-18.88117 l 90.20859,-336.73534 c 8.36894,-35.68285 -18.89392,-46.14403 -18.89392,-46.14403 L 448.74657,101.3167 c 0,-30.40122 -29.39338,-33.53958 -29.39338,-33.53958 z"
     inkscape:connector-curvature="0"
     id="path824"
     style="fill:#626e77;fill-opacity:1;fill-rule:nonzero;stroke:none" />
  <path
     d="m 181.69292,80.3433 c -1.3523,0.24188 -5.5878,1.18645 -9.51713,3.84002 -5.63883,3.7252 -8.22861,9.15992 -8.22861,17.13338 v 9.56816 c 0,0 -115.81298,32.3021 -117.4587,32.74861 -3.03629,1.4416 -12.10691,6.87632 -12.10691,21.36889 0,2.94699 0.34395,6.23843 1.23748,9.97639 0.1531,0.60012 87.96326,328.4557 89.40487,333.73733 3.89105,4.38859 15.30905,15.79384 26.01263,12.70651 l 149.0081,-40.96447 149.0081,40.96447 c 10.75461,3.08733 22.12158,-8.31792 26.01263,-12.70651 1.39057,-5.28163 89.25177,-333.13772 89.45589,-333.73733 0.842,-3.73796 1.18645,-7.0294 1.18645,-9.97639 0,-14.49257 -9.07061,-19.92729 -12.10691,-21.36889 -1.64572,-0.446 -117.4587,-32.74861 -117.4587,-32.74861 v -9.56816 c 0,-7.97346 -2.64081,-13.40818 -8.17758,-17.13338 -3.98035,-2.65357 -8.16483,-3.59762 -9.56816,-3.84002 z"
     inkscape:connector-curvature="0"
     id="path826"
     style="fill:#ffffff;fill-opacity:1;fill-rule:nonzero;stroke:none" />
  <path
     d="m 438.68087,127.53345 v 323.82471 c 0,0 -2.79391,20.9734 -19.58283,20.9734 h -90.8975 l 121.64318,33.59062 c 0,0 7.0294,3.49556 10.51221,-4.18448 l 89.55795,-332.24469 c 0,0 3.48281,-10.46118 -4.93717,-13.25509 z M 55.11258,156.93959 c -8.41998,2.78114 -4.88614,13.30612 -4.88614,13.30612 l 89.50692,332.19366 c 3.48281,7.66728 10.51222,4.18447 10.51222,4.18447 l 121.6942,-33.53958 h -90.94852 c -16.78893,0 -19.58283,-21.03719 -19.58283,-21.03719 V 128.23512 Z M 183.08349,96.08611 h 234.26676 c 4.93717,0 5.63884,6.27671 5.63884,6.27671 V 450.6565 c 0,5.63883 -5.63884,7.02941 -5.63884,7.02941 H 183.08349 c -4.88614,0 -4.88614,-7.02941 -4.88614,-7.02941 V 102.36282 c 0,-4.18447 4.88614,-6.27671 4.88614,-6.27671"
     inkscape:connector-curvature="0"
     id="path828"
     style="fill:#626e77;fill-opacity:1;fill-rule:nonzero;stroke:none" />
  <g
     transform="matrix(12.757543,0,0,-12.757543,-8170.4153,6472.2676)"
     id="g830">
    <path
       d="m 654.891,499.395 c -0.047,-0.032 -0.086,-0.071 -0.086,-0.09 v 0 -27.297 c 0,-0.063 0.019,-0.153 -0.012,-0.153 v 0 h 18.297 c 0.047,0.024 0.101,0.067 0.101,0.149 v 0 l 0.004,27.254 c -0.007,0.054 -0.035,0.129 -0.039,0.137 v 0 z m 20.328,-27.5 c -0.09,-0.688 -0.614,-1.993 -1.93,-1.993 v 0 h -4.18 l 6.762,-1.871 c 0.016,-0.004 0.063,-0.023 0.113,-0.023 v 0 c 0.036,0 0.106,0 0.153,0.097 v 0 l 7.027,26.063 c 0.02,0.074 0.125,0.449 -0.113,0.527 v 0 l -7.828,2.114 z m -30.336,22.753 c -0.266,-0.089 -0.145,-0.492 -0.125,-0.558 v 0 l 6.996,-25.981 c 0.07,-0.152 0.137,-0.152 0.176,-0.152 v 0 c 0.05,0 0.097,0.016 0.179,0.047 v 0 l 6.688,1.844 h -4.172 c -1.32,0 -1.84,1.3 -1.934,2.043 v 0 24.863 z"
       inkscape:connector-curvature="0"
       id="path840"
       style="fill:url(#radialGradient3009);fill-opacity:1;fill-rule:nonzero;stroke:none" />
  </g>
  <g
     transform="translate(-1.9289906,46)"
     id="text5893"
     style="font-style:normal;font-variant:normal;font-weight:100;font-stretch:normal;font-size:299.04208374px;line-height:125%;font-family:GoudyMedieval;-inkscape-font-specification:'GoudyMedieval Thin';text-align:start;letter-spacing:0px;word-spacing:0px;writing-mode:lr-tb;text-anchor:start;fill:#ffffff;fill-opacity:1;stroke:#626e77;stroke-width:9.34506512;stroke-opacity:0.36086958">
    <path
       d="m 409.94804,324.21411 c -0.59643,2.59181 -2.63914,5.08473 -6.12814,7.47879 -3.48937,2.39407 -7.62498,3.5911 -12.40685,3.5911 -2.79274,0 -5.33586,-0.34983 -7.62937,-1.0495 -2.29384,-0.69966 -5.63397,-2.54464 -10.02039,-5.53494 -4.38674,-2.99029 -7.9246,-7.52441 -10.61358,-13.60237 -2.68929,-6.07791 -5.53053,-8.81876 -8.52373,-8.22256 -6.77774,6.1814 -14.20328,12.36124 -22.27666,18.53955 -8.07361,6.17834 -16.79506,9.86678 -26.16436,11.06533 -9.36948,1.19855 -19.63627,2.59483 -30.80038,4.18885 -7.17921,0 -13.90813,-1.34609 -20.1868,-4.03827 -6.27875,-2.69218 -12.70804,-7.22782 -19.28789,-13.60693 -6.57989,-6.37908 -11.36497,-15.94924 -14.35526,-28.71052 -2.9903,-12.76119 -4.48545,-33.09551 -4.48545,-61.00302 V 213.57 200.11822 c 0,-13.95661 -0.10039,-22.37994 -0.30116,-25.27001 -0.20077,-2.88975 -0.89892,-6.97669 -2.09442,-12.26084 -1.19552,-5.28379 -4.93262,-9.62018 -11.21135,-13.00917 -6.27869,-3.38861 -9.41805,-7.17591 -9.41807,-11.36192 9.76487,2e-4 18.03762,-0.59755 24.81827,-1.79326 6.78063,-1.19531 13.35898,-2.49273 19.73506,-3.89226 1.59399,2.1e-4 3.2382,0.39871 4.93262,1.19551 1.69437,0.79721 2.54157,4.18601 2.54161,10.16641 -4e-5,5.98079 -0.0989,12.06177 -0.2966,18.24296 -0.19776,6.18154 -0.39701,12.06174 -0.59776,17.64063 -3e-5,6.18152 -0.0502,12.2625 -0.15058,18.24296 -0.10041,5.98073 -0.15061,11.96132 -0.15057,17.94179 -4e-5,32.89642 2.94159,57.41959 8.82488,73.56957 5.8832,16.15008 14.35672,24.87305 25.42058,26.16892 11.06373,1.29592 17.99191,1.94387 20.78456,1.94385 9.76476,2e-5 19.23302,-1.84496 28.4048,-5.53494 9.17154,-3.68994 16.1484,-9.82111 20.93057,-18.39354 2.39697,-5.77977 4.19328,-12.25773 5.38893,-19.4339 1.19537,-7.17604 1.79312,-16.24883 1.79326,-27.21841 -1.4e-4,-9.16853 -0.44883,-18.43754 -1.34609,-27.80705 -0.89753,-9.36927 -1.49529,-17.19484 -1.79326,-23.47674 -0.29826,-6.28161 -0.44732,-11.71312 -0.44718,-16.29454 v -6.27872 c -1.4e-4,-3.58941 -0.10052,-6.38197 -0.30116,-8.3777 -0.20091,-1.99539 -0.74999,-4.63737 -1.64725,-7.92597 -0.89753,-3.28823 -3.48932,-6.97515 -7.77539,-11.06076 -4.28632,-4.08523 -6.42941,-6.72721 -6.42929,-7.92596 -1.2e-4,-0.99758 0.64782,-1.79459 1.94385,-2.39103 1.29577,-0.59603 6.37897,-1.54209 15.24961,-2.8382 8.87036,-1.29569 15.59929,-1.94364 20.1868,-1.94384 1.9954,2e-4 3.64113,0.44738 4.93719,1.34153 1.29573,0.89455 1.94368,7.82121 1.94384,20.77999 v 15.85193 90.61245 c -1.6e-4,20.33288 1.69424,35.23417 5.08321,44.70391 3.38863,9.46981 11.36174,16.19722 23.91935,20.18224 z"
       inkscape:connector-curvature="0"
       id="path2998"
       style="stroke:#626e77" />
  </g>
  <g
     transform="translate(-1.9289906,46)"
     id="text5901"
     style="font-style:normal;font-variant:normal;font-weight:100;font-stretch:normal;font-size:299.04208374px;line-height:125%;font-family:GoudyMedieval;-inkscape-font-specification:'GoudyMedieval Thin';text-align:start;letter-spacing:0px;word-spacing:0px;writing-mode:lr-tb;text-anchor:start;fill:#ffffff;fill-opacity:1;stroke:#626e77;stroke-width:9.34506512;stroke-opacity:0">
    <path
       d="m 409.94804,324.21411 c -0.59643,2.59181 -2.63914,5.08473 -6.12814,7.47879 -3.48937,2.39407 -7.62498,3.5911 -12.40685,3.5911 -2.79274,0 -5.33586,-0.34983 -7.62937,-1.0495 -2.29384,-0.69966 -5.63397,-2.54464 -10.02039,-5.53494 -4.38674,-2.99029 -7.9246,-7.52441 -10.61358,-13.60237 -2.68929,-6.07791 -5.53053,-8.81876 -8.52373,-8.22256 -6.77774,6.1814 -14.20328,12.36124 -22.27666,18.53955 -8.07361,6.17834 -16.79506,9.86678 -26.16436,11.06533 -9.36948,1.19855 -19.63627,2.59483 -30.80038,4.18885 -7.17921,0 -13.90813,-1.34609 -20.1868,-4.03827 -6.27875,-2.69218 -12.70804,-7.22782 -19.28789,-13.60693 -6.57989,-6.37908 -11.36497,-15.94924 -14.35526,-28.71052 -2.9903,-12.76119 -4.48545,-33.09551 -4.48545,-61.00302 V 213.57 200.11822 c 0,-13.95661 -0.10039,-22.37994 -0.30116,-25.27001 -0.20077,-2.88975 -0.89892,-6.97669 -2.09442,-12.26084 -1.19552,-5.28379 -4.93262,-9.62018 -11.21135,-13.00917 -6.27869,-3.38861 -9.41805,-7.17591 -9.41807,-11.36192 9.76487,2e-4 18.03762,-0.59755 24.81827,-1.79326 6.78063,-1.19531 13.35898,-2.49273 19.73506,-3.89226 1.59399,2.1e-4 3.2382,0.39871 4.93262,1.19551 1.69437,0.79721 2.54157,4.18601 2.54161,10.16641 -4e-5,5.98079 -0.0989,12.06177 -0.2966,18.24296 -0.19776,6.18154 -0.39701,12.06174 -0.59776,17.64063 -3e-5,6.18152 -0.0502,12.2625 -0.15058,18.24296 -0.10041,5.98073 -0.15061,11.96132 -0.15057,17.94179 -4e-5,32.89642 2.94159,57.41959 8.82488,73.56957 5.8832,16.15008 14.35672,24.87305 25.42058,26.16892 11.06373,1.29592 17.99191,1.94387 20.78456,1.94385 9.76476,2e-5 19.23302,-1.84496 28.4048,-5.53494 9.17154,-3.68994 16.1484,-9.82111 20.93057,-18.39354 2.39697,-5.77977 4.19328,-12.25773 5.38893,-19.4339 1.19537,-7.17604 1.79312,-16.24883 1.79326,-27.21841 -1.4e-4,-9.16853 -0.44883,-18.43754 -1.34609,-27.80705 -0.89753,-9.36927 -1.49529,-17.19484 -1.79326,-23.47674 -0.29826,-6.28161 -0.44732,-11.71312 -0.44718,-16.29454 v -6.27872 c -1.4e-4,-3.58941 -0.10052,-6.38197 -0.30116,-8.3777 -0.20091,-1.99539 -0.74999,-4.63737 -1.64725,-7.92597 -0.89753,-3.28823 -3.48932,-6.97515 -7.77539,-11.06076 -4.28632,-4.08523 -6.42941,-6.72721 -6.42929,-7.92596 -1.2e-4,-0.99758 0.64782,-1.79459 1.94385,-2.39103 1.29577,-0.59603 6.37897,-1.54209 15.24961,-2.8382 8.87036,-1.29569 15.59929,-1.94364 20.1868,-1.94384 1.9954,2e-4 3.64113,0.44738 4.93719,1.34153 1.29573,0.89455 1.94368,7.82121 1.94384,20.77999 v 15.85193 90.61245 c -1.6e-4,20.33288 1.69424,35.23417 5.08321,44.70391 3.38863,9.46981 11.36174,16.19722 23.91935,20.18224 z"
       inkscape:connector-curvature="0"
       id="path3001"
       style="stroke:#626e77" />
  </g>
</svg>
