<?xml version="1.0" encoding="UTF-8" standalone="no"?>
<!-- Created with Inkscape (http://www.inkscape.org/) -->

<svg
   xmlns:dc="http://purl.org/dc/elements/1.1/"
   xmlns:cc="http://creativecommons.org/ns#"
   xmlns:rdf="http://www.w3.org/1999/02/22-rdf-syntax-ns#"
   xmlns:svg="http://www.w3.org/2000/svg"
   xmlns="http://www.w3.org/2000/svg"
   xmlns:xlink="http://www.w3.org/1999/xlink"
   xmlns:sodipodi="http://sodipodi.sourceforge.net/DTD/sodipodi-0.dtd"
   xmlns:inkscape="http://www.inkscape.org/namespaces/inkscape"
   version="1.1"
   width="600"
   height="600"
   id="svg6359"
   sodipodi:docname="urza's legacy uncommon.svg"
   inkscape:version="0.92.2 5c3e80d, 2017-08-06">
  <defs
     id="defs6361">
    <radialGradient
       cx="0"
       cy="0"
       r="1"
       fx="0"
       fy="0"
       id="radialGradient748"
       gradientUnits="userSpaceOnUse"
       gradientTransform="matrix(23.748,0,0,-23.748,401,146.383)"
       spreadMethod="pad">
      <stop
         id="stop750"
         style="stop-color:#b7d1e1;stop-opacity:1"
         offset="0" />
      <stop
         id="stop752"
         style="stop-color:#a0b6c2;stop-opacity:1"
         offset="0.662" />
      <stop
         id="stop754"
         style="stop-color:#626e77;stop-opacity:1"
         offset="1" />
    </radialGradient>
    <radialGradient
       cx="0"
       cy="0"
       r="1"
       fx="0"
       fy="0"
       id="radialGradient2990"
       xlink:href="#radialGradient748"
       gradientUnits="userSpaceOnUse"
       gradientTransform="matrix(219.213,0,0,219.213,299.999,183.172)"
       spreadMethod="pad" />
  </defs>
  <metadata
     id="metadata6364">
    <rdf:RDF>
      <cc:Work
         rdf:about="">
        <dc:format>image/svg+xml</dc:format>
        <dc:type
           rdf:resource="http://purl.org/dc/dcmitype/StillImage" />
        <dc:title />
      </cc:Work>
    </rdf:RDF>
  </metadata>
  <path
     d="m 553.952,349.949 c -3.175,0 -389.597,-97.577 -389.597,-97.577 L 136.728,343.884 4.905,310.460 26.865,217.434 C 17.893,214.655 10.277,208.674 5.413,200.486 0.188,191.690 -1.334,181.342 1.194,171.391 l 7.716,-30.433 C 13.240,123.937 28.526,112.038 46.083,112.038 c 1.836,0 3.719,0.110 5.593,0.396 L 60.723,74.072 120.436,14 l 70.558,15.719 -6.193,19.762 c -10.892,34.688 -16.153,79.392 -7.975,94.503 l 394.249,99.986 c 20.519,5.196 32.962,26.104 27.728,46.623 l -7.716,30.433 c -4.292,17.048 -19.578,28.919 -37.134,28.919"
     inkscape:connector-curvature="0"
     id="path742"
     style="fill:#ffffff;fill-opacity:1;fill-rule:nonzero;stroke:none" />
  <path
     d="M 566.386,262.396 166.007,160.859 c -27.867,-26.611 0.655,-117.072 0.655,-117.072 l -40.134,-8.907 -48.534,48.783 -12.221,51.737 -14.925,-3.784 c -10.347,-2.593 -20.879,3.683 -23.510,14.030 L 19.619,176.118 c -2.630,10.310 3.646,20.870 13.993,23.473 l 16.042,4.070 -21.959,92.952 96.090,24.378 27.581,-91.512 397.821,100.853 c 10.347,2.630 20.879,-3.609 23.473,-13.956 l 7.753,-30.470 c 2.593,-10.384 -3.683,-20.916 -14.030,-23.510"
     inkscape:connector-curvature="0"
     id="path744"
     style="fill:#626e77;fill-opacity:1;fill-rule:nonzero;stroke:none" />
  <path
     d="m 83.005,86.479 -11.861,50.223 -1.301,5.483 -5.436,-1.412 -14.935,-3.784 c -1.116,-0.249 -2.233,-0.396 -3.350,-0.396 v 0 c -6.341,0 -11.861,4.255 -13.449,10.384 v 0 l -7.716,30.507 c -0.867,3.572 -0.359,7.246 1.550,10.458 v 0 c 1.873,3.175 4.901,5.409 8.436,6.304 v 0 l 16.079,4.043 5.270,1.366 -1.264,5.270 -20.695,87.691 85.706,21.701 26.030,-86.426 1.513,-5.086 5.159,1.301 397.821,100.881 c 1.116,0.295 2.270,0.433 3.387,0.433 v 0 c 6.304,0 11.824,-4.292 13.375,-10.421 v 0 l 7.716,-30.461 c 0.904,-3.572 0.359,-7.319 -1.550,-10.458 v 0 c -1.873,-3.175 -4.864,-5.409 -8.436,-6.313 v 0 l -400.415,-101.536 -1.403,-0.396 -1.052,-0.969 C 136.155,140.016 153.712,68.913 159.666,47.932 v 0 l -31.374,-6.996 z"
     inkscape:connector-curvature="0"
     id="path756"
     style="fill:url(#radialGradient2990);fill-opacity:1;fill-rule:nonzero;stroke:none" />
</svg>