<?xml version="1.0" encoding="UTF-8" standalone="no"?>
<!-- Created with Inkscape (http://www.inkscape.org/) -->

<svg
   xmlns:dc="http://purl.org/dc/elements/1.1/"
   xmlns:cc="http://creativecommons.org/ns#"
   xmlns:rdf="http://www.w3.org/1999/02/22-rdf-syntax-ns#"
   xmlns:svg="http://www.w3.org/2000/svg"
   xmlns="http://www.w3.org/2000/svg"
   xmlns:sodipodi="http://sodipodi.sourceforge.net/DTD/sodipodi-0.dtd"
   xmlns:inkscape="http://www.inkscape.org/namespaces/inkscape"
   version="1.1"
   width="600"
   height="600"
   id="svg6425"
   sodipodi:docname="urza's legacy rare.svg"
   inkscape:version="0.92.2 5c3e80d, 2017-08-06">
  
  <defs
     id="defs6427">
    <radialGradient
       cx="0"
       cy="0"
       r="1"
       fx="0"
       fy="0"
       id="radialGradient764"
       gradientUnits="userSpaceOnUse"
       gradientTransform="matrix(23.748,0,0,-23.748,483.000,146.383)"
       spreadMethod="pad">
      <stop
         id="stop766"
         style="stop-color:#d7bd74;stop-opacity:1"
         offset="0" />
      <stop
         id="stop768"
         style="stop-color:#b39a54;stop-opacity:1"
         offset="0.691" />
      <stop
         id="stop770"
         style="stop-color:#8d742f;stop-opacity:1"
         offset="1" />
    </radialGradient>
  </defs>
  <metadata
     id="metadata6430">
    <rdf:RDF>
      <cc:Work
         rdf:about="">
        <dc:format>image/svg+xml</dc:format>
        <dc:type
           rdf:resource="http://purl.org/dc/dcmitype/StillImage" />
        <dc:title />
      </cc:Work>
    </rdf:RDF>
  </metadata>
  <path
     d="m 553.954,349.950 c -3.175,0 -389.598,-97.577 -389.598,-97.577 L 136.728,343.886 4.905,310.461 26.865,217.435 c -8.972,-2.778 -16.550,-8.759 -21.452,-16.947 -5.224,-8.796 -6.747,-19.144 -4.218,-29.095 L 8.911,140.958 C 13.240,123.937 28.526,112.039 46.083,112.039 c 1.836,0 3.719,0.110 5.593,0.396 L 60.723,74.073 120.436,14 l 70.559,15.719 -6.193,19.762 c -10.892,34.688 -16.153,79.392 -7.975,94.503 l 394.251,99.986 c 20.482,5.196 32.962,26.104 27.728,46.624 l -7.716,30.433 c -4.292,17.049 -19.615,28.919 -37.134,28.919"
     inkscape:connector-curvature="0"
     id="path758"
     style="fill:#ffffff;fill-opacity:1;fill-rule:nonzero;stroke:none" />
  <path
     d="M 566.388,262.397 166.008,160.860 c -27.867,-26.612 0.655,-117.072 0.655,-117.072 l -40.134,-8.907 -48.534,48.784 -12.221,51.737 -14.925,-3.784 c -10.347,-2.593 -20.879,3.683 -23.510,14.030 l -7.716,30.470 c -2.630,10.310 3.646,20.870 13.993,23.473 l 16.042,4.070 -21.959,92.952 96.091,24.378 27.581,-91.512 397.823,100.854 c 10.347,2.630 20.879,-3.609 23.473,-13.956 l 7.753,-30.470 c 2.593,-10.384 -3.683,-20.916 -14.030,-23.510"
     inkscape:connector-curvature="0"
     id="path760"
     style="fill:#8d742f;fill-opacity:1;fill-rule:nonzero;stroke:none" />
  <g
     transform="matrix(9.230,0,0,-9.230,-4158.412,1534.393)"
     id="g762">
    <path
       d="m 459.492,156.863 -1.281,-5.445 -0.145,-0.594 -0.589,0.153 -1.618,0.406 c -0.121,0.031 -0.246,0.047 -0.367,0.047 v 0 c -0.683,0 -1.277,-0.461 -1.449,-1.125 v 0 L 453.207,147 c -0.098,-0.387 -0.043,-0.789 0.164,-1.133 v 0 c 0.203,-0.344 0.531,-0.586 0.918,-0.683 v 0 l 1.738,-0.442 0.571,-0.144 -0.133,-0.575 -2.242,-9.496 9.281,-2.351 2.82,9.363 0.164,0.551 0.559,-0.141 43.098,-10.929 c 0.121,-0.032 0.246,-0.047 0.367,-0.047 v 0 c 0.683,0 1.277,0.465 1.449,1.129 v 0 l 0.836,3.3 c 0.098,0.387 0.039,0.789 -0.168,1.133 v 0 c -0.203,0.344 -0.527,0.586 -0.918,0.684 v 0 l -43.375,11 -0.152,0.039 -0.114,0.109 c -2.82,2.692 -0.918,10.399 -0.273,12.672 v 0 l -3.395,0.754 z"
       inkscape:connector-curvature="0"
       id="path772"
       style="fill:url(#radialGradient764);fill-opacity:1;fill-rule:nonzero;stroke:none" />
  </g>
</svg>