<?xml version="1.0" encoding="UTF-8" standalone="no"?>
<!-- Created with Inkscape (http://www.inkscape.org/) -->

<svg
   xmlns:dc="http://purl.org/dc/elements/1.1/"
   xmlns:cc="http://creativecommons.org/ns#"
   xmlns:rdf="http://www.w3.org/1999/02/22-rdf-syntax-ns#"
   xmlns:svg="http://www.w3.org/2000/svg"
   xmlns="http://www.w3.org/2000/svg"
   xmlns:sodipodi="http://sodipodi.sourceforge.net/DTD/sodipodi-0.dtd"
   xmlns:inkscape="http://www.inkscape.org/namespaces/inkscape"
   version="1.1"
   width="600"
   height="600"
   id="svg6305"
   sodipodi:docname="urza's legacy.svg"
   inkscape:version="0.92.2 5c3e80d, 2017-08-06">
  
  <defs
     id="defs6307" />
  <metadata
     id="metadata6310">
    <rdf:RDF>
      <cc:Work
         rdf:about="">
        <dc:format>image/svg+xml</dc:format>
        <dc:type
           rdf:resource="http://purl.org/dc/dcmitype/StillImage" />
        <dc:title />
      </cc:Work>
    </rdf:RDF>
  </metadata>
  <path
     d="m 553.964,349.956 c -3.175,0 -389.605,-97.579 -389.605,-97.579 L 136.731,343.891 4.905,310.466 26.865,217.438 c -9.009,-2.778 -16.587,-8.760 -21.452,-16.947 -5.224,-8.796 -6.747,-19.144 -4.218,-29.095 l 7.716,-30.434 c 4.329,-17.021 19.615,-28.920 37.135,-28.920 1.873,0 3.756,0.110 5.630,0.396 L 60.724,74.074 120.438,14 l 70.560,15.720 -6.193,19.763 c -10.892,34.689 -16.190,79.394 -7.975,94.505 l 394.220,99.988 c 20.557,5.196 32.963,26.104 27.766,46.624 l -7.716,30.434 c -4.329,17.049 -19.578,28.920 -37.135,28.920"
     inkscape:connector-curvature="0"
     id="path738"
     style="fill:#ffffff;fill-opacity:1;fill-rule:nonzero;stroke:none" />
  <path
     d="M 566.398,262.401 166.011,160.862 C 138.143,134.250 166.666,43.788 166.666,43.788 L 126.531,34.880 77.995,83.665 65.774,135.404 50.847,131.619 c -10.347,-2.593 -20.880,3.683 -23.510,14.030 l -7.716,30.470 c -2.630,10.310 3.646,20.870 13.993,23.473 l 16.043,4.070 -21.960,92.954 96.092,24.378 27.581,-91.514 397.830,100.856 c 10.347,2.630 20.843,-3.609 23.473,-13.957 l 7.716,-30.470 c 2.630,-10.384 -3.646,-20.917 -13.993,-23.510"
     inkscape:connector-curvature="0"
     id="path740"
     style="fill:#000000;fill-opacity:1;fill-rule:nonzero;stroke:none" />
</svg>